#N canvas 73 101 120 62 10;
#X obj 312 46 namecanvas \$0-can;
#X obj 312 25 s \$0-can;
#X msg 312 4 donecanvasdialog 1 -1 0;
#X msg 127 1 reduire;
#X obj 1 2 cnv 15 120 52 empty empty frag 2 6 1 8 -262131 -66577 0
;
#X obj 185 26 outlet~;
#X obj 502 15 inlet;
#X obj 502 36 s \$0-setap-snd;
#N canvas 0 250 450 300 guts 0;
#X obj 297 52 apsubmaster \$0 \$1 \$2;
#X obj 297 7 apf \$0 vol \$0-vol;
#X obj 89 252 outlet~;
#X obj 126 159 r \$0-vol-snd;
#X obj 298 28 apf \$0 frag \$0-frag;
#X obj 99 11 inlet;
#N canvas 174 161 778 443 HurloVoice 0;
#N canvas 549 19 450 300 random 0;
#X msg 98 63 len;
#X obj 143 101 random;
#X obj 143 78 t b f;
#X symbolatom 128 215 0 0 0 0 - - -;
#X obj 113 141 pack s s;
#X msg 113 164 list \$2 \$1;
#X obj 113 186 makesymbol %s%s;
#X obj 113 243 outlet;
#X obj 98 42 inlet;
#X obj 148 40 r \$0-colleclist;
#X obj 98 85 slist;
#X msg 267 46 print;
#X obj 177 140 r \$3-cri_dir;
#X obj 144 121 + 1;
#X connect 0 0 10 0;
#X connect 1 0 13 0;
#X connect 2 0 1 0;
#X connect 2 1 1 1;
#X connect 4 0 5 0;
#X connect 5 0 6 0;
#X connect 6 0 7 0;
#X connect 8 0 0 0;
#X connect 9 0 10 0;
#X connect 10 1 4 0;
#X connect 10 2 2 0;
#X connect 11 0 10 0;
#X connect 12 0 4 1;
#X connect 13 0 10 0;
#X restore 101 103 pd random;
#X obj 100 79 t b b;
#X obj 101 221 sfread~ 1 68;
#X msg 101 201 open \$1 \, bang;
#X obj 101 181 symbol;
#X obj 101 124 t b s;
#X obj 101 145 del 3;
#X obj 402 165 i;
#X obj 402 185 change -1;
#X msg 381 311 label \$1;
#X obj 381 331 s \$0-frag-rcv;
#X obj 383 4 r \$0-frag-snd;
#X obj 402 124 f;
#X msg 432 228 get \$1;
#X obj 381 270 pack f s;
#X obj 381 292 makesymbol %s:%s;
#X obj 402 208 t f f;
#X msg 521 364 setlist \$1;
#X obj 521 323 pack f s;
#X obj 521 281 t b s;
#X obj 521 385 s \$0-colleclist;
#X obj 383 80 t b f;
#X obj 100 21 inlet;
#X obj 100 251 outlet~;
#X obj 100 50 spigot;
#X obj 31 235 switch~;
#X obj 288 84 f;
#X obj 383 57 spigot;
#X obj 383 25 t f f;
#X obj 288 63 != 0;
#X obj 486 4 init 0;
#X obj 383 101 del 20;
#X msg 545 189 print;
#X floatatom 342 226 5 0 0 0 - - -;
#X obj 432 249 sarray \$3-collecnames;
#X floatatom 249 167 5 0 0 0 - - -;
#X obj 400 364 outlet;
#X obj 317 160 == 0;
#X obj 521 302 f \$3;
#X obj 402 145 * 128.9;
#X obj 521 343 makesymbol %s-%s-choix;
#X obj 193 328 print;
#X connect 0 0 5 0;
#X connect 1 0 0 0;
#X connect 2 0 23 0;
#X connect 3 0 2 0;
#X connect 4 0 3 0;
#X connect 5 0 6 0;
#X connect 5 1 4 1;
#X connect 6 0 4 0;
#X connect 7 0 8 0;
#X connect 8 0 16 0;
#X connect 9 0 10 0;
#X connect 9 0 36 0;
#X connect 11 0 28 0;
#X connect 12 0 39 0;
#X connect 13 0 34 0;
#X connect 14 0 15 0;
#X connect 15 0 9 0;
#X connect 16 0 14 0;
#X connect 16 0 33 0;
#X connect 16 1 13 0;
#X connect 17 0 20 0;
#X connect 18 0 40 0;
#X connect 19 0 38 0;
#X connect 19 1 18 1;
#X connect 21 0 31 0;
#X connect 21 1 12 1;
#X connect 22 0 24 0;
#X connect 24 0 1 0;
#X connect 26 0 24 1;
#X connect 26 0 25 0;
#X connect 26 0 27 1;
#X connect 26 0 35 0;
#X connect 27 0 21 0;
#X connect 28 0 27 0;
#X connect 28 1 29 0;
#X connect 28 1 37 0;
#X connect 29 0 26 0;
#X connect 30 0 28 0;
#X connect 31 0 12 0;
#X connect 32 0 34 0;
#X connect 34 0 14 1;
#X connect 34 0 19 0;
#X connect 38 0 18 0;
#X connect 39 0 7 0;
#X connect 40 0 17 0;
#X restore 98 113 pd HurloVoice;
#X obj 237 162 outlet;
#N canvas 416 218 292 237 seuil 0;
#X obj 19 15 inlet;
#X obj 19 184 outlet;
#X obj 56 72 -;
#X obj 56 93 abs;
#X obj 56 115 > 0.1;
#X obj 19 137 spigot;
#X obj 19 157 t f f;
#X obj 19 48 t f f;
#X connect 0 0 7 0;
#X connect 2 0 3 0;
#X connect 3 0 4 0;
#X connect 4 0 5 1;
#X connect 5 0 6 0;
#X connect 6 0 1 0;
#X connect 6 1 2 1;
#X connect 7 0 5 0;
#X connect 7 1 2 0;
#X restore 98 32 pd seuil;
#X obj 98 53 t b b;
#X msg 164 140 0;
#X obj 126 181 m 1;
#X floatatom 202 216 5 0 0 0 - - -;
#X msg 135 140 1;
#X obj 98 200 mull~ 0 10;
#X obj 98 77 del 10;
#X connect 3 0 11 0;
#X connect 5 0 8 0;
#X connect 6 0 14 0;
#X connect 6 1 7 0;
#X connect 8 0 9 0;
#X connect 9 0 15 0;
#X connect 9 1 10 0;
#X connect 10 0 11 1;
#X connect 11 0 14 1;
#X connect 13 0 11 1;
#X connect 14 0 2 0;
#X connect 15 0 13 0;
#X connect 15 0 6 0;
#X restore 126 27 pd guts;
#X obj 70 15 mknob 15 100 0 1 0 0 \$0-vol-snd \$0-vol-rcv vol -2 -6
193 8 -258699 -1 -1 0 1;
#X obj 13 40 hsl 100 10 0 1 0 0 \$0-frag-snd \$0-frag-rcv 7:crr -2
-6 0 8 -195568 -1 -1 0 1;
#X obj 186 0 inlet;
#X obj 249 29 outlet;
#X connect 2 0 1 0;
#X connect 3 0 2 0;
#X connect 6 0 7 0;
#X connect 8 0 5 0;
#X connect 8 1 12 0;
#X connect 11 0 8 0;
#X coords 0 0 1 1 122 56 1;
