#N canvas 481 143 406 419 10;
#X obj 53 274 namecanvas \$0-caninstru;
#X obj 8 295 s \$0-caninstru;
#X obj 9 252 r \$0-visu;
#X msg 9 274 vis 1;
#X obj 11 187 apmaster \$0;
#X obj 11 170 bng 15 250 50 0 empty empty empty 0 -6 0 8 -24198 -1
-1;
#X obj 83 169 bng 15 250 50 0 empty empty empty 0 -6 0 8 -258699 -1
-1;
#X obj 11 217 bng 12 250 50 0 \$0-save_file_patt-snd \$0-save_file_patt-rcv
10.11.12.13.14.15.16 122 -6 1 6 -258699 -1 -262144;
#X obj 25 217 hradio 12 1 0 16 \$0-file_patt_but-snd \$0-file_patt_but-rcv
_1._2._3_4._5._6_7._8.9.10.11.12.13.14.15.16 0 -6 2 9 -262144 -1 -1
0;
#N canvas 628 101 443 334 file_patt_but 0;
#X msg 27 31 \$1;
#X obj 203 36 tgl 15 0 empty empty empty 0 -6 0 8 -262144 -1 -1 0 1
;
#X obj 203 67 sel 0 1;
#X msg 203 88 color 0 22 22;
#X msg 226 112 color 13 22 22;
#X obj 71 88 demux;
#X obj 101 112 t f f b;
#X msg 145 134 0;
#X obj 99 212 s \$0-pattern-snd;
#X obj 27 11 r \$0-file_patt_but-snd;
#X obj 203 10 r \$0-save_file_patt-snd;
#X msg 20 165 _apfile_ load \$1;
#X msg 148 165 _apfile_ store \$1;
#X obj 203 138 s \$0-file_patt_but-rcv;
#X symbolatom 237 306 0 0 0 0 - - -;
#X obj 249 286 s \$0-apmaster-rcv;
#X msg 249 266 loadin;
#X obj 237 202 r \$0-_apfile_-snd;
#X obj 249 245 del 50;
#X obj 249 226 b;
#X connect 0 0 5 0;
#X connect 1 0 2 0;
#X connect 1 0 5 1;
#X connect 2 0 3 0;
#X connect 2 1 4 0;
#X connect 3 0 13 0;
#X connect 4 0 13 0;
#X connect 5 0 11 0;
#X connect 5 1 6 0;
#X connect 6 1 12 0;
#X connect 6 2 7 0;
#X connect 7 0 1 0;
#X connect 9 0 0 0;
#X connect 10 0 1 0;
#X connect 11 0 8 0;
#X connect 12 0 8 0;
#X connect 16 0 15 0;
#X connect 17 0 14 0;
#X connect 17 0 19 0;
#X connect 18 0 16 0;
#X connect 19 0 18 0;
#X restore 10 231 pd file_patt_but;
#X obj 238 245 tgl 20 1 \$0-on-snd \$0-on-rcv empty 0 -6 0 8 -258699
-1 -1 1 1;
#X obj 237 225 r \$0-onoff;
#X obj 325 294 s \$0-voxvol;
#X obj 325 221 mknob 25 100 0 1 0 1 \$0-vol-snd \$0-vol-rcv vol -2
-6 193 10 -258699 -1 -1 3200 1;
#X obj 238 271 switch~;
#X obj 325 251 pow 2;
#X obj 325 272 * 4;
#N canvas 40 300 150 170 master 0;
#X obj 16 7 catch~ \$0-out;
#X obj 16 137 busrme 2;
#X obj 53 110 line~;
#X obj 17 109 *~;
#X obj 53 34 r \$0-voxvol;
#X msg 53 86 \$1 1;
#X obj 53 63 m 1;
#X connect 0 0 3 0;
#X connect 2 0 3 1;
#X connect 3 0 1 0;
#X connect 4 0 6 0;
#X connect 5 0 2 0;
#X connect 6 0 5 0;
#X restore 11 50 pd master;
#N canvas 162 172 579 566 apfs 0;
#X obj 192 63 l apf \$0 vol \$0-vol;
#X obj 203 13 l apsym \$0 file \$0-file 2;
#X obj 195 97 l apf \$0 speed \$0-speed;
#X restore 240 293 pd apfs;
#X obj 6 354 pattern-ctl \$0;
#X obj 7 316 * 13.2;
#X obj 6 335 speedlim 100;
#X obj 237 87 Out -;
#X msg 236 8 0 \, 1;
#X obj 236 27 apFrag \$0 frag1 \$1;
#N canvas 9 317 101 246 Interface 0;
#X obj 37 200 tgl 30 0 \$0-s1-snd \$0-s1-rcv 1 13 15 1 10 -262144 -1
-1 0 1;
#X obj 37 169 tgl 30 0 \$0-s2-snd \$0-s2-rcv 2 13 15 1 10 -262144 -1
-1 0 1;
#X obj 37 138 tgl 30 0 \$0-s3-snd \$0-s3-rcv 3 13 15 1 10 -262144 -1
-1 0 1;
#X obj 22 107 tgl 30 0 \$0-s4-snd \$0-s4-rcv 4 13 15 1 10 -262144 -1
-1 0 1;
#X obj 53 107 tgl 30 0 \$0-s5-snd \$0-s5-rcv 5 13 15 1 10 -262144 -1
-1 0 1;
#X obj 38 76 tgl 30 0 \$0-s6-snd \$0-s6-rcv 6 13 15 1 10 -262144 -1
-1 0 1;
#X obj 107 261 tgl 30 0 \$0-s7-snd \$0-s7-rcv 7 13 15 1 10 -262144
-1 -1 0 1;
#X obj 133 264 tgl 30 0 \$0-s8-snd \$0-s8-rcv 8 13 15 1 10 -262144
-1 -1 0 1;
#X obj 166 264 tgl 30 0 \$0-s9-snd \$0-s9-rcv 9 13 15 1 10 -262144
-1 -1 0 1;
#X obj 23 45 tgl 30 0 \$0-c+-snd \$0-c+-rcv c+ 10 15 1 10 -262131 -1
-1 0 1;
#X obj 37 254 tgl 30 0 \$0-c--snd \$0-c--rcv c- 10 15 1 10 -262131
-1 -1 0 1;
#X obj 54 45 tgl 30 0 \$0-i+-snd \$0-i+-rcv i+ 10 15 1 10 -225271 -1
-1 0 1;
#X obj 73 254 tgl 30 0 \$0-i--snd \$0-i--rcv i- 10 15 1 10 -225271
-1 -1 0 1;
#X obj 23 14 tgl 30 0 \$0-e1-snd \$0-e1-rcv e1 10 15 1 10 -228992 -1
-1 0 1;
#X obj 54 14 tgl 30 0 \$0-e2-snd \$0-e2-rcv e2 10 15 1 10 -228992 -1
-1 0 1;
#X restore 11 12 pd Interface;
#N canvas 9 0 645 555 interfguts 0;
#X obj 57 14 dispatch \$0-s 1 9;
#X obj 384 3 keyname;
#X obj 531 126 s2f;
#X obj 384 28 pack f s;
#X msg 384 79 \$2 \$1;
#X obj 531 105 unpack s f;
#X obj 531 147 sel 0;
#X obj 561 171 pack f f;
#X obj 561 192 s \$0-s-rcv;
#X obj 384 102 route + - * /;
#X obj 427 144 s \$0-c+-rcv;
#X obj 448 124 s \$0-c--rcv;
#X obj 384 186 s \$0-i+-rcv;
#X obj 405 164 s \$0-i--rcv;
#X obj 55 151 unpack f f;
#X obj 55 48 r \$0-s-snd;
#X msg 55 69 \$2 \$1;
#X obj 55 90 route 1;
#X obj 55 111 tabread \$0-sons;
#N canvas 0 0 152 138 int_unpack 0;
#X obj 15 15 inlet;
#X obj 15 59 mod 1000;
#X obj 79 59 div 1000;
#X obj 15 36 t f f;
#X obj 15 103 outlet;
#X obj 15 81 pack f f;
#X connect 0 0 3 0;
#X connect 1 0 5 0;
#X connect 2 0 5 1;
#X connect 3 0 1 0;
#X connect 3 1 2 0;
#X connect 5 0 4 0;
#X restore 55 131 pd int_unpack;
#N canvas 0 0 152 138 int_pack 0;
#X obj 15 15 inlet;
#X obj 15 59 mod 1000;
#X obj 15 103 outlet;
#X obj 15 35 unpack f f;
#X obj 80 58 * 1000;
#X obj 15 81 +;
#X connect 0 0 3 0;
#X connect 1 0 5 0;
#X connect 3 0 1 0;
#X connect 3 1 4 0;
#X connect 4 0 5 1;
#X connect 5 0 2 0;
#X restore 53 304 pd int_pack;
#X obj 53 281 pack f f;
#X obj 194 272 t b f;
#X obj 53 252 +;
#X obj 79 252 f;
#X msg 22 232 1;
#X msg 62 231 -1;
#X msg 94 232 0;
#X obj 194 252 +;
#X obj 220 252 f;
#X msg 165 231 1;
#X msg 205 230 -1;
#X obj 22 171 r \$0-i+-snd;
#X obj 63 193 r \$0-i--snd;
#X obj 205 189 r \$0-c--snd;
#X obj 165 169 r \$0-c+-snd;
#X obj 22 193 sel 1;
#X obj 62 212 sel 1;
#X obj 165 190 sel 1;
#X obj 205 209 sel 1;
#X obj 389 225 r \$0-s-snd;
#X msg 404 280 \$2 \$1;
#X obj 404 304 route 1;
#X msg 461 324 1;
#X obj 454 369 t f b;
#X msg 491 324 0;
#X obj 461 304 t b f;
#X obj 525 381 f;
#X obj 454 392 pack f f;
#X obj 454 418 s \$0-sons;
#X obj 53 325 s \$0-selson;
#X obj 481 221 r \$0-selson;
#X obj 424 347 demux;
#X obj 389 439 s \$0-splay;
#X msg 412 382 1 \$1;
#X obj 481 266 s \$0-preview;
#X obj 202 329 r \$0-i--rcv;
#X obj 194 308 r \$0-i+-rcv;
#X obj 284 309 r \$0-c+-rcv;
#X obj 292 332 r \$0-c--rcv;
#X obj 284 373 |;
#X obj 292 352 t b f;
#X obj 238 477 tgl 15 0 empty empty empty 0 -6 0 8 -262144 -1 -1 0
1;
#X obj 194 370 |;
#X obj 202 349 t b f;
#X obj 284 393 change;
#X obj 194 389 change;
#X obj 246 416 t b f;
#X obj 238 437 &;
#X obj 238 457 change;
#X obj 120 447 sel 1;
#X obj 120 467 t b b;
#X obj 120 489 f;
#X obj 148 489 + 1;
#X msg 179 489 0;
#X floatatom 50 507 5 0 0 0 - - -;
#X obj 179 469 del 300;
#X obj 176 511 s \$0-MRtabreset;
#X floatatom 89 371 5 0 0 0 - - -;
#X obj 120 510 moses 3;
#X obj 523 304 r \$0-MRtabreset;
#X obj 523 326 del 20;
#X obj 384 49 spigot;
#X obj 495 192 bng 15 250 50 0 empty empty empty 0 -6 0 8 -262144 -1
-1;
#X obj 389 247 t a a;
#X obj 453 25 inlet;
#X text 450 12 keyb;
#X connect 1 0 3 0;
#X connect 1 1 3 1;
#X connect 2 0 6 0;
#X connect 3 0 82 0;
#X connect 4 0 9 0;
#X connect 5 0 2 0;
#X connect 5 1 7 1;
#X connect 6 1 7 0;
#X connect 7 0 8 0;
#X connect 9 0 12 0;
#X connect 9 1 13 0;
#X connect 9 2 10 0;
#X connect 9 3 11 0;
#X connect 9 4 5 0;
#X connect 14 0 24 0;
#X connect 14 1 29 0;
#X connect 14 1 21 1;
#X connect 15 0 16 0;
#X connect 16 0 17 0;
#X connect 17 0 18 0;
#X connect 18 0 19 0;
#X connect 19 0 14 0;
#X connect 20 0 50 0;
#X connect 20 0 78 0;
#X connect 21 0 20 0;
#X connect 22 0 27 0;
#X connect 22 1 21 1;
#X connect 23 0 24 0;
#X connect 23 0 21 0;
#X connect 24 0 23 1;
#X connect 25 0 23 0;
#X connect 26 0 23 0;
#X connect 27 0 23 0;
#X connect 28 0 29 0;
#X connect 28 0 22 0;
#X connect 29 0 28 1;
#X connect 30 0 28 0;
#X connect 31 0 28 0;
#X connect 32 0 36 0;
#X connect 33 0 37 0;
#X connect 34 0 39 0;
#X connect 35 0 38 0;
#X connect 36 0 25 0;
#X connect 37 0 26 0;
#X connect 38 0 30 0;
#X connect 39 0 31 0;
#X connect 40 0 84 0;
#X connect 41 0 42 0;
#X connect 42 0 52 0;
#X connect 43 0 52 1;
#X connect 44 0 48 0;
#X connect 44 1 45 0;
#X connect 45 0 52 1;
#X connect 46 0 43 0;
#X connect 46 1 47 1;
#X connect 46 1 48 1;
#X connect 48 0 49 0;
#X connect 51 0 55 0;
#X connect 51 0 46 0;
#X connect 52 1 44 0;
#X connect 56 0 64 0;
#X connect 57 0 63 0;
#X connect 58 0 60 0;
#X connect 59 0 61 0;
#X connect 60 0 65 0;
#X connect 61 0 60 0;
#X connect 61 1 60 1;
#X connect 63 0 66 0;
#X connect 64 0 63 0;
#X connect 64 1 63 1;
#X connect 65 0 67 0;
#X connect 66 0 68 0;
#X connect 67 0 68 0;
#X connect 67 1 68 1;
#X connect 68 0 69 0;
#X connect 69 0 62 0;
#X connect 70 0 71 0;
#X connect 71 0 72 0;
#X connect 71 1 76 0;
#X connect 72 0 73 0;
#X connect 72 0 75 0;
#X connect 72 0 79 0;
#X connect 73 0 72 1;
#X connect 74 0 72 1;
#X connect 76 0 74 0;
#X connect 79 1 77 0;
#X connect 80 0 81 0;
#X connect 81 0 45 0;
#X connect 82 0 4 0;
#X connect 84 0 53 0;
#X connect 84 1 41 0;
#X connect 85 0 82 1;
#X restore 11 31 pd interfguts;
#X obj 10 70 table \$0-sons 10;
#X obj 238 124 tabread \$0-sons;
#X floatatom 238 107 5 0 0 0 - - -;
#X floatatom 238 144 5 0 0 0 - - -;
#N canvas 188 0 246 301 random-init 0;
#X obj 55 88 for++ 0 9;
#X obj 55 111 t f b b;
#X obj 55 186 pack f f;
#X obj 55 209 s \$0-sons;
#X obj 77 137 random 30;
#X obj 149 138 random 30;
#X obj 149 158 * 1000;
#X obj 77 160 +;
#X obj 55 62 bng 15 250 50 0 empty empty empty 0 -6 0 8 -262144 -1
-1;
#X obj 55 16 loadbang;
#X obj 55 40 del 100;
#X connect 0 0 1 0;
#X connect 1 0 2 0;
#X connect 1 1 4 0;
#X connect 1 2 5 0;
#X connect 2 0 3 0;
#X connect 4 0 7 0;
#X connect 5 0 6 0;
#X connect 6 0 7 1;
#X connect 7 0 2 1;
#X connect 8 0 0 0;
#X connect 9 0 10 0;
#X connect 10 0 8 0;
#X restore 129 71 pd random-init;
#X obj 74 94 table \$0-collecs;
#X obj 10 134 s \$0-collecs;
#X obj 10 92 loadbang;
#X msg 10 113 0 6 69 70 78 79 87 97;
#N canvas 0 0 253 384 players 0;
#X obj 132 136 throw~ \$0-out;
#N canvas 169 0 568 475 hurlo 0;
#X obj 245 180 i;
#X obj 245 200 change -1;
#X msg 296 222 get \$1;
#X obj 245 264 pack f s;
#X obj 245 286 makesymbol %s:%s;
#X obj 245 223 t f f;
#X msg 390 358 setlist \$1;
#X obj 390 317 pack f s;
#X obj 390 275 t b s;
#X obj 390 378 s \$0-colleclist;
#X msg 388 204 print;
#X obj 390 337 makesymbol %s-%s-choix;
#X symbolatom 245 306 10 0 0 0 - - -;
#X obj 296 243 sarray \$1-collecnames;
#X floatatom 245 160 5 0 0 0 - - -;
#X obj 390 297 f \$1;
#X msg 56 226 len;
#X symbolatom 71 338 0 0 0 0 - - -;
#X obj 71 270 pack s s;
#X msg 71 293 list \$2 \$1;
#X obj 71 315 makesymbol %s%s;
#X obj 85 226 r \$0-colleclist;
#X obj 56 249 slist;
#X obj 135 269 r \$1-cri_dir;
#X obj 26 227 mod;
#X obj 26 205 t f b;
#X floatatom 26 184 5 0 0 0 - - -;
#X obj 286 76 tabread \$0-collecs;
#X obj 245 140 tabread \$0-collecs;
#X obj 245 54 t f b;
#X obj 245 98 mod;
#X msg 286 55 0;
#X obj 245 119 + 1;
#X floatatom 245 36 5 0 0 0 - - -;
#X obj 26 8 inlet;
#X obj 26 32 unpack f f;
#X text 65 9 index collec;
#X obj 18 341 outlet;
#X obj 26 247 + 1;
#X connect 0 0 1 0;
#X connect 1 0 5 0;
#X connect 2 0 13 0;
#X connect 3 0 4 0;
#X connect 4 0 12 0;
#X connect 5 0 3 0;
#X connect 5 1 2 0;
#X connect 6 0 9 0;
#X connect 7 0 11 0;
#X connect 8 0 15 0;
#X connect 8 1 7 1;
#X connect 10 0 13 0;
#X connect 11 0 6 0;
#X connect 13 0 3 1;
#X connect 13 0 8 0;
#X connect 14 0 0 0;
#X connect 15 0 7 0;
#X connect 16 0 22 0;
#X connect 18 0 19 0;
#X connect 19 0 20 0;
#X connect 20 0 17 0;
#X connect 20 0 37 0;
#X connect 21 0 22 0;
#X connect 22 1 18 0;
#X connect 22 2 24 1;
#X connect 23 0 18 1;
#X connect 24 0 38 0;
#X connect 25 0 24 0;
#X connect 25 1 16 0;
#X connect 26 0 25 0;
#X connect 27 0 30 1;
#X connect 28 0 14 0;
#X connect 29 0 30 0;
#X connect 29 1 31 0;
#X connect 30 0 32 0;
#X connect 31 0 27 0;
#X connect 32 0 28 0;
#X connect 33 0 29 0;
#X connect 34 0 35 0;
#X connect 35 0 26 0;
#X connect 35 1 33 0;
#X connect 38 0 22 0;
#X restore 133 73 pd hurlo;
#X obj 133 115 sfread~ 1 68;
#X msg 133 95 open \$1 \, bang;
#N canvas 0 0 152 138 int_unpack 0;
#X obj 15 15 inlet;
#X obj 15 59 mod 1000;
#X obj 79 59 div 1000;
#X obj 15 36 t f f;
#X obj 15 103 outlet;
#X obj 15 81 pack f f;
#X connect 0 0 3 0;
#X connect 1 0 5 0;
#X connect 2 0 5 1;
#X connect 3 0 1 0;
#X connect 3 1 2 0;
#X connect 5 0 4 0;
#X restore 133 52 pd int_unpack;
#X obj 12 53 unpack f f;
#X obj 12 118 tabread \$0-sons;
#X obj 12 11 r \$0-splay;
#X obj 133 10 r \$0-preview;
#X obj 133 31 t f b;
#N canvas 169 0 568 475 hurlo 0;
#X obj 245 180 i;
#X obj 245 200 change -1;
#X msg 296 222 get \$1;
#X obj 245 264 pack f s;
#X obj 245 286 makesymbol %s:%s;
#X obj 245 223 t f f;
#X msg 390 358 setlist \$1;
#X obj 390 317 pack f s;
#X obj 390 275 t b s;
#X obj 390 378 s \$0-colleclist;
#X msg 388 204 print;
#X obj 390 337 makesymbol %s-%s-choix;
#X symbolatom 245 306 10 0 0 0 - - -;
#X obj 296 243 sarray \$1-collecnames;
#X floatatom 245 160 5 0 0 0 - - -;
#X obj 390 297 f \$1;
#X msg 56 226 len;
#X symbolatom 71 338 0 0 0 0 - - -;
#X obj 71 270 pack s s;
#X msg 71 293 list \$2 \$1;
#X obj 71 315 makesymbol %s%s;
#X obj 85 226 r \$0-colleclist;
#X obj 56 249 slist;
#X obj 135 269 r \$1-cri_dir;
#X obj 26 227 mod;
#X obj 26 205 t f b;
#X floatatom 26 184 5 0 0 0 - - -;
#X obj 286 76 tabread \$0-collecs;
#X obj 245 140 tabread \$0-collecs;
#X obj 245 54 t f b;
#X obj 245 98 mod;
#X msg 286 55 0;
#X obj 245 119 + 1;
#X floatatom 245 36 5 0 0 0 - - -;
#X obj 26 8 inlet;
#X obj 26 32 unpack f f;
#X text 65 9 index collec;
#X obj 18 341 outlet;
#X obj 26 247 + 1;
#X symbolatom 49 404 10 0 0 0 - - -;
#X connect 0 0 1 0;
#X connect 1 0 5 0;
#X connect 2 0 13 0;
#X connect 3 0 4 0;
#X connect 4 0 12 0;
#X connect 5 0 3 0;
#X connect 5 1 2 0;
#X connect 6 0 9 0;
#X connect 7 0 11 0;
#X connect 8 0 15 0;
#X connect 8 1 7 1;
#X connect 10 0 13 0;
#X connect 11 0 6 0;
#X connect 13 0 3 1;
#X connect 13 0 8 0;
#X connect 14 0 0 0;
#X connect 15 0 7 0;
#X connect 16 0 22 0;
#X connect 18 0 19 0;
#X connect 19 0 20 0;
#X connect 20 0 17 0;
#X connect 20 0 37 0;
#X connect 21 0 22 0;
#X connect 22 1 18 0;
#X connect 22 2 24 1;
#X connect 23 0 18 1;
#X connect 24 0 38 0;
#X connect 25 0 24 0;
#X connect 25 1 16 0;
#X connect 26 0 25 0;
#X connect 27 0 30 1;
#X connect 28 0 14 0;
#X connect 29 0 30 0;
#X connect 29 1 31 0;
#X connect 30 0 32 0;
#X connect 31 0 27 0;
#X connect 32 0 28 0;
#X connect 33 0 29 0;
#X connect 34 0 35 0;
#X connect 35 0 26 0;
#X connect 35 1 33 0;
#X connect 38 0 22 0;
#X restore 12 159 pd hurlo;
#N canvas 0 0 152 138 int_unpack 0;
#X obj 15 15 inlet;
#X obj 15 59 mod 1000;
#X obj 79 59 div 1000;
#X obj 15 36 t f f;
#X obj 15 103 outlet;
#X obj 15 81 pack f f;
#X connect 0 0 3 0;
#X connect 1 0 5 0;
#X connect 2 0 5 1;
#X connect 3 0 1 0;
#X connect 3 1 2 0;
#X connect 5 0 4 0;
#X restore 12 139 pd int_unpack;
#X obj 12 206 demux 0 1 2 3 4 5;
#X msg 12 32 \$2 \$1;
#X obj 90 54 - 1;
#X obj 12 97 f;
#X obj 12 75 sel 1;
#X msg 12 181 open \$1 \, bang \, loop 1;
#X obj 13 349 throw~ \$0-out;
#X obj 12 228 sfread~ 1 68;
#X obj 35 249 sfread~ 1 68;
#X obj 57 271 sfread~ 1 68;
#X obj 80 292 sfread~ 1 68;
#X obj 103 312 sfread~ 1 68;
#X obj 126 333 sfread~ 1 68;
#X symbolatom 145 223 10 0 0 0 - - -;
#X floatatom 66 100 5 0 0 0 - - -;
#X connect 1 0 3 0;
#X connect 2 0 0 0;
#X connect 3 0 2 0;
#X connect 4 0 1 0;
#X connect 5 0 16 0;
#X connect 5 1 14 0;
#X connect 5 1 15 1;
#X connect 6 0 11 0;
#X connect 7 0 13 0;
#X connect 8 0 9 0;
#X connect 9 0 4 0;
#X connect 10 0 17 0;
#X connect 11 0 10 0;
#X connect 12 0 19 0;
#X connect 12 1 20 0;
#X connect 12 2 21 0;
#X connect 12 3 22 0;
#X connect 12 4 23 0;
#X connect 12 5 24 0;
#X connect 13 0 5 0;
#X connect 14 0 12 1;
#X connect 15 0 6 0;
#X connect 16 0 15 0;
#X connect 16 1 12 0;
#X connect 17 0 12 0;
#X connect 19 0 18 0;
#X connect 20 0 18 0;
#X connect 21 0 18 0;
#X connect 22 0 18 0;
#X connect 23 0 18 0;
#X connect 24 0 18 0;
#X restore 81 50 pd players;
#X obj 109 33 tgl 15 0 empty empty keyboard 0 -6 1 8 -241291 -1 -1
0 1;
#X connect 2 0 3 0;
#X connect 3 0 1 0;
#X connect 5 0 4 0;
#X connect 6 0 4 1;
#X connect 10 0 14 0;
#X connect 11 0 10 0;
#X connect 13 0 15 0;
#X connect 15 0 16 0;
#X connect 16 0 12 0;
#X connect 20 0 21 0;
#X connect 21 0 19 0;
#X connect 23 0 24 0;
#X connect 24 0 22 0;
#X connect 24 0 22 1;
#X connect 28 0 30 0;
#X connect 29 0 28 0;
#X connect 34 0 35 0;
#X connect 35 0 33 0;
#X connect 37 0 26 0;
