#N canvas 388 111 479 469 10;
#X obj 309 419 namecanvas \$0-caninstru;
#X obj 264 441 s \$0-caninstru;
#X obj 265 398 r \$0-visu;
#X msg 265 420 vis 1;
#X obj 11 289 apmaster \$0;
#X obj 11 272 bng 15 250 50 0 empty empty empty 0 -6 0 8 -24198 -1
-1;
#X obj 83 271 bng 15 250 50 0 empty empty empty 0 -6 0 8 -258699 -1
-1;
#X obj 11 319 bng 12 250 50 0 \$0-save_file_patt-snd \$0-save_file_patt-rcv
10.11.12.13.14.15.16 122 -6 1 6 -258699 -1 -262144;
#X obj 25 319 hradio 12 1 0 16 \$0-file_patt_but-snd \$0-file_patt_but-rcv
_1._2._3_4._5._6_7._8.9.10.11.12.13.14.15.16 0 -6 2 9 -262144 -1 -1
0;
#N canvas 628 101 443 334 file_patt_but 0;
#X msg 27 31 \$1;
#X obj 203 36 tgl 15 0 empty empty empty 0 -6 0 8 -262144 -1 -1 0 1
;
#X obj 203 67 sel 0 1;
#X msg 203 88 color 0 22 22;
#X msg 226 112 color 13 22 22;
#X obj 71 88 demux;
#X obj 101 112 t f f b;
#X msg 145 134 0;
#X obj 99 212 s \$0-pattern-snd;
#X obj 27 11 r \$0-file_patt_but-snd;
#X obj 203 10 r \$0-save_file_patt-snd;
#X msg 20 165 _apfile_ load \$1;
#X msg 148 165 _apfile_ store \$1;
#X obj 203 138 s \$0-file_patt_but-rcv;
#X symbolatom 237 306 0 0 0 0 - - -;
#X obj 249 286 s \$0-apmaster-rcv;
#X msg 249 266 loadin;
#X obj 237 202 r \$0-_apfile_-snd;
#X obj 249 245 del 50;
#X obj 249 226 b;
#X connect 0 0 5 0;
#X connect 1 0 2 0;
#X connect 1 0 5 1;
#X connect 2 0 3 0;
#X connect 2 1 4 0;
#X connect 3 0 13 0;
#X connect 4 0 13 0;
#X connect 5 0 11 0;
#X connect 5 1 6 0;
#X connect 6 1 12 0;
#X connect 6 2 7 0;
#X connect 7 0 1 0;
#X connect 9 0 0 0;
#X connect 10 0 1 0;
#X connect 11 0 8 0;
#X connect 12 0 8 0;
#X connect 16 0 15 0;
#X connect 17 0 14 0;
#X connect 17 0 19 0;
#X connect 18 0 16 0;
#X connect 19 0 18 0;
#X restore 10 333 pd file_patt_but;
#X obj 279 323 tgl 20 1 \$0-on-snd \$0-on-rcv empty 0 -6 0 8 -258699
-1 -1 1 1;
#X obj 278 303 r \$0-onoff;
#X obj 187 88 s \$0-voxvol;
#X obj 187 14 mknob 25 100 0 1 0 1 \$0-vol-snd \$0-vol-rcv vol -2 -6
193 10 -258699 -1 -1 4200 1;
#X obj 279 349 switch~;
#X obj 187 45 pow 2;
#X obj 187 66 * 4;
#N canvas 63 96 538 424 master 1;
#X obj 108 27 catch~ \$0-out;
#X obj 84 389 busrme 1;
#X obj 117 362 line~;
#X obj 84 358 *~;
#X obj 117 293 r \$0-voxvol;
#X msg 117 340 \$1 1;
#X obj 370 66 r \$0-effet;
#X floatatom 473 56 5 0 0 0 - - -;
#X obj 117 317 m 1;
#X obj 434 118 - 0.51;
#X obj 434 140 / 0.49;
#X obj 434 161 clip 0 1;
#X obj 370 140 - 0.51;
#X obj 370 162 / 0.49;
#X obj 370 183 clip 0 1;
#X obj 370 119 -;
#X msg 370 99 1 \$1;
#X obj 370 203 change;
#X obj 434 181 change;
#X obj 370 223 s \$0-effet1;
#X obj 434 200 s \$0-effet2;
#X obj 211 261 subecho;
#SUB settings 1.51954 0.972072 0.938178;
#N canvas 426 66 394 259 effet1->echo 0;
#X obj 152 20 r \$0-effet1;
#X obj 152 41 f;
#X msg 233 120 vol \$1;
#X obj 249 19 hsl 128 15 0 1 0 0 empty empty empty -2 -6 0 8 -262144
-1 -1 0 1;
#X obj 205 219 outlet;
#X msg 45 153 time \$1;
#X msg 46 71 1 \$1;
#X obj 46 91 -;
#X obj 46 112 * 3;
#X msg 145 146 feed \$1;
#X obj 45 133 + 0.7;
#X obj 146 125 + 0.7;
#X obj 233 98 pow 0.2;
#X obj 145 85 pow 0.2;
#X obj 145 105 * 0.29;
#X obj 84 21 init 0;
#X connect 0 0 1 0;
#X connect 1 0 6 0;
#X connect 1 0 12 0;
#X connect 1 0 13 0;
#X connect 2 0 4 0;
#X connect 3 0 1 0;
#X connect 5 0 4 0;
#X connect 6 0 7 0;
#X connect 7 0 8 0;
#X connect 8 0 10 0;
#X connect 9 0 4 0;
#X connect 10 0 5 0;
#X connect 11 0 9 0;
#X connect 12 0 2 0;
#X connect 13 0 14 0;
#X connect 14 0 11 0;
#X connect 15 0 1 0;
#X restore 209 233 pd effet1->echo;
#X obj 51 212 mtof;
#X floatatom 133 216 7 0.01 1000 0 - - -;
#X text 174 261 Q;
#X obj 51 253 line~;
#X obj 133 260 line~;
#X obj 133 196 init 0.707;
#X floatatom 90 187 5 0 0 0 - - -;
#X obj 25 122 dist~ 1;
#X obj 161 176 bng 15 250 50 0 empty empty empty 0 -6 0 8 -262144 -1
-1;
#X obj 26 283 vcf_lp2~;
#X obj 51 233 pack 0 100;
#X obj 38 308 hip~ 50;
#X floatatom 82 124 5 0 0 0 - - -;
#N canvas 298 335 450 300 effet2->distofilter 0;
#X obj 140 43 r \$0-effet2;
#X obj 106 217 outlet;
#X obj 163 217 outlet;
#X obj 140 66 f;
#X obj 186 16 hsl 128 15 0 1 0 0 empty empty empty -2 -6 0 8 -262144
-1 -1 0 1;
#X obj 106 189 + 1;
#X text 105 234 gain;
#X text 161 236 vol;
#X obj 221 216 outlet;
#X obj 278 216 outlet;
#X text 220 233 freq;
#X text 276 235 Q;
#X obj 159 162 + 2;
#X obj 278 193 + 0.707;
#X obj 278 151 pow 0.5;
#X obj 212 164 + 130;
#X floatatom 170 196 5 0 0 0 - - -;
#X obj 278 173 * 10;
#X obj 106 142 pow 1;
#X obj 106 167 * 20;
#X obj 159 141 * -1.8;
#X obj 212 142 * -70;
#X obj 31 103 pow 0.1;
#X obj 232 91 pow 0.5;
#X obj 84 42 init 0;
#X connect 0 0 3 0;
#X connect 3 0 14 0;
#X connect 3 0 18 0;
#X connect 3 0 22 0;
#X connect 3 0 23 0;
#X connect 4 0 3 0;
#X connect 5 0 1 0;
#X connect 12 0 2 0;
#X connect 12 0 16 0;
#X connect 13 0 9 0;
#X connect 14 0 17 0;
#X connect 15 0 8 0;
#X connect 17 0 13 0;
#X connect 18 0 19 0;
#X connect 19 0 5 0;
#X connect 20 0 12 0;
#X connect 21 0 15 0;
#X connect 22 0 20 0;
#X connect 23 0 21 0;
#X connect 24 0 3 0;
#X restore 62 99 pd effet2->distofilter;
#X obj 133 238 pack 0 20;
#X obj 26 143 mull~ 2 20;
#X obj 293 72 init 0.5;
#X obj 293 51 bng 15 250 50 0 empty empty empty 0 -6 0 8 -262144 -1
-1;
#X obj 371 27 hsl 128 15 0 1 0 0 empty empty empty -2 -6 0 8 -262144
-1 -1 1700 1;
#X obj 367 48 s \$0-effet;
#X connect 0 0 21 0;
#X connect 0 0 30 0;
#X connect 2 0 3 1;
#X connect 3 0 1 0;
#X connect 4 0 8 0;
#X connect 5 0 2 0;
#X connect 6 0 9 0;
#X connect 6 0 16 0;
#X connect 8 0 5 0;
#X connect 9 0 10 0;
#X connect 10 0 11 0;
#X connect 11 0 18 0;
#X connect 12 0 13 0;
#X connect 13 0 14 0;
#X connect 14 0 17 0;
#X connect 15 0 12 0;
#X connect 16 0 15 0;
#X connect 17 0 19 0;
#X connect 18 0 20 0;
#X connect 21 0 3 0;
#X connect 22 0 21 1;
#X connect 23 0 33 0;
#X connect 24 0 37 0;
#X connect 26 0 32 1;
#X connect 27 0 32 2;
#X connect 28 0 24 0;
#X connect 29 0 23 0;
#X connect 30 0 38 0;
#X connect 31 0 28 0;
#X connect 32 0 34 0;
#X connect 33 0 26 0;
#X connect 34 0 3 0;
#X connect 35 0 30 1;
#X connect 36 0 30 1;
#X connect 36 1 38 1;
#X connect 36 2 23 0;
#X connect 36 3 37 0;
#X connect 37 0 27 0;
#X connect 38 0 32 0;
#X connect 39 0 16 0;
#X connect 39 0 9 0;
#X connect 40 0 39 0;
#X connect 41 0 42 0;
#X restore 103 6 pd master;
#N canvas 162 172 461 153 apfs 0;
#X obj 195 97 l apf \$0 speed \$0-speed;
#X obj 192 63 l apf \$0 vol \$0-vol;
#X obj 203 13 l apsym \$0 file \$0-file 2;
#X restore 281 371 pd apfs;
#X obj 3 400 pattern-ctl \$0;
#X obj 4 360 * 13.2;
#X obj 3 379 speedlim 100;
#X obj 134 173 Out -;
#X msg 133 86 0 \, 1;
#X obj 133 110 apFrag \$0 frag1 \$1;
#N canvas 40 302 116 246 Interface 0;
#X obj 37 200 tgl 30 0 \$0-s1-snd \$0-s1-rcv 1 13 15 1 10 -262144 -1
-1 0 1;
#X obj 37 169 tgl 30 0 \$0-s2-snd \$0-s2-rcv 2 13 15 1 10 -262144 -1
-1 0 1;
#X obj 37 138 tgl 30 0 \$0-s3-snd \$0-s3-rcv 3 13 15 1 10 -262144 -1
-1 0 1;
#X obj 22 107 tgl 30 0 \$0-s4-snd \$0-s4-rcv 4 13 15 1 10 -262144 -1
-1 0 1;
#X obj 53 107 tgl 30 0 \$0-s5-snd \$0-s5-rcv 5 13 15 1 10 -262144 -1
-1 0 1;
#X obj 38 76 tgl 30 0 \$0-s6-snd \$0-s6-rcv 6 13 15 1 10 -262144 -1
-1 0 1;
#X obj 107 261 tgl 30 0 \$0-s7-snd \$0-s7-rcv 7 13 15 1 10 -262144
-1 -1 0 1;
#X obj 133 264 tgl 30 0 \$0-s8-snd \$0-s8-rcv 8 13 15 1 10 -262144
-1 -1 0 1;
#X obj 166 264 tgl 30 0 \$0-s9-snd \$0-s9-rcv 9 13 15 1 10 -262144
-1 -1 0 1;
#X obj 23 45 tgl 30 0 \$0-c+-snd \$0-c+-rcv c+ 10 15 1 10 -262131 -1
-1 0 1;
#X obj 37 254 tgl 30 0 \$0-c--snd \$0-c--rcv c- 10 15 1 10 -262131
-1 -1 0 1;
#X obj 54 45 tgl 30 0 \$0-i+-snd \$0-i+-rcv i+ 10 15 1 10 -225271 -1
-1 0 1;
#X obj 73 254 tgl 30 0 \$0-i--snd \$0-i--rcv i- 10 15 1 10 -225271
-1 -1 0 1;
#X obj 23 14 tgl 30 0 \$0-e1-snd \$0-e1-rcv e1 10 15 1 10 -228992 -1
-1 0 1;
#X obj 54 14 tgl 30 0 \$0-e2-snd \$0-e2-rcv e2 10 15 1 10 -228992 -1
-1 0 1;
#X restore 7 7 pd Interface;
#N canvas 9 0 556 634 interfguts 0;
#X obj 39 7 dispatch \$0-s 1 9;
#X obj 289 6 keyname;
#X obj 408 71 s2f;
#X obj 289 31 pack f s;
#X msg 289 72 \$2 \$1;
#X obj 408 50 unpack s f;
#X obj 408 92 sel 0;
#X obj 438 116 pack f f;
#X obj 438 137 s \$0-s-rcv;
#X obj 289 92 route + - * /;
#X obj 332 134 s \$0-c+-rcv;
#X obj 353 114 s \$0-c--rcv;
#X obj 289 176 s \$0-i+-rcv;
#X obj 310 154 s \$0-i--rcv;
#X obj 39 143 unpack f f;
#X obj 39 40 r \$0-s-snd;
#X msg 39 61 \$2 \$1;
#X obj 39 82 route 1;
#X obj 39 103 tabread \$0-sons;
#N canvas 0 0 152 138 int_unpack 0;
#X obj 15 15 inlet;
#X obj 15 59 mod 1000;
#X obj 79 59 div 1000;
#X obj 15 36 t f f;
#X obj 15 103 outlet;
#X obj 15 81 pack f f;
#X connect 0 0 3 0;
#X connect 1 0 5 0;
#X connect 2 0 5 1;
#X connect 3 0 1 0;
#X connect 3 1 2 0;
#X connect 5 0 4 0;
#X restore 39 123 pd int_unpack;
#N canvas 0 0 152 138 int_pack 0;
#X obj 15 15 inlet;
#X obj 15 59 mod 1000;
#X obj 15 103 outlet;
#X obj 15 35 unpack f f;
#X obj 80 58 * 1000;
#X obj 15 81 +;
#X connect 0 0 3 0;
#X connect 1 0 5 0;
#X connect 3 0 1 0;
#X connect 3 1 4 0;
#X connect 4 0 5 1;
#X connect 5 0 2 0;
#X restore 37 296 pd int_pack;
#X obj 37 273 pack f f;
#X obj 178 264 t b f;
#X obj 37 244 +;
#X obj 63 244 f;
#X msg 6 224 1;
#X msg 46 223 -1;
#X msg 78 224 0;
#X obj 178 244 +;
#X obj 204 244 f;
#X msg 149 223 1;
#X msg 189 222 -1;
#X obj 6 163 r \$0-i+-snd;
#X obj 47 185 r \$0-i--snd;
#X obj 189 181 r \$0-c--snd;
#X obj 149 161 r \$0-c+-snd;
#X obj 6 185 sel 1;
#X obj 46 204 sel 1;
#X obj 149 182 sel 1;
#X obj 189 201 sel 1;
#X obj 293 244 r \$0-s-snd;
#X msg 293 267 \$2 \$1;
#X obj 293 288 route 1;
#X msg 365 343 1;
#X obj 358 388 t f b;
#X msg 395 343 0;
#X obj 365 323 t b f;
#X obj 429 400 f;
#X obj 358 411 pack f f;
#X obj 358 437 s \$0-sons;
#X obj 37 317 s \$0-selson;
#X obj 385 240 r \$0-selson;
#X obj 328 366 demux;
#X obj 322 463 s \$0-splay;
#X msg 322 390 1 \$1;
#X obj 385 285 s \$0-preview;
#X obj 78 377 r \$0-i--rcv;
#X obj 70 356 r \$0-i+-rcv;
#X obj 160 357 r \$0-c+-rcv;
#X obj 168 380 r \$0-c--rcv;
#X obj 160 421 |;
#X obj 168 400 t b f;
#X obj 114 525 tgl 15 0 empty empty empty 0 -6 0 8 -262144 -1 -1 0
1;
#X obj 70 418 |;
#X obj 78 397 t b f;
#X obj 160 441 change;
#X obj 70 437 change;
#X obj 122 464 t b f;
#X obj 114 485 &;
#X obj 114 505 change;
#X obj 114 543 sel 1;
#X obj 114 563 t b b;
#X obj 114 585 f;
#X obj 142 585 + 1;
#X msg 173 585 0;
#X floatatom 44 603 5 0 0 0 - - -;
#X obj 170 607 s \$0-MRtabreset;
#X floatatom 21 338 5 0 0 0 - - -;
#X obj 427 323 r \$0-MRtabreset;
#X obj 427 345 del 20;
#X obj 289 52 spigot;
#X obj 369 11 inlet;
#X text 408 11 keyboard;
#X obj 173 565 del 500;
#X obj 114 606 moses 2;
#X connect 1 0 3 0;
#X connect 1 1 3 1;
#X connect 2 0 6 0;
#X connect 3 0 80 0;
#X connect 4 0 9 0;
#X connect 5 0 2 0;
#X connect 5 1 7 1;
#X connect 6 1 7 0;
#X connect 7 0 8 0;
#X connect 9 0 12 0;
#X connect 9 1 13 0;
#X connect 9 2 10 0;
#X connect 9 3 11 0;
#X connect 9 4 5 0;
#X connect 14 0 24 0;
#X connect 14 1 29 0;
#X connect 14 1 21 1;
#X connect 15 0 16 0;
#X connect 16 0 17 0;
#X connect 17 0 18 0;
#X connect 18 0 19 0;
#X connect 19 0 14 0;
#X connect 20 0 50 0;
#X connect 20 0 77 0;
#X connect 21 0 20 0;
#X connect 22 0 27 0;
#X connect 22 1 21 1;
#X connect 23 0 24 0;
#X connect 23 0 21 0;
#X connect 24 0 23 1;
#X connect 25 0 23 0;
#X connect 26 0 23 0;
#X connect 27 0 23 0;
#X connect 28 0 29 0;
#X connect 28 0 22 0;
#X connect 29 0 28 1;
#X connect 30 0 28 0;
#X connect 31 0 28 0;
#X connect 32 0 36 0;
#X connect 33 0 37 0;
#X connect 34 0 39 0;
#X connect 35 0 38 0;
#X connect 36 0 25 0;
#X connect 37 0 26 0;
#X connect 38 0 30 0;
#X connect 39 0 31 0;
#X connect 40 0 41 0;
#X connect 41 0 42 0;
#X connect 42 0 52 0;
#X connect 42 1 53 0;
#X connect 43 0 52 1;
#X connect 44 0 48 0;
#X connect 44 1 45 0;
#X connect 45 0 52 1;
#X connect 46 0 43 0;
#X connect 46 1 47 1;
#X connect 46 1 48 1;
#X connect 48 0 49 0;
#X connect 51 0 46 0;
#X connect 51 0 55 0;
#X connect 52 0 54 0;
#X connect 52 1 44 0;
#X connect 54 0 53 0;
#X connect 56 0 64 0;
#X connect 57 0 63 0;
#X connect 58 0 60 0;
#X connect 59 0 61 0;
#X connect 60 0 65 0;
#X connect 61 0 60 0;
#X connect 61 1 60 1;
#X connect 62 0 70 0;
#X connect 63 0 66 0;
#X connect 64 0 63 0;
#X connect 64 1 63 1;
#X connect 65 0 67 0;
#X connect 66 0 68 0;
#X connect 67 0 68 0;
#X connect 67 1 68 1;
#X connect 68 0 69 0;
#X connect 69 0 62 0;
#X connect 70 0 71 0;
#X connect 71 0 72 0;
#X connect 71 1 83 0;
#X connect 72 0 73 0;
#X connect 72 0 75 0;
#X connect 72 0 84 0;
#X connect 73 0 72 1;
#X connect 74 0 72 1;
#X connect 78 0 79 0;
#X connect 79 0 45 0;
#X connect 80 0 4 0;
#X connect 81 0 80 1;
#X connect 83 0 74 0;
#X connect 84 1 76 0;
#X restore 6 28 pd interfguts;
#X obj 6 54 table \$0-sons 10;
#X obj 6 114 tabread \$0-sons;
#X floatatom 6 95 5 0 0 0 - - -;
#X floatatom 6 134 5 0 0 0 - - -;
#N canvas 0 0 253 248 random-init 0;
#X obj 55 92 for++ 0 9;
#X obj 55 115 t f b b;
#X obj 55 190 pack f f;
#X obj 55 213 s \$0-sons;
#X obj 77 141 random 30;
#X obj 149 142 random 30;
#X obj 149 162 * 1000;
#X obj 77 164 +;
#X obj 55 66 bng 15 250 50 0 empty empty empty 0 -6 0 8 -262144 -1
-1;
#X obj 55 16 loadbang;
#X obj 176 223 print;
#X obj 55 39 del 100;
#X connect 0 0 1 0;
#X connect 1 0 2 0;
#X connect 1 1 4 0;
#X connect 1 2 5 0;
#X connect 2 0 3 0;
#X connect 4 0 7 0;
#X connect 5 0 6 0;
#X connect 6 0 7 1;
#X connect 7 0 2 1;
#X connect 8 0 0 0;
#X connect 9 0 11 0;
#X connect 11 0 8 0;
#X restore 6 74 pd random-init;
#X obj 5 151 table \$0-collecs;
#X obj 5 214 s \$0-collecs;
#X obj 5 172 loadbang;
#X msg 5 193 0 18 0 1 2 3 4 7 8 9 10 11 12 13 14 15 16 17 18 19;
#N canvas 0 0 656 338 recorder-player 0;
#X obj 297 281 throw~ \$0-out;
#N canvas 146 39 630 448 hurlo 0;
#X obj 343 216 i;
#X obj 343 236 change -1;
#X msg 394 258 get \$1;
#X obj 343 300 pack f s;
#X obj 343 322 makesymbol %s:%s;
#X obj 343 259 t f f;
#X msg 468 390 setlist \$1;
#X obj 468 349 pack f s;
#X obj 468 307 t b s;
#X obj 468 410 s \$0-colleclist;
#X msg 448 255 print;
#X obj 468 369 makesymbol %s-%s-choix;
#X symbolatom 343 342 10 0 0 0 - - -;
#X obj 394 279 sarray \$1-collecnames;
#X floatatom 343 196 5 0 0 0 - - -;
#X obj 468 329 f \$1;
#X msg 60 102 len;
#X symbolatom 75 214 0 0 0 0 - - -;
#X obj 75 146 pack s s;
#X msg 75 169 list \$2 \$1;
#X obj 75 191 makesymbol %s%s;
#X obj 89 102 r \$0-colleclist;
#X obj 60 125 slist;
#X obj 139 145 r \$1-cri_dir;
#X obj 30 103 mod;
#X obj 30 81 t f b;
#X floatatom 30 60 5 0 0 0 - - -;
#X obj 384 112 tabread \$0-collecs;
#X obj 343 176 tabread \$0-collecs;
#X obj 343 90 t f b;
#X obj 343 134 mod;
#X msg 384 91 0;
#X obj 343 155 + 1;
#X floatatom 343 72 5 0 0 0 - - -;
#X obj 30 10 inlet;
#X obj 30 34 unpack f f;
#X text 69 11 index collec;
#X obj 22 217 outlet;
#X obj 30 123 + 1;
#X connect 0 0 1 0;
#X connect 1 0 5 0;
#X connect 2 0 13 0;
#X connect 3 0 4 0;
#X connect 4 0 12 0;
#X connect 5 0 3 0;
#X connect 5 1 2 0;
#X connect 6 0 9 0;
#X connect 7 0 11 0;
#X connect 8 0 15 0;
#X connect 8 1 7 1;
#X connect 10 0 13 0;
#X connect 11 0 6 0;
#X connect 13 0 3 1;
#X connect 13 0 8 0;
#X connect 14 0 0 0;
#X connect 15 0 7 0;
#X connect 16 0 22 0;
#X connect 18 0 19 0;
#X connect 19 0 20 0;
#X connect 20 0 17 0;
#X connect 20 0 37 0;
#X connect 21 0 22 0;
#X connect 22 1 18 0;
#X connect 22 2 24 1;
#X connect 23 0 18 1;
#X connect 24 0 38 0;
#X connect 25 0 24 0;
#X connect 25 1 16 0;
#X connect 26 0 25 0;
#X connect 27 0 30 1;
#X connect 28 0 14 0;
#X connect 29 0 30 0;
#X connect 29 1 31 0;
#X connect 30 0 32 0;
#X connect 31 0 27 0;
#X connect 32 0 28 0;
#X connect 33 0 29 0;
#X connect 34 0 35 0;
#X connect 35 0 26 0;
#X connect 35 1 33 0;
#X connect 38 0 22 0;
#X restore 298 162 pd hurlo;
#X obj 230 183 tgl 15 0 empty empty empty 0 -6 0 8 -258699 -1 -1 1
1;
#X obj 28 120 hsl 128 15 0 1 0 0 empty empty empty -2 -6 0 8 -262144
-1 -1 0 1;
#N canvas 0 0 324 284 Clock 0;
#X obj 66 86 subtoggle 1 1;
#X obj 51 242 s \$0-clock;
#X obj 51 171 spigot;
#X obj 66 194 sel 0;
#X msg 66 213 -1 100;
#X obj 66 112 t f f;
#X obj 66 62 r \$0-on-snd;
#X obj 182 126 r \$0-clock;
#X obj 182 146 t a a;
#X obj 212 165 unpack f f;
#X obj 182 213 pack f f;
#X obj 182 191 ndmetro 48 48;
#X obj 182 236 s \$0-clock48;
#X obj 10 140 r \$1-clock;
#X connect 0 0 5 0;
#X connect 2 0 1 0;
#X connect 3 0 4 0;
#X connect 4 0 1 0;
#X connect 5 0 3 0;
#X connect 5 1 2 1;
#X connect 6 0 0 0;
#X connect 7 0 8 0;
#X connect 8 0 11 0;
#X connect 8 1 9 0;
#X connect 9 0 10 1;
#X connect 10 0 12 0;
#X connect 11 0 10 0;
#X connect 13 0 2 0;
#X restore 195 32 pd Clock;
#X obj 298 260 sfread~ 1 68;
#X msg 298 240 open \$1 \, bang;
#N canvas 0 0 152 138 int_unpack 0;
#X obj 15 15 inlet;
#X obj 15 59 mod 1000;
#X obj 79 59 div 1000;
#X obj 15 36 t f f;
#X obj 15 103 outlet;
#X obj 15 81 pack f f;
#X connect 0 0 3 0;
#X connect 1 0 5 0;
#X connect 2 0 5 1;
#X connect 3 0 1 0;
#X connect 3 1 2 0;
#X connect 5 0 4 0;
#X restore 298 141 pd int_unpack;
#X msg 288 100 0;
#X msg 241 88 4001;
#X obj 322 55 r \$0-play;
#X obj 25 49 unpack f f;
#X obj 25 74 *;
#X floatatom 110 11 5 0 0 0 - - -;
#X obj 25 97 / 10;
#X obj 45 263 * 10;
#X obj 45 308 s \$0-play;
#X obj 45 283 tabread \$0-sons;
#X floatatom 118 309 5 0 0 0 - - -;
#X obj 25 201 MR_table2 \$0 table1 \$0 \$1 \$2MR1;
#X obj 25 140 change;
#X obj 25 224 moses 0.01;
#X obj 25 25 r \$0-splay;
#X obj 402 260 sfread~ 1 68;
#X obj 402 279 throw~ \$0-out;
#X obj 340 186 tgl 15 0 empty empty empty 0 -6 0 8 -262144 -1 -1 1
1;
#X obj 407 57 r \$0-preview;
#X floatatom 481 304 5 0 0 0 - - -;
#X obj 407 78 t f b;
#X obj 322 89 demux;
#X msg 368 89 1;
#X msg 370 183 2;
#X obj 298 207 demux 0 1 2;
#X msg 402 240 open \$1 \, bang;
#X msg 435 129 0;
#X msg 478 212 open \$1 \, bang \, size;
#X obj 510 281 del;
#X obj 510 260 / 44.1;
#X msg 370 114 0;
#X obj 298 182 t b a;
#X obj 521 303 bng 15 250 50 0 empty empty empty 0 -6 0 8 -262144 -1
-1;
#X floatatom 237 228 5 0 0 0 - - -;
#N canvas 0 0 450 300 oubli 0;
#X obj 216 43 inlet;
#X obj 195 266 outlet;
#X obj 216 64 > 0;
#X obj 200 167 t b b;
#X obj 230 211 del;
#X obj 195 189 1000;
#X obj 230 231 0;
#X obj 200 119 m;
#X obj 108 27 inlet;
#X obj 138 67 del 10000;
#X obj 108 47 t b b;
#X obj 138 86 1;
#X obj 108 87 0;
#X obj 230 189 random 50;
#X floatatom 117 214 5 0 0 0 - - -;
#X obj 200 144 metro 1243;
#X obj 265 122 + 1000;
#X obj 265 102 random 2000;
#X connect 0 0 2 0;
#X connect 2 0 7 1;
#X connect 3 0 5 0;
#X connect 3 1 13 0;
#X connect 3 1 17 0;
#X connect 4 0 6 0;
#X connect 5 0 1 0;
#X connect 6 0 1 0;
#X connect 7 0 14 0;
#X connect 7 0 15 0;
#X connect 8 0 10 0;
#X connect 9 0 11 0;
#X connect 10 0 12 0;
#X connect 10 1 9 0;
#X connect 11 0 7 0;
#X connect 12 0 7 0;
#X connect 13 0 4 0;
#X connect 15 0 3 0;
#X connect 16 0 15 1;
#X connect 17 0 16 0;
#X restore 57 161 pd oubli;
#X obj 45 244 moses 1;
#X obj 166 155 r \$0-MRtabreset;
#X msg 166 176 0 \, 1;
#X obj 57 180 spigot;
#X obj 182 12 inlet;
#X obj 199 125 init 1;
#X floatatom 135 243 5 0 0 0 - - -;
#X connect 1 0 39 0;
#X connect 2 0 19 1;
#X connect 3 0 20 0;
#X connect 5 0 0 0;
#X connect 6 0 5 0;
#X connect 7 0 1 0;
#X connect 8 0 7 0;
#X connect 9 0 7 0;
#X connect 10 0 29 0;
#X connect 11 0 12 0;
#X connect 11 1 12 1;
#X connect 11 1 13 0;
#X connect 12 0 14 0;
#X connect 14 0 3 0;
#X connect 15 0 17 0;
#X connect 17 0 18 0;
#X connect 17 0 16 0;
#X connect 19 0 21 0;
#X connect 19 1 41 0;
#X connect 20 0 19 0;
#X connect 20 0 42 0;
#X connect 21 1 43 0;
#X connect 22 0 11 0;
#X connect 23 0 24 0;
#X connect 23 1 27 0;
#X connect 23 1 37 0;
#X connect 25 0 32 1;
#X connect 26 0 28 0;
#X connect 28 0 7 0;
#X connect 28 1 30 0;
#X connect 28 1 31 0;
#X connect 28 1 34 0;
#X connect 29 0 7 0;
#X connect 30 0 29 1;
#X connect 31 0 32 1;
#X connect 32 0 6 0;
#X connect 32 1 33 0;
#X connect 32 2 35 0;
#X connect 33 0 23 0;
#X connect 34 0 5 0;
#X connect 34 0 23 0;
#X connect 35 0 23 0;
#X connect 36 0 38 0;
#X connect 36 0 40 0;
#X connect 37 0 36 0;
#X connect 38 0 29 1;
#X connect 39 0 25 0;
#X connect 39 1 32 0;
#X connect 41 0 42 1;
#X connect 42 0 46 0;
#X connect 42 0 49 0;
#X connect 43 0 15 0;
#X connect 44 0 45 0;
#X connect 45 0 2 0;
#X connect 46 0 19 0;
#X connect 47 0 46 1;
#X connect 48 0 2 0;
#X restore 5 239 pd recorder-player;
#X obj 108 36 tgl 15 0 empty empty keyboard 0 -6 1 8 -241291 -1 -1
1 1;
#X obj 137 239 tgl 15 0 empty empty oubli 0 -6 1 8 -228992 -1 -1 1
1;
#X obj 159 239 init 1;
#X connect 2 0 3 0;
#X connect 3 0 1 0;
#X connect 5 0 4 0;
#X connect 6 0 4 1;
#X connect 10 0 14 0;
#X connect 11 0 10 0;
#X connect 13 0 15 0;
#X connect 15 0 16 0;
#X connect 16 0 12 0;
#X connect 20 0 21 0;
#X connect 21 0 19 0;
#X connect 23 0 24 0;
#X connect 24 0 22 0;
#X connect 28 0 30 0;
#X connect 29 0 28 0;
#X connect 34 0 35 0;
#X connect 35 0 33 0;
#X connect 37 0 26 0;
#X connect 38 0 36 0;
#X connect 39 0 38 0;
