#N canvas 622 421 416 159 10;
#X msg 262 51 hello client;
#X obj 261 23 print fromclient;
#N canvas 334 268 525 193 hurface<-client 0;
#X obj 22 53 r 2HurFace;
#X obj 22 75 a2l;
#X obj 22 96 l2s;
#X msg 22 119 2HurFace \$1;
#X obj 22 140 spigot;
#X obj 59 20 tgl 15 1 empty empty empty 0 -6 0 8 -262144 -1 -1 0 1
;
#X obj 108 74 route HurFace;
#X obj 108 119 s HurFace;
#X obj 108 97 spigot;
#X obj 273 72 a2l;
#X obj 273 93 l2s;
#X obj 273 137 spigot;
#X obj 310 17 tgl 15 0 empty empty empty 0 -6 0 8 -262144 -1 -1 0 1
;
#X obj 366 52 r pdnet-fromclient;
#X obj 273 158 s pdnet-toclient;
#X obj 366 98 spigot;
#X obj 273 50 r HurFace;
#X msg 273 116 HurFace \$1;
#X obj 366 75 route 2HurFace;
#X obj 366 120 s 2HurFace;
#X obj 108 51 r \$0-pdnet-fromclient;
#X obj 22 162 s \$0-pdnet-toclient;
#X connect 0 0 1 0;
#X connect 1 0 2 0;
#X connect 2 0 3 0;
#X connect 3 0 4 0;
#X connect 4 0 21 0;
#X connect 5 0 4 1;
#X connect 5 0 8 1;
#X connect 6 0 8 0;
#X connect 8 0 7 0;
#X connect 9 0 10 0;
#X connect 10 0 17 0;
#X connect 11 0 14 0;
#X connect 12 0 11 1;
#X connect 12 0 15 1;
#X connect 13 0 18 0;
#X connect 15 0 19 0;
#X connect 16 0 9 0;
#X connect 17 0 11 0;
#X connect 18 0 15 0;
#X connect 20 0 6 0;
#X restore 261 95 pd hurface<-client;
#X obj 10 7 tgl 15 0 empty empty empty 0 -6 0 8 -24198 -1 -1 1 1;
#X obj 27 7 PdNetServer \$0 59009;
#X obj 262 71 s \$0-pdnet-toclient;
#X obj 261 2 r \$0-pdnet-fromclient;
#N canvas 311 440 551 203 KEsynchro 0;
#X obj 15 56 s \$1-setap-snd;
#X msg 15 36 s1 _upload_ 1;
#X obj 124 7 r \$1-sndap;
#X obj 124 28 route s1;
#X obj 124 47 route bpm;
#X floatatom 190 95 5 0 0 0 - - -;
#X obj 290 177 s \$1-setap-snd;
#X msg 290 156 s1 bpm \$1;
#X obj 15 15 loadbang;
#X msg 124 93 KEbpm \$1;
#X obj 124 112 s \$0-pdnet-toclient;
#X obj 290 114 r \$0-pdnet-fromclient;
#X obj 13 170 s \$0-pdnet-toclient;
#X obj 13 109 r \$1-clock;
#X msg 13 151 clock \$1 \$2;
#X obj 13 130 pack f f;
#X obj 160 70 r \$0-update-toclient;
#X obj 124 71 f;
#X obj 290 135 route KEbpm;
#X obj 379 135 nroute mod1 1;
#X connect 1 0 0 0;
#X connect 2 0 3 0;
#X connect 3 0 4 0;
#X connect 4 0 5 0;
#X connect 4 0 17 0;
#X connect 7 0 6 0;
#X connect 8 0 1 0;
#X connect 9 0 10 0;
#X connect 11 0 18 0;
#X connect 13 0 15 0;
#X connect 14 0 12 0;
#X connect 15 0 14 0;
#X connect 16 0 17 0;
#X connect 17 0 9 0;
#X connect 18 0 7 0;
#X connect 18 1 19 0;
#X connect 19 0 6 0;
#X restore 261 119 pd KEsynchro;
#N canvas 463 2 450 300 launch_pidi_bis 0;
#X obj 109 74 absolutepath;
#X msg 109 49 symbol pidi;
#X symbolatom 138 110 0 0 0 0 - - -;
#X obj 109 175 system;
#X msg 109 144 echo \$1 | at now;
#X obj 109 27 inlet;
#X connect 0 0 2 0;
#X connect 0 0 4 0;
#X connect 1 0 0 0;
#X connect 4 0 3 0;
#X connect 5 0 1 0;
#X restore 11 128 pd launch_pidi_bis;
#X obj 10 25 sel 1;
#X obj 10 44 del 100;
#X obj 10 64 s \$0-update-toclient;
#X obj 11 88 loadbang;
#X obj 11 108 del 1000;
#X obj 78 107 bng 15 250 50 0 empty empty empty 0 -6 0 8 -262144 -1
-1;
#X connect 0 0 5 0;
#X connect 3 0 9 0;
#X connect 4 0 3 0;
#X connect 9 0 10 0;
#X connect 10 0 11 0;
#X connect 12 0 13 0;
#X connect 13 0 8 0;
#X connect 14 0 8 0;
