#N canvas 0 375 657 264 10;
#X obj 8 12 DesVilles \$0 mdv1;
#X obj 8 31 DesChants \$0 mdc1;
#X obj 12 129 bng 15 250 50 0 empty empty empty 0 -6 0 8 -24198 -1
-1;
#N canvas 0 0 450 300 editFraiseList 0;
#X obj 18 144 system;
#X obj 18 73 absolutepath;
#X msg 18 53 symbol Fraise_fruits.txt;
#X symbolatom 18 95 0 0 0 0 - - -;
#X msg 18 120 echo kwrite -display :0.0 \$1 |at now;
#X obj 18 29 inlet;
#X connect 1 0 3 0;
#X connect 1 0 4 0;
#X connect 2 0 1 0;
#X connect 4 0 0 0;
#X connect 5 0 2 0;
#X restore 32 128 pd editFraiseList;
#X obj 11 155 init 1;
#X obj 11 176 PdNetClient 59008 localhost 59009;
#X obj 196 80 InitCol \$0 col1;
#X obj 318 91 bng 15 250 50 0 \$0-chargersons-snd empty charger -8
-6 1 10 -258699 -1 -1;
#X obj 318 109 bng 15 250 50 0 \$0-rechargersons-snd empty recharger
-10 22 1 10 -260818 -1 -1;
#X obj 9 75 PiedUsbDriver PiedUsbAl1;
#X msg 507 25 0 \, 1;
#X obj 507 47 apFrag \$0 frag1 \$0;
#N canvas 0 0 675 489 Fruits 1;
#X obj 12 75 tgl 25 0 empty empty empty 0 -6 0 8 -24198 -1 -1 0 1;
#N canvas 197 0 450 258 8bits 0;
#X obj 159 29 inlet;
#X obj 39 110 & 128;
#X obj 39 131 != 0;
#X obj 39 152 change;
#X obj 91 131 != 0;
#X obj 91 152 change;
#X obj 141 131 != 0;
#X obj 141 152 change;
#X obj 193 131 != 0;
#X obj 193 152 change;
#X obj 241 132 != 0;
#X obj 241 153 change;
#X obj 293 132 != 0;
#X obj 293 153 change;
#X obj 343 132 != 0;
#X obj 343 153 change;
#X obj 395 132 != 0;
#X obj 395 153 change;
#X obj 159 50 t f f f f f f f f;
#X obj 395 111 & 1;
#X obj 343 111 & 2;
#X obj 293 111 & 4;
#X obj 241 111 & 8;
#X obj 193 110 & 16;
#X obj 141 110 & 32;
#X obj 91 110 & 64;
#X obj 193 223 outlet;
#X msg 39 172 7 \$1;
#X msg 343 175 1 \$1;
#X msg 395 175 0 \$1;
#X msg 293 174 2 \$1;
#X msg 241 174 3 \$1;
#X msg 193 173 4 \$1;
#X msg 141 173 5 \$1;
#X msg 91 172 6 \$1;
#X connect 0 0 18 0;
#X connect 1 0 2 0;
#X connect 2 0 3 0;
#X connect 3 0 27 0;
#X connect 4 0 5 0;
#X connect 5 0 34 0;
#X connect 6 0 7 0;
#X connect 7 0 33 0;
#X connect 8 0 9 0;
#X connect 9 0 32 0;
#X connect 10 0 11 0;
#X connect 11 0 31 0;
#X connect 12 0 13 0;
#X connect 13 0 30 0;
#X connect 14 0 15 0;
#X connect 15 0 28 0;
#X connect 16 0 17 0;
#X connect 17 0 29 0;
#X connect 18 0 1 0;
#X connect 18 1 25 0;
#X connect 18 2 24 0;
#X connect 18 3 23 0;
#X connect 18 4 22 0;
#X connect 18 5 21 0;
#X connect 18 6 20 0;
#X connect 18 7 19 0;
#X connect 19 0 16 0;
#X connect 20 0 14 0;
#X connect 21 0 12 0;
#X connect 22 0 10 0;
#X connect 23 0 8 0;
#X connect 24 0 6 0;
#X connect 25 0 4 0;
#X connect 27 0 26 0;
#X connect 28 0 26 0;
#X connect 29 0 26 0;
#X connect 30 0 26 0;
#X connect 31 0 26 0;
#X connect 32 0 26 0;
#X connect 33 0 26 0;
#X connect 34 0 26 0;
#X restore 13 116 pd 8bits;
#X obj 41 95 unpack f f;
#N canvas 197 0 450 258 8bits 0;
#X obj 159 29 inlet;
#X obj 39 110 & 128;
#X obj 39 131 != 0;
#X obj 39 152 change;
#X obj 91 131 != 0;
#X obj 91 152 change;
#X obj 141 131 != 0;
#X obj 141 152 change;
#X obj 193 131 != 0;
#X obj 193 152 change;
#X obj 241 132 != 0;
#X obj 241 153 change;
#X obj 293 132 != 0;
#X obj 293 153 change;
#X obj 343 132 != 0;
#X obj 343 153 change;
#X obj 395 132 != 0;
#X obj 395 153 change;
#X obj 159 50 t f f f f f f f f;
#X obj 395 111 & 1;
#X obj 343 111 & 2;
#X obj 293 111 & 4;
#X obj 241 111 & 8;
#X obj 193 110 & 16;
#X obj 141 110 & 32;
#X obj 91 110 & 64;
#X obj 193 223 outlet;
#X msg 39 172 7 \$1;
#X msg 343 175 1 \$1;
#X msg 395 175 0 \$1;
#X msg 293 174 2 \$1;
#X msg 241 174 3 \$1;
#X msg 193 173 4 \$1;
#X msg 141 173 5 \$1;
#X msg 91 172 6 \$1;
#X connect 0 0 18 0;
#X connect 1 0 2 0;
#X connect 2 0 3 0;
#X connect 3 0 27 0;
#X connect 4 0 5 0;
#X connect 5 0 34 0;
#X connect 6 0 7 0;
#X connect 7 0 33 0;
#X connect 8 0 9 0;
#X connect 9 0 32 0;
#X connect 10 0 11 0;
#X connect 11 0 31 0;
#X connect 12 0 13 0;
#X connect 13 0 30 0;
#X connect 14 0 15 0;
#X connect 15 0 28 0;
#X connect 16 0 17 0;
#X connect 17 0 29 0;
#X connect 18 0 1 0;
#X connect 18 1 25 0;
#X connect 18 2 24 0;
#X connect 18 3 23 0;
#X connect 18 4 22 0;
#X connect 18 5 21 0;
#X connect 18 6 20 0;
#X connect 18 7 19 0;
#X connect 19 0 16 0;
#X connect 20 0 14 0;
#X connect 21 0 12 0;
#X connect 22 0 10 0;
#X connect 23 0 8 0;
#X connect 24 0 6 0;
#X connect 25 0 4 0;
#X connect 27 0 26 0;
#X connect 28 0 26 0;
#X connect 29 0 26 0;
#X connect 30 0 26 0;
#X connect 31 0 26 0;
#X connect 32 0 26 0;
#X connect 33 0 26 0;
#X connect 34 0 26 0;
#X restore 166 117 pd 8bits;
#N canvas 0 0 145 40 show8bits 0;
#X obj 1 1 inlet;
#X obj 41 1 route 7 6 5 4 3 2 1 0;
#X obj 1 18 tgl 15 0 empty empty empty 0 -6 0 8 -262144 -1 -1 0 1;
#X obj 18 18 tgl 15 0 empty empty empty 0 -6 0 8 -262144 -1 -1 0 1
;
#X obj 36 18 tgl 15 0 empty empty empty 0 -6 0 8 -262144 -1 -1 0 1
;
#X obj 54 18 tgl 15 0 empty empty empty 0 -6 0 8 -262144 -1 -1 0 1
;
#X obj 72 18 tgl 15 0 empty empty empty 0 -6 0 8 -262144 -1 -1 0 1
;
#X obj 89 18 tgl 15 0 empty empty empty 0 -6 0 8 -262144 -1 -1 0 1
;
#X obj 107 18 tgl 15 0 empty empty empty 0 -6 0 8 -262144 -1 -1 0 1
;
#X obj 125 18 tgl 15 0 empty empty empty 0 -6 0 8 -262144 -1 -1 0 1
;
#X connect 0 0 1 0;
#X connect 1 0 2 0;
#X connect 1 1 3 0;
#X connect 1 2 4 0;
#X connect 1 3 5 0;
#X connect 1 4 6 0;
#X connect 1 5 7 0;
#X connect 1 6 8 0;
#X connect 1 7 9 0;
#X coords 0 0 1 1 140 34 1;
#X restore 13 136 pd show8bits;
#N canvas 0 0 145 37 show8bits 0;
#X obj 1 1 inlet;
#X obj 41 1 route 7 6 5 4 3 2 1 0;
#X obj 1 18 tgl 15 0 empty empty empty 0 -6 0 8 -262144 -1 -1 0 1;
#X obj 18 18 tgl 15 0 empty empty empty 0 -6 0 8 -262144 -1 -1 0 1
;
#X obj 36 18 tgl 15 0 empty empty empty 0 -6 0 8 -262144 -1 -1 0 1
;
#X obj 54 18 tgl 15 0 empty empty empty 0 -6 0 8 -262144 -1 -1 0 1
;
#X obj 72 18 tgl 15 0 empty empty empty 0 -6 0 8 -262144 -1 -1 0 1
;
#X obj 89 18 tgl 15 0 empty empty empty 0 -6 0 8 -262144 -1 -1 0 1
;
#X obj 107 18 tgl 15 0 empty empty empty 0 -6 0 8 -262144 -1 -1 0 1
;
#X obj 125 18 tgl 15 0 empty empty empty 0 -6 0 8 -262144 -1 -1 0 1
;
#X connect 0 0 1 0;
#X connect 1 0 2 0;
#X connect 1 1 3 0;
#X connect 1 2 4 0;
#X connect 1 3 5 0;
#X connect 1 4 6 0;
#X connect 1 5 7 0;
#X connect 1 6 8 0;
#X connect 1 7 9 0;
#X coords 0 0 1 1 140 34 1;
#X restore 166 138 pd show8bits;
#X text 12 52 ADthresold;
#X msg 26 36 1 3 \$1;
#X floatatom 107 33 5 0 0 0 - - -;
#X msg 107 51 1 4 \$1;
#X text 153 52 DigiDebounce;
#X msg 107 11 1;
#X msg 134 11 8;
#N canvas 122 0 327 402 adc 0;
#X floatatom 33 274 7 0 0 0 - - -;
#X obj 38 65 t b a;
#X obj 38 86 repack 3;
#N canvas 668 17 225 194 10bits 0;
#X obj 18 9 inlet;
#X obj 18 30 unpack f f;
#X obj 18 77 +;
#X obj 18 139 outlet;
#X obj 114 124 print;
#X obj 114 102 spigot;
#X obj 152 81 tgl 15 0 empty empty empty 0 -6 0 8 -262144 -1 -1 0 1
;
#X obj 53 157 / 16384;
#X obj 18 51 * 256;
#X obj 17 119 / 16384;
#X connect 0 0 1 0;
#X connect 1 0 8 0;
#X connect 1 1 2 1;
#X connect 2 0 5 0;
#X connect 2 0 9 0;
#X connect 5 0 4 0;
#X connect 6 0 5 1;
#X connect 8 0 2 0;
#X connect 9 0 3 0;
#X restore 111 174 pd 10bits;
#X obj 38 106 route bang;
#X obj 72 197 pack f f;
#X obj 72 217 route 0 1 2 3 4 5;
#X floatatom 64 258 7 0 0 0 - - -;
#X floatatom 98 241 7 0 0 0 - - -;
#X floatatom 135 276 7 0 0 0 - - -;
#X floatatom 154 259 7 0 0 0 - - -;
#X floatatom 173 243 7 0 0 0 - - -;
#X obj 163 115 print;
#X obj 72 129 unpack f f f;
#X obj 111 149 pack f f;
#X obj 103 292 s \$0-effet;
#X obj 38 44 inlet;
#X obj 6 297 outlet;
#X obj 254 231 vsl 15 128 0 1 0 0 empty empty empty 0 -8 0 8 -262144
-1 -1 0 1;
#X connect 1 0 2 0;
#X connect 1 1 2 0;
#X connect 2 0 4 0;
#X connect 3 0 5 1;
#X connect 4 1 13 0;
#X connect 5 0 6 0;
#X connect 5 0 17 0;
#X connect 6 0 0 0;
#X connect 6 1 7 0;
#X connect 6 2 8 0;
#X connect 6 3 9 0;
#X connect 6 4 10 0;
#X connect 6 5 11 0;
#X connect 8 0 18 0;
#X connect 13 0 5 0;
#X connect 13 1 14 0;
#X connect 13 2 14 1;
#X connect 14 0 3 0;
#X connect 16 0 1 0;
#X restore 254 74 pd adc;
#X obj 204 94 route 0 1 2 3 4 5;
#X obj 12 175 route 7 6 5 4 3 2 1 0;
#X obj 166 175 route 7 6 5 4 3 2 1 0;
#X obj 409 38 tgl 25 0 empty empty empty 0 -6 0 8 -24198 -1 -1 0 1
;
#X floatatom 438 31 5 0 0 0 - - -;
#X msg 438 49 1 4 \$1;
#X text 484 50 DigiDebounce;
#X msg 438 9 1;
#X msg 465 9 8;
#N canvas 197 0 450 258 8bits 0;
#X obj 159 29 inlet;
#X obj 39 110 & 128;
#X obj 39 131 != 0;
#X obj 39 152 change;
#X obj 91 131 != 0;
#X obj 91 152 change;
#X obj 141 131 != 0;
#X obj 141 152 change;
#X obj 193 131 != 0;
#X obj 193 152 change;
#X obj 241 132 != 0;
#X obj 241 153 change;
#X obj 293 132 != 0;
#X obj 293 153 change;
#X obj 343 132 != 0;
#X obj 343 153 change;
#X obj 395 132 != 0;
#X obj 395 153 change;
#X obj 159 50 t f f f f f f f f;
#X obj 395 111 & 1;
#X obj 343 111 & 2;
#X obj 293 111 & 4;
#X obj 241 111 & 8;
#X obj 193 110 & 16;
#X obj 141 110 & 32;
#X obj 91 110 & 64;
#X obj 193 223 outlet;
#X msg 39 172 7 \$1;
#X msg 343 175 1 \$1;
#X msg 395 175 0 \$1;
#X msg 293 174 2 \$1;
#X msg 241 174 3 \$1;
#X msg 193 173 4 \$1;
#X msg 141 173 5 \$1;
#X msg 91 172 6 \$1;
#X connect 0 0 18 0;
#X connect 1 0 2 0;
#X connect 2 0 3 0;
#X connect 3 0 27 0;
#X connect 4 0 5 0;
#X connect 5 0 34 0;
#X connect 6 0 7 0;
#X connect 7 0 33 0;
#X connect 8 0 9 0;
#X connect 9 0 32 0;
#X connect 10 0 11 0;
#X connect 11 0 31 0;
#X connect 12 0 13 0;
#X connect 13 0 30 0;
#X connect 14 0 15 0;
#X connect 15 0 28 0;
#X connect 16 0 17 0;
#X connect 17 0 29 0;
#X connect 18 0 1 0;
#X connect 18 1 25 0;
#X connect 18 2 24 0;
#X connect 18 3 23 0;
#X connect 18 4 22 0;
#X connect 18 5 21 0;
#X connect 18 6 20 0;
#X connect 18 7 19 0;
#X connect 19 0 16 0;
#X connect 20 0 14 0;
#X connect 21 0 12 0;
#X connect 22 0 10 0;
#X connect 23 0 8 0;
#X connect 24 0 6 0;
#X connect 25 0 4 0;
#X connect 27 0 26 0;
#X connect 28 0 26 0;
#X connect 29 0 26 0;
#X connect 30 0 26 0;
#X connect 31 0 26 0;
#X connect 32 0 26 0;
#X connect 33 0 26 0;
#X connect 34 0 26 0;
#X restore 439 115 pd 8bits;
#X obj 439 94 unpack f f;
#N canvas 0 0 145 40 show8bits 0;
#X obj 1 1 inlet;
#X obj 41 1 route 7 6 5 4 3 2 1 0;
#X obj 1 18 tgl 15 0 empty empty empty 0 -6 0 8 -262144 -1 -1 0 1;
#X obj 18 18 tgl 15 0 empty empty empty 0 -6 0 8 -262144 -1 -1 0 1
;
#X obj 36 18 tgl 15 0 empty empty empty 0 -6 0 8 -262144 -1 -1 0 1
;
#X obj 54 18 tgl 15 0 empty empty empty 0 -6 0 8 -262144 -1 -1 0 1
;
#X obj 72 18 tgl 15 0 empty empty empty 0 -6 0 8 -262144 -1 -1 0 1
;
#X obj 89 18 tgl 15 0 empty empty empty 0 -6 0 8 -262144 -1 -1 0 1
;
#X obj 107 18 tgl 15 0 empty empty empty 0 -6 0 8 -262144 -1 -1 0 1
;
#X obj 125 18 tgl 15 0 empty empty empty 0 -6 0 8 -262144 -1 -1 0 1
;
#X connect 0 0 1 0;
#X connect 1 0 2 0;
#X connect 1 1 3 0;
#X connect 1 2 4 0;
#X connect 1 3 5 0;
#X connect 1 4 6 0;
#X connect 1 5 7 0;
#X connect 1 6 8 0;
#X connect 1 7 9 0;
#X coords 0 0 1 1 140 34 1;
#X restore 439 135 pd show8bits;
#X obj 438 174 route 7 6 5 4 3 2 1 0;
#X obj 520 92 route 2;
#X obj 170 74 route 2 100;
#X obj 18 5 sel 1;
#X obj 398 65 sel 1;
#X obj 438 72 FraiseFruit Switch1;
#X obj 40 75 FraiseFruit SwAdc1;
#X obj 204 252 s \$0-effet;
#X msg 175 396 1 \$1;
#X msg 189 379 2 \$1;
#X msg 207 360 3 \$1;
#X msg 224 342 4 \$1;
#X msg 240 324 5 \$1;
#X msg 253 306 6 \$1;
#X obj 292 453 s \$0-desvilles;
#X msg 212 417 s \$1 \$2;
#X msg 292 358 c \$1 \$2;
#X msg 294 332 1 \$1;
#X msg 308 314 2 \$1;
#X msg 351 333 1 \$1;
#X msg 365 315 2 \$1;
#X msg 351 357 e \$1 \$2;
#X msg 422 398 1 \$1;
#X msg 436 381 2 \$1;
#X msg 454 362 3 \$1;
#X msg 471 344 4 \$1;
#X msg 487 326 5 \$1;
#X msg 500 308 6 \$1;
#X msg 459 419 s \$1 \$2;
#X msg 539 360 c \$1 \$2;
#X msg 541 334 1 \$1;
#X msg 555 316 2 \$1;
#X msg 598 335 1 \$1;
#X msg 612 317 2 \$1;
#X msg 598 364 e \$1 \$2;
#X obj 539 455 s \$0-deschants;
#X obj 105 458 s \$0-skate;
#X msg 87 376 1 \$1;
#X msg 101 359 2 \$1;
#X msg 119 340 3 \$1;
#X msg 136 322 4 \$1;
#X obj 23 458 s \$0-tempo;
#X msg 21 389 1 \$1;
#X msg 35 371 2 \$1;
#X obj 33 314 tgl 15 0 empty empty empty 0 -6 0 8 -262144 -1 -1 0 1
;
#X connect 0 0 29 0;
#X connect 1 0 4 0;
#X connect 1 0 15 0;
#X connect 2 0 1 0;
#X connect 2 1 3 0;
#X connect 3 0 5 0;
#X connect 3 0 16 0;
#X connect 7 0 32 0;
#X connect 8 0 9 0;
#X connect 9 0 32 0;
#X connect 11 0 8 0;
#X connect 12 0 8 0;
#X connect 13 0 14 0;
#X connect 14 0 33 0;
#X connect 17 0 30 0;
#X connect 18 0 19 0;
#X connect 19 0 31 0;
#X connect 21 0 18 0;
#X connect 22 0 18 0;
#X connect 23 0 25 0;
#X connect 23 0 26 0;
#X connect 24 0 23 0;
#X connect 27 0 24 0;
#X connect 28 0 2 0;
#X connect 28 1 13 0;
#X connect 29 0 12 0;
#X connect 30 0 22 0;
#X connect 31 0 17 0;
#X connect 31 1 27 0;
#X connect 32 0 0 0;
#X connect 32 1 28 0;
#X connect 34 0 41 0;
#X connect 35 0 41 0;
#X connect 36 0 41 0;
#X connect 37 0 41 0;
#X connect 38 0 41 0;
#X connect 39 0 41 0;
#X connect 41 0 40 0;
#X connect 42 0 40 0;
#X connect 43 0 42 0;
#X connect 44 0 42 0;
#X connect 45 0 47 0;
#X connect 46 0 47 0;
#X connect 47 0 40 0;
#X connect 48 0 54 0;
#X connect 49 0 54 0;
#X connect 50 0 54 0;
#X connect 51 0 54 0;
#X connect 52 0 54 0;
#X connect 53 0 54 0;
#X connect 54 0 61 0;
#X connect 55 0 61 0;
#X connect 56 0 55 0;
#X connect 57 0 55 0;
#X connect 58 0 60 0;
#X connect 59 0 60 0;
#X connect 60 0 61 0;
#X connect 63 0 62 0;
#X connect 64 0 62 0;
#X connect 65 0 62 0;
#X connect 66 0 62 0;
#X connect 68 0 67 0;
#X connect 69 0 67 0;
#X connect 70 0 69 0;
#X restore 11 231 pd Fruits;
#X obj 8 51 MixSkate \$0 ms1;
#N canvas 392 139 430 227 master 0;
#X obj 19 82 prvu~;
#X obj 19 102 unpack 0 0 0;
#X obj 58 123 + 11;
#X obj 58 143 change;
#X obj 58 163 outlet;
#X obj 20 13 catch~ outl;
#X obj 102 14 catch~ outr;
#X obj 351 49 catch~ rev1;
#X obj 187 14 catch~ outl2;
#X obj 102 46 dac~ 1 2 3 4;
#X obj 276 13 catch~ outr2;
#X obj 109 82 prvu~;
#X obj 109 102 unpack 0 0 0;
#X obj 148 123 + 11;
#X obj 148 143 change;
#X obj 148 163 outlet;
#X obj 204 82 prvu~;
#X obj 204 102 unpack 0 0 0;
#X obj 243 123 + 11;
#X obj 243 143 change;
#X obj 243 163 outlet;
#X obj 294 82 prvu~;
#X obj 294 102 unpack 0 0 0;
#X obj 333 123 + 11;
#X obj 333 143 change;
#X obj 333 163 outlet;
#X msg 150 207 t_metro 50 \, t_hold 50 \, t_release 50;
#X obj 5 192 s~ \$0-outmixlr;
#X connect 0 0 1 0;
#X connect 1 1 2 0;
#X connect 2 0 3 0;
#X connect 3 0 4 0;
#X connect 5 0 9 0;
#X connect 5 0 0 0;
#X connect 5 0 27 0;
#X connect 6 0 9 1;
#X connect 6 0 11 0;
#X connect 6 0 27 0;
#X connect 8 0 9 2;
#X connect 8 0 16 0;
#X connect 10 0 9 3;
#X connect 10 0 21 0;
#X connect 11 0 12 0;
#X connect 12 1 13 0;
#X connect 13 0 14 0;
#X connect 14 0 15 0;
#X connect 16 0 17 0;
#X connect 17 1 18 0;
#X connect 18 0 19 0;
#X connect 19 0 20 0;
#X connect 21 0 22 0;
#X connect 22 1 23 0;
#X connect 23 0 24 0;
#X connect 24 0 25 0;
#X connect 26 0 0 0;
#X connect 26 0 11 0;
#X connect 26 0 16 0;
#X connect 26 0 21 0;
#X restore 307 152 pd master;
#X obj 308 173 vu 10 80 empty empty -1 -8 0 8 -66577 -1 0 0;
#X obj 327 173 vu 10 80 empty empty -1 -8 0 8 -66577 -1 0 0;
#X obj 346 173 vu 10 80 empty empty -1 -8 0 8 -66577 -1 0 0;
#X obj 366 173 vu 10 80 empty empty -1 -8 0 8 -66577 -1 0 0;
#X msg 539 197 \; pd dsp \$1;
#X obj 507 198 tgl 30 0 empty empty empty 0 -6 0 8 -24198 -258699 -1
1 1;
#X obj 507 112 busrme 4;
#X floatatom 575 113 5 0 0 0 - - -;
#X obj 507 140 loadbang;
#X obj 507 159 del 2000;
#X msg 507 179 1;
#N canvas 0 0 146 142 in 0;
#X obj 41 55 unpack 0 0 0;
#X obj 80 76 + 11;
#X obj 80 96 change;
#X obj 80 116 outlet;
#X obj 42 13 adc~;
#X obj 41 35 prvu~;
#X obj 27 76 s~ inl;
#X connect 0 1 1 0;
#X connect 1 0 2 0;
#X connect 2 0 3 0;
#X connect 4 0 5 0;
#X connect 4 0 6 0;
#X connect 5 0 0 0;
#X restore 395 149 pd in;
#X obj 396 173 vu 15 80 empty empty -1 -8 0 8 -66577 -1 0 0;
#X msg 374 88 mod1 no1-volBus \$1;
#X obj 174 10 r pdnet-fromserver;
#X obj 174 50 s \$0-clock;
#X obj 174 30 route clock;
#X connect 2 0 3 0;
#X connect 4 0 5 0;
#X connect 10 0 11 0;
#X connect 11 0 21 0;
#X connect 14 0 15 0;
#X connect 14 1 16 0;
#X connect 14 2 17 0;
#X connect 14 3 18 0;
#X connect 20 0 19 0;
#X connect 22 0 21 1;
#X connect 23 0 24 0;
#X connect 23 0 7 0;
#X connect 24 0 25 0;
#X connect 25 0 20 0;
#X connect 26 0 27 0;
#X connect 29 0 31 0;
#X connect 31 0 30 0;
