#N canvas 323 127 450 326 10;
#X obj 258 77 in;
#X obj 236 196 busrme 3;
#X obj 343 196 busrme 4;
#X obj 317 237 Out -;
#X obj 35 293 s pdnet-toserver;
#X msg 35 272 mod1 no1-volBus \$1;
#X obj 38 252 hsl 128 15 0 1 0 0 empty empty empty -2 -6 0 8 -262144
-1 -1 12600 1;
#N canvas 0 0 254 191 Bpm 0;
#X obj 48 123 +;
#X msg 29 97 -1;
#X msg 57 96 1;
#X floatatom 87 121 5 0 0 0 - - -;
#X obj 108 11 r pdnet-fromserver;
#X msg 48 142 KEbpm \$1;
#X obj 48 164 s pdnet-toserver;
#X obj 108 31 route KEbpm;
#X obj 29 12 r \$1-tempo;
#X obj 29 73 sel 1 2;
#X msg 29 32 \$2 \$1;
#X obj 29 52 route 1;
#X connect 0 0 5 0;
#X connect 1 0 0 0;
#X connect 2 0 0 0;
#X connect 4 0 7 0;
#X connect 5 0 6 0;
#X connect 7 0 0 1;
#X connect 7 0 3 0;
#X connect 8 0 10 0;
#X connect 9 0 1 0;
#X connect 9 1 2 0;
#X connect 10 0 11 0;
#X connect 11 0 9 0;
#X restore 16 11 pd Bpm;
#X obj 153 77 r~ \$1-outmixlr;
#X obj 284 45 hsl 128 15 0 1 0 0 empty empty empty -2 -6 0 8 -262144
-1 -1 0 1;
#N canvas 23 117 540 361 PanDelDestroy 0;
#X obj 270 226 subtri;
#SUB settings -23 0.2;
#X obj 39 211 subfnoise;
#SUB settings -20 0;
#X obj 300 188 line 10;
#X msg 58 168 \$1 100;
#X obj 58 189 line 10;
#X obj 21 12 inlet~;
#X obj 21 333 outlet~;
#X obj 79 315 outlet~;
#X obj 288 15 inlet;
#N canvas 0 0 450 300 cut-0.5 0;
#X obj 192 105 - 0.51;
#X obj 192 127 / 0.49;
#X obj 192 148 clip 0 1;
#X obj 128 127 - 0.51;
#X obj 128 149 / 0.49;
#X obj 128 170 clip 0 1;
#X obj 128 106 -;
#X msg 128 86 1 \$1;
#X obj 128 190 change;
#X obj 192 168 change;
#X obj 153 40 inlet;
#X obj 192 187 outlet;
#X obj 128 210 outlet;
#X obj 153 61 t f f;
#X connect 0 0 1 0;
#X connect 1 0 2 0;
#X connect 2 0 9 0;
#X connect 3 0 4 0;
#X connect 4 0 5 0;
#X connect 5 0 8 0;
#X connect 6 0 3 0;
#X connect 7 0 6 0;
#X connect 8 0 12 0;
#X connect 9 0 11 0;
#X connect 10 0 13 0;
#X connect 13 0 7 0;
#X connect 13 1 0 0;
#X restore 183 46 pd cut-0.5;
#X obj 58 126 pow 0.5;
#X obj 301 147 scale 0 1 -23 130;
#X floatatom 112 11 5 0 0 0 - - -;
#X obj 183 147 pow 0.5;
#X obj 183 169 +;
#X obj 183 125 t f f;
#X floatatom 183 236 5 0 0 0 - - -;
#X obj 183 213 + 0.2;
#X obj 238 147 * -0.8;
#X obj 183 191 * 2.6;
#N canvas 462 266 600 400 pandel 0;
#X obj 79 31 delwrite~ \$0-delline 100;
#X obj 79 8 inlet~;
#X obj 182 239 vd~ \$0-delline;
#X obj 273 26 inlet~;
#X obj 166 289 outlet~;
#X obj 334 99 *~ -1;
#X floatatom 349 52 5 0 0 0 - - -;
#X obj 166 266 *~;
#X msg 330 25 0;
#X obj 166 147 sqrt~;
#X msg 366 24 2;
#X obj 273 49 *~ 0.5;
#X obj 166 123 +~ 0.5;
#X obj 351 224 vd~ \$0-delline;
#X obj 335 274 outlet~;
#X obj 335 251 *~;
#X obj 334 146 sqrt~;
#X obj 334 122 +~ 0.5;
#X obj 182 178 *~ 4;
#X obj 352 178 *~ 4;
#X msg 423 17 1;
#X msg 423 37 -1;
#X floatatom 423 59 5 0 0 0 - - -;
#X msg 352 2 4;
#X obj 352 199 +~;
#X obj 385 179 / 2;
#X obj 182 216 +~;
#X obj 198 194 / 2;
#X connect 1 0 0 0;
#X connect 2 0 7 1;
#X connect 3 0 11 0;
#X connect 5 0 17 0;
#X connect 6 0 18 1;
#X connect 6 0 19 1;
#X connect 6 0 27 0;
#X connect 6 0 25 0;
#X connect 7 0 4 0;
#X connect 8 0 6 0;
#X connect 9 0 7 0;
#X connect 9 0 19 0;
#X connect 10 0 6 0;
#X connect 11 0 12 0;
#X connect 11 0 5 0;
#X connect 12 0 9 0;
#X connect 13 0 15 1;
#X connect 15 0 14 0;
#X connect 16 0 15 0;
#X connect 16 0 18 0;
#X connect 17 0 16 0;
#X connect 18 0 26 0;
#X connect 19 0 24 0;
#X connect 20 0 22 0;
#X connect 21 0 22 0;
#X connect 23 0 6 0;
#X connect 24 0 13 0;
#X connect 25 0 24 1;
#X connect 26 0 2 0;
#X connect 27 0 26 1;
#X restore 21 266 pd pandel;
#X obj 432 168 +;
#X obj 432 124 t f f;
#X obj 432 212 + 0.2;
#X obj 432 146 pow 0.2;
#X floatatom 432 237 5 0 0 0 - - -;
#X obj 301 126 pow 1.5;
#X obj 487 146 * -0.7;
#X obj 432 190 * 1.35;
#X obj 95 53 pow 3;
#X obj 58 147 scale 0 1 -20 110;
#X msg 300 168 \$1 50;
#X connect 0 0 20 1;
#X connect 1 0 20 1;
#X connect 2 0 0 2;
#X connect 3 0 4 0;
#X connect 4 0 1 1;
#X connect 5 0 20 0;
#X connect 8 0 26 0;
#X connect 8 0 22 0;
#X connect 8 0 10 0;
#X connect 8 0 29 0;
#X connect 9 0 10 0;
#X connect 9 0 15 0;
#X connect 9 1 22 0;
#X connect 9 1 26 0;
#X connect 10 0 30 0;
#X connect 11 0 31 0;
#X connect 13 0 14 0;
#X connect 14 0 19 0;
#X connect 15 0 13 0;
#X connect 15 1 18 0;
#X connect 16 0 1 3;
#X connect 17 0 16 0;
#X connect 18 0 14 1;
#X connect 19 0 17 0;
#X connect 20 0 6 0;
#X connect 20 1 7 0;
#X connect 21 0 28 0;
#X connect 22 0 24 0;
#X connect 22 1 27 0;
#X connect 23 0 25 0;
#X connect 23 0 0 3;
#X connect 24 0 21 0;
#X connect 26 0 11 0;
#X connect 27 0 21 1;
#X connect 28 0 23 0;
#X connect 29 0 1 3;
#X connect 30 0 3 0;
#X connect 31 0 2 0;
#X restore 235 168 pd PanDelDestroy;
#N canvas 38 164 543 308 flanger 0;
#X obj 193 105 delwrite~ \$0-flangdel 500;
#X obj 132 21 inlet~;
#X obj 327 33 block~ 1;
#X floatatom 183 149 5 0 0 0 - - -;
#X obj 131 229 outlet~;
#X obj 193 200 *~;
#X obj 274 250 hsl 128 15 0 1 0 0 empty empty empty -2 -6 0 8 -262144
-1 -1 9900 1;
#X obj 183 167 delread~ \$0-flangdel;
#X obj 420 92 sublfo;
#SUB settings 0.245001 4.23 0.525;
#X floatatom 451 190 5 0 0 0 - - -;
#X obj 402 192 * 5;
#X obj 402 214 + 0.2;
#X obj 193 82 hip~ 450;
#X obj 194 56 *~;
#X obj 284 62 hsl 128 15 0 1 0 0 empty empty empty -2 -6 0 8 -262144
-1 -1 11800 1;
#X obj 281 34 inlet;
#X floatatom 293 287 5 0 0 0 - - -;
#X obj 256 207 * 0.8;
#X connect 1 0 4 0;
#X connect 1 0 13 0;
#X connect 3 0 7 0;
#X connect 5 0 0 0;
#X connect 6 0 16 0;
#X connect 7 0 4 0;
#X connect 7 0 5 0;
#X connect 8 1 9 0;
#X connect 8 1 10 0;
#X connect 10 0 11 0;
#X connect 11 0 3 0;
#X connect 12 0 0 0;
#X connect 13 0 12 0;
#X connect 14 0 13 1;
#X connect 14 0 17 0;
#X connect 15 0 14 0;
#X connect 17 0 5 1;
#X restore 234 128 pd flanger;
#X obj 235 107 *~ 0.3;
#X obj 96 155 fndrev;
#X obj 295 104 hsl 128 15 0 1 0 0 empty empty empty -2 -6 0 8 -262144
-1 -1 11800 1;
#X connect 0 0 12 0;
#X connect 5 0 4 0;
#X connect 6 0 5 0;
#X connect 8 0 12 0;
#X connect 9 0 10 1;
#X connect 10 0 1 0;
#X connect 10 1 2 0;
#X connect 11 0 10 0;
#X connect 11 0 13 0;
#X connect 12 0 11 0;
#X connect 13 0 1 0;
#X connect 13 1 2 0;
#X connect 14 0 11 1;
