#N canvas 297 124 450 137 10;
#X obj 242 39 inlet;
#N canvas 0 46 541 472 in_timer 0;
#X obj 130 25 inlet;
#X obj 28 120 t b b;
#X obj 62 163 0;
#X obj 44 190 + 1;
#X obj 16 212 sel 2;
#X obj 49 265 f;
#X obj 16 239 t b b;
#X obj 242 359 outlet;
#X msg 49 286 const \$1;
#X obj 62 238 r \$0-localReset-snd;
#X obj 62 142 del 300;
#X obj 248 40 inlet;
#X text 245 23 Rec On/Off;
#N canvas 368 73 470 386 seuil 0;
#X obj 25 20 inlet;
#X obj 25 160 moses;
#X obj 55 180 moses;
#X obj 85 217 f;
#X obj 85 342 outlet;
#X obj 55 115 - 0.008;
#X obj 134 118 + 0.008;
#X obj 113 30 r \$1-MRseuil;
#X obj 99 92 * -1;
#X obj 205 27 inlet;
#X obj 123 289 0;
#X obj 85 268 1;
#X obj 85 291 f;
#X obj 123 265 del 1000;
#X obj 85 242 t b b b;
#X obj 85 317 change;
#X obj 284 35 inlet;
#X text 277 20 abandon;
#X msg 284 61 stop;
#X msg 200 224 set 0;
#X obj 366 126 bng 15 250 50 0 empty empty empty 0 -6 0 8 -262144 -1
-1;
#X obj 25 73 demux;
#X obj 298 227 > 0;
#X obj 336 298 0;
#X obj 298 277 1;
#X obj 298 300 f;
#X obj 336 274 del 1000;
#X obj 298 326 change;
#X obj 298 249 sel 1 0;
#X obj 73 40 tgl 15 1 empty empty empty 0 -6 0 8 -262144 -1 -1 1 1
;
#X msg 358 235 stop;
#X connect 0 0 21 0;
#X connect 1 0 3 0;
#X connect 1 1 2 0;
#X connect 2 1 3 0;
#X connect 3 0 5 0;
#X connect 3 0 6 0;
#X connect 3 0 14 0;
#X connect 5 0 1 1;
#X connect 6 0 2 1;
#X connect 7 0 8 0;
#X connect 7 0 6 1;
#X connect 8 0 5 1;
#X connect 9 0 8 0;
#X connect 9 0 6 1;
#X connect 10 0 12 0;
#X connect 11 0 12 0;
#X connect 12 0 15 0;
#X connect 13 0 10 0;
#X connect 14 0 11 0;
#X connect 14 1 13 0;
#X connect 15 0 4 0;
#X connect 16 0 18 0;
#X connect 16 0 19 0;
#X connect 16 0 20 0;
#X connect 18 0 13 0;
#X connect 18 0 26 0;
#X connect 19 0 15 0;
#X connect 19 0 27 0;
#X connect 21 0 1 0;
#X connect 21 1 22 0;
#X connect 22 0 28 0;
#X connect 23 0 25 0;
#X connect 24 0 25 0;
#X connect 25 0 27 0;
#X connect 26 0 23 0;
#X connect 27 0 4 0;
#X connect 28 0 24 0;
#X connect 28 0 30 0;
#X connect 28 1 26 0;
#X connect 29 0 21 1;
#X connect 30 0 26 0;
#X restore 160 142 pd seuil;
#X obj 185 45 inlet;
#X obj 16 190 1;
#X floatatom 127 204 5 0 0 0 - - -;
#N canvas 0 290 371 265 compteur 0;
#X obj 71 75 spigot;
#X obj 22 41 r \$3-clock;
#X text 99 20 Rec On/Off;
#X obj 108 39 inlet;
#X obj 126 75 tgl 15 0 empty empty empty 0 -6 0 8 -262144 -1 -1 0 1
;
#X obj 71 219 outlet;
#X obj 196 214 outlet;
#X obj 196 148 pack f f;
#X obj 196 42 r \$3-clock48;
#X obj 196 115 spigot;
#X connect 0 0 5 0;
#X connect 1 0 0 0;
#X connect 3 0 0 1;
#X connect 3 0 9 1;
#X connect 4 0 0 1;
#X connect 7 0 6 0;
#X connect 8 0 9 0;
#X connect 9 0 7 0;
#X restore 278 107 pd compteur;
#N canvas 357 131 641 529 ecriveur 0;
#X obj 108 57 inlet;
#X text 106 40 seuil;
#X obj 367 55 inlet;
#X obj 156 233 i;
#X obj 262 234 + 1;
#X text 367 39 compteur;
#X obj 198 55 inlet;
#X text 198 39 compteur(clock);
#X obj 198 75 unpack f f;
#X obj 81 128 sel 0 1;
#X obj 187 299 pack f f;
#X obj 187 432 tabwrite \$0-table;
#X obj 187 256 t b f;
#X obj 187 278 f;
#X obj 51 185 timer;
#X obj 51 225 /;
#X obj 51 205 - 1000;
#X msg 216 193 768;
#X obj 142 165 t b b;
#X msg 172 206 0;
#X obj 367 83 b;
#X obj 522 69 inlet;
#X text 531 54 parametre;
#X obj 51 266 i;
#X obj 51 311 clip 1 16;
#X obj 51 380 outlet;
#X text 53 401 nbrbeat;
#X obj 259 193 * 48;
#X obj 55 50 tgl 15 0 empty empty empty 0 -6 0 8 -262144 -1 -1 0 1
;
#X obj 51 246 + 1;
#X obj 402 286 spigot;
#X obj 402 331 outlet;
#X msg 495 252 1;
#X msg 463 249 0;
#X obj 539 328 outlet;
#X obj 187 235 moses 768;
#X floatatom 462 339 5 0 0 0 - - -;
#X floatatom 78 357 5 0 0 0 - - -;
#X obj 269 129 bng 15 250 50 0 empty empty empty 0 -6 0 8 -262144 -1
-1;
#X obj 397 82 unpack f f;
#X floatatom 303 124 8 0 0 0 - - -;
#X obj 462 114 -;
#X obj 427 16 sel 1;
#X obj 462 155 * 48;
#X obj 397 177 +;
#X floatatom 112 384 10 0 0 0 - - -;
#X obj 462 134 i;
#X obj 478 82 i;
#X obj 413 131 f;
#X obj 397 157 -;
#X floatatom 354 253 5 0 0 0 - - -;
#X obj 402 265 f;
#X obj 402 218 t f f;
#X obj 402 241 sel 1;
#X obj 325 149 t b f;
#X obj 427 36 t b b b;
#X obj 591 29 inlet;
#X text 582 10 abandon;
#X msg 602 81 1e+06;
#X obj 187 331 spigot;
#X obj 290 316 sel 1;
#X msg 290 335 1;
#X msg 261 310 0;
#X obj 108 78 t f f f f;
#X obj 187 358 demux;
#X obj 240 348 tgl 15 1 empty empty empty 0 -6 0 8 -262144 -1 -1 1
1;
#X obj 319 359 unpack f f;
#X obj 373 403 f;
#X obj 319 402 sel 10;
#X obj 319 450 sel 0;
#X obj 319 383 t f f;
#X obj 319 426 f;
#X msg 349 471 0;
#X obj 356 496 pack f f;
#X obj 9 220 / 4;
#X obj 9 282 max 1;
#X obj 9 301 * 4;
#X obj 9 262 i;
#X obj 9 241 + 0.5;
#X connect 0 0 63 0;
#X connect 2 0 20 0;
#X connect 2 0 39 0;
#X connect 3 0 35 0;
#X connect 4 0 3 1;
#X connect 6 0 8 0;
#X connect 8 1 15 1;
#X connect 9 0 14 1;
#X connect 9 1 14 0;
#X connect 9 1 18 0;
#X connect 10 0 59 0;
#X connect 12 0 13 0;
#X connect 12 1 10 1;
#X connect 12 1 45 0;
#X connect 13 0 10 0;
#X connect 14 0 16 0;
#X connect 15 0 29 0;
#X connect 16 0 15 0;
#X connect 17 0 35 1;
#X connect 18 1 17 0;
#X connect 18 1 19 0;
#X connect 19 0 3 1;
#X connect 21 0 51 0;
#X connect 23 0 74 0;
#X connect 24 0 25 0;
#X connect 24 0 27 0;
#X connect 24 0 37 0;
#X connect 27 0 35 1;
#X connect 29 0 23 0;
#X connect 30 0 13 1;
#X connect 30 0 31 0;
#X connect 32 0 30 1;
#X connect 32 0 34 0;
#X connect 33 0 30 1;
#X connect 33 0 34 0;
#X connect 35 0 4 0;
#X connect 35 0 12 0;
#X connect 35 1 62 0;
#X connect 39 0 48 1;
#X connect 39 0 49 0;
#X connect 39 1 41 0;
#X connect 39 1 47 1;
#X connect 41 0 46 0;
#X connect 42 0 55 0;
#X connect 43 0 44 1;
#X connect 44 0 3 0;
#X connect 46 0 43 0;
#X connect 47 0 41 1;
#X connect 48 0 49 1;
#X connect 49 0 44 0;
#X connect 51 0 30 0;
#X connect 52 0 53 0;
#X connect 52 1 30 1;
#X connect 53 0 51 0;
#X connect 55 0 49 0;
#X connect 55 1 41 0;
#X connect 55 2 47 0;
#X connect 55 2 48 0;
#X connect 56 0 58 0;
#X connect 56 0 62 0;
#X connect 59 0 64 0;
#X connect 60 0 61 0;
#X connect 61 0 59 1;
#X connect 62 0 59 1;
#X connect 63 0 9 0;
#X connect 63 1 42 0;
#X connect 63 1 34 0;
#X connect 63 2 52 0;
#X connect 63 3 60 0;
#X connect 64 0 11 0;
#X connect 64 1 66 0;
#X connect 65 0 64 1;
#X connect 66 0 70 0;
#X connect 66 1 73 1;
#X connect 67 0 68 1;
#X connect 68 0 71 0;
#X connect 68 1 67 0;
#X connect 68 1 73 0;
#X connect 69 1 72 0;
#X connect 70 0 68 0;
#X connect 70 1 71 1;
#X connect 71 0 69 0;
#X connect 72 0 73 0;
#X connect 73 0 11 0;
#X connect 74 0 78 0;
#X connect 75 0 76 0;
#X connect 76 0 24 0;
#X connect 77 0 75 0;
#X connect 78 0 77 0;
#X restore 240 203 pd ecriveur;
#N canvas 730 106 406 510 lecteur 0;
#X obj 117 42 inlet;
#X text 111 23 compteur;
#X obj 34 43 inlet;
#X text 36 26 seuil;
#X obj 220 41 inlet;
#X text 214 22 nbbeat;
#X obj 34 69 sel 0 1;
#X obj 101 142 unpack f f;
#X obj 85 164 f;
#X obj 85 119 t b b;
#X obj 58 228 -;
#X obj 134 203 -;
#X obj 178 71 bng 15 250 50 0 empty empty empty 0 -6 0 8 -262144 -1
-1;
#X obj 134 226 mod;
#X msg 215 179 4;
#X obj 43 166 t f f;
#X obj 81 398 tabread \$0-table;
#X obj 81 350 spigot;
#X obj 118 330 != 1;
#X obj 81 449 outlet;
#X floatatom 169 460 5 0 0 0 - - -;
#X floatatom 12 210 5 0 0 0 - - -;
#X obj 58 279 +;
#X floatatom 134 476 5 0 0 0 - - -;
#X obj 134 248 * 48;
#X obj 80 319 mod;
#X obj 96 300 * 48;
#X msg 141 298 4;
#X obj 150 179 i;
#X obj 74 209 nbx 5 14 -1e+37 1e+37 0 0 \$0-orig-snd \$0-orig-rcv origine
0 -6 0 10 -262144 -1 -1 43 256;
#X floatatom 38 460 5 0 0 0 - - -;
#X obj 284 35 inlet;
#X text 277 20 abandon;
#X msg 284 258 0;
#X obj 178 441 tabread \$0-table;
#X floatatom 205 420 5 0 0 0 - - -;
#X floatatom 141 426 5 0 0 0 - - -;
#X obj 296 396 outlet;
#X obj 81 373 t f f;
#X text 285 380 ->reecriveur;
#X connect 0 0 7 0;
#X connect 2 0 6 0;
#X connect 2 0 18 0;
#X connect 4 0 13 1;
#X connect 4 0 26 0;
#X connect 6 1 9 0;
#X connect 7 0 8 1;
#X connect 7 0 15 0;
#X connect 7 1 11 0;
#X connect 7 1 28 1;
#X connect 8 0 21 0;
#X connect 8 0 29 0;
#X connect 9 0 8 0;
#X connect 9 1 28 0;
#X connect 10 0 22 0;
#X connect 11 0 13 0;
#X connect 12 0 9 0;
#X connect 13 0 24 0;
#X connect 14 0 13 1;
#X connect 15 0 10 0;
#X connect 16 0 19 0;
#X connect 17 0 38 0;
#X connect 18 0 17 1;
#X connect 22 0 25 0;
#X connect 24 0 22 1;
#X connect 25 0 17 0;
#X connect 26 0 25 1;
#X connect 27 0 26 0;
#X connect 28 0 11 1;
#X connect 29 0 10 1;
#X connect 31 0 33 0;
#X connect 33 0 18 0;
#X connect 34 0 20 0;
#X connect 35 0 34 0;
#X connect 38 0 16 0;
#X connect 38 1 37 0;
#X restore 312 279 pd lecteur;
#X text 184 31 seuil;
#X text 123 11 parametre;
#X obj 109 206 tgl 15 0 empty empty empty 0 -6 0 8 -262144 -1 -1 1
1;
#X obj 130 119 demux;
#X obj 209 295 f;
#X obj 248 63 t f f;
#X obj 215 272 sel 0;
#X obj 242 337 change;
#X obj 130 71 t f f;
#X obj 66 412 tabread \$0-table;
#X floatatom 75 440 5 0 0 0 - - -;
#X floatatom 72 389 5 0 0 0 - - -;
#X obj 49 310 s \$0-table;
#X obj 355 256 nbx 5 14 -1e+37 1e+37 0 0 \$0-len-snd \$0-len-rcv len
0 -6 0 10 -262144 -1 -1 8 256;
#X obj 417 17 r \$4-pattern-snd;
#X obj 417 43 route _all_ \$5;
#X obj 417 70 route load;
#X obj 417 117 del 100;
#X obj 417 91 t b b;
#X msg 447 136 0;
#X msg 418 136 1;
#X obj 346 45 t b f;
#X obj 374 118 tgl 15 0 empty empty empty 0 -6 0 8 -262144 -1 -1 0
1;
#X obj 346 67 * 1;
#X floatatom 428 192 5 0 0 0 - - -;
#X obj 160 163 demux;
#N canvas 0 112 284 313 reecriveur 0;
#X obj 27 31 inlet;
#X obj 84 29 inlet;
#X msg 27 78 \$2 \$1;
#X obj 28 282 tabwrite \$0-table;
#X text 17 14 compteur;
#X text 89 15 val;
#X obj 137 28 inlet;
#X text 134 14 reset;
#X obj 27 56 pack f f;
#X msg 137 49 0;
#X floatatom 153 85 5 0 0 0 - - -;
#X obj 173 107 print;
#X obj 27 100 unpack f f;
#X obj 81 156 f;
#X obj 27 155 sel 10;
#X obj 27 203 sel 0;
#X obj 27 124 t f f;
#X obj 27 179 f;
#X msg 57 224 0;
#X obj 66 252 pack f f;
#X connect 0 0 8 0;
#X connect 1 0 8 1;
#X connect 2 0 12 0;
#X connect 6 0 9 0;
#X connect 8 0 2 0;
#X connect 12 0 16 0;
#X connect 12 1 3 1;
#X connect 12 1 19 1;
#X connect 13 0 14 1;
#X connect 14 0 17 0;
#X connect 14 1 13 0;
#X connect 14 1 3 0;
#X connect 14 1 19 0;
#X connect 15 1 18 0;
#X connect 16 0 14 0;
#X connect 16 1 17 1;
#X connect 17 0 15 0;
#X connect 18 0 3 0;
#X connect 18 0 19 0;
#X restore 377 332 pd reecriveur;
#X obj 422 306 sel 0;
#X obj 422 216 tgl 15 0 empty empty empty 0 -6 0 8 -262144 -1 -1 1
1;
#X text 429 232 reecrit;
#X obj 429 171 r \$0-len-snd;
#X obj 489 217 > 0;
#X msg 133 302 0;
#X obj 376 410 outlet;
#X obj 376 388 r \$0-len-snd;
#X obj 137 378 bng 15 250 50 0 empty empty empty 0 -6 0 8 -262144 -1
-1;
#X connect 0 0 28 0;
#X connect 1 0 15 0;
#X connect 1 1 10 0;
#X connect 2 0 15 0;
#X connect 3 0 15 1;
#X connect 4 0 6 0;
#X connect 5 0 8 0;
#X connect 5 0 52 0;
#X connect 6 1 5 0;
#X connect 8 0 32 0;
#X connect 9 0 5 0;
#X connect 10 0 2 0;
#X connect 11 0 25 0;
#X connect 13 0 45 0;
#X connect 13 0 22 0;
#X connect 14 0 13 1;
#X connect 15 0 3 0;
#X connect 15 0 4 0;
#X connect 17 0 18 1;
#X connect 17 1 18 2;
#X connect 17 1 19 1;
#X connect 18 0 33 0;
#X connect 18 1 27 0;
#X connect 18 2 19 0;
#X connect 19 0 27 0;
#X connect 19 1 46 0;
#X connect 23 0 24 0;
#X connect 23 1 13 0;
#X connect 24 0 5 1;
#X connect 24 0 27 0;
#X connect 25 0 26 0;
#X connect 25 1 17 0;
#X connect 25 1 1 0;
#X connect 25 1 43 0;
#X connect 26 0 24 0;
#X connect 27 0 7 0;
#X connect 28 0 23 0;
#X connect 28 1 18 3;
#X connect 28 1 46 1;
#X connect 29 0 30 0;
#X connect 31 0 29 0;
#X connect 33 0 19 2;
#X connect 34 0 35 0;
#X connect 35 0 36 0;
#X connect 35 1 36 0;
#X connect 36 0 38 0;
#X connect 37 0 40 0;
#X connect 37 0 19 3;
#X connect 38 0 37 0;
#X connect 38 1 39 0;
#X connect 38 1 18 4;
#X connect 38 1 13 2;
#X connect 38 1 19 3;
#X connect 39 0 41 0;
#X connect 40 0 41 0;
#X connect 41 0 43 0;
#X connect 41 1 42 0;
#X connect 41 1 43 1;
#X connect 43 0 23 1;
#X connect 45 0 18 0;
#X connect 47 0 46 2;
#X connect 48 0 45 1;
#X connect 48 0 47 0;
#X connect 50 0 44 0;
#X connect 50 0 51 0;
#X connect 51 0 48 0;
#X connect 52 0 48 0;
#X connect 52 0 53 0;
#X connect 54 0 53 0;
#X restore 242 64 pd in_timer;
#X obj 242 95 outlet;
#X obj 46 106 table \$0-table 768;
#X obj 26 53 bng 15 250 50 0 \$0-localReset-snd \$0-localReset-rcv
reset 0 -6 1 8 -261689 -1 -1;
#X obj 314 40 inlet;
#X text 216 23 parametre;
#X text 311 23 rec on/off;
#X obj 46 83 aptab \$4 \$5 \$0-table 768;
#X obj 69 64 apf \$4 \$5-len \$0-len;
#X obj 69 45 apf \$4 \$5-orig \$0-orig;
#X obj 314 92 outlet;
#X text 311 110 length;
#X connect 0 0 1 0;
#X connect 1 0 2 0;
#X connect 1 1 11 0;
#X connect 5 0 1 2;
#X coords 0 0 1 1 150 15 1;
