#N canvas 451 105 226 67 10;
#X obj 21 40 hsl 185 15 0 15.9 0 0 \$1-floatpatt-snd \$1-floatpatt-rcv
empty -2 -6 0 8 -262144 -1 -1 0 1;
#N canvas 162 134 409 496 guts 0;
#X msg 70 142 _all_ load \$1;
#X obj 188 102 i;
#X obj 188 123 change;
#X msg 188 144 set \$1;
#X obj 70 122 speedlim 20;
#X obj 159 67 * 15.2;
#X obj 70 58 min 15;
#X obj 70 100 line;
#X msg 70 79 \$1 50;
#X msg 111 276 \$1;
#X obj 243 282 tgl 15 0 empty empty empty 0 -6 0 8 -262144 -1 -1 0
1;
#X obj 243 313 sel 0 1;
#X msg 243 334 color 0 22 22;
#X msg 266 358 color 13 22 22;
#X obj 111 334 demux;
#X obj 141 358 t f f b;
#X msg 185 380 0;
#X msg 163 410 _all_ store \$1;
#X msg 27 411 _all_ load \$1;
#X obj 85 300 f;
#X obj 42 251 i;
#X obj 69 251 + 1;
#X msg 69 230 0;
#X obj 28 211 t b b;
#X obj 42 272 sel 1;
#X obj 69 210 delay 250;
#X obj 70 164 s \$1-pattern-snd;
#X obj 188 164 s \$1-patt_but-rcv;
#X obj 266 380 s \$1-patt_but-rcv;
#X obj 244 256 r \$1-save_patt-snd;
#X obj 111 256 r \$1-patt_but-snd;
#X obj 138 456 s \$1-pattern-snd;
#X obj 28 189 r \$1-pat_autosave-snd;
#X obj 70 16 r \$1-floatpatt-snd;
#X connect 0 0 26 0;
#X connect 1 0 2 0;
#X connect 2 0 3 0;
#X connect 3 0 27 0;
#X connect 4 0 0 0;
#X connect 6 0 8 0;
#X connect 7 0 4 0;
#X connect 7 0 1 0;
#X connect 8 0 7 0;
#X connect 9 0 14 0;
#X connect 9 0 19 1;
#X connect 10 0 11 0;
#X connect 10 0 14 1;
#X connect 11 0 12 0;
#X connect 11 1 13 0;
#X connect 12 0 28 0;
#X connect 13 0 28 0;
#X connect 14 0 18 0;
#X connect 14 1 15 0;
#X connect 15 1 17 0;
#X connect 15 2 16 0;
#X connect 16 0 10 0;
#X connect 17 0 31 0;
#X connect 18 0 31 0;
#X connect 19 0 15 0;
#X connect 20 0 21 0;
#X connect 20 0 24 0;
#X connect 21 0 20 1;
#X connect 22 0 20 1;
#X connect 23 0 20 0;
#X connect 23 1 25 0;
#X connect 24 0 19 0;
#X connect 25 0 22 0;
#X connect 29 0 10 0;
#X connect 30 0 9 0;
#X connect 32 0 23 0;
#X connect 33 0 6 0;
#X restore 214 23 pd guts;
#X obj 215 3 inlet;
#X obj 214 43 outlet;
#X obj 3 27 bng 12 250 50 0 \$1-save_patt-snd \$1-save_patt-rcv empty
122 -6 1 6 -258699 -1 -262144;
#X obj 16 27 hradio 12 1 0 16 \$1-patt_but-snd \$1-patt_but-rcv _1._2._3_4._5._6_7._8.9.10.11.12.13.14.15.16
0 -6 2 10 -262144 -1 -1 0;
#X connect 2 0 0 0;
#X coords 0 0 1 1 200 60 1;
