#N canvas 242 372 484 170 10;
#X obj 11 38 a2l;
#X obj 11 59 l2s;
#X msg 11 81 send \$1;
#X obj 150 123 netdist;
#X obj 150 41 route connect disconnect;
#N canvas 0 0 125 230 testping 0;
#X obj 21 96 test_ping;
#X msg 21 75 \$1;
#X obj 21 32 unpack s f;
#X obj 21 54 t s s;
#X obj 21 117 sel 1;
#X obj 21 165 pack s f;
#X obj 21 142 symbol;
#X obj 21 11 inlet;
#X obj 21 187 outlet;
#X connect 0 0 4 0;
#X connect 1 0 0 0;
#X connect 2 0 3 0;
#X connect 2 1 5 1;
#X connect 3 0 1 0;
#X connect 3 1 6 1;
#X connect 4 0 6 0;
#X connect 5 0 8 0;
#X connect 6 0 5 0;
#X connect 7 0 2 0;
#X restore 150 68 pd testping;
#X msg 150 93 connect \$1 \$2;
#X msg 253 94 disconnect \$1 \$2;
#N canvas 0 0 125 230 testping 0;
#X obj 21 96 test_ping;
#X msg 21 75 \$1;
#X obj 21 32 unpack s f;
#X obj 21 54 t s s;
#X obj 21 117 sel 1;
#X obj 21 165 pack s f;
#X obj 21 142 symbol;
#X obj 21 11 inlet;
#X obj 21 187 outlet;
#X connect 0 0 4 0;
#X connect 1 0 0 0;
#X connect 2 0 3 0;
#X connect 2 1 5 1;
#X connect 3 0 1 0;
#X connect 3 1 6 1;
#X connect 4 0 6 0;
#X connect 5 0 8 0;
#X connect 6 0 5 0;
#X connect 7 0 2 0;
#X restore 253 71 pd testping;
#X floatatom 150 146 5 0 0 0 - - -;
#X obj 11 122 spigot;
#X obj 48 102 > 0;
#X msg 74 43 print;
#X msg 74 65 clear;
#X obj 85 141 tgl 15 0 empty empty empty 0 -6 0 8 -262144 -1 -1 0 1
;
#X floatatom 265 19 5 0 0 0 - - -;
#X obj 11 18 r \$1-pdnet-toclient;
#X obj 325 41 s \$1-pdnet-fromclient;
#X obj 150 18 netreceive \$2;
#X obj 199 146 outlet;
#X connect 0 0 1 0;
#X connect 1 0 2 0;
#X connect 2 0 10 0;
#X connect 3 0 9 0;
#X connect 3 0 11 0;
#X connect 3 0 19 0;
#X connect 4 0 5 0;
#X connect 4 1 8 0;
#X connect 4 2 17 0;
#X connect 5 0 6 0;
#X connect 6 0 3 0;
#X connect 7 0 3 0;
#X connect 8 0 7 0;
#X connect 10 0 3 0;
#X connect 11 0 10 1;
#X connect 11 0 14 0;
#X connect 12 0 3 0;
#X connect 13 0 3 0;
#X connect 16 0 0 0;
#X connect 18 0 4 0;
#X connect 18 1 15 0;
