#N canvas 252 61 221 350 10;
#X obj 66 156 absolutepath;
#X msg 66 133 symbol test-ping.sh;
#X obj 15 177 pack s s;
#X obj 66 113 loadbang;
#X msg 15 198 \$2 \$1;
#X obj 15 218 shell;
#X obj 15 239 route ok no;
#X msg 15 260 1;
#X msg 51 260 0;
#X symbolatom 108 247 10 0 0 0 - - -;
#X obj 15 156 symbol;
#X msg 112 67 localhost;
#X obj 108 228 symbol;
#X msg 103 46 hurlomatic;
#X obj 29 289 tgl 15 0 empty empty empty 0 -6 0 8 -262144 -1 -1 1 1
;
#X obj 29 310 outlet;
#X obj 15 7 inlet;
#X msg 92 28 modem;
#X msg 74 7 192.168.1.1;
#X connect 0 0 2 1;
#X connect 1 0 0 0;
#X connect 2 0 4 0;
#X connect 3 0 1 0;
#X connect 4 0 5 0;
#X connect 5 0 12 0;
#X connect 5 0 6 0;
#X connect 6 0 7 0;
#X connect 6 1 8 0;
#X connect 7 0 14 0;
#X connect 8 0 14 0;
#X connect 10 0 2 0;
#X connect 11 0 10 0;
#X connect 12 0 9 0;
#X connect 13 0 10 0;
#X connect 14 0 15 0;
#X connect 16 0 10 0;
#X connect 17 0 10 0;
#X connect 18 0 10 0;
