#N canvas 468 147 307 319 10;
#X obj 9 24 PdNetClient 599000 felix 599001;
#N canvas 187 28 389 423 interface_parole_guts 0;
#X obj 22 9 r \$0-interfaces-snd;
#X obj 21 400 s \$0-interfaces-rcv;
#X obj 22 116 glue;
#X obj 22 74 t b a;
#X obj 57 95 a2l;
#X obj 22 138 route list;
#X obj 22 95 l x;
#X obj 232 153 loadbang;
#X obj 22 160 s pdnet-toserver;
#X obj 21 288 unwonk s;
#X obj 72 308 a2l;
#X obj 21 354 glue;
#X obj 21 376 route list;
#X obj 21 311 sel x;
#X obj 58 116 a2l;
#X msg 197 133 rotobservatoire;
#X obj 106 311 symbol;
#X obj 21 190 r pdnet-fromserver;
#X obj 21 210 a2l;
#X obj 22 29 route parole;
#X obj 21 333 l parole;
#X msg 121 343 parole titlecnv label \$1;
#X obj 21 258 t a a;
#X obj 161 303 l;
#X obj 161 283 b;
#X obj 6 233 nroute vol 2;
#X obj 22 51 route choix;
#X obj 161 56 sel 0 1 2 3;
#X msg 161 79 repietiteur;
#X msg 179 104 syllaboratoire;
#X obj 197 170 t b a;
#X msg 197 195 paroleup \, paroledown;
#X connect 0 0 19 0;
#X connect 2 0 5 0;
#X connect 3 0 6 0;
#X connect 3 1 4 0;
#X connect 4 0 2 1;
#X connect 5 0 8 0;
#X connect 6 0 2 0;
#X connect 7 0 15 0;
#X connect 9 0 13 0;
#X connect 9 1 10 0;
#X connect 10 0 11 1;
#X connect 11 0 12 0;
#X connect 12 0 1 0;
#X connect 13 0 20 0;
#X connect 13 1 24 0;
#X connect 14 0 6 1;
#X connect 15 0 30 0;
#X connect 16 0 13 1;
#X connect 16 0 21 0;
#X connect 17 0 18 0;
#X connect 18 0 25 0;
#X connect 19 0 26 0;
#X connect 19 1 8 0;
#X connect 20 0 11 0;
#X connect 21 0 1 0;
#X connect 22 0 9 0;
#X connect 22 1 23 1;
#X connect 23 0 12 0;
#X connect 24 0 23 0;
#X connect 25 0 12 0;
#X connect 25 1 22 0;
#X connect 26 0 27 0;
#X connect 26 1 3 0;
#X connect 27 0 28 0;
#X connect 27 1 29 0;
#X connect 27 2 15 0;
#X connect 28 0 30 0;
#X connect 29 0 30 0;
#X connect 30 0 31 0;
#X connect 30 1 14 0;
#X connect 30 1 16 0;
#X connect 31 0 3 0;
#X restore 15 279 pd interface_parole_guts;
#X obj 39 5 loadbang;
#X msg 10 5 1;
#X obj 15 256 ../ParoleCtlNokia \$0 parole;
#X msg 75 102 \; pd-ParoleCtlNokia.pd vis 1;
#X obj 9 90 bng 40 250 50 0 empty empty empty 0 -6 0 8 -241291 -1 -1
;
#N canvas 208 0 506 499 vol-guts 0;
#X obj 17 22 r \$0-repievol-snd;
#X obj 56 65 r \$0-syllavol-snd;
#X obj 87 111 r \$0-rotovol-snd;
#X msg 17 44 repietiteur vol \$1;
#X obj 56 198 s \$0-interfaces-snd;
#X msg 56 86 syllaboratoire vol \$1;
#X msg 87 131 rotobservatoire vol \$1;
#X obj 137 152 r \$0-myosovol-snd;
#X msg 137 173 myosotis vol \$1;
#X obj 293 197 s \$0-interfaces-snd;
#X obj 254 20 r \$0-crivol-snd;
#X msg 254 42 cri vol \$1;
#X obj 293 63 r \$0-jetaimevol-snd;
#X msg 293 84 jetaime vol \$1;
#X obj 324 109 r \$0-detestevol-snd;
#X msg 324 129 deteste vol \$1;
#X obj 373 150 r \$0-dingvol-snd;
#X msg 373 171 ding vol \$1;
#X obj 35 232 r \$0-interfaces-rcv;
#X obj 35 252 route repietiteur syllaboratoire rotobservatoire myosotis
;
#X obj 35 331 route vol;
#X obj 35 351 s \$0-repievol-rcv;
#X obj 133 332 s \$0-syllavol-rcv;
#X obj 232 314 s \$0-rotovol-rcv;
#X obj 330 294 s \$0-myosovol-rcv;
#X obj 133 313 route vol;
#X obj 232 294 route vol;
#X obj 330 274 route vol;
#X obj 35 417 route vol;
#X obj 103 417 route vol;
#X obj 171 417 route vol;
#X obj 239 417 route vol;
#X obj 35 495 s \$0-crivol-rcv;
#X obj 35 396 route cri jetaime deteste ding;
#X obj 103 476 s \$0-jetaimevol-rcv;
#X obj 171 456 s \$0-detestevol-rcv;
#X obj 239 437 s \$0-dingvol-rcv;
#X obj 35 376 r \$0-interfaces-rcv;
#X obj 227 217 print;
#X connect 0 0 3 0;
#X connect 1 0 5 0;
#X connect 2 0 6 0;
#X connect 3 0 4 0;
#X connect 5 0 4 0;
#X connect 6 0 4 0;
#X connect 7 0 8 0;
#X connect 8 0 4 0;
#X connect 10 0 11 0;
#X connect 11 0 9 0;
#X connect 12 0 13 0;
#X connect 13 0 9 0;
#X connect 14 0 15 0;
#X connect 15 0 9 0;
#X connect 16 0 17 0;
#X connect 17 0 9 0;
#X connect 18 0 19 0;
#X connect 19 0 20 0;
#X connect 19 1 25 0;
#X connect 19 2 26 0;
#X connect 19 3 27 0;
#X connect 20 0 21 0;
#X connect 25 0 22 0;
#X connect 26 0 23 0;
#X connect 27 0 24 0;
#X connect 28 0 32 0;
#X connect 29 0 34 0;
#X connect 30 0 35 0;
#X connect 31 0 36 0;
#X connect 33 0 28 0;
#X connect 33 1 29 0;
#X connect 33 2 30 0;
#X connect 33 3 31 0;
#X connect 37 0 33 0;
#X restore 215 257 pd vol-guts;
#X obj 10 142 bng 40 250 50 0 empty empty empty 0 -6 0 8 -24198 -1
-1;
#N canvas 101 0 503 353 1400-volumes 0;
#X obj 1 0 cnv 15 500 350 empty empty empty 20 12 0 14 -228992 -66577
0;
#X obj 5 24 vsl 50 300 0 1 0 0 \$0-repievol-snd \$0-repievol-rcv Repie
0 -8 1 20 -262144 -1 -1 0 1;
#X obj 60 24 vsl 50 300 0 1 0 0 \$0-syllavol-snd \$0-syllavol-rcv Sylla
0 -8 1 20 -262144 -1 -1 0 1;
#X obj 115 24 vsl 50 300 0 1 0 0 \$0-rotovol-snd \$0-rotovol-rcv Roto
0 -8 1 20 -262144 -1 -1 0 1;
#X obj 169 24 vsl 50 300 0 1 0 0 \$0-myosovol-snd \$0-myosovol-rcv
Myoso 0 -8 1 20 -262144 -1 -1 0 1;
#X obj 233 24 vsl 50 300 0 1 0 0 \$0-crivol-snd \$0-crivol-rcv Cri
0 -8 1 20 -262144 -1 -1 0 1;
#X obj 293 23 vsl 50 300 0 1 0 0 \$0-jetaimevol-snd \$0-jetaimevol-rcv
JeTaime 0 -8 1 20 -262144 -1 -1 0 1;
#X obj 370 23 vsl 50 300 0 1 0 0 \$0-detestevol-snd \$0-detestevol-rcv
Deteste 0 -8 1 20 -262144 -1 -1 0 1;
#X obj 443 23 vsl 50 300 0 1 0 0 \$0-dingvol-snd \$0-dingvol-rcv Ding
0 -8 1 20 -262144 -1 -1 0 1;
#X restore 189 279 pd \$0-volumes;
#X msg 74 147 1;
#X obj 74 166 showtab \$0-volumes;
#X obj 99 5 del 3000;
#X obj 209 174 bng 40 250 50 0 empty empty SAVEALL 0 -6 1 16 -258699
-1 -258699;
#N canvas 0 0 181 99 SAVEALL 0;
#X obj 18 14 inlet;
#X msg 18 35 SAVEALL;
#X obj 18 55 s \$0-interfaces-snd;
#X connect 0 0 1 0;
#X connect 1 0 2 0;
#X restore 31 209 pd SAVEALL;
#X connect 2 0 12 0;
#X connect 3 0 0 0;
#X connect 6 0 5 0;
#X connect 8 0 10 0;
#X connect 10 0 11 0;
#X connect 12 0 3 0;
#X connect 13 0 14 0;
