#N canvas 87 137 285 57 10;
#X obj 2 22 tgl 30 1 empty empty empty 0 -6 0 8 -24198 -1 -1 1 1;
#X symbolatom 202 40 10 0 0 2 hostname - -;
#X symbolatom 48 39 5 0 0 2 toserver - -;
#X symbolatom 119 40 5 0 0 2 fromserver - -;
#N canvas 243 0 746 410 guts 0;
#X msg 218 157 connect \$1 \$2;
#X msg 95 211 send \$1;
#X obj 95 169 a2l;
#X obj 95 190 l2s;
#X msg 138 121 disconnect;
#X msg 394 323 hello server;
#X obj 180 198 netsend;
#X obj 143 239 spigot;
#X obj 180 219 > 0;
#X obj 218 48 sel 1 0;
#X obj 218 116 l;
#X obj 234 95 a2l;
#X obj 230 290 l;
#X obj 246 270 a2l;
#X msg 230 310 connect \$1 \$2;
#X obj 354 167 l;
#X obj 370 147 a2l;
#X msg 354 187 disconnect \$1 \$2;
#N canvas 0 0 173 222 testping 0;
#X obj 21 96 test_ping;
#X msg 21 75 \$1;
#X obj 21 32 unpack s f;
#X obj 21 54 t s s;
#X obj 21 117 sel 1;
#X obj 21 165 pack s f;
#X obj 21 142 symbol;
#X obj 21 11 inlet;
#X obj 21 187 outlet;
#X obj 103 190 outlet;
#X obj 103 167 b;
#X connect 0 0 4 0;
#X connect 1 0 0 0;
#X connect 2 0 3 0;
#X connect 2 1 5 1;
#X connect 3 0 1 0;
#X connect 3 1 6 1;
#X connect 4 0 6 0;
#X connect 4 1 10 0;
#X connect 5 0 8 0;
#X connect 6 0 5 0;
#X connect 7 0 2 0;
#X connect 10 0 9 0;
#X restore 218 136 pd testping;
#X msg 307 136 set 0;
#X obj 155 99 sel 0;
#X obj 29 144 > 0;
#X obj 230 222 sel 1;
#X obj 630 163 s \$0-server-adr;
#X obj 517 163 s \$0-client-adr;
#X obj 234 75 r \$0-server-adr;
#X obj 246 250 r \$0-client-adr;
#X obj 370 126 r \$0-client-adr;
#X obj 22 99 s pdnet-fromserver;
#X obj 95 147 r pdnet-toserver;
#X obj 230 332 s pdnet-toserver;
#X obj 354 208 s pdnet-toserver;
#X obj 393 280 r pdnet-fromserver;
#X obj 393 304 print fromserver;
#X obj 394 343 s pdnet-toserver;
#X obj 384 6 tgl 30 0 empty empty empty 0 -6 0 8 -24198 -1 -1 1 1;
#X obj 384 39 t f f;
#X msg 424 104 1;
#X obj 384 62 sel 0;
#X msg 384 83 0;
#X obj 424 84 demux;
#X obj 424 61 metro 4000;
#X obj 517 47 loadbang;
#X obj 517 97 shell;
#X obj 517 118 symbol;
#X msg 517 76 hostname;
#X symbolatom 539 202 10 0 0 2 hostname - -;
#X obj 517 142 pack s \$1;
#X obj 670 54 inlet;
#X obj 630 115 symbol \$2;
#X obj 630 139 pack s \$3;
#N canvas 134 44 476 200 test_hurface<->server 0;
#X obj 17 58 r 2HurFace;
#X obj 17 80 a2l;
#X obj 17 101 l2s;
#X msg 17 124 2HurFace \$1;
#X obj 17 145 spigot;
#X obj 54 25 tgl 15 0 empty empty empty 0 -6 0 8 -262144 -1 -1 0 1
;
#X obj 110 83 route HurFace;
#X obj 110 128 s HurFace;
#X obj 110 106 spigot;
#X obj 246 77 a2l;
#X obj 246 98 l2s;
#X obj 246 142 spigot;
#X obj 283 22 tgl 15 0 empty empty empty 0 -6 0 8 -262144 -1 -1 0 1
;
#X obj 339 103 spigot;
#X obj 246 55 r HurFace;
#X msg 246 121 HurFace \$1;
#X obj 339 80 route 2HurFace;
#X obj 339 125 s 2HurFace;
#X obj 110 60 r pdnet-fromserver;
#X obj 17 167 s pdnet-toserver;
#X obj 339 57 r pdnet-fromserver;
#X obj 246 164 s pdnet-toserver;
#X connect 0 0 1 0;
#X connect 1 0 2 0;
#X connect 2 0 3 0;
#X connect 3 0 4 0;
#X connect 4 0 19 0;
#X connect 5 0 4 1;
#X connect 5 0 8 1;
#X connect 6 0 8 0;
#X connect 8 0 7 0;
#X connect 9 0 10 0;
#X connect 10 0 15 0;
#X connect 11 0 21 0;
#X connect 12 0 11 1;
#X connect 12 0 13 1;
#X connect 13 0 17 0;
#X connect 14 0 9 0;
#X connect 15 0 11 0;
#X connect 16 0 13 0;
#X connect 18 0 6 0;
#X connect 20 0 16 0;
#X restore 394 364 pd test_hurface<->server;
#X msg 615 52 bang;
#X symbolatom 162 348 5 0 0 2 toserver - -;
#X symbolatom 28 245 5 0 0 2 fromserver - -;
#X obj 163 272 sel 0;
#X msg 163 293 no;
#X obj 163 312 symbol;
#X msg 193 293 yes;
#X obj 28 166 sel 0;
#X msg 28 187 no;
#X obj 28 206 symbol;
#X msg 58 187 yes;
#X obj 12 263 outlet;
#X obj 517 230 outlet;
#X obj 138 366 outlet;
#X obj 343 7 inlet;
#X obj 22 77 netreceive \$1;
#X obj 600 367 namecanvas \$0-guts;
#X obj 293 210 del 300;
#X msg 298 188 stop;
#X connect 0 0 6 0;
#X connect 1 0 7 0;
#X connect 2 0 3 0;
#X connect 3 0 1 0;
#X connect 4 0 6 0;
#X connect 5 0 34 0;
#X connect 6 0 8 0;
#X connect 7 0 6 0;
#X connect 8 0 7 1;
#X connect 8 0 22 0;
#X connect 8 0 40 1;
#X connect 8 0 55 0;
#X connect 9 0 10 0;
#X connect 9 0 70 0;
#X connect 9 1 15 0;
#X connect 9 1 69 0;
#X connect 10 0 18 0;
#X connect 11 0 10 1;
#X connect 12 0 14 0;
#X connect 13 0 12 1;
#X connect 14 0 30 0;
#X connect 15 0 17 0;
#X connect 16 0 15 1;
#X connect 17 0 31 0;
#X connect 18 0 0 0;
#X connect 18 1 19 0;
#X connect 20 0 4 0;
#X connect 21 0 59 0;
#X connect 22 0 12 0;
#X connect 25 0 11 0;
#X connect 26 0 13 0;
#X connect 27 0 16 0;
#X connect 29 0 2 0;
#X connect 35 0 36 0;
#X connect 36 0 38 0;
#X connect 36 1 41 0;
#X connect 37 0 9 0;
#X connect 38 0 39 0;
#X connect 39 0 9 0;
#X connect 40 0 37 0;
#X connect 41 0 40 0;
#X connect 42 0 45 0;
#X connect 42 0 49 0;
#X connect 43 0 44 0;
#X connect 44 0 46 0;
#X connect 44 0 47 0;
#X connect 44 0 64 0;
#X connect 45 0 43 0;
#X connect 47 0 24 0;
#X connect 48 0 50 0;
#X connect 49 0 50 0;
#X connect 50 0 23 0;
#X connect 52 0 49 0;
#X connect 55 0 56 0;
#X connect 55 1 58 0;
#X connect 56 0 57 0;
#X connect 57 0 53 0;
#X connect 57 0 65 0;
#X connect 58 0 57 0;
#X connect 59 0 60 0;
#X connect 59 1 62 0;
#X connect 60 0 61 0;
#X connect 61 0 54 0;
#X connect 61 0 63 0;
#X connect 62 0 61 0;
#X connect 66 0 35 0;
#X connect 67 0 28 0;
#X connect 67 1 20 0;
#X connect 67 1 21 0;
#X connect 69 0 4 0;
#X connect 70 0 69 0;
#X restore 85 4 pd guts;
#X obj 264 9 bng 8 250 50 0 empty empty empty 0 -6 0 8 -44926 -1 -1
;
#X msg 279 17 vis 1;
#X obj 279 39 s \$0-guts;
#X obj 2 2 inlet;
#X connect 0 0 4 0;
#X connect 4 0 2 0;
#X connect 4 1 3 0;
#X connect 4 2 1 0;
#X connect 5 0 6 0;
#X connect 6 0 7 0;
#X connect 8 0 0 0;
#X coords 0 0 1 1 280 50 1;
