#N canvas 908 45 820 554 12;
#X obj 29 75 r \$0-loadtables;
#X obj 108 129 r ClochesWavPath;
#X obj 75 207 symbol;
#X obj 75 258 file glob;
#X msg 75 230 symbol \$1/*.wav;
#X obj 225 78 s \$0-loadtables;
#X obj 225 47 bng 18 250 50 0 empty empty empty 0 -9 0 10 #fcfcfc #000000 #000000;
#X obj 75 307 t b s, f 11;
#X obj 75 283 list split 1;
#X obj 75 330 i;
#X obj 105 331 + 1;
#X msg 168 306 0;
#X obj 75 445 soundfiler;
#X obj 29 98 t b b b, f 16;
#X obj 29 366 i;
#X obj 29 478 s \$0-nbtables;
#X obj 217 474 r \$0-nbtables;
#X floatatom 174 503 5 0 0 0 - - - 0;
#X obj 466 141 r \$0-nbtables;
#X obj 445 167 f 45;
#X obj 445 105 bng 18 250 50 0 empty empty empty 0 -9 0 10 #fcfcfc #000000 #000000;
#X obj 445 190 t f b, f 8;
#X obj 445 213 until;
#X obj 445 236 i;
#X obj 487 236 + 1;
#X msg 490 212 0;
#X obj 472 352 array size;
#X obj 472 328 t b s, f 10;
#X obj 445 433 print;
#X msg 154 62 vis 39 1;
#X msg 75 419 read -resize \$2 \$3-wavtableL-\$1 \$3-wavtableR-\$1;
#X msg 472 305 symbol \$2-wavtableL-\$1;
#X obj 635 352 array size;
#X obj 635 328 t b s, f 10;
#X msg 635 305 symbol \$2-wavtableR-\$1;
#X obj 445 259 t f f f, f 9;
#X obj 445 387 pack f f f;
#X msg 445 410 sample \$1 size \$2-\$3;
#X obj 29 24 clone wavtable 20 \$2-\$1;
#X obj 400 56 s \$0-loadtables;
#X obj 400 27 r \$2-loadtables;
#X obj 108 156 list append \$3;
#X msg 108 182 symbol \$1/Amour/bruits/\$2;
#X obj 75 393 list append \$2-\$1;
#X obj 75 365 pack f s, f 11;
#X obj 472 282 list append \$2-\$1;
#X obj 635 282 list append \$2-\$1;
#X obj 348 500 v \$2-\$1-nbtables;
#X obj 217 500 s \$2-\$1-nbtables;
#X connect 0 0 13 0;
#X connect 1 0 41 0;
#X connect 2 0 4 0;
#X connect 3 0 8 0;
#X connect 4 0 3 0;
#X connect 6 0 5 0;
#X connect 7 0 9 0;
#X connect 7 1 44 1;
#X connect 8 0 7 0;
#X connect 9 0 10 0;
#X connect 9 0 44 0;
#X connect 10 0 9 1;
#X connect 10 0 14 1;
#X connect 11 0 9 1;
#X connect 13 0 14 0;
#X connect 13 1 2 0;
#X connect 13 2 11 0;
#X connect 14 0 15 0;
#X connect 16 0 17 0;
#X connect 16 0 48 0;
#X connect 18 0 19 1;
#X connect 19 0 21 0;
#X connect 20 0 19 0;
#X connect 21 0 22 0;
#X connect 21 1 25 0;
#X connect 22 0 23 0;
#X connect 23 0 24 0;
#X connect 23 0 35 0;
#X connect 24 0 23 1;
#X connect 25 0 23 1;
#X connect 26 0 36 1;
#X connect 27 0 26 0;
#X connect 27 1 26 1;
#X connect 29 0 38 0;
#X connect 30 0 12 0;
#X connect 31 0 27 0;
#X connect 32 0 36 2;
#X connect 33 0 32 0;
#X connect 33 1 32 1;
#X connect 34 0 33 0;
#X connect 35 0 36 0;
#X connect 35 1 45 0;
#X connect 35 2 46 0;
#X connect 36 0 37 0;
#X connect 37 0 28 0;
#X connect 40 0 39 0;
#X connect 41 0 42 0;
#X connect 42 0 2 1;
#X connect 43 0 30 0;
#X connect 44 0 43 0;
#X connect 45 0 31 0;
#X connect 46 0 34 0;
