#N canvas 862 19 766 965 12;
#X obj 81 317 r \$2-keys;
#X obj 81 342 route \$1;
#X obj 277 536 r \$0-change-fx;
#X obj 277 561 t b b, f 12;
#X obj 277 611 mtof;
#X obj 358 611 mtof;
#X obj 454 613 r \$0-change-fx;
#X obj 454 638 t b b, f 14;
#X obj 454 663 random 10000;
#X obj 454 688 / 10000;
#X obj 454 713 pow 2;
#X obj 548 667 random 10000;
#X obj 548 692 / 10000;
#X obj 548 717 pow 2;
#X obj 277 586 random 80;
#X obj 358 586 random 80;
#X obj 42 155 r CLOCK;
#X obj 42 178 ndmetro 8 1;
#X msg 110 104 nd \$1 \$2;
#X msg 115 66 4 2;
#X floatatom 62 203 5 0 0 0 - - - 0;
#X obj 234 704 tabplay~;
#X obj 42 705 tabplay~;
#X msg 42 672 set \$2-wavtableL-\$1 \, bang;
#X msg 234 672 set \$2-wavtableR-\$1 \, bang;
#X obj 42 856 throw~ \$2-out;
#X obj 235 853 throw~ \$2-out2;
#X obj 41 795 delwrite~ \$0-delL 100;
#X obj 234 793 delwrite~ \$0-delR 100;
#X obj 41 770 hip~ 0;
#X obj 234 768 hip~ 0;
#X obj 42 647 list append \$2-\$1;
#X msg 156 68 3 1;
#X obj 42 461 spigot;
#X obj 374 120 r \$2-\$1-nbtables;
#X obj 88 561 r \$0-numsamples;
#X obj 159 33 r \$0-nd;
#X obj 42 263 t f f, f 19;
#X obj 299 226 motex/shuffle 0 5 0.25;
#X obj 374 145 - 1;
#X obj 374 170 t b f;
#X msg 316 202 0;
#X obj 317 44 r \$0-numsamples;
#X obj 299 72 f 4;
#X obj 299 97 until;
#X obj 299 14 t b b;
#X msg 343 97 0;
#X obj 299 122 i;
#X obj 332 122 + 1;
#X obj 299 147 t b f;
#X obj 299 253 tabwrite \$0-samples;
#X obj 489 60 table \$0-samples 16;
#X obj 42 561 mod 4;
#X obj 42 234 spigot;
#X obj 93 235 r \$2-onoff;
#X obj 172 290 sel 0;
#X obj 81 368 t f f, f 18;
#X obj 81 393 sel 0 1, f 14;
#X msg 81 418 0;
#X msg 113 417 stop;
#X obj 113 442 del 500;
#X msg 113 467 1;
#X obj 42 522 pipe f 10;
#X obj 42 492 t f b, f 24;
#X obj 42 619 t f b, f 21;
#X msg 207 518 0 9;
#X msg 186 644 1 1;
#X obj 42 738 *~;
#X obj 235 736 *~;
#X obj 143 704 line~;
#X msg 92 43 3 4;
#X obj 530 373 s \$0-numsamples;
#X msg 530 345 4;
#X obj 42 592 tabread \$0-samples;
#X msg 530 408 16 2;
#X obj 530 436 s \$0-nd;
#X obj 257 396 r \$0-numsamples;
#X obj 204 420 random 4;
#X obj 204 393 sel 1;
#X msg 567 343 1;
#X msg 602 341 3;
#X msg 571 407 4 1;
#X obj 530 107 r \$2-case-ctl;
#X obj 530 132 route \$1;
#X obj 530 157 list split 1;
#X obj 530 291 s \$0-numsamples;
#X obj 570 183 list split 2;
#X obj 570 266 s \$0-nd;
#X obj 170 443 r \$0-inhib-time;
#X obj 610 207 list split 1;
#X obj 610 233 s \$0-inhib-time;
#X obj 42 825 delread~ \$0-delL 1;
#X obj 235 823 delread~ \$0-delR 1;
#X obj 172 323 s \$0-change-fx;
#X obj 454 738 * 20;
#X obj 548 742 * 20;
#X obj 230 289 bng 20 250 50 0 empty empty empty 0 -10 0 12 #fcfcfc #000000 #000000;
#X obj 101 919 throw~ \$2-revL;
#X obj 259 922 throw~ \$2-revR;
#X obj 100 890 *~ 1;
#X obj 259 896 *~ 1;
#X obj 446 812 r \$2-case-fx;
#X obj 446 838 route \$1;
#X obj 446 863 route rev;
#X obj 584 510 r \$2-case-fx;
#X obj 584 536 route \$1;
#X obj 584 561 route del;
#X obj 404 487 r \$2-case-fx;
#X obj 404 513 route \$1;
#X obj 404 538 route hip;
#X connect 0 0 1 0;
#X connect 1 0 56 0;
#X connect 2 0 3 0;
#X connect 3 0 14 0;
#X connect 3 1 15 0;
#X connect 4 0 29 1;
#X connect 5 0 30 1;
#X connect 6 0 7 0;
#X connect 7 0 8 0;
#X connect 7 1 11 0;
#X connect 8 0 9 0;
#X connect 9 0 10 0;
#X connect 10 0 94 0;
#X connect 11 0 12 0;
#X connect 12 0 13 0;
#X connect 13 0 95 0;
#X connect 14 0 4 0;
#X connect 15 0 5 0;
#X connect 16 0 17 0;
#X connect 17 0 20 0;
#X connect 17 0 53 0;
#X connect 18 0 17 0;
#X connect 19 0 18 0;
#X connect 21 0 68 0;
#X connect 22 0 67 0;
#X connect 23 0 22 0;
#X connect 24 0 21 0;
#X connect 29 0 27 0;
#X connect 30 0 28 0;
#X connect 31 0 23 0;
#X connect 31 0 24 0;
#X connect 32 0 18 0;
#X connect 33 0 63 0;
#X connect 34 0 39 0;
#X connect 35 0 52 1;
#X connect 36 0 18 0;
#X connect 37 0 33 0;
#X connect 37 1 55 0;
#X connect 38 0 50 0;
#X connect 39 0 40 0;
#X connect 40 0 41 0;
#X connect 40 1 38 1;
#X connect 41 0 38 0;
#X connect 42 0 43 1;
#X connect 43 0 44 0;
#X connect 44 0 47 0;
#X connect 45 0 43 0;
#X connect 45 1 46 0;
#X connect 46 0 47 1;
#X connect 47 0 48 0;
#X connect 47 0 49 0;
#X connect 48 0 47 1;
#X connect 49 0 38 0;
#X connect 49 1 50 1;
#X connect 52 0 73 0;
#X connect 53 0 37 0;
#X connect 54 0 53 1;
#X connect 55 0 45 0;
#X connect 55 0 93 0;
#X connect 56 0 57 0;
#X connect 56 1 78 0;
#X connect 57 0 58 0;
#X connect 57 0 59 0;
#X connect 57 1 60 0;
#X connect 58 0 33 1;
#X connect 59 0 60 0;
#X connect 60 0 61 0;
#X connect 61 0 33 1;
#X connect 62 0 52 0;
#X connect 63 0 62 0;
#X connect 63 1 65 0;
#X connect 64 0 31 0;
#X connect 64 1 66 0;
#X connect 65 0 69 0;
#X connect 66 0 69 0;
#X connect 67 0 29 0;
#X connect 68 0 30 0;
#X connect 69 0 67 1;
#X connect 69 0 68 1;
#X connect 70 0 18 0;
#X connect 72 0 71 0;
#X connect 73 0 64 0;
#X connect 74 0 75 0;
#X connect 76 0 77 1;
#X connect 77 0 63 0;
#X connect 78 0 77 0;
#X connect 79 0 71 0;
#X connect 80 0 71 0;
#X connect 81 0 75 0;
#X connect 82 0 83 0;
#X connect 83 0 84 0;
#X connect 84 0 85 0;
#X connect 84 1 86 0;
#X connect 86 0 87 0;
#X connect 86 1 89 0;
#X connect 88 0 60 1;
#X connect 89 0 90 0;
#X connect 91 0 25 0;
#X connect 91 0 99 0;
#X connect 92 0 26 0;
#X connect 92 0 100 0;
#X connect 94 0 91 0;
#X connect 95 0 92 0;
#X connect 96 0 93 0;
#X connect 99 0 97 0;
#X connect 100 0 98 0;
#X connect 101 0 102 0;
#X connect 102 0 103 0;
#X connect 103 0 100 1;
#X connect 103 0 99 1;
#X connect 104 0 105 0;
#X connect 105 0 106 0;
#X connect 106 0 94 1;
#X connect 106 0 95 1;
#X connect 107 0 108 0;
#X connect 108 0 109 0;
#X connect 109 0 14 1;
#X connect 109 0 15 1;
