#N canvas 365 54 517 531 10;
#X obj 12 116 mknob 25 100 0 1 0 1 \$0-vol-snd \$0-vol-rcv vol -2 -6 1 10 #fc2828 #000000 #000000 6577 1;
#N canvas 812 63 620 398 master 0;
#X obj 43 38 catch~ \$0-out;
#X obj 44 176 *~;
#X obj 74 96 pow 2;
#X obj 74 74 r \$0-vol-snd;
#X obj 74 117 * 1;
#X obj 161 38 catch~ \$0-out2;
#X obj 162 174 *~;
#X obj 286 15 catch~ \$0-revL;
#X obj 308 147 catch~ \$0-revR;
#X obj 288 351 throw~ \$0-out;
#X obj 323 322 throw~ \$0-out2;
#X obj 287 310 *~ 1;
#X obj 323 296 *~ 1;
#X obj 286 94 delwrite~ \$0-delL 1000;
#X obj 308 219 delwrite~ \$0-delR 1000;
#X obj 44 212 stereoOut 3 7, f 20;
#X obj 286 119 delread~ \$0-delL 50;
#X obj 308 244 delread~ \$0-delR 50;
#X obj 286 69 lop~ 1000;
#X obj 308 196 lop~ 1000;
#X obj 286 42 hip~ 50;
#X obj 308 172 hip~ 50;
#X obj 287 269 rev3~ 99 60 1000 80;
#X connect 0 0 1 0;
#X connect 1 0 15 0;
#X connect 2 0 4 0;
#X connect 3 0 2 0;
#X connect 4 0 1 1;
#X connect 4 0 6 1;
#X connect 5 0 6 0;
#X connect 6 0 15 1;
#X connect 7 0 20 0;
#X connect 8 0 21 0;
#X connect 11 0 9 0;
#X connect 12 0 10 0;
#X connect 16 0 22 0;
#X connect 17 0 22 1;
#X connect 18 0 13 0;
#X connect 19 0 14 0;
#X connect 20 0 18 0;
#X connect 21 0 19 0;
#X connect 22 0 11 0;
#X connect 22 1 12 0;
#X restore 11 50 pd master;
#X obj 12 80 tgl 15 0 \$0-getkeyb \$0-getkeyb-rcv keyboard 0 -6 1 8 #e8e828 #000000 #000000 0 1;
#X obj 228 150 s \$0-keys;
#X obj 228 128 spigot;
#X obj 261 107 r \$0-onoff;
#X obj 383 27 r ClochesMode;
#X msg 383 90 1;
#X msg 412 90 0;
#X obj 383 113 tgl 15 0 empty empty empty 17 7 0 10 #fcfcfc #000000 #000000 0 1;
#X obj 383 132 s \$0-onoff;
#X obj 47 120 tgl 20 0 \$0-onoff \$0-onoff onoff 0 -6 0 12 #fc2828 #000000 #000000 0 1;
#X obj 47 147 r \$0-onoff;
#X obj 47 170 switch~;
#X obj 383 69 route Amour;
#X obj 384 234 s \$0-loadtables;
#X obj 384 191 sel 1 0;
#X obj 403 213 s \$0-freetables;
#X obj 384 168 r \$0-onoff;
#X obj 363 209 bng 18 250 50 0 empty empty empty 0 -9 0 10 #fcfcfc #000000 #000000;
#X obj 383 48 route Syllabo;
#X obj 159 23 r \$0-s-snd;
#X obj 228 22 r \$0-st-snd;
#N canvas 22 619 220 70 Interface 0;
#X obj 2 2 tgl 30 0 \$0-s1-snd \$0-s1-rcv I 13 15 1 10 #fcfcfc #000000 #000000 0 1;
#X obj 34 2 tgl 30 0 \$0-s2-snd \$0-s2-rcv PO 7 15 1 10 #fcfcfc #000000 #000000 0 1;
#X obj 66 2 tgl 30 0 \$0-s3-snd \$0-s3-rcv PO 7 15 1 10 #fcfcfc #000000 #000000 0 1;
#X obj 98 2 tgl 30 0 \$0-s4-snd \$0-s4-rcv TAM 2 15 1 10 #fcfcfc #000000 #000000 0 1;
#X obj 132 2 tgl 30 0 \$0-st-snd \$0-st-rcv hippopotame 1 15 1 8 #fcfcc8 #000000 #000000 0 1;
#X text 7 35 keyboard: w x c v b;
#X restore 11 12 pd Interface;
#N canvas 91 71 398 425 interfguts 0;
#X obj 59 42 keyname;
#X obj 59 67 pack f s;
#X msg 59 118 \$2 \$1;
#X obj 59 88 spigot;
#X obj 109 92 tgl 15 0 empty empty keyboard 0 -6 1 8 #e8e828 #000000 #000000 0 1;
#X obj 57 14 dispatch \$0-s 1 4;
#X obj 59 139 route w x c v b;
#X obj 174 171 s \$0-st-rcv;
#X obj 134 94 r \$0-getkeyb;
#X msg 28 171 1 \$1;
#X msg 64 171 2 \$1;
#X msg 100 171 3 \$1;
#X msg 136 171 4 \$1;
#X obj 84 209 s \$0-s-rcv;
#X obj 279 120 r \$1-s-snd;
#X obj 279 140 s \$0-s-rcv;
#X obj 287 56 r \$1-st-snd;
#X obj 287 76 s \$0-st-rcv;
#X obj 146 329 s \$0-antirebond;
#X obj 105 358 s \$0-deb1time;
#X msg 92 278 40;
#X obj 83 391 s \$0-deb0time;
#X obj 94 258 loadbang;
#X msg 108 336 10;
#X connect 0 0 1 0;
#X connect 0 1 1 1;
#X connect 1 0 3 0;
#X connect 2 0 6 0;
#X connect 3 0 2 0;
#X connect 4 0 3 1;
#X connect 6 0 9 0;
#X connect 6 1 10 0;
#X connect 6 2 11 0;
#X connect 6 3 12 0;
#X connect 6 4 7 0;
#X connect 8 0 4 0;
#X connect 9 0 13 0;
#X connect 10 0 13 0;
#X connect 11 0 13 0;
#X connect 12 0 13 0;
#X connect 14 0 15 0;
#X connect 16 0 17 0;
#X connect 20 0 18 0;
#X connect 20 0 21 0;
#X connect 20 0 23 0;
#X connect 22 0 20 0;
#X connect 23 0 19 0;
#X restore 11 31 pd interfguts;
#X msg 228 44 4 \$1;
#X obj 159 46 unpack f f;
#X obj 159 69 - 1;
#X obj 159 92 pack f f, f 10;
#X obj 17 280 clone case 5 \$0;
#N canvas 735 420 450 300 test_coeur 0;
#X obj 105 207 throw~ \$0-out;
#X obj 227 209 throw~ \$0-out2;
#X obj 167 145 osc~;
#X obj 167 97 vline~;
#X msg 214 97 0.75;
#X msg 167 27 0 \, 100 50 \, 0 200 50;
#X obj 166 175 hip~ 30;
#X connect 2 0 6 0;
#X connect 3 0 2 0;
#X connect 4 0 2 1;
#X connect 5 0 4 0;
#X connect 5 0 3 0;
#X connect 6 0 0 0;
#X connect 6 0 1 0;
#X restore 362 388 pd test_coeur;
#X obj 17 319 bank 0 \$0 tonnerre;
#X obj 17 341 bank 1 \$0 coeur;
#X obj 17 362 bank 2 \$0 bisou;
#X obj 17 384 bank 3 \$0 grince;
#X obj 17 406 bank 4 \$0 mmm;
#X obj 223 359 r CLOCK;
#X obj 225 440 bng 18 250 50 0 empty empty empty 0 -9 0 10 #fcfcfc #000000 #000000;
#X listbox 260 455 20 0 0 0 - - - 0;
#X obj 223 382 ndmetro 8 1;
#X msg 18 256 vis 2 1;
#N canvas 64 192 797 300 case-config 0;
#X obj 15 230 s \$0-case-ctl;
#X msg 15 155 0 8 8 0.125 4000;
#X msg 247 157 2 4 16 1 500;
#X msg 341 158 3 1 8 0.5 500;
#X msg 437 156 4 2 8 0.25 1000;
#X msg 135 155 1 1 8 0.5 500;
#X obj 15 14 loadbang;
#X obj 15 86 b;
#X obj 45 84 bng 18 250 50 0 empty empty empty 0 -9 0 10 #fcfcfc #000000 #000000;
#X obj 620 205 s \$0-case-fx;
#X obj 33 34 r \$0-onoff;
#X obj 33 57 sel 1;
#X obj 620 181 list prepend 1;
#X msg 620 154 rev 0 \, del 0 \, hip 0;
#X connect 1 0 0 0;
#X connect 2 0 0 0;
#X connect 3 0 0 0;
#X connect 4 0 0 0;
#X connect 5 0 0 0;
#X connect 6 0 7 0;
#X connect 7 0 1 0;
#X connect 7 0 5 0;
#X connect 7 0 2 0;
#X connect 7 0 3 0;
#X connect 7 0 4 0;
#X connect 7 0 13 0;
#X connect 8 0 7 0;
#X connect 10 0 11 0;
#X connect 11 0 7 0;
#X connect 12 0 9 0;
#X connect 13 0 12 0;
#X restore 362 314 pd case-config;
#X msg 74 255 vis 1 1;
#X connect 4 0 3 0;
#X connect 5 0 4 1;
#X connect 6 0 20 0;
#X connect 7 0 9 0;
#X connect 8 0 9 0;
#X connect 9 0 10 0;
#X connect 12 0 13 0;
#X connect 14 0 7 0;
#X connect 14 1 8 0;
#X connect 16 0 15 0;
#X connect 16 1 17 0;
#X connect 18 0 16 0;
#X connect 19 0 15 0;
#X connect 20 0 14 0;
#X connect 21 0 26 0;
#X connect 22 0 25 0;
#X connect 25 0 4 0;
#X connect 26 0 27 0;
#X connect 26 1 28 1;
#X connect 27 0 28 0;
#X connect 28 0 4 0;
#X connect 36 0 39 0;
#X connect 39 0 38 0;
#X connect 40 0 29 0;
#X connect 42 0 29 0;
