#N canvas 814 354 501 320 10;
#X obj 12 116 mknob 25 100 0 1 0 1 \$0-vol-snd \$0-vol-rcv vol -2 -6
1 10 -258699 -1 -1 2590 1;
#N canvas 77 256 298 213 master 0;
#X obj 119 10 catch~ \$0-out;
#X obj 140 111 *~;
#X obj 182 63 pow 2;
#X obj 182 84 * 4;
#X obj 182 41 r \$0-vol-snd;
#X floatatom 209 129 5 0 0 0 - - -;
#X obj 141 149 busrme 3;
#X obj 120 42 hip~ 20;
#X connect 0 0 7 0;
#X connect 1 0 6 0;
#X connect 2 0 3 0;
#X connect 3 0 1 1;
#X connect 4 0 2 0;
#X connect 5 0 6 1;
#X connect 7 0 1 0;
#X restore 11 50 pd master;
#N canvas 72 647 220 70 Interface 0;
#X obj 2 2 tgl 30 0 \$0-s1-snd \$0-s1-rcv I 13 15 1 10 -262144 -1 -1
0 1;
#X obj 34 2 tgl 30 0 \$0-s2-snd \$0-s2-rcv PO 7 15 1 10 -262144 -1
-1 0 1;
#X obj 66 2 tgl 30 0 \$0-s3-snd \$0-s3-rcv PO 7 15 1 10 -262144 -1
-1 0 1;
#X obj 98 2 tgl 30 0 \$0-s4-snd \$0-s4-rcv TAM 2 15 1 10 -262144 -1
-1 0 1;
#X obj 132 2 tgl 30 0 \$0-st-snd \$0-st-rcv hippopotame 1 15 1 8 -262131
-1 -1 0 1;
#X text 7 35 keyboard: w x c v b;
#X restore 11 12 pd Interface;
#N canvas 395 122 398 425 interfguts 0;
#X obj 59 42 keyname;
#X obj 59 67 pack f s;
#X msg 59 118 \$2 \$1;
#X obj 59 88 spigot;
#X obj 109 92 tgl 15 0 empty empty keyboard 0 -6 1 8 -241291 -1 -1
0 1;
#X obj 57 14 dispatch \$0-s 1 4;
#X obj 59 139 route w x c v b;
#X obj 174 171 s \$0-st-rcv;
#X obj 134 94 r \$0-getkeyb;
#X msg 28 171 1 \$1;
#X msg 64 171 2 \$1;
#X msg 100 171 3 \$1;
#X msg 136 171 4 \$1;
#X obj 84 209 s \$0-s-rcv;
#X obj 279 120 r \$1-s-snd;
#X obj 279 140 s \$0-s-rcv;
#X obj 287 56 r \$1-st-snd;
#X obj 287 76 s \$0-st-rcv;
#X obj 146 329 s \$0-antirebond;
#X obj 105 358 s \$0-deb1time;
#X msg 92 278 40;
#X obj 83 391 s \$0-deb0time;
#X obj 94 258 loadbang;
#X msg 108 336 10;
#X connect 0 0 1 0;
#X connect 0 1 1 1;
#X connect 1 0 3 0;
#X connect 2 0 6 0;
#X connect 3 0 2 0;
#X connect 4 0 3 1;
#X connect 6 0 9 0;
#X connect 6 1 10 0;
#X connect 6 2 11 0;
#X connect 6 3 12 0;
#X connect 6 4 7 0;
#X connect 8 0 4 0;
#X connect 9 0 13 0;
#X connect 10 0 13 0;
#X connect 11 0 13 0;
#X connect 12 0 13 0;
#X connect 14 0 15 0;
#X connect 16 0 17 0;
#X connect 20 0 18 0;
#X connect 20 0 21 0;
#X connect 20 0 23 0;
#X connect 22 0 20 0;
#X connect 23 0 19 0;
#X restore 11 31 pd interfguts;
#X obj 12 80 tgl 15 0 \$0-getkeyb \$0-getkeyb-rcv keyboard 0 -6 1 8
-241291 -1 -1 0 1;
#N canvas 1 189 283 124 unused 0;
#X obj 11 33 apmaster \$0;
#X obj 11 16 bng 15 250 50 0 empty empty empty 0 -6 0 8 -24198 -1 -1
;
#X obj 83 15 bng 15 250 50 0 empty empty empty 0 -6 0 8 -258699 -1
-1;
#X obj 11 63 bng 12 250 50 0 \$0-save_file_patt-snd \$0-save_file_patt-rcv
10.11.12.13.14.15.16 122 -6 1 6 -258699 -1 -262144;
#X obj 25 63 hradio 12 1 0 16 \$0-file_patt_but-snd \$0-file_patt_but-rcv
_1._2._3_4._5._6_7._8.9.10.11.12.13.14.15.16 0 -6 2 9 -262144 -1 -1
0;
#N canvas 628 101 443 334 file_patt_but 0;
#X msg 27 31 \$1;
#X obj 203 36 tgl 15 0 empty empty empty 0 -6 0 8 -262144 -1 -1 0 1
;
#X obj 203 67 sel 0 1;
#X msg 203 88 color 0 22 22;
#X msg 226 112 color 13 22 22;
#X obj 71 88 demux;
#X obj 101 112 t f f b;
#X msg 145 134 0;
#X obj 99 212 s \$0-pattern-snd;
#X obj 27 11 r \$0-file_patt_but-snd;
#X obj 203 10 r \$0-save_file_patt-snd;
#X msg 20 165 _apfile_ load \$1;
#X msg 148 165 _apfile_ store \$1;
#X obj 203 138 s \$0-file_patt_but-rcv;
#X symbolatom 237 306 0 0 0 0 - - -;
#X obj 249 286 s \$0-apmaster-rcv;
#X msg 249 266 loadin;
#X obj 237 202 r \$0-_apfile_-snd;
#X obj 249 245 del 50;
#X obj 249 226 b;
#X connect 0 0 5 0;
#X connect 1 0 2 0;
#X connect 1 0 5 1;
#X connect 2 0 3 0;
#X connect 2 1 4 0;
#X connect 3 0 13 0;
#X connect 4 0 13 0;
#X connect 5 0 11 0;
#X connect 5 1 6 0;
#X connect 6 1 12 0;
#X connect 6 2 7 0;
#X connect 7 0 1 0;
#X connect 9 0 0 0;
#X connect 10 0 1 0;
#X connect 11 0 8 0;
#X connect 12 0 8 0;
#X connect 16 0 15 0;
#X connect 17 0 14 0;
#X connect 17 0 19 0;
#X connect 18 0 16 0;
#X connect 19 0 18 0;
#X restore 10 77 pd file_patt_but;
#X connect 1 0 0 0;
#X connect 2 0 0 1;
#X restore 59 263 pd unused;
#X obj 112 35 route 0;
#X obj 141 242 throw~ \$0-out;
#X obj 112 13 r \$0-s-snd;
#X obj 181 12 r \$0-st-snd;
#X msg 181 34 5 \$1;
#X obj 169 94 s \$0-keys;
#X obj 169 73 spigot;
#X obj 316 31 r ClochesMode;
#X msg 316 94 1;
#X msg 345 94 0;
#X obj 316 117 tgl 15 0 empty empty empty 17 7 0 10 -262144 -1 -1 0
1;
#X obj 316 52 route Syllabo;
#X obj 316 136 s \$0-onoff;
#X obj 202 52 r \$0-onoff;
#X obj 141 208 lop~ 2000;
#X obj 316 73 route Orgue;
#X obj 141 176 clone -s 1 voice 5 \$0;
#X msg 158 141 vis 5 1;
#X obj 12 169 tgl 20 0 \$0-onoff \$0-onoff onoff 0 -6 0 12 -258699
-1 -1 0 1;
#X obj 12 196 r \$0-onoff;
#X obj 12 219 switch~;
#X connect 6 1 12 0;
#X connect 8 0 6 0;
#X connect 9 0 10 0;
#X connect 10 0 12 0;
#X connect 12 0 11 0;
#X connect 13 0 17 0;
#X connect 14 0 16 0;
#X connect 15 0 16 0;
#X connect 16 0 18 0;
#X connect 17 0 21 0;
#X connect 19 0 12 1;
#X connect 20 0 7 0;
#X connect 21 0 14 0;
#X connect 21 1 15 0;
#X connect 22 0 20 0;
#X connect 23 0 22 0;
#X connect 25 0 26 0;
