#N canvas 705 266 660 477 12;
#X obj 31 74 route \$1;
#X obj 31 99 tgl 15 0 empty empty empty 17 7 0 10 -262144 -1 -1 0 1
;
#X obj 31 49 r \$2-keys;
#X obj 31 119 t f f;
#X obj 63 143 sel 1;
#X obj 63 168 random 8;
#X obj 63 193 +;
#X obj 157 118 loadbang;
#X obj 157 143 f \$1;
#X obj 63 243 gammabs/gammeRound /GAMME 200;
#X obj 31 389 *~;
#X obj 63 268 mtof;
#X obj 63 293 osc~;
#X obj 31 414 outlet~;
#X obj 32 8 inlet;
#X obj 157 168 * 10;
#X obj 63 218 + 25.01;
#X obj 194 352 osc~;
#X obj 30 333 eadsr~ 5 300 0.2 150;
#X obj 194 377 *~ 0.1;
#X obj 313 136 osc~ 0.2;
#X obj 313 161 *~ 2;
#X obj 313 186 +~ 5;
#X obj 313 211 osc~;
#X obj 194 322 *~;
#X obj 313 284 +~ 1;
#X msg 368 210 0 \, 0.01 2000;
#X obj 368 235 line~;
#X obj 313 236 *~;
#X obj 313 59 random 1000;
#X obj 313 84 / 1000;
#X obj 313 109 * 0.2;
#X obj 409 25 b;
#X obj 431 60 random 1000;
#X obj 431 85 / 1000;
#X obj 528 59 random 1000;
#X obj 528 84 / 1000;
#X obj 528 109 * 4;
#X obj 528 134 + 3;
#X obj 431 110 * 3;
#X obj 194 292 * 3.05;
#X obj 282 389 osc~;
#X obj 282 414 *~ 0.1;
#X obj 282 359 *~;
#X obj 282 329 * 5.2;
#X obj 30 361 lop~ 1000;
#X obj 313 260 lop~ 1000;
#X connect 0 0 1 0;
#X connect 1 0 3 0;
#X connect 2 0 0 0;
#X connect 3 0 18 0;
#X connect 3 1 4 0;
#X connect 4 0 5 0;
#X connect 4 0 32 0;
#X connect 5 0 6 0;
#X connect 6 0 16 0;
#X connect 7 0 8 0;
#X connect 8 0 15 0;
#X connect 9 0 11 0;
#X connect 10 0 13 0;
#X connect 11 0 12 0;
#X connect 11 0 40 0;
#X connect 11 0 44 0;
#X connect 12 0 10 1;
#X connect 15 0 6 1;
#X connect 16 0 9 0;
#X connect 17 0 19 0;
#X connect 18 0 45 0;
#X connect 19 0 10 1;
#X connect 20 0 21 0;
#X connect 21 0 22 0;
#X connect 22 0 23 0;
#X connect 23 0 28 0;
#X connect 24 0 17 0;
#X connect 25 0 24 1;
#X connect 25 0 43 1;
#X connect 26 0 27 0;
#X connect 27 0 28 1;
#X connect 28 0 46 0;
#X connect 29 0 30 0;
#X connect 30 0 31 0;
#X connect 31 0 20 0;
#X connect 32 0 29 0;
#X connect 32 0 26 0;
#X connect 32 0 33 0;
#X connect 32 0 35 0;
#X connect 33 0 34 0;
#X connect 34 0 39 0;
#X connect 35 0 36 0;
#X connect 36 0 37 0;
#X connect 37 0 38 0;
#X connect 38 0 22 1;
#X connect 39 0 21 1;
#X connect 40 0 24 0;
#X connect 41 0 42 0;
#X connect 42 0 10 1;
#X connect 43 0 41 0;
#X connect 44 0 43 0;
#X connect 45 0 10 0;
#X connect 46 0 25 0;
