#N canvas 2119 667 298 119 10;
#X obj 1 2 cnv 15 40 26 empty empty empty 1 5 0 14 -233017 -66577 0
;
#X obj 88 4 inlet~;
#X floatatom 3 9 7 0 0 0 - - -;
#X obj 186 38 outlet;
#X obj 88 24 unsig~ 50;
#X connect 1 0 4 0;
#X connect 4 0 2 0;
#X connect 4 0 3 0;
#X coords 0 0 1 1 88 36 2 0 0;
