#N canvas 4 20 203 203 10;
#X obj 91 43 inlet;
#X obj 91 65 sel 1;
#X msg 91 108 1;
#X obj 91 143 change;
#X msg 48 109 0;
#X obj 18 19 init \$1;
#X obj 48 88 delay;
#X obj 18 40 sel 0;
#X obj 18 62 30;
#X obj 91 165 outlet;
#X connect 0 0 1 0;
#X connect 1 0 2 0;
#X connect 1 0 6 0;
#X connect 2 0 3 0;
#X connect 3 0 9 0;
#X connect 4 0 3 0;
#X connect 5 0 7 0;
#X connect 6 0 4 0;
#X connect 7 0 8 0;
#X connect 7 1 6 0;
#X connect 8 0 6 0;
