#N canvas 194 377 450 300 10;
#X msg 45 137 set outl;
#X msg 60 161 set outr;
#X msg 142 137 set outl2;
#X msg 157 161 set outr2;
#X msg 229 137 set outl3;
#X msg 244 161 set outr3;
#X msg 326 137 set outl4;
#X msg 341 161 set outr4;
#X obj 146 7 inlet~;
#X obj 72 66 sel 1 2 3 4 5 6 7 8;
#X obj 68 36 init \$1;
#X obj 234 14 inlet;
#X obj 146 254 throw~ outl;
#X connect 0 0 12 0;
#X connect 1 0 12 0;
#X connect 2 0 12 0;
#X connect 3 0 12 0;
#X connect 4 0 12 0;
#X connect 5 0 12 0;
#X connect 6 0 12 0;
#X connect 7 0 12 0;
#X connect 8 0 12 0;
#X connect 9 0 0 0;
#X connect 9 1 1 0;
#X connect 9 2 2 0;
#X connect 9 3 3 0;
#X connect 9 4 4 0;
#X connect 9 5 5 0;
#X connect 9 6 6 0;
#X connect 9 7 7 0;
#X connect 10 0 9 0;
#X connect 11 0 9 0;
