#N canvas 360 122 272 110 10;
#X obj 22 27 inlet~;
#X obj 150 19 inlet;
#X obj 21 59 busrme \$1;
#X obj 94 60 busrme \$2;
#X obj 74 26 inlet~;
#X obj 203 18 inlet;
#X connect 0 0 2 0;
#X connect 1 0 2 1;
#X connect 4 0 3 0;
#X connect 5 0 3 1;
