#N canvas 95 301 450 382 10;
#X obj 58 65 pow;
#X obj 59 91 - 1;
#X obj 73 117 /;
#X obj 89 91 - 1;
#X floatatom 17 172 4 0 0;
#X obj 89 12 loadbang;
#X obj 44 38 t b f;
#X obj 73 143 * \$2;
#X obj 73 168 outlet;
#X obj 44 11 inlet;
#X obj 89 39 \$1;
#X connect 0 0 1 0;
#X connect 1 0 2 0;
#X connect 2 0 7 0;
#X connect 3 0 2 1;
#X connect 5 0 10 0;
#X connect 6 0 0 0;
#X connect 6 1 0 1;
#X connect 7 0 4 0;
#X connect 7 0 8 0;
#X connect 9 0 6 0;
#X connect 10 0 3 0;
#X connect 10 0 0 0;
