#N canvas 436 310 450 300 10;
#X obj 87 109 for++ \$1 \$2 \$3;
#X obj 87 72 inlet;
#X obj 133 72 inlet;
#X obj 180 72 inlet;
#X obj 87 137 t f f;
#X obj 117 252 outlet;
#X obj 172 252 outlet;
#X text 79 36 It's just a for++ with a bang when finished.;
#X obj 133 147 int;
#X obj 87 165 sel \$2;
#X obj 240 251 outlet;
#X obj 214 182 t b b;
#X obj 240 217 del \$3;
#X connect 0 0 4 0;
#X connect 1 0 0 0;
#X connect 2 0 0 1;
#X connect 2 0 8 0;
#X connect 3 0 0 2;
#X connect 3 0 12 1;
#X connect 4 0 9 0;
#X connect 4 1 5 0;
#X connect 8 0 9 1;
#X connect 9 0 11 0;
#X connect 11 0 12 0;
#X connect 11 1 6 0;
#X connect 12 0 10 0;
