#N canvas 482 363 450 300 10;
#X obj 128 124 int;
#X obj 76 124 -;
#X obj 97 22 inlet;
#X obj 128 98 -;
#X obj 144 74 < 0;
#X obj 97 48 t f f f;
#X obj 76 154 outlet;
#X obj 128 154 outlet;
#X connect 0 0 1 1;
#X connect 0 0 7 0;
#X connect 1 0 6 0;
#X connect 2 0 5 0;
#X connect 3 0 0 0;
#X connect 4 0 3 1;
#X connect 5 0 1 0;
#X connect 5 1 3 0;
#X connect 5 2 4 0;
