#N canvas 63 77 464 362 10;
#X obj 146 283 outlet~;
#X obj 72 66 sel 1 2 3 4 5 6 7 8;
#X obj 33 -1 init \$1;
#X obj 93 -1 inlet;
#X obj 146 254 r~ inl;
#X msg 46 139 set inl;
#X msg 80 160 set inr;
#X msg 134 136 set inl2;
#X msg 214 138 set inl3;
#X msg 237 161 set inr3;
#X msg 294 139 set inl4;
#X msg 312 160 set inr4;
#X obj 33 20 sel 0;
#X msg 157 161 set inr2;
#X connect 1 0 5 0;
#X connect 1 1 6 0;
#X connect 1 2 7 0;
#X connect 1 3 13 0;
#X connect 1 4 8 0;
#X connect 1 5 9 0;
#X connect 1 6 10 0;
#X connect 1 7 11 0;
#X connect 2 0 12 0;
#X connect 3 0 1 0;
#X connect 4 0 0 0;
#X connect 5 0 4 0;
#X connect 6 0 4 0;
#X connect 7 0 4 0;
#X connect 8 0 4 0;
#X connect 9 0 4 0;
#X connect 10 0 4 0;
#X connect 11 0 4 0;
#X connect 12 1 1 0;
#X connect 13 0 4 0;
