#N canvas 139 340 198 273 10;
#X obj 16 253 outlet~;
#X obj 36 159 *~;
#X obj 36 181 +~ 1;
#X obj 16 228 /~;
#X obj 56 8 inlet;
#X obj 36 203 sqrt~;
#X obj 26 129 *~ 6;
#X obj 20 8 adc~;
#X obj 26 108 biquad~;
#X floatatom 28 70 6 0 0;
#X floatatom 79 55 4 0 0;
#X floatatom 117 54 4 0 0;
#X floatatom 29 35 4 0 0;
#X obj 28 52 * 100;
#X obj 79 72 t b f;
#X obj 117 72 t b f;
#X obj 26 89 equalizer 9800 86 19;
#X obj 78 36 loadbang;
#X connect 1 0 2 0;
#X connect 2 0 5 0;
#X connect 3 0 0 0;
#X connect 4 0 6 1;
#X connect 5 0 3 1;
#X connect 6 0 1 1;
#X connect 6 0 1 0;
#X connect 6 0 3 0;
#X connect 7 0 8 0;
#X connect 7 1 8 0;
#X connect 8 0 6 0;
#X connect 9 0 16 0;
#X connect 10 0 14 0;
#X connect 11 0 15 0;
#X connect 12 0 13 0;
#X connect 13 0 9 0;
#X connect 14 0 16 0;
#X connect 14 1 16 1;
#X connect 15 0 16 0;
#X connect 15 1 16 2;
#X connect 16 0 8 0;
#X connect 17 0 16 0;
