#N canvas 205 167 262 271 10;
#X obj 17 227 outlet~;
#X obj 56 8 inlet;
#X obj 20 8 adc~;
#X obj 26 108 biquad~;
#X floatatom 28 70 6 0 0;
#X floatatom 79 55 4 0 0;
#X floatatom 117 54 4 0 0;
#X floatatom 29 35 4 0 0;
#X obj 28 52 * 100;
#X obj 79 72 t b f;
#X obj 117 72 t b f;
#X obj 78 36 loadbang;
#X obj 33 156 limiter~;
#X obj 17 204 *~;
#X obj 26 129 *~ 4;
#X obj 27 87 equalizer 9800 50 50;
#X obj 17 181 nop~;
#X connect 1 0 14 1;
#X connect 2 0 3 0;
#X connect 2 1 3 0;
#X connect 3 0 14 0;
#X connect 4 0 15 0;
#X connect 5 0 9 0;
#X connect 6 0 10 0;
#X connect 7 0 8 0;
#X connect 8 0 4 0;
#X connect 9 0 15 0;
#X connect 9 1 15 1;
#X connect 10 0 15 0;
#X connect 10 1 15 2;
#X connect 11 0 15 0;
#X connect 12 0 13 1;
#X connect 13 0 0 0;
#X connect 14 0 12 0;
#X connect 14 0 16 0;
#X connect 15 0 3 0;
#X connect 16 0 13 0;
