#N canvas 211 186 450 397 10;
#X floatatom 342 277 4 0 0;
#X obj 106 82 -;
#X obj 109 31 t b b;
#X obj 90 108 *;
#X obj 127 133 +;
#X floatatom 82 261 4 0 0;
#X obj 370 24 toggle 15 0 empty empty empty 8 -8 0 10 0 22 22 1;
#X floatatom 77 222 4 0 0;
#X obj 127 156 gate;
#X obj 215 48 sel 0 1;
#X msg 216 100 0;
#X obj 224 129 -;
#X msg 386 88 bang;
#X obj 375 -19 keyon F9;
#X obj 127 236 f;
#X obj 370 2 sel 1;
#X obj 224 157 < 0;
#X floatatom 342 202 4 0 0;
#X obj 224 230 !=;
#X obj 217 258 sel 1;
#X obj 185 157 == 0;
#X msg 217 282 1;
#X obj 127 181 gate;
#X floatatom 345 242 4 0 0;
#X obj 375 125 < 0;
#X obj 238 206 i;
#X obj 224 184 t f f;
#X obj 237 72 t b b;
#X obj 22 54 joystik \$1;
#X obj 22 78 route \$2;
#X obj 109 8 loadbang;
#X obj 209 23 inlet;
#X obj 127 261 outlet;
#X obj 143 210 inlet;
#X text 9 -24 joy_cross: arguments: joy_nb axe_nb min max;
#X obj 106 54 f \$4;
#X obj 143 54 f \$3;
#X connect 1 0 3 1;
#X connect 2 0 35 0;
#X connect 2 1 36 0;
#X connect 3 0 4 0;
#X connect 4 0 8 0;
#X connect 4 0 11 0;
#X connect 8 0 22 0;
#X connect 9 0 10 0;
#X connect 9 1 27 0;
#X connect 10 0 22 1;
#X connect 11 0 16 0;
#X connect 11 0 20 0;
#X connect 13 0 15 0;
#X connect 14 0 5 0;
#X connect 14 0 11 1;
#X connect 14 0 32 0;
#X connect 15 0 6 0;
#X connect 16 0 26 0;
#X connect 18 0 19 0;
#X connect 19 0 21 0;
#X connect 20 0 19 0;
#X connect 21 0 22 1;
#X connect 22 0 7 0;
#X connect 22 0 14 0;
#X connect 25 0 18 1;
#X connect 26 0 18 0;
#X connect 26 1 25 1;
#X connect 27 0 18 0;
#X connect 27 1 25 0;
#X connect 27 1 10 0;
#X connect 28 0 29 0;
#X connect 29 0 3 0;
#X connect 30 0 2 0;
#X connect 31 0 8 1;
#X connect 31 0 9 0;
#X connect 33 0 14 1;
#X connect 35 0 1 0;
#X connect 36 0 1 1;
#X connect 36 0 4 1;
