#N canvas 180 271 450 552 10;
#X obj 133 436 inlet;
#X obj 133 525 outlet;
#X obj 256 395 inlet;
#X text 11 8 joy_cross: arguments: joy_nb axe_nb min max mode b1 b2
b3 b4;
#X text 64 26 mode: if 0: only when joy_mode=0;
#X text 106 38 if n<0: only when joy_mode=n;
#X text 106 51 if n>0: when joy_mode=n or 0;
#X text 126 97 if b1=1 : b1 must be on;
#N canvas 447 360 421 598 joy_cross 0;
#X obj 105 196 -;
#X obj 108 145 t b b;
#X obj 89 222 *;
#X obj 93 252 +;
#X floatatom 297 373 5 0 0;
#X obj 251 159 sel 0 1;
#X msg 251 212 0;
#X obj 131 414 -;
#X obj 208 321 f;
#X obj 131 510 !=;
#X obj 131 538 sel 1;
#X obj 131 464 t f f;
#X obj 272 183 t b b;
#X obj 29 145 joystik \$1;
#X obj 29 169 route \$2;
#X obj 108 109 loadbang;
#X obj 251 69 inlet;
#X obj 165 358 outlet;
#X obj 234 256 inlet;
#X text 14 21 joy_cross: arguments: joy_nb axe_nb min max;
#X obj 105 168 f \$4;
#X obj 142 168 f \$3;
#X obj 251 92 > 0;
#X obj 251 118 change;
#X obj 38 198 clip 0 1;
#X obj 89 439 /;
#X obj 89 484 < 0.1;
#X obj 89 462 abs;
#X obj 93 282 demux 0 1 2;
#X msg 93 329 1;
#X obj 93 305 t b f;
#X msg 175 575 2;
#X obj 175 254 i;
#X obj 131 437 < 0;
#X obj 160 413 <;
#X obj 231 414 sel;
#X obj 298 332 bng 15 250 50 0 empty empty empty 20 8 0 8 -262144 -1
-1;
#X floatatom 271 413 5 0 0;
#X obj 221 296 t f f;
#X obj 165 321 t f f;
#X msg 295 297 0;
#X connect 0 0 2 1;
#X connect 0 0 25 1;
#X connect 1 0 20 0;
#X connect 1 1 21 0;
#X connect 2 0 3 0;
#X connect 3 0 28 0;
#X connect 5 0 6 0;
#X connect 5 1 12 0;
#X connect 6 0 32 0;
#X connect 7 0 25 0;
#X connect 7 0 33 0;
#X connect 8 0 7 1;
#X connect 8 0 34 1;
#X connect 8 0 4 0;
#X connect 9 0 10 0;
#X connect 10 0 31 0;
#X connect 11 0 9 0;
#X connect 12 1 6 0;
#X connect 13 0 14 0;
#X connect 14 0 24 0;
#X connect 15 0 1 0;
#X connect 16 0 22 0;
#X connect 18 0 38 0;
#X connect 20 0 0 0;
#X connect 21 0 0 1;
#X connect 21 0 3 1;
#X connect 22 0 23 0;
#X connect 23 0 5 0;
#X connect 23 0 13 0;
#X connect 24 0 2 0;
#X connect 25 0 27 0;
#X connect 26 0 10 0;
#X connect 27 0 26 0;
#X connect 28 0 30 0;
#X connect 28 1 7 0;
#X connect 28 2 8 0;
#X connect 28 2 39 0;
#X connect 29 0 32 0;
#X connect 30 0 29 0;
#X connect 30 1 34 0;
#X connect 31 0 32 0;
#X connect 32 0 28 1;
#X connect 33 0 11 0;
#X connect 34 0 9 1;
#X connect 35 1 40 0;
#X connect 38 0 8 0;
#X connect 38 1 37 0;
#X connect 38 1 35 0;
#X connect 39 0 17 0;
#X connect 39 1 35 1;
#X connect 40 0 32 0;
#X connect 40 0 36 0;
#X restore 133 481 pd joy_cross;
#N canvas 401 262 325 335 buttons 0;
#X obj 40 39 joystik 0;
#X obj 58 103 * 2;
#X obj 58 125 - 1;
#X obj 39 62 route 0 1;
#X obj 58 170 != -1;
#X obj 105 104 * 2;
#X obj 105 126 - 1;
#X obj 105 171 != -1;
#X obj 102 221 && 1;
#X obj 105 195 t b f;
#X obj 173 104 * 2;
#X obj 173 126 - 1;
#X obj 185 61 route 0 1;
#X obj 173 171 != -1;
#X obj 220 105 * 2;
#X obj 220 127 - 1;
#X obj 220 172 != -1;
#X obj 217 221 && 1;
#X obj 220 196 t b f;
#X obj 186 38 joystik 1;
#X obj 151 281 && 1;
#X obj 167 255 t b f;
#X obj 118 68 loadbang;
#X obj 58 148 * \$6;
#X obj 105 149 * \$7;
#X obj 172 149 * \$8;
#X obj 220 150 * \$9;
#X obj 151 307 outlet;
#X obj 130 5 inlet;
#X connect 0 1 3 0;
#X connect 1 0 2 0;
#X connect 2 0 23 0;
#X connect 3 0 1 0;
#X connect 3 1 5 0;
#X connect 4 0 8 0;
#X connect 5 0 6 0;
#X connect 6 0 24 0;
#X connect 7 0 9 0;
#X connect 8 0 20 0;
#X connect 9 0 8 0;
#X connect 9 1 8 1;
#X connect 10 0 11 0;
#X connect 11 0 25 0;
#X connect 12 0 10 0;
#X connect 12 1 14 0;
#X connect 13 0 17 0;
#X connect 14 0 15 0;
#X connect 15 0 26 0;
#X connect 16 0 18 0;
#X connect 17 0 21 0;
#X connect 18 0 17 0;
#X connect 18 1 17 1;
#X connect 19 1 12 0;
#X connect 20 0 27 0;
#X connect 21 0 20 0;
#X connect 21 1 20 1;
#X connect 22 0 10 0;
#X connect 22 0 14 0;
#X connect 22 0 5 0;
#X connect 22 0 1 0;
#X connect 23 0 4 0;
#X connect 24 0 7 0;
#X connect 25 0 13 0;
#X connect 26 0 16 0;
#X connect 28 0 0 0;
#X connect 28 0 19 0;
#X restore 204 350 pd buttons;
#X text 64 72 b1...b4: if b1=0 : b1 doesn't matter;
#X text 126 85 if b1=-1 : b1 must be off;
#X obj 212 376 *;
#X obj 256 418 t b f;
#X obj 238 453 +;
#X obj 261 205 f \$5;
#X obj 207 250 abs;
#X obj 189 273 ==;
#X obj 261 171 loadbang;
#X obj 264 264 &&;
#X obj 215 211 == 0;
#X obj 224 295 ||;
#X obj 176 188 t f f;
#X obj 280 240 >= 0;
#X obj 181 162 r joymode1;
#X text 91 124 inlets: 1=set 2=gate: -1=block 0=normal 1=force;
#X floatatom 252 506 4 0 0;
#X obj 325 489 outlet;
#X obj 193 406 t f f;
#X obj 224 317 t b f f;
#X obj 336 319 != -1;
#X obj 336 341 t b f;
#X obj 333 364 && 1;
#X connect 0 0 8 0;
#X connect 2 0 13 0;
#X connect 8 0 1 0;
#X connect 9 0 12 0;
#X connect 12 0 28 0;
#X connect 13 0 14 0;
#X connect 13 1 14 1;
#X connect 13 1 30 0;
#X connect 14 0 8 1;
#X connect 14 0 26 0;
#X connect 15 0 16 0;
#X connect 15 0 23 0;
#X connect 16 0 17 1;
#X connect 17 0 21 0;
#X connect 18 0 15 0;
#X connect 19 0 21 1;
#X connect 20 0 19 0;
#X connect 21 0 29 0;
#X connect 22 0 17 0;
#X connect 22 1 20 0;
#X connect 23 0 19 1;
#X connect 24 0 22 0;
#X connect 28 0 14 0;
#X connect 28 1 27 0;
#X connect 29 0 12 0;
#X connect 29 1 12 1;
#X connect 29 2 32 0;
#X connect 30 0 31 0;
#X connect 31 0 32 0;
#X connect 31 1 32 1;
#X connect 32 0 9 0;
