#N canvas 292 261 315 387 10;
#X obj 25 75 * \$2;
#X obj 67 218 outlet;
#X obj 38 40 unpack 0 0;
#X obj 51 123 -;
#X obj 33 189 +;
#X obj 67 189 f;
#X obj 33 163 gate;
#X obj 38 -8 keyon \$1;
#X obj 83 160 inlet;
#X obj 38 16 nimouse yinv;
#X obj 186 223 outlet;
#X obj 160 125 -;
#X obj 152 194 +;
#X obj 186 194 f;
#X obj 152 168 gate;
#X obj 202 165 inlet;
#X obj 136 77 * \$3;
#X obj -23 99 sel 0;
#X msg -23 122 0;
#X msg 126 125 1;
#X msg 17 123 1;
#X obj 25 99 t b f f;
#X obj 136 101 t b f f;
#X connect 0 0 21 0;
#X connect 2 0 0 0;
#X connect 2 1 16 0;
#X connect 3 0 6 0;
#X connect 4 0 5 0;
#X connect 5 0 4 1;
#X connect 5 0 1 0;
#X connect 6 0 4 0;
#X connect 7 0 9 0;
#X connect 7 0 17 0;
#X connect 8 0 5 1;
#X connect 8 0 4 1;
#X connect 9 0 2 0;
#X connect 11 0 14 0;
#X connect 12 0 13 0;
#X connect 13 0 12 1;
#X connect 13 0 10 0;
#X connect 14 0 12 0;
#X connect 15 0 13 1;
#X connect 15 0 12 1;
#X connect 16 0 22 0;
#X connect 17 0 18 0;
#X connect 18 0 6 1;
#X connect 18 0 14 1;
#X connect 19 0 14 1;
#X connect 20 0 6 1;
#X connect 21 0 20 0;
#X connect 21 1 3 1;
#X connect 21 2 3 0;
#X connect 22 0 19 0;
#X connect 22 1 11 1;
#X connect 22 2 11 0;
