#N canvas 486 218 450 405 10;
#X obj 101 198 nimouse;
#X floatatom 159 198 4 0 0;
#X obj 158 23 keyname;
#X obj 167 97 gate;
#X msg 235 70 0;
#X msg 202 70 1;
#X msg 175 169 1;
#X obj 181 123 select 1;
#X msg 142 169 0;
#X obj 107 147 delay 300;
#X obj 124 224 gate;
#X obj 90 336 * \$2;
#X obj 202 46 sel \$1;
#X obj 155 337 * \$3;
#X obj 90 361 outlet;
#X obj 155 362 outlet;
#X obj 90 284 expr max(min($f1*1.4-0.2 \, 1) \, 0);
#X obj 90 249 unpack 0 0;
#X obj 155 310 expr max(min((1-$f1)*1.4-0.2 \, 1) \, 0);
#X obj 40 121 select 0;
#X obj 32 147 delay 50;
#X connect 0 0 10 0;
#X connect 1 0 10 1;
#X connect 2 0 3 0;
#X connect 2 1 12 0;
#X connect 3 0 7 0;
#X connect 3 0 19 0;
#X connect 4 0 3 1;
#X connect 4 0 1 0;
#X connect 5 0 3 1;
#X connect 6 0 1 0;
#X connect 7 0 6 0;
#X connect 7 0 9 0;
#X connect 8 0 1 0;
#X connect 9 0 8 0;
#X connect 10 0 17 0;
#X connect 11 0 14 0;
#X connect 12 0 5 0;
#X connect 12 1 4 0;
#X connect 13 0 15 0;
#X connect 16 0 11 0;
#X connect 17 0 16 0;
#X connect 17 1 18 0;
#X connect 18 0 13 0;
#X connect 19 0 20 0;
#X connect 20 0 8 0;
