#N canvas 62 249 450 361 10;
#X msg 35 73 auto 1;
#X obj 226 103 switch~;
#X obj 7 100 fiddle~ 2048 1 20 3;
#X obj 17 137 unpack;
#X obj 226 80 subtoggle red on 1 1;
#X obj 103 152 s \$1-fidelenv;
#X obj 7 294 s \$1-fidelfpitch;
#X obj 17 246 s \$1-fidelpitch;
#X obj 39 267 s \$1-fidelbang;
#X obj 7 47 in \$1;
#X obj 334 11 r \$2-mulfidel;
#X connect 0 0 2 0;
#X connect 2 0 6 0;
#X connect 2 1 8 0;
#X connect 2 2 3 0;
#X connect 2 3 5 0;
#X connect 3 0 7 0;
#X connect 4 0 1 0;
#X connect 4 0 0 0;
#X connect 9 0 2 0;
