#N canvas 66 338 219 287 10;
#X obj 91 192 f;
#X obj 15 184 ==;
#X obj 41 107 l;
#X obj 57 79 inlet;
#X obj 41 14 inlet;
#X obj 124 191 + 1;
#X msg 90 173 0;
#X obj 64 237 f;
#X obj 64 262 outlet;
#X obj 41 42 t b a b;
#X obj 41 158 t a b;
#X obj 41 210 sel \$1;
#X floatatom 120 228 4 0 0;
#X obj 42 134 drip;
#X connect 0 0 7 1;
#X connect 0 0 5 0;
#X connect 0 0 12 0;
#X connect 2 0 13 0;
#X connect 3 0 2 1;
#X connect 4 0 9 0;
#X connect 5 0 0 1;
#X connect 6 0 0 0;
#X connect 7 0 8 0;
#X connect 9 0 2 0;
#X connect 9 1 11 1;
#X connect 9 2 6 0;
#X connect 10 0 11 0;
#X connect 10 1 0 0;
#X connect 11 0 7 0;
#X connect 13 0 10 0;
