#N canvas 42 240 450 300 10;
#X obj 35 255 outlet;
#X obj 35 96 spigot;
#X obj 197 240 outlet;
#X obj 197 216 spigot;
#X obj 276 241 outlet;
#X obj 276 217 spigot;
#X obj 353 240 outlet;
#X obj 353 216 spigot;
#X obj 234 6 inlet;
#X obj 129 37 symbol \$1;
#X obj 129 16 loadbang;
#X obj 129 58 sel yinv;
#X obj 93 154 unpack f f f;
#X obj 35 132 demux 0 1;
#X obj 93 217 pack f f f;
#X msg 125 175 1 \$1;
#X obj 125 196 -;
#X msg 129 79 1;
#X obj 197 127 r mb1;
#X obj 276 128 r mb2;
#X obj 353 128 r mb3;
#X obj 35 16 r mxy;
#X connect 1 0 13 0;
#X connect 3 0 2 0;
#X connect 5 0 4 0;
#X connect 7 0 6 0;
#X connect 8 0 1 1;
#X connect 8 0 3 1;
#X connect 8 0 5 1;
#X connect 8 0 7 1;
#X connect 9 0 11 0;
#X connect 10 0 9 0;
#X connect 11 0 17 0;
#X connect 12 0 14 0;
#X connect 12 1 15 0;
#X connect 12 2 14 2;
#X connect 13 0 0 0;
#X connect 13 1 12 0;
#X connect 14 0 0 0;
#X connect 15 0 16 0;
#X connect 16 0 14 1;
#X connect 17 0 13 1;
#X connect 18 0 3 0;
#X connect 19 0 5 0;
#X connect 20 0 7 0;
#X connect 21 0 1 0;
