#N canvas 273 444 450 300 10;
#X obj 35 16 r nitab_xyp;
#X obj 197 127 r nitab_b1;
#X obj 276 128 r nitab_b2;
#X obj 353 128 r nitab_b3;
#X obj 35 255 outlet;
#X obj 35 96 spigot;
#X obj 197 240 outlet;
#X obj 197 216 spigot;
#X obj 276 241 outlet;
#X obj 276 217 spigot;
#X obj 353 240 outlet;
#X obj 353 216 spigot;
#X obj 234 6 inlet;
#X obj 129 73 symbol \$1;
#X obj 129 52 loadbang;
#X obj 129 94 sel yinv;
#X obj 93 154 unpack f f f;
#X obj 35 132 demux 0 1;
#X obj 93 217 pack f f f;
#X msg 125 175 1 \$1;
#X obj 125 196 -;
#X msg 129 115 1;
#X connect 0 0 5 0;
#X connect 1 0 7 0;
#X connect 2 0 9 0;
#X connect 3 0 11 0;
#X connect 5 0 17 0;
#X connect 7 0 6 0;
#X connect 9 0 8 0;
#X connect 11 0 10 0;
#X connect 12 0 5 1;
#X connect 12 0 7 1;
#X connect 12 0 9 1;
#X connect 12 0 11 1;
#X connect 13 0 15 0;
#X connect 14 0 13 0;
#X connect 15 0 21 0;
#X connect 16 0 18 0;
#X connect 16 1 19 0;
#X connect 16 2 18 2;
#X connect 17 0 4 0;
#X connect 17 1 16 0;
#X connect 18 0 4 0;
#X connect 19 0 20 0;
#X connect 20 0 18 1;
#X connect 21 0 17 1;
