#N canvas 92 150 475 457 10;
#X obj 98 172 system;
#X obj 72 411 s nitab_xyp;
#X obj 109 319 unpack f f f f f f;
#X obj 150 44 del 2000;
#X obj 72 390 pack f f f;
#X obj 181 404 s nitab_b1;
#X obj 259 400 s nitab_b2;
#X obj 269 356 s nitab_b3;
#X obj 181 384 change;
#X obj 259 380 change;
#X obj 269 336 change;
#X obj 181 364 != 0;
#X msg 32 338 0;
#X obj 99 365 t b f;
#X obj 32 318 del;
#X msg 32 298 200;
#X obj 109 263 netreceive 9001;
#X msg 98 152 echo "/usr/local/bin/wac | pdsend 9001" | at now;
#X msg 150 88 /usr/local/bin/wacinit;
#X obj 150 108 system;
#X obj 219 66 system;
#X msg 219 46 bash -c "killall wac";
#X obj 229 18 loadbang;
#X obj 150 14 b;
#X obj 88 89 del 1000;
#X connect 2 0 4 0;
#X connect 2 1 4 1;
#X connect 2 2 4 2;
#X connect 2 2 11 0;
#X connect 2 4 9 0;
#X connect 2 5 10 0;
#X connect 3 0 18 0;
#X connect 3 0 24 0;
#X connect 4 0 1 0;
#X connect 8 0 5 0;
#X connect 9 0 6 0;
#X connect 10 0 7 0;
#X connect 11 0 8 0;
#X connect 12 0 13 0;
#X connect 12 0 11 0;
#X connect 13 0 4 0;
#X connect 13 1 4 2;
#X connect 14 0 12 0;
#X connect 15 0 14 0;
#X connect 16 0 2 0;
#X connect 16 0 15 0;
#X connect 17 0 0 0;
#X connect 18 0 19 0;
#X connect 21 0 20 0;
#X connect 23 0 3 0;
#X connect 23 0 21 0;
#X connect 24 0 17 0;
