#N canvas 387 475 450 300 10;
#X obj 286 142 table \$0-scope;
#X obj 82 19 inlet~;
#X obj 138 136 tabwrite~ \$0-scope;
#X obj 144 18 inlet;
#X obj 144 110 metro 100;
#X obj 275 17 loadbang;
#X obj 280 93 * 44.1;
#X msg 282 115 resize \$1;
#X obj 144 44 f;
#X obj 140 70 t f f;
#X connect 1 0 2 0;
#X connect 3 0 8 0;
#X connect 4 0 2 0;
#X connect 5 0 4 0;
#X connect 6 0 7 0;
#X connect 7 0 0 0;
#X connect 8 0 9 0;
#X connect 9 0 4 1;
#X connect 9 1 6 0;
