#N canvas 30 285 450 300 10;
#X obj 93 106 throw~ outl;
#X obj 93 58 inlet~;
#X obj 181 61 inlet~;
#X obj 268 107 throw~ rev1;
#X obj 268 60 inlet~;
#X obj 181 107 throw~ outr;
#X connect 1 0 0 0;
#X connect 2 0 5 0;
#X connect 4 0 3 0;
