#N canvas 240 117 532 195 10;
#X obj 27 105 throw~ outl;
#X obj 27 57 inlet~;
#X obj 115 60 inlet~;
#X obj 374 110 throw~ rev1;
#X obj 374 63 inlet~;
#X obj 115 106 throw~ outr;
#X obj 197 60 inlet~;
#X obj 285 63 inlet~;
#X obj 197 108 throw~ outrl;
#X obj 285 109 throw~ outrr;
#X connect 1 0 0 0;
#X connect 2 0 5 0;
#X connect 4 0 3 0;
#X connect 6 0 8 0;
#X connect 7 0 9 0;
