#N canvas 516 344 435 360 10;
#X obj 106 41 nitab yinv;
#X obj 30 152 expr $f1*2-1;
#X obj 158 154 expr $f1*2-1;
#X obj 118 236 atan2;
#X obj 118 260 expr ($f1+3.14159)/(2*3.14159);
#X obj 30 177 t f f;
#X obj 58 91 unpack 0 0 0;
#X obj 28 249 outlet;
#X obj 118 282 outlet;
#X obj 183 119 outlet;
#X obj 242 118 outlet;
#X obj 302 118 outlet;
#X obj 364 118 outlet;
#X text 9 4 Outputs: r theta press b1 b2 b3;
#X obj 105 20 init 1;
#X obj 28 204 expr sqrt($f1*$f1+$f2*$f2);
#X obj 28 226 min 1;
#X obj 154 21 inlet;
#X connect 0 0 6 0;
#X connect 0 1 10 0;
#X connect 0 2 11 0;
#X connect 0 3 12 0;
#X connect 1 0 5 0;
#X connect 2 0 3 1;
#X connect 2 0 15 1;
#X connect 3 0 4 0;
#X connect 4 0 8 0;
#X connect 5 0 15 0;
#X connect 5 1 3 0;
#X connect 6 0 1 0;
#X connect 6 1 2 0;
#X connect 6 2 9 0;
#X connect 14 0 0 0;
#X connect 15 0 16 0;
#X connect 16 0 7 0;
#X connect 17 0 14 0;
