#N canvas 145 209 571 572 10;
#X obj 325 309 hip~ 5;
#X text 375 310 high pass filter to cut DC;
#X obj 325 263 line~;
#X text 367 264 convert smoothly to audio signal;
#X obj 353 368 *~;
#X obj 459 90 vslider 15 128 0.02 2 1 1 empty empty empty 8 -8 0 10
25 22 22 11513;
#X text 436 236 SMOOTH !;
#X obj 189 -31 inlet;
#X obj 140 119 loadbang;
#X obj 100 217 soundfiler;
#X msg 101 194 read -resize \$1 \$2;
#X obj 101 172 pack s s;
#X obj 325 287 tabread4~ \$0-smp;
#X graph graph2 0 -1 131023 1 241 71 496 21;
#X array tsmpt 131024 float 0;
#X pop;
#X obj 244 22 hslider 250 50 0 1 0 0 empty empty empty 8 -8 0 10 4
22 22 16746;
#X obj 140 142 symbol \$0-smp;
#X obj 24 404 symbol \$0-smp;
#X msg 24 382 bang;
#X msg 23 427 \; tsmpt rename \$1;
#X obj 84 91 nifs /home/Sounds/;
#X obj 148 400 symbol \$0-smp;
#X msg 148 379 bang;
#X msg 147 423 \; \$1 rename tsmpt;
#X obj 23 358 loadbang;
#X obj 190 -2 route load index smooth volume;
#X obj 253 285 lop~ 20;
#X obj 279 422 outlet~;
#X obj 339 424 Out ---;
#X obj 264 110 -;
#X obj 264 132 abs;
#X obj 360 235 pack 0 100;
#X obj 100 241 sl length;
#X obj 319 84 rl length;
#X obj 305 109 *;
#X text 479 106 Volume;
#X obj 261 83 t f f f;
#X obj 330 209 f;
#X obj 358 202 f;
#X obj 254 176 b;
#X obj 310 176 b;
#X obj 253 154 moses 0.1;
#X connect 0 0 4 0;
#X connect 0 0 26 0;
#X connect 2 0 12 0;
#X connect 4 0 27 0;
#X connect 4 0 27 1;
#X connect 5 0 4 1;
#X connect 7 0 24 0;
#X connect 8 0 15 0;
#X connect 9 0 31 0;
#X connect 10 0 9 0;
#X connect 11 0 10 0;
#X connect 12 0 0 0;
#X connect 14 0 35 0;
#X connect 15 0 11 1;
#X connect 16 0 18 0;
#X connect 17 0 16 0;
#X connect 19 0 11 0;
#X connect 20 0 22 0;
#X connect 21 0 20 0;
#X connect 23 0 17 0;
#X connect 24 0 11 0;
#X connect 24 1 14 0;
#X connect 24 2 30 1;
#X connect 24 3 5 0;
#X connect 28 0 29 0;
#X connect 29 0 40 0;
#X connect 30 0 2 0;
#X connect 32 0 33 1;
#X connect 33 0 36 1;
#X connect 33 0 37 1;
#X connect 35 0 28 1;
#X connect 35 1 28 0;
#X connect 35 2 33 0;
#X connect 36 0 2 0;
#X connect 37 0 30 0;
#X connect 38 0 37 0;
#X connect 39 0 36 0;
#X connect 40 0 38 0;
#X connect 40 1 39 0;
