#N canvas 438 119 450 433 10;
#X obj 76 108 shell;
#X obj 54 180 unpack f s;
#X obj 68 228 symbol;
#X obj 68 290 i;
#X floatatom 25 325 5 0 0;
#X obj 54 201 t b f;
#X obj 76 132 segregate;
#X obj 163 184 route Sampling;
#X obj 163 205 unpack s f;
#X floatatom 256 255 8 0 0;
#X msg 76 83 sfinfo \$1;
#X obj 119 17 nifs;
#X obj 68 254 sel channel channels;
#X obj 76 17 inlet;
#X obj 68 349 outlet;
#X obj 102 46 t b s 0;
#X obj 348 252 i;
#X msg 364 223 1;
#X obj 348 279 sel 0;
#X obj 228 347 outlet;
#X obj 348 347 outlet;
#X text 55 370 Nb channels;
#X text 211 368 Sampling rate;
#X text 336 368 Not a soundfile;
#X connect 0 0 6 0;
#X connect 1 0 5 0;
#X connect 1 1 2 1;
#X connect 2 0 12 0;
#X connect 3 0 14 0;
#X connect 3 0 4 0;
#X connect 5 0 2 0;
#X connect 5 1 3 1;
#X connect 6 3 1 0;
#X connect 6 5 7 0;
#X connect 7 0 8 0;
#X connect 8 1 19 0;
#X connect 8 1 9 0;
#X connect 8 1 17 0;
#X connect 10 0 0 0;
#X connect 11 1 15 0;
#X connect 12 0 3 0;
#X connect 12 1 3 0;
#X connect 13 0 15 0;
#X connect 15 0 16 0;
#X connect 15 1 10 0;
#X connect 15 2 16 1;
#X connect 16 0 18 0;
#X connect 17 0 16 1;
#X connect 18 0 20 0;
