#N canvas 544 390 339 236 10;
#X floatatom 54 123 5 0 0 0 - - - 0;
#X floatatom 192 123 5 0 0 0 - - - 0;
#X obj 190 53 r Monitor12;
#X obj 190 76 sel 0 1;
#X msg 116 124 1;
#X msg 256 124 2;
#X obj 25 167 busrme \$1;
#X obj 163 167 busrme \$2;
#X obj 88 124 f \$1;
#X obj 224 123 f \$2;
#X obj 24 27 inlet~;
#X obj 164 26 inlet~;
#X obj 70 28 r ClochesMono;
#X obj 55 78 *~;
#X connect 0 0 6 1;
#X connect 1 0 7 1;
#X connect 2 0 3 0;
#X connect 3 0 8 0;
#X connect 3 0 9 0;
#X connect 3 1 4 0;
#X connect 3 1 5 0;
#X connect 4 0 6 1;
#X connect 5 0 7 1;
#X connect 8 0 6 1;
#X connect 9 0 7 1;
#X connect 10 0 6 0;
#X connect 11 0 7 0;
#X connect 11 0 13 0;
#X connect 12 0 13 1;
#X connect 13 0 6 0;
