#N canvas 444 183 450 300 10;
#X obj 109 64 inlet~;
#X msg 322 64 1;
#X obj 182 85 pow 4;
#X obj 130 176 outlet~;
#X obj 182 64 subdial red 0 2 1 1.24;
#X obj 182 41 inlet;
#X obj 130 146 mull~ 0 5;
#X obj 252 38 inlet;
#X obj 182 108 m 1;
#X connect 0 0 6 0;
#X connect 1 0 4 0;
#X connect 2 0 8 0;
#X connect 4 0 2 0;
#X connect 4 1 1 0;
#X connect 5 0 4 0;
#X connect 6 0 3 0;
#X connect 7 0 8 1;
#X connect 8 0 6 1;
