#N canvas 467 318 450 300 10;
#X obj 97 206 adsr 1 0 0 1 0;
#X obj 115 86 subdial red 0 4 1 2.88;
#X obj 126 107 subdial orange 0 500 1 5;
#X obj 160 159 subdial blue 0 1 1 0.1;
#X obj 57 1 inlet;
#X obj 97 232 outlet~;
#X obj 190 182 subdial yellow 0 500 1 0;
#X obj 57 24 segregate;
#X obj 115 47 route vol a d s r;
#X obj 141 133 subdial green 0 1500 1 200;
#X connect 0 0 5 0;
#X connect 1 0 0 1;
#X connect 2 0 0 2;
#X connect 3 0 0 4;
#X connect 4 0 7 0;
#X connect 6 0 0 5;
#X connect 7 1 0 0;
#X connect 7 5 8 0;
#X connect 8 0 1 0;
#X connect 8 1 2 0;
#X connect 8 2 9 0;
#X connect 8 3 3 0;
#X connect 8 4 6 0;
#X connect 9 0 0 3;
