#N canvas 331 -2 655 425 10;
#X msg 89 306 print;
#X obj 181 262 loadbang;
#X msg 181 285 COMPRESS;
#X msg 204 153 set 110 40 150;
#X msg 11 240 compress 96 88 0.5;
#X msg 94 26 limit 98;
#X obj 153 307 limiter~;
#X obj 379 241 pack f f f;
#X msg 379 263 set \$1 \$2 \$3;
#X obj 388 206 t b f;
#X obj 428 206 t b f;
#X obj 50 165 inlet~;
#X obj 138 376 outlet~;
#X msg 322 101 1 \$1;
#X obj 322 120 /;
#X floatatom 332 154 5 0 0;
#X msg 206 32 treshold \$1;
#X msg 215 71 ratio \$1;
#X obj 138 353 *~;
#X obj 138 329 nop~;
#X floatatom 250 116 5 0 0;
#X obj 377 105 subdial orange hold 0 400 1 126;
#X obj 415 135 subdial yellow riliz 0 400 1 266;
#X msg 256 320 reset;
#X obj 325 46 subdial purple thres 0.1 110 1 101.757;
#X floatatom 263 191 5 0 0;
#X obj 351 76 subdial green ratio 1 8 1 2.365;
#X obj 438 167 subdial red limit 0 110 1 94.0499;
#X connect 0 0 6 0;
#X connect 1 0 2 0;
#X connect 2 0 6 0;
#X connect 3 0 6 0;
#X connect 4 0 6 0;
#X connect 5 0 6 0;
#X connect 6 0 18 1;
#X connect 7 0 8 0;
#X connect 8 0 6 0;
#X connect 9 0 7 0;
#X connect 9 1 7 1;
#X connect 10 0 7 0;
#X connect 10 1 7 2;
#X connect 11 0 6 0;
#X connect 11 0 19 0;
#X connect 13 0 14 0;
#X connect 14 0 17 0;
#X connect 14 0 25 0;
#X connect 16 0 6 0;
#X connect 17 0 6 0;
#X connect 18 0 12 0;
#X connect 19 0 18 0;
#X connect 20 0 17 0;
#X connect 21 0 9 0;
#X connect 22 0 10 0;
#X connect 23 0 6 0;
#X connect 24 0 16 0;
#X connect 26 0 13 0;
#X connect 27 0 7 0;
