#N canvas 360 366 338 288 10;
#X obj 117 110 subdial red 0 1 1 1;
#X obj 20 34 inlet~;
#X obj 117 131 pow 4;
#X obj 101 222 outlet~;
#X obj 117 174 line~;
#X msg 117 153 \$1 50;
#X obj 97 64 pow 4;
#X obj 101 195 *~;
#X obj 187 137 != 0;
#X obj 187 160 switch~;
#X msg 253 136 0;
#N canvas 505 62 272 233 config 0;
#X obj 17 77 r \$0-preset_dosave;
#X obj 17 158 s \$0-preset_donesave;
#X obj 17 98 savfloat \$0 time \$0-time;
#X obj 17 118 savfloat \$0 feed \$0-feed;
#X obj 17 138 savfloat \$0 vol \$0-vol;
#X connect 0 0 2 0;
#X connect 2 0 3 0;
#X connect 3 0 4 0;
#X connect 4 0 1 0;
#X restore 172 251 pd config;
#X msg 173 185 save;
#X msg 177 205 load;
#X obj 173 226 saveload \$0 \$1 \$2;
#SUB settings /home/antoine/Datas/PdPatchs/preset/test/tlfo/2 /home/antoine/Datas/PdPatchs/preset/test/tlfo/2
;
#X obj 97 20 sndrcv \$0-time;
#X obj 117 92 sndrcv \$0-vol;
#N canvas 0 0 287 202 reader 0;
#X obj 92 140 outlet~;
#X obj 92 116 delread~ \$0-delay;
#X obj 113 68 inlet;
#X obj 61 68 inlet~;
#X connect 1 0 0 0;
#X connect 2 0 1 0;
#X restore 20 94 pd reader;
#N canvas 88 230 463 189 writer 0;
#X obj 138 40 inlet~;
#X obj 138 71 delwrite~ \$0-delay 5000;
#X obj 174 102 outlet~;
#X connect 0 0 1 0;
#X connect 0 0 2 0;
#X restore 20 66 pd writer;
#X obj 97 41 subdial green 0.6 8 1 3.153;
#X connect 0 0 2 0;
#X connect 0 0 8 0;
#X connect 0 0 16 0;
#X connect 0 1 10 0;
#X connect 1 0 18 0;
#X connect 2 0 5 0;
#X connect 4 0 7 1;
#X connect 5 0 4 0;
#X connect 6 0 17 1;
#X connect 7 0 3 0;
#X connect 8 0 9 0;
#X connect 10 0 0 0;
#X connect 12 0 14 0;
#X connect 13 0 14 0;
#X connect 15 0 19 0;
#X connect 16 0 0 0;
#X connect 17 0 7 0;
#X connect 18 0 17 0;
#X connect 19 0 6 0;
#X connect 19 0 15 0;
