#N canvas 72 287 450 384 10;
#X obj 40 134 inlet~;
#X obj 150 185 pow 4;
#X obj 150 229 line~;
#X msg 150 207 \$1 50;
#X obj 77 247 *~;
#X obj 77 271 outlet~;
#X obj 150 163 subdial red 0 1 1 1;
#X obj 40 155 compressor~;
#X obj 112 76 * -1;
#X obj 79 23 inlet;
#X obj 150 138 inlet;
#X obj 79 44 * 6;
#X obj 79 66 - 1;
#X obj 112 97 subdial purple -1 5 1 -0;
#X connect 0 0 7 0;
#X connect 1 0 3 0;
#X connect 2 0 4 1;
#X connect 3 0 2 0;
#X connect 4 0 5 0;
#X connect 6 0 1 0;
#X connect 7 0 4 0;
#X connect 8 0 13 0;
#X connect 9 0 11 0;
#X connect 10 0 6 0;
#X connect 11 0 12 0;
#X connect 12 0 13 0;
#X connect 13 0 7 1;
#X connect 13 1 8 0;
