#N canvas 453 371 338 288 10;
#X obj 117 110 subdial red 0 1 1 1;
#X obj 117 131 pow 4;
#X obj 101 222 outlet~;
#X obj 117 174 line~;
#X msg 117 153 \$1 50;
#X obj 20 65 pow 4;
#X obj 101 195 *~;
#X obj 187 137 != 0;
#X obj 187 160 switch~;
#X msg 253 136 0;
#X obj 20 21 sndrcv \$0-time;
#X obj 117 92 sndrcv \$0-vol;
#N canvas 0 0 287 202 reader 0;
#X obj 92 140 outlet~;
#X obj 92 90 inlet;
#X obj 92 116 delread~ \$1;
#X connect 1 0 2 0;
#X connect 2 0 0 0;
#X restore 20 94 pd reader;
#X obj 20 42 subdial green 0.6 8 1 3.153;
#X connect 0 0 1 0;
#X connect 0 0 7 0;
#X connect 0 0 11 0;
#X connect 0 1 9 0;
#X connect 1 0 4 0;
#X connect 3 0 6 1;
#X connect 4 0 3 0;
#X connect 5 0 12 0;
#X connect 6 0 2 0;
#X connect 7 0 8 0;
#X connect 9 0 0 0;
#X connect 10 0 13 0;
#X connect 11 0 0 0;
#X connect 12 0 6 0;
#X connect 13 0 5 0;
#X connect 13 0 10 0;
