#N canvas 597 285 450 300 10;
#X obj 86 94 inlet~;
#X obj 87 149 *~;
#X obj 88 198 sqrt~;
#X obj 88 173 +~ 1;
#X obj 70 220 /~;
#X obj 37 44 dbtorms;
#X obj 141 142 pow 4;
#X obj 141 186 line~;
#X msg 141 164 \$1 50;
#X obj 36 90 line~;
#X msg 36 68 \$1 50;
#X obj 70 120 *~;
#X obj 77 247 *~;
#X obj 77 271 outlet~;
#X obj 141 120 subdial red 0 1 1 1;
#X obj 38 21 subdial brown 50 200 1 100;
#X obj 215 44 != 1;
#X obj 216 67 * 100;
#X connect 0 0 11 1;
#X connect 1 0 3 0;
#X connect 2 0 4 1;
#X connect 3 0 2 0;
#X connect 4 0 12 0;
#X connect 5 0 10 0;
#X connect 6 0 8 0;
#X connect 7 0 12 1;
#X connect 8 0 7 0;
#X connect 9 0 11 0;
#X connect 10 0 9 0;
#X connect 11 0 1 0;
#X connect 11 0 1 1;
#X connect 11 0 4 0;
#X connect 12 0 13 0;
#X connect 14 0 6 0;
#X connect 15 0 5 0;
#X connect 15 1 16 0;
#X connect 16 0 17 0;
#X connect 17 0 15 0;
