#N canvas 353 246 450 300 10;
#X obj 218 126 subdial red 0 1 1 0.89;
#X obj 18 97 inlet~;
#X obj 218 147 pow 4;
#X obj 167 102 pow 4;
#X obj 174 234 outlet~;
#X obj 218 190 line~;
#X msg 218 169 \$1 50;
#X obj 167 147 line~;
#X msg 167 125 \$1 50;
#N canvas 382 329 600 400 echo 0;
#X obj 141 116 vd~ \$0-delay;
#X obj 83 32 inlet~;
#X obj 123 183 *~;
#X obj 233 188 outlet~;
#X obj 198 90 inlet~;
#X obj 83 215 delwrite~ \$0-delay 5000;
#X obj 141 92 inlet~;
#X obj 84 245 block~ 1;
#X connect 0 0 2 0;
#X connect 0 0 3 0;
#X connect 1 0 5 0;
#X connect 2 0 5 0;
#X connect 4 0 2 1;
#X connect 6 0 0 0;
#X restore 123 173 pd echo;
#X obj 167 82 subdial yellow 0 1 1 0.505;
#X obj 97 64 pow 4;
#X obj 97 109 line~;
#X obj 174 207 *~;
#X msg 97 87 \$1 100;
#X obj 288 153 != 0;
#X obj 288 176 switch~;
#X msg 354 152 0;
#N canvas 576 186 276 233 config 0;
#X obj 17 77 r \$0-preset_dosave;
#X obj 17 158 s \$0-preset_donesave;
#X obj 17 98 savfloat \$0 time \$0-time;
#X obj 17 118 savfloat \$0 feed \$0-feed;
#X obj 17 138 savfloat \$0 vol \$0-vol;
#X connect 0 0 2 0;
#X connect 2 0 3 0;
#X connect 3 0 4 0;
#X connect 4 0 1 0;
#X restore 273 267 pd config;
#X msg 274 201 save;
#X msg 278 221 load;
#X obj 274 242 saveload \$0 \$1 \$2;
#SUB settings /home/antoine/Datas/PdPatchs/preset/test/tlfo/2 /home/antoine/Datas/PdPatchs/preset/test/tlfo/2
;
#X obj 97 20 sndrcv \$0-time;
#X obj 167 62 sndrcv \$0-feed;
#X obj 218 108 sndrcv \$0-vol;
#X floatatom 39 79 5 0 0;
#X obj 97 41 subdial green 0.6 8 1 5.89212;
#X obj 314 8 inlet;
#X obj 314 28 route time feed vol;
#X connect 0 0 2 0;
#X connect 0 0 15 0;
#X connect 0 0 24 0;
#X connect 0 1 17 0;
#X connect 1 0 9 0;
#X connect 2 0 6 0;
#X connect 3 0 8 0;
#X connect 5 0 13 1;
#X connect 6 0 5 0;
#X connect 7 0 9 2;
#X connect 8 0 7 0;
#X connect 9 0 13 0;
#X connect 10 0 3 0;
#X connect 10 0 23 0;
#X connect 11 0 14 0;
#X connect 11 0 25 0;
#X connect 12 0 9 1;
#X connect 13 0 4 0;
#X connect 14 0 12 0;
#X connect 15 0 16 0;
#X connect 17 0 0 0;
#X connect 19 0 21 0;
#X connect 20 0 21 0;
#X connect 22 0 26 0;
#X connect 23 0 10 0;
#X connect 24 0 0 0;
#X connect 26 0 11 0;
#X connect 26 0 22 0;
#X connect 27 0 28 0;
#X connect 28 0 26 0;
#X connect 28 1 10 0;
#X connect 28 2 0 0;
