#N canvas 202 328 450 300 10;
#X obj 70 83 mtof;
#X msg 71 41 ll \$1;
#X obj 71 20 f2s;
#X obj 121 89 subdial yellow width _auto 0 400 1 60;
#X obj 26 128 inlet~;
#X obj 28 287 outlet~;
#X msg 165 136 0;
#X obj 70 61 subdial LightBlue freq --- 0 132 1 83.1599;
#X obj 40 209 bsw2~ 500 0.8;
#X obj 137 209 bpw2~ 500 0.8;
#X obj 137 239 mull~ 0 5;
#X obj 254 200 + 100;
#X obj 152 117 subdial orange dB _auto -100 20 1 0;
#X obj 254 220 dbtorms;
#X connect 0 0 2 0;
#X connect 0 0 8 1;
#X connect 0 0 9 1;
#X connect 1 0 7 0;
#X connect 2 0 1 0;
#X connect 3 0 9 2;
#X connect 3 0 8 2;
#X connect 4 0 8 0;
#X connect 4 0 9 0;
#X connect 6 0 12 0;
#X connect 7 0 0 0;
#X connect 8 0 5 0;
#X connect 9 0 10 0;
#X connect 10 0 5 0;
#X connect 11 0 13 0;
#X connect 12 0 11 0;
#X connect 12 1 6 0;
#X connect 13 0 10 1;
