#N canvas 270 330 450 316 10;
#X obj 198 70 subdial red 0 1 1 1;
#X obj 134 109 line~;
#X obj 134 40 mtof;
#X msg 134 86 \$1 50;
#X obj 103 178 osc~;
#X obj 143 261 outlet~;
#X obj 196 135 line~;
#X msg 197 114 \$1 50;
#X obj 198 92 pow 4;
#X obj 162 212 *~;
#X obj 194 172 *~;
#X obj 245 126 inlet~;
#X obj 245 148 +~ 1;
#X obj 344 45 inlet;
#X obj 57 120 +~ 1;
#X obj 134 -5 inlet;
#X obj 235 261 -~ 1;
#X obj 235 287 outlet~;
#X obj 118 132 *~;
#X obj 134 64 - 2.043;
#X obj 212 239 +~;
#X obj 82 42 noise~;
#X obj 134 19 subdial gray -24 128 1 100.64;
#X obj 57 97 inlet~;
#X obj 103 155 *~;
#X connect 0 0 8 0;
#X connect 1 0 18 1;
#X connect 2 0 19 0;
#X connect 3 0 1 0;
#X connect 4 0 9 0;
#X connect 6 0 10 0;
#X connect 7 0 6 0;
#X connect 8 0 7 0;
#X connect 9 0 5 0;
#X connect 9 0 20 0;
#X connect 10 0 9 1;
#X connect 10 0 20 1;
#X connect 11 0 12 0;
#X connect 12 0 10 1;
#X connect 13 0 0 0;
#X connect 14 0 24 0;
#X connect 15 0 22 0;
#X connect 16 0 17 0;
#X connect 18 0 24 1;
#X connect 19 0 3 0;
#X connect 20 0 16 0;
#X connect 21 0 18 0;
#X connect 22 0 2 0;
#X connect 23 0 14 0;
#X connect 24 0 4 0;
