#N canvas 126 248 450 477 10;
#X obj 64 120 inlet~;
#X obj 64 406 outlet~;
#X obj 103 231 moses \$1;
#X msg 103 259 bang;
#X msg 172 260 bang;
#X obj 172 281 pack 1 \$2;
#X obj 103 281 pack 0 \$3;
#X obj 103 312 line~;
#X obj 64 371 *~;
#X obj 103 202 env~;
#X obj 124 27 inlet;
#X obj 190 24 inlet;
#X obj 243 24 inlet;
#X text 122 6 thres;
#X text 187 3 attack;
#X text 241 3 release;
#X text 243 401 (from) IM 2001;
#X obj 124 52 subdial red 0 110 1 79.2;
#X obj 228 111 subdial yellow 0 800 1 0;
#X obj 190 81 subdial orange 0 200 1 0;
#X connect 0 0 8 0;
#X connect 0 0 9 0;
#X connect 2 0 3 0;
#X connect 2 1 4 0;
#X connect 3 0 6 0;
#X connect 4 0 5 0;
#X connect 5 0 7 0;
#X connect 6 0 7 0;
#X connect 7 0 8 1;
#X connect 8 0 1 0;
#X connect 9 0 2 0;
#X connect 10 0 17 0;
#X connect 11 0 19 0;
#X connect 12 0 18 0;
#X connect 17 0 2 1;
#X connect 18 0 6 1;
#X connect 19 0 5 1;
