#N canvas 223 -6 450 300 10;
#X obj 16 56 mtof;
#X msg 17 35 ll \$1;
#X obj 17 14 f2s;
#X obj 88 213 inlet~;
#X obj 88 259 outlet~;
#X obj 88 237 hml_shelf~ 0 \$1 0 \$2 0 50;
#X obj 116 128 subdial LightBlue Low _auto -50 50 1 0;
#X obj 173 167 subdial yellow Mid _auto -50 50 1 0;
#X obj 229 203 subdial orange High _auto -50 50 1 0;
#X obj 156 33 init \$1;
#X obj 213 33 init \$2;
#X obj 156 60 sel 0;
#X obj 213 60 sel 0;
#X msg 156 87 100;
#X msg 213 87 3000;
#X msg 409 110 0;
#X msg 442 147 0;
#X msg 503 181 0;
#X connect 0 0 2 0;
#X connect 2 0 1 0;
#X connect 3 0 5 0;
#X connect 5 0 4 0;
#X connect 6 0 5 1;
#X connect 6 1 15 0;
#X connect 7 0 5 3;
#X connect 7 1 16 0;
#X connect 8 0 5 5;
#X connect 8 1 17 0;
#X connect 9 0 11 0;
#X connect 10 0 12 0;
#X connect 11 0 13 0;
#X connect 12 0 14 0;
#X connect 13 0 5 2;
#X connect 14 0 5 4;
#X connect 15 0 6 0;
#X connect 16 0 7 0;
#X connect 17 0 8 0;
