#N canvas 395 365 450 316 10;
#X obj 198 70 subdial red 0 1 1 1;
#X obj 134 40 mtof;
#X msg 134 86 \$1 50;
#X obj 143 261 outlet~;
#X obj 196 135 line~;
#X msg 197 114 \$1 50;
#X obj 198 92 pow 4;
#X obj 162 212 *~;
#X obj 194 172 *~;
#X obj 245 126 inlet~;
#X obj 245 148 +~ 1;
#X obj 344 45 inlet;
#X obj 134 -5 inlet;
#X obj 235 261 -~ 1;
#X obj 235 287 outlet~;
#X obj 134 64 - 2.043;
#X obj 212 239 +~;
#X obj 134 19 subdial gray -24 128 1 17.8001;
#X obj 87 71 inlet;
#X obj 87 94 + 1;
#X obj 134 109 line;
#X obj 125 188 noish~;
#X obj 106 136 t b f;
#X obj 125 165 * 1;
#X connect 0 0 6 0;
#X connect 1 0 15 0;
#X connect 2 0 20 0;
#X connect 4 0 8 0;
#X connect 5 0 4 0;
#X connect 6 0 5 0;
#X connect 7 0 3 0;
#X connect 7 0 16 0;
#X connect 8 0 7 1;
#X connect 8 0 16 1;
#X connect 9 0 10 0;
#X connect 10 0 8 1;
#X connect 11 0 0 0;
#X connect 12 0 17 0;
#X connect 13 0 14 0;
#X connect 15 0 2 0;
#X connect 16 0 13 0;
#X connect 17 0 1 0;
#X connect 18 0 19 0;
#X connect 19 0 22 0;
#X connect 20 0 23 0;
#X connect 21 0 7 0;
#X connect 22 0 23 0;
#X connect 22 1 23 1;
#X connect 23 0 21 0;
