#N canvas 190 157 623 373 10;
#X obj 68 106 tgl 15 0 empty empty empty 20 8 0 8 -262144 -1 -1 1 1
;
#X obj 98 182 f;
#X obj 68 182 +;
#X obj 68 159 f;
#X obj 157 205 i;
#X obj 127 183 t f f;
#X obj 141 227 -;
#X obj 141 324 outlet;
#X obj 141 302 m;
#X obj 230 181 subdial red 0 1 1 0.83;
#X obj 68 83 init 1;
#X obj 68 128 metro 10;
#X obj 211 131 / 1000;
#X obj 187 61 *;
#X obj 187 38 t f f;
#X obj 187 16 subdial gray 1 20 1 8.12501;
#X obj 166 90 subdial blue 0 5 1 2.16;
#X obj 166 133 *;
#X obj 166 110 t f f;
#X obj 166 154 m;
#X obj 141 274 tabread4 \$0-wav;
#X msg 301 238 sinesum 32 1;
#X obj 303 290 table \$0-wav;
#X obj 141 250 * 32;
#X obj 301 214 loadbang;
#X obj 268 301 +;
#X obj 268 324 outlet;
#X obj 301 259 s \$0-wav;
#X connect 0 0 11 0;
#X connect 1 0 5 0;
#X connect 2 0 1 0;
#X connect 3 0 2 0;
#X connect 4 0 6 1;
#X connect 5 0 6 0;
#X connect 5 1 4 0;
#X connect 6 0 2 1;
#X connect 6 0 23 0;
#X connect 8 0 7 0;
#X connect 8 0 25 0;
#X connect 9 0 8 1;
#X connect 9 0 25 1;
#X connect 10 0 0 0;
#X connect 11 0 3 0;
#X connect 12 0 19 1;
#X connect 13 0 12 0;
#X connect 13 0 11 1;
#X connect 14 0 13 0;
#X connect 14 1 13 1;
#X connect 15 0 14 0;
#X connect 16 0 18 0;
#X connect 17 0 19 0;
#X connect 18 0 17 0;
#X connect 18 1 17 1;
#X connect 19 0 3 1;
#X connect 20 0 8 0;
#X connect 21 0 27 0;
#X connect 23 0 20 0;
#X connect 24 0 21 0;
#X connect 25 0 26 0;
