#N canvas 407 406 450 456 10;
#X obj 137 399 throw~ gene;
#X obj 137 348 line~;
#X obj 157 105 r leng;
#X msg 137 325 0 \, \$1 \$2;
#X obj 137 138 f;
#X obj 137 300 pack f f;
#X obj 137 161 t f f b;
#X obj 205 231 / 10;
#X obj 205 208 + 1;
#X obj 89 11 r bangue;
#X obj 159 275 / 44.1;
#X obj 203 253 * 44.1;
#X obj 89 58 delay 10;
#X obj 89 81 random 4;
#X obj 89 104 sel 0;
#X obj 205 187 random 60;
#X obj 137 373 tabread~ lesample;
#X obj 89 35 random 100;
#X obj 155 12 r randdelay;
#X obj 169 58 r randplay;
#X connect 1 0 16 0;
#X connect 2 0 4 1;
#X connect 3 0 1 0;
#X connect 4 0 6 0;
#X connect 5 0 3 0;
#X connect 6 0 5 0;
#X connect 6 1 10 0;
#X connect 6 2 15 0;
#X connect 7 0 11 0;
#X connect 8 0 7 0;
#X connect 9 0 17 0;
#X connect 10 0 5 1;
#X connect 11 0 10 1;
#X connect 12 0 13 0;
#X connect 13 0 14 0;
#X connect 14 0 4 0;
#X connect 15 0 8 0;
#X connect 16 0 0 0;
#X connect 17 0 12 0;
#X connect 18 0 17 1;
#X connect 19 0 13 1;
