#N canvas 464 210 450 318 10;
#X obj 270 68 subdial red 0 1 1 0.595001;
#X obj 134 109 line~;
#X obj 134 40 mtof;
#X msg 134 86 \$1 50;
#X obj 134 182 osc~;
#X obj 143 261 outlet~;
#X obj 268 133 line~;
#X msg 269 112 \$1 50;
#X obj 270 90 pow 4;
#X obj 162 212 *~;
#X obj 194 172 *~;
#X obj 271 47 inlet;
#X obj 244 -3 inlet;
#X obj 210 261 outlet~;
#X obj 111 148 *~;
#X obj 134 64 - 2.043;
#X obj 134 19 subdial blue -24 128 1 69.0999;
#X obj 62 89 dinlet~ 1;
#X obj 195 133 dinlet~ 1;
#X obj 210 237 /~ 2;
#X connect 0 0 8 0;
#X connect 1 0 14 1;
#X connect 2 0 15 0;
#X connect 3 0 1 0;
#X connect 4 0 9 0;
#X connect 6 0 10 1;
#X connect 7 0 6 0;
#X connect 8 0 7 0;
#X connect 9 0 5 0;
#X connect 9 0 19 0;
#X connect 10 0 9 1;
#X connect 10 0 19 0;
#X connect 11 0 0 0;
#X connect 12 0 16 0;
#X connect 14 0 4 0;
#X connect 15 0 3 0;
#X connect 16 0 2 0;
#X connect 17 0 14 0;
#X connect 18 0 10 0;
#X connect 19 0 13 0;
