#N canvas 94 373 450 300 10;
#N canvas 363 134 600 400 echo 0;
#X obj 215 92 subdial red 0 1 1 1;
#X obj 18 97 inlet~;
#X obj 214 115 pow 4;
#X obj 165 91 pow 4;
#X obj 174 234 outlet~;
#X obj 214 158 line~;
#X msg 214 137 \$1 50;
#X obj 165 136 line~;
#X msg 165 114 \$1 50;
#N canvas 382 329 600 400 echo 0;
#X obj 141 116 vd~ \$0-delay;
#X obj 83 32 inlet~;
#X obj 123 183 *~;
#X obj 233 188 outlet~;
#X obj 198 90 inlet~;
#X obj 83 215 delwrite~ \$0-delay 5000;
#X obj 141 92 inlet~;
#X obj 84 245 block~ 1;
#X connect 0 0 2 0;
#X connect 0 0 3 0;
#X connect 1 0 5 0;
#X connect 2 0 5 0;
#X connect 4 0 2 1;
#X connect 6 0 0 0;
#X restore 123 173 pd echo;
#X obj 167 68 subdial yellow 0 1 1 0.4;
#X obj 97 64 pow 4;
#X obj 97 109 line~;
#X msg 97 87 \$1 300;
#X obj 174 207 *~;
#X obj 96 41 subdial green 0.6 8 1 6.32021;
#X connect 0 0 2 0;
#X connect 1 0 9 0;
#X connect 2 0 6 0;
#X connect 3 0 8 0;
#X connect 5 0 14 1;
#X connect 6 0 5 0;
#X connect 7 0 9 2;
#X connect 8 0 7 0;
#X connect 9 0 14 0;
#X connect 10 0 3 0;
#X connect 11 0 13 0;
#X connect 12 0 9 1;
#X connect 13 0 12 0;
#X connect 14 0 4 0;
#X connect 15 0 11 0;
#X restore 14 79 pd echo;
#N canvas 0 0 600 400 osc 0;
#X obj 198 70 subdial red 0 1 1 1;
#X obj 134 109 line~;
#X obj 134 40 mtof;
#X msg 134 86 \$1 50;
#X obj 134 182 osc~;
#X obj 143 261 outlet~;
#X obj 196 135 line~;
#X msg 197 114 \$1 50;
#X obj 198 92 pow 4;
#X obj 162 212 *~;
#X obj 194 172 *~;
#X obj 245 126 inlet~;
#X obj 245 148 +~ 1;
#X obj 347 45 inlet;
#X obj 78 90 inlet~;
#X obj 80 111 +~ 1;
#X obj 134 -3 inlet;
#X obj 235 261 -~ 1;
#X obj 235 287 outlet~;
#X obj 111 148 *~;
#X obj 134 64 - 2.043;
#X obj 212 239 +~;
#X obj 134 19 subdial blue -24 128 1 76.3199;
#X connect 0 0 8 0;
#X connect 1 0 19 1;
#X connect 2 0 20 0;
#X connect 3 0 1 0;
#X connect 4 0 9 0;
#X connect 6 0 10 0;
#X connect 7 0 6 0;
#X connect 8 0 7 0;
#X connect 9 0 5 0;
#X connect 9 0 21 0;
#X connect 10 0 9 1;
#X connect 10 0 21 1;
#X connect 11 0 12 0;
#X connect 12 0 10 1;
#X connect 13 0 0 0;
#X connect 14 0 15 0;
#X connect 15 0 19 0;
#X connect 16 0 22 0;
#X connect 17 0 18 0;
#X connect 19 0 4 0;
#X connect 20 0 3 0;
#X connect 21 0 17 0;
#X connect 22 0 2 0;
#X restore 16 188 pd osc;
#N canvas 326 52 600 400 fnoise 0;
#X obj 198 70 subdial red 0 1 1 0.89;
#X obj 134 109 line~;
#X obj 134 40 mtof;
#X msg 134 86 \$1 50;
#X obj 103 178 osc~;
#X obj 143 261 outlet~;
#X obj 196 135 line~;
#X msg 197 114 \$1 50;
#X obj 198 92 pow 4;
#X obj 162 212 *~;
#X obj 194 172 *~;
#X obj 245 126 inlet~;
#X obj 245 148 +~ 1;
#X obj 344 45 inlet;
#X obj 57 120 +~ 1;
#X obj 134 -5 inlet;
#X obj 235 261 -~ 1;
#X obj 235 287 outlet~;
#X obj 118 132 *~;
#X obj 134 64 - 2.043;
#X obj 212 239 +~;
#X obj 82 42 noise~;
#X obj 134 19 subdial gray -24 128 1 72.52;
#X obj 57 97 inlet~;
#X obj 103 155 *~;
#X connect 0 0 8 0;
#X connect 1 0 18 1;
#X connect 2 0 19 0;
#X connect 3 0 1 0;
#X connect 4 0 9 0;
#X connect 6 0 10 0;
#X connect 7 0 6 0;
#X connect 8 0 7 0;
#X connect 9 0 5 0;
#X connect 9 0 20 0;
#X connect 10 0 9 1;
#X connect 10 0 20 1;
#X connect 11 0 12 0;
#X connect 12 0 10 1;
#X connect 13 0 0 0;
#X connect 14 0 24 0;
#X connect 15 0 22 0;
#X connect 16 0 17 0;
#X connect 18 0 24 1;
#X connect 19 0 3 0;
#X connect 20 0 16 0;
#X connect 21 0 18 0;
#X connect 22 0 2 0;
#X connect 23 0 14 0;
#X connect 24 0 4 0;
#X restore 16 133 pd fnoise;
#X obj 8 38 switch~;
#X obj 8 10 tgl 25 0 empty empty empty 20 8 0 8 -262144 -1 -1 0 1;
#X connect 4 0 3 0;
