#N canvas 280 169 450 300 10;
#X obj 154 179 niscope~;
#X obj 29 108 inlet~;
#X obj 175 56 subdial green --- 0 1 1 0.185001;
#X obj 175 77 pow 4;
#X obj 175 98 * 5;
#X obj 175 14 f2s;
#X msg 175 35 hl \$1;
#X msg 175 142 len \$1;
#X obj 253 115 subdial orange _auto -1 1 1 0.09;
#X msg 253 139 thres \$1;
#X obj 80 36 subbang;
#X msg 88 72 show;
#X obj 175 119 * 44100;
#X obj 250 178 inlet~;
#X connect 1 0 0 0;
#X connect 2 0 3 0;
#X connect 3 0 4 0;
#X connect 4 0 5 0;
#X connect 4 0 12 0;
#X connect 5 0 6 0;
#X connect 6 0 2 0;
#X connect 7 0 0 0;
#X connect 8 0 9 0;
#X connect 9 0 0 0;
#X connect 10 0 11 0;
#X connect 11 0 0 0;
#X connect 12 0 7 0;
#X connect 13 0 0 1;
