#N canvas 69 246 450 300 10;
#X obj 88 138 metro 200;
#X obj 88 201 i;
#X obj 114 201 + 1;
#X obj 185 2 subdial white Bpm _auto 0 500 1 95;
#X obj 185 120 /;
#X msg 184 98 60000 \$1;
#X obj 47 138 sel 1;
#X msg 48 157 0;
#X obj 384 169 inlet;
#X obj 141 201 mod \$1;
#X obj 88 227 outlet;
#X obj 258 109 *;
#X obj 292 61 i;
#X obj 321 61 f2s;
#X msg 320 85 ll \$1;
#X obj 264 86 t b f;
#X obj 183 244 outlet;
#X obj 181 222 sel 0;
#X obj 241 245 outlet;
#X obj 312 245 outlet;
#X obj 14 70 t f f;
#X obj 88 18 inlet;
#X obj 139 2 inlet;
#X obj 292 20 inlet;
#X obj 292 40 subdial white Mult --- 1 24 1 4.805;
#X obj 88 38 subtoggle 0 0;
#X connect 0 0 1 0;
#X connect 1 0 2 0;
#X connect 1 0 10 0;
#X connect 1 0 17 0;
#X connect 2 0 9 0;
#X connect 3 0 11 0;
#X connect 3 0 19 0;
#X connect 4 0 0 1;
#X connect 5 0 4 0;
#X connect 6 0 7 0;
#X connect 7 0 1 1;
#X connect 8 0 9 1;
#X connect 9 0 1 1;
#X connect 11 0 5 0;
#X connect 12 0 13 0;
#X connect 12 0 15 0;
#X connect 13 0 14 0;
#X connect 14 0 24 0;
#X connect 15 0 11 0;
#X connect 15 1 11 1;
#X connect 17 0 16 0;
#X connect 20 0 0 0;
#X connect 20 1 6 0;
#X connect 21 0 25 0;
#X connect 22 0 3 0;
#X connect 23 0 24 0;
#X connect 24 0 12 0;
#X connect 25 0 18 0;
#X connect 25 0 20 0;
