#N canvas 112 198 450 349 10;
#X obj 256 137 subdial red 0 1 1 0.7;
#X obj 126 125 line~;
#X obj 126 56 mtof;
#X obj 81 174 osc~;
#X obj 133 310 outlet~;
#X obj 254 202 line~;
#X obj 256 159 pow 4;
#X obj 133 287 *~;
#X obj 186 220 *~;
#X obj 257 116 inlet;
#X obj 199 14 inlet;
#X obj 200 310 outlet~;
#X obj 81 153 *~;
#X obj 126 80 - 2.043;
#X obj 126 35 subdial blue -24 128 1 58.0223;
#X obj 54 105 dinlet~ 1;
#X obj 186 149 dinlet~ 1;
#X obj 220 67 inlet;
#X obj 220 88 subdial gray -1 1 1 0.3;
#X obj 123 219 >~ 0;
#X obj 200 286 *~;
#X obj 81 219 sgn~;
#X obj 220 110 sig~;
#X msg 255 181 \$1 20;
#X msg 126 102 \$1 2;
#X connect 0 0 6 0;
#X connect 1 0 12 1;
#X connect 2 0 13 0;
#X connect 3 0 21 0;
#X connect 3 0 19 0;
#X connect 5 0 8 1;
#X connect 6 0 23 0;
#X connect 7 0 4 0;
#X connect 8 0 7 1;
#X connect 8 0 20 1;
#X connect 9 0 0 0;
#X connect 10 0 14 0;
#X connect 12 0 3 0;
#X connect 13 0 24 0;
#X connect 14 0 2 0;
#X connect 15 0 12 0;
#X connect 16 0 8 0;
#X connect 17 0 18 0;
#X connect 18 0 22 0;
#X connect 19 0 20 0;
#X connect 20 0 11 0;
#X connect 21 0 7 0;
#X connect 22 0 21 0;
#X connect 22 0 19 0;
#X connect 23 0 5 0;
#X connect 24 0 1 0;
