#N canvas 122 183 450 445 10;
#X obj 270 68 subdial red 0 1 1 1;
#X obj 134 109 line~;
#X obj 134 40 mtof;
#X msg 134 86 \$1 50;
#X obj 145 349 outlet~;
#X obj 268 133 line~;
#X msg 269 112 \$1 50;
#X obj 270 90 pow 4;
#X obj 176 302 *~;
#X obj 250 183 *~;
#X obj 271 47 inlet;
#X obj 244 -3 inlet;
#X obj 204 349 outlet~;
#X obj 118 132 *~;
#X obj 134 64 - 2.043;
#X obj 134 19 subdial blue -24 128 1 -20.808;
#X obj 63 108 dinlet~ 1;
#X obj 236 156 dinlet~ 1;
#X obj 204 325 /~ 2;
#X obj 118 244 sig~ 1;
#X obj 118 266 -~;
#X obj 118 156 phasor~;
#X obj 118 179 *~ 4;
#X obj 134 202 max~ 2;
#X obj 118 224 min~ 2;
#X connect 0 0 7 0;
#X connect 1 0 13 1;
#X connect 2 0 14 0;
#X connect 3 0 1 0;
#X connect 5 0 9 1;
#X connect 6 0 5 0;
#X connect 7 0 6 0;
#X connect 8 0 4 0;
#X connect 8 0 18 0;
#X connect 9 0 8 1;
#X connect 9 0 18 0;
#X connect 10 0 0 0;
#X connect 11 0 15 0;
#X connect 13 0 21 0;
#X connect 14 0 3 0;
#X connect 15 0 2 0;
#X connect 16 0 13 0;
#X connect 17 0 9 0;
#X connect 18 0 12 0;
#X connect 19 0 20 0;
#X connect 20 0 8 0;
#X connect 21 0 22 0;
#X connect 22 0 23 0;
#X connect 22 0 24 0;
#X connect 23 0 20 1;
#X connect 24 0 20 0;
