#N canvas 169 46 450 300 10;
#X obj 56 75 inlet~;
#X obj 99 247 outlet~;
#X obj 132 82 mtof;
#X obj 132 27 f2s;
#X msg 133 46 ll \$1;
#X obj 185 113 pow 4;
#X obj 185 135 * 100;
#X obj 142 110 inlet;
#X obj 123 139 m 1;
#X obj 123 179 clip 5 15000;
#N canvas 505 62 276 233 config 0;
#X obj 17 77 r \$0-preset_dosave;
#X obj 17 139 s \$0-preset_donesave;
#X obj 17 118 savfloat \$0 freq \$0-freq;
#X obj 17 98 savfloat \$0 reso \$0-reso;
#X connect 0 0 3 0;
#X connect 2 0 1 0;
#X connect 3 0 2 0;
#X restore 238 254 pd config;
#X msg 239 188 save;
#X msg 243 208 load;
#X obj 239 229 saveload \$0 \$1 \$2;
#SUB settings /home/antoine/Datas/PdPatchs/preset/test/tlfo/2 /home/antoine/Datas/PdPatchs/preset/test/tlfo/2
;
#X obj 255 110 sndrcv \$0-reso;
#X obj 182 45 sndrcv \$0-freq;
#X obj 133 62 subdial blue Freq --- 0 130 1 130;
#X obj 99 212 lp2~ 200 1 20;
#X obj 185 90 subdial red Reso 0 1 1 0.03;
#X connect 0 0 17 0;
#X connect 2 0 3 0;
#X connect 2 0 8 0;
#X connect 3 0 4 0;
#X connect 4 0 16 0;
#X connect 5 0 6 0;
#X connect 6 0 17 2;
#X connect 7 0 8 1;
#X connect 8 0 9 0;
#X connect 9 0 17 1;
#X connect 11 0 13 0;
#X connect 12 0 13 0;
#X connect 14 0 18 0;
#X connect 15 0 16 0;
#X connect 16 0 2 0;
#X connect 16 0 15 0;
#X connect 17 0 1 0;
#X connect 18 0 5 0;
#X connect 18 0 14 0;
