#N canvas 0 0 450 300 10;
#N canvas 275 242 600 400 analys 0;
#X obj 265 254 *~;
#X obj 249 284 *~;
#X obj 214 284 *~;
#X obj 114 120 *~;
#X obj 80 114 *~;
#X obj 80 137 +~;
#X obj 213 68 *~;
#X obj 245 68 inlet~;
#X obj 213 91 rfft~;
#X obj 59 304 *~;
#X floatatom 462 156 0 0 0;
#X obj 317 133 *~;
#X obj 80 68 *~;
#X obj 113 68 inlet~;
#X obj 80 91 rfft~;
#X obj 214 307 rifft~;
#X obj 59 327 outlet~;
#X obj 284 133 *~;
#X obj 284 156 +~;
#X obj 293 254 sig~ 0.001;
#X text 129 165 modulus;
#X obj 80 160 sqrt~;
#X obj 265 231 *~;
#X obj 313 346 block~ 1024 4;
#X obj 284 182 rsqrt~;
#X obj 324 157 sig~ 1e-20;
#X obj 284 208 clip~;
#X obj 462 177 moses;
#X msg 457 221 0;
#X obj 460 80 t f f;
#X obj 460 108 *;
#X obj 462 134 * 0.01;
#X obj 61 34 tabreceive~ \$0-hanning;
#X obj 460 59 inlet;
#X connect 0 0 1 1;
#X connect 0 0 2 1;
#X connect 1 0 15 1;
#X connect 2 0 15 0;
#X connect 3 0 5 1;
#X connect 4 0 5 0;
#X connect 5 0 21 0;
#X connect 6 0 8 0;
#X connect 7 0 6 1;
#X connect 8 0 17 0;
#X connect 8 0 17 1;
#X connect 8 0 2 0;
#X connect 8 1 11 0;
#X connect 8 1 11 1;
#X connect 8 1 1 0;
#X connect 9 0 16 0;
#X connect 10 0 27 0;
#X connect 11 0 18 1;
#X connect 12 0 14 0;
#X connect 13 0 12 1;
#X connect 14 0 4 0;
#X connect 14 0 4 1;
#X connect 14 1 3 0;
#X connect 14 1 3 1;
#X connect 15 0 9 1;
#X connect 17 0 18 0;
#X connect 18 0 24 0;
#X connect 19 0 0 1;
#X connect 21 0 22 0;
#X connect 22 0 0 0;
#X connect 24 0 26 0;
#X connect 25 0 24 0;
#X connect 26 0 22 1;
#X connect 27 0 28 0;
#X connect 27 1 26 2;
#X connect 28 0 26 2;
#X connect 29 0 30 0;
#X connect 29 1 30 1;
#X connect 30 0 31 0;
#X connect 31 0 10 0;
#X connect 32 0 12 0;
#X connect 32 0 6 0;
#X connect 32 0 9 0;
#X connect 33 0 29 0;
#X restore 29 70 pd analys;
#X obj 87 19 inlet~;
#X obj 29 21 inlet~;
#X obj 29 109 outlet~;
#N canvas 0 76 285 456 hanning 0;
#X obj 106 233 phasor~;
#X obj 111 261 cos~;
#X obj 51 281 -~;
#X obj 47 245 sig~ 1;
#X msg 56 202 0;
#X text 23 2 CALCULATE HANNING;
#X text 23 16 WINDOW TABLE;
#X obj 114 160 / 1024;
#X obj 110 193 sig~;
#X msg 44 173 bang;
#X obj 85 296 sig~ 0.5;
#X obj 68 327 *~;
#X obj 86 123 samplerate~;
#X obj 36 381 tabwrite~ \$0-hanning;
#X obj 43 39 loadbang;
#X obj 44 80 t b f b;
#X msg 44 59 1024;
#X obj 37 413 table \$0-hanning 1024;
#X connect 0 0 1 0;
#X connect 1 0 2 1;
#X connect 2 0 11 0;
#X connect 3 0 2 0;
#X connect 4 0 0 1;
#X connect 7 0 8 0;
#X connect 8 0 0 0;
#X connect 9 0 4 0;
#X connect 9 0 13 0;
#X connect 10 0 11 1;
#X connect 11 0 13 0;
#X connect 12 0 7 0;
#X connect 14 0 16 0;
#X connect 15 0 12 0;
#X connect 15 0 9 0;
#X connect 15 1 7 1;
#X connect 16 0 15 0;
#X restore 154 71 pd hanning;
#X obj 137 20 subdial 0 100 1 26.5;
#X connect 0 0 3 0;
#X connect 1 0 0 1;
#X connect 2 0 0 0;
#X connect 5 0 0 2;
