#N canvas 5 168 544 488 10;
#X obj 36 198 nifs /home/Sounds/drume/;
#X msg 107 234 open \$1;
#X msg 169 234 bang;
#X obj 112 329 *~;
#X floatatom 127 44 4 0 0;
#X obj 64 30 bng 15 250 50 0 empty empty empty 8 -8 0 10 -262144 -1
-1;
#X obj 98 118 tgl 30 1 empty empty Loop 8 -8 0 10 -262144 -1 -1 0 1
;
#X msg 44 234 loop \$1;
#X obj 215 16 osc~ 10;
#X obj 224 246 *~;
#X obj 192 283 +~;
#X obj 14 -24 bng 30 250 50 0 empty empty Load 8 -8 0 10 -260818 -1
-1;
#X msg 8 173 show;
#X obj 284 243 *~;
#X obj 258 270 +;
#X obj 332 297 snapshot~;
#X obj 332 251 loadbang;
#X msg 341 216 bang;
#X floatatom 358 343 4 0 0;
#X obj 104 359 outlet~;
#X text 309 52 pitchlfo;
#X text 294 1 amplfo;
#X obj 214 -8 mtof;
#X text 220 -52 lfospeed;
#X obj 362 115 subslider red 0 1 1 0.925;
#X obj 362 136 pow 4;
#X text 160 -92 pitch;
#X obj 14 -60 subbang blue;
#X obj 98 85 subtoggle orange 1 0;
#X obj 287 18 subslider gray 0 1 1 0;
#X obj 308 70 subslider LightGray 0 5 1 0;
#X obj 214 -31 subslider yellow -20 80 1 -14;
#X obj 333 274 metro 1;
#X obj 64 6 subbang LightGreen;
#X obj 158 -71 subdial green -8 8 1 1;
#X msg 98 -86 1;
#X floatatom 413 180 5 0 0;
#X obj 362 159 * 6;
#X obj 111 -37 inlet;
#X obj 355 -77 inlet;
#X obj 355 -53 t b s;
#X obj 245 371 outlet;
#X msg 245 344 set goto \$1;
#X obj 63 288 sfread~ 1 68;
#X obj 99 -108 sel 0 1;
#X floatatom 293 -105 5 0 0;
#X msg 127 -86 -1;
#X connect 0 1 2 0;
#X connect 0 1 1 0;
#X connect 0 1 42 0;
#X connect 1 0 43 0;
#X connect 2 0 43 0;
#X connect 3 0 19 0;
#X connect 5 0 43 0;
#X connect 6 0 7 0;
#X connect 7 0 43 0;
#X connect 8 0 9 0;
#X connect 8 0 13 0;
#X connect 9 0 10 0;
#X connect 10 0 3 1;
#X connect 11 0 12 0;
#X connect 12 0 0 0;
#X connect 13 0 15 0;
#X connect 14 0 43 2;
#X connect 15 0 14 0;
#X connect 16 0 32 0;
#X connect 17 0 32 0;
#X connect 22 0 8 0;
#X connect 24 0 25 0;
#X connect 25 0 37 0;
#X connect 27 0 11 0;
#X connect 28 0 6 0;
#X connect 29 0 9 1;
#X connect 30 0 13 1;
#X connect 31 0 22 0;
#X connect 32 0 15 0;
#X connect 33 0 5 0;
#X connect 34 0 14 1;
#X connect 34 1 44 0;
#X connect 34 1 45 0;
#X connect 35 0 34 0;
#X connect 37 0 10 1;
#X connect 37 0 36 0;
#X connect 38 0 4 0;
#X connect 38 0 0 0;
#X connect 39 0 40 0;
#X connect 40 0 2 0;
#X connect 40 1 1 0;
#X connect 42 0 41 0;
#X connect 43 0 3 0;
#X connect 44 0 35 0;
#X connect 44 1 46 0;
#X connect 46 0 34 0;
