#N canvas 60 92 732 598 10;
#X msg 337 397 loop \$1;
#X msg 28 187 show;
#X obj 108 590 outlet~;
#X obj 169 590 outlet~;
#X obj 42 44 bng 15 250 50 0 empty empty empty 20 8 0 8 -262144 -1
-1;
#X msg 42 132 goto \$1;
#X msg 65 362 open \$1;
#N canvas 191 143 600 419 test_file 0;
#X obj 133 131 wavinfo;
#X obj 114 58 inlet;
#X obj 91 344 symbol;
#X obj 91 368 outlet;
#X obj 152 337 outlet;
#X obj 220 337 outlet;
#X text 93 388 file;
#X text 152 356 rate;
#X text 116 40 file;
#X obj 232 102 inlet;
#X text 234 84 rate(1=normal);
#X text 218 355 file_ok;
#X msg 241 228 1;
#X msg 310 227 0;
#X obj 152 312 m 1;
#X obj 220 281 f;
#X obj 114 108 t b s s b;
#X obj 114 83 symbol;
#X obj 177 181 /;
#X obj 193 138 loadbang;
#X obj 193 158 samplerate~;
#X obj 193 121 bng 15 250 50 0 empty empty empty 20 8 0 8 -262144 -1
-1;
#X obj 91 318 sel 1;
#X obj 241 205 sel 16;
#X connect 0 2 23 0;
#X connect 0 3 18 0;
#X connect 1 0 17 0;
#X connect 2 0 3 0;
#X connect 9 0 14 1;
#X connect 12 0 15 1;
#X connect 13 0 15 1;
#X connect 14 0 4 0;
#X connect 15 0 5 0;
#X connect 15 0 22 0;
#X connect 16 0 15 0;
#X connect 16 1 0 0;
#X connect 16 2 2 1;
#X connect 16 3 13 0;
#X connect 17 0 16 0;
#X connect 18 0 14 0;
#X connect 19 0 20 0;
#X connect 20 0 18 1;
#X connect 21 0 20 0;
#X connect 22 0 2 0;
#X connect 23 0 12 0;
#X restore 104 314 pd test_file;
#X obj 146 254 t b s;
#X obj 161 135 bng 15 250 50 0 empty empty empty 20 8 0 8 -262144 -1
-1;
#X obj 28 166 subbang blue;
#N canvas 0 76 600 400 playcolor 0;
#X msg 134 154 color ForestGreen;
#X msg 274 157 color GreenYellow;
#X obj 248 88 inlet;
#X obj 248 113 sel 0 1;
#X obj 238 190 outlet;
#X connect 0 0 4 0;
#X connect 1 0 4 0;
#X connect 2 0 3 0;
#X connect 3 0 0 0;
#X connect 3 1 1 0;
#X restore 214 236 pd playcolor;
#X msg 20 269 symbol mm;
#X msg 225 208 0 \, 1;
#X obj 215 437 spigot;
#X msg 282 351 0;
#X obj 252 331 sel 1;
#X obj 337 376 subtoggle orange 1 0;
#X obj 608 252 subslider red 0 1 1 0.71;
#X obj 608 272 pow 4;
#X obj 608 295 * 6;
#X obj 608 365 line~;
#X obj 108 567 *~;
#X obj 169 568 *~;
#X text 401 119 pitch;
#X msg 528 113 -1;
#X msg 557 114 1;
#X obj 529 93 sel 1;
#X obj 402 136 subslider green -8 8 1 1;
#X obj 403 218 line;
#X obj 225 4 inlet;
#X obj 422 284 sel 0 1;
#X msg 311 351 1;
#X obj 252 302 change;
#N canvas 232 155 600 400 fade_in_out 0;
#X obj 195 110 inlet;
#X obj 195 137 segregate;
#X obj 237 167 sel 0 1;
#X obj 195 342 outlet;
#X obj 309 342 outlet;
#X msg 351 308 1;
#X msg 319 308 0;
#X msg 242 277 1;
#X msg 210 277 0;
#X msg 210 213 stop;
#X obj 210 241 delay 2;
#X connect 0 0 1 0;
#X connect 1 0 3 0;
#X connect 1 0 9 0;
#X connect 1 0 5 0;
#X connect 1 1 2 0;
#X connect 2 0 6 0;
#X connect 2 0 10 0;
#X connect 2 1 5 0;
#X connect 2 1 7 0;
#X connect 2 1 9 0;
#X connect 5 0 4 0;
#X connect 6 0 4 0;
#X connect 7 0 3 0;
#X connect 8 0 3 0;
#X connect 9 0 10 0;
#X connect 10 0 8 0;
#X restore 215 463 pd fade_in_out;
#X obj 608 317 m;
#X msg 608 345 \$1 2;
#X msg 269 46 0;
#X obj 402 158 ++;
#X msg 349 181 666;
#X floatatom 349 203 5 0 0;
#N canvas 102 0 600 400 init 0;
#X obj 162 152 once;
#X obj 162 203 sel 1;
#X obj 279 77 inlet;
#X obj 93 111 f;
#X obj 94 59 loadbang;
#X obj 94 81 delay 10;
#X obj 272 207 outlet;
#X floatatom 76 170 5 0 0;
#X obj 272 161 sel 1;
#X obj 272 140 spigot;
#X obj 279 99 t f b;
#X obj 309 118 1;
#X msg 329 141 0;
#X obj 272 182 delay 5;
#X connect 2 0 10 0;
#X connect 3 0 0 0;
#X connect 3 0 7 0;
#X connect 4 0 5 0;
#X connect 5 0 3 0;
#X connect 8 0 13 0;
#X connect 9 0 12 0;
#X connect 9 0 8 0;
#X connect 10 0 9 0;
#X connect 10 1 11 0;
#X connect 11 0 9 1;
#X connect 12 0 11 0;
#X connect 13 0 6 0;
#X restore 347 159 pd init;
#X msg 402 198 \$1 1;
#X obj 402 178 m 1;
#X obj 122 362 sel 0;
#X msg 123 381 0;
#X obj 108 498 sfread2~ 2 1;
#X obj 8 231 nifs /home/Sounds/drume/ wav;
#X obj 225 25 route bang stop cont pitch pitchadd pitchmul loop vol
nb;
#X obj 252 265 subtoggle GreenYellow 1 0;
#X obj 458 245 bng 15 250 50 0 empty empty empty 0 -6 0 8 -262144 -1
-1;
#X msg 341 322 set 1;
#X obj 311 302 t b b;
#X obj 42 72 subsymbol /home/antoine/Datas/Sounds/Recordings/flutios.wav
1;
#X connect 0 0 46 0;
#X connect 1 0 47 0;
#X connect 4 0 53 0;
#X connect 5 0 47 0;
#X connect 6 0 46 0;
#X connect 7 0 6 0;
#X connect 7 1 46 1;
#X connect 7 2 11 0;
#X connect 7 2 14 1;
#X connect 7 2 44 0;
#X connect 8 0 13 0;
#X connect 8 1 7 0;
#X connect 9 0 13 0;
#X connect 10 0 1 0;
#X connect 11 0 49 0;
#X connect 12 0 7 0;
#X connect 13 0 49 0;
#X connect 14 0 34 0;
#X connect 15 0 14 0;
#X connect 16 0 14 0;
#X connect 16 1 15 0;
#X connect 17 0 0 0;
#X connect 18 0 19 0;
#X connect 19 0 20 0;
#X connect 20 0 35 0;
#X connect 21 0 22 1;
#X connect 21 0 23 1;
#X connect 22 0 2 0;
#X connect 23 0 3 0;
#X connect 25 0 28 0;
#X connect 26 0 28 0;
#X connect 27 0 25 0;
#X connect 27 1 26 0;
#X connect 28 0 38 0;
#X connect 28 1 27 0;
#X connect 29 0 7 1;
#X connect 30 0 48 0;
#X connect 31 0 13 0;
#X connect 31 1 52 0;
#X connect 32 0 14 0;
#X connect 33 0 16 0;
#X connect 34 0 46 0;
#X connect 34 1 35 1;
#X connect 35 0 36 0;
#X connect 36 0 21 0;
#X connect 37 0 49 0;
#X connect 38 0 43 0;
#X connect 39 0 40 0;
#X connect 41 0 39 0;
#X connect 41 0 52 0;
#X connect 42 0 29 0;
#X connect 43 0 42 0;
#X connect 44 0 45 0;
#X connect 45 0 46 0;
#X connect 46 0 22 0;
#X connect 46 1 23 0;
#X connect 46 2 49 0;
#X connect 47 1 8 0;
#X connect 47 1 53 0;
#X connect 48 0 13 0;
#X connect 48 1 37 0;
#X connect 48 2 52 0;
#X connect 48 3 28 0;
#X connect 48 4 38 1;
#X connect 48 5 43 1;
#X connect 48 6 17 0;
#X connect 48 7 18 0;
#X connect 48 8 47 0;
#X connect 49 0 33 0;
#X connect 49 0 41 0;
#X connect 49 1 31 0;
#X connect 51 0 33 0;
#X connect 52 0 32 0;
#X connect 52 1 51 0;
#X connect 53 0 5 0;
#X connect 53 0 7 0;
