#N canvas 218 -49 732 654 10;
#X msg 321 401 loop \$1;
#X msg 27 207 show;
#X obj 100 569 outlet~;
#X obj 161 569 outlet~;
#X obj 42 71 subsymbol /home/antoine/Datas/Sounds/linux16.wav 1;
;
#X obj 41 53 bng 15 250 50 0 empty empty empty 20 8 0 8 -262144 -1
-1;
#X msg 42 132 goto \$1;
#X msg 65 362 open \$1;
#N canvas 191 143 600 419 test_file 0;
#X obj 84 151 wavinfo;
#X obj 114 58 inlet;
#X obj 91 344 symbol;
#X obj 91 368 outlet;
#X obj 152 337 outlet;
#X obj 220 337 outlet;
#X text 93 388 file;
#X text 152 356 rate;
#X text 116 40 file;
#X obj 232 102 inlet;
#X text 234 84 rate(1=normal);
#X text 218 355 file_ok;
#X msg 241 228 1;
#X msg 211 228 0;
#X obj 152 278 / 2;
#X obj 152 312 m 1;
#X obj 220 281 f;
#X obj 114 108 t b s s b;
#X obj 114 83 symbol;
#X obj 307 205 /;
#X obj 323 162 loadbang;
#X obj 323 182 samplerate~;
#X obj 152 255 *;
#X obj 323 145 bng 15 250 50 0 empty empty empty 20 8 0 8 -262144 -1
-1;
#X obj 91 318 sel 1;
#X obj 241 205 sel 16;
#X floatatom 294 300 5 0 0;
#X connect 0 1 22 0;
#X connect 0 2 25 0;
#X connect 0 3 19 0;
#X connect 1 0 18 0;
#X connect 2 0 3 0;
#X connect 9 0 15 1;
#X connect 12 0 16 1;
#X connect 13 0 16 1;
#X connect 14 0 15 0;
#X connect 15 0 4 0;
#X connect 15 0 26 0;
#X connect 16 0 5 0;
#X connect 16 0 24 0;
#X connect 17 0 16 0;
#X connect 17 1 0 0;
#X connect 17 2 2 1;
#X connect 17 3 13 0;
#X connect 18 0 17 0;
#X connect 19 0 22 1;
#X connect 20 0 21 0;
#X connect 21 0 19 1;
#X connect 22 0 14 0;
#X connect 23 0 21 0;
#X connect 24 0 2 0;
#X connect 25 0 12 0;
#X restore 104 314 pd test_file;
#X obj 105 270 t b s;
#X obj 161 135 bng 15 250 50 0 empty empty empty 20 8 0 8 -262144 -1
-1;
#X obj 27 181 subbang blue;
#X obj 252 263 subtoggle GreenYellow 1 1;
#N canvas 0 76 600 400 playcolor 0;
#X msg 134 154 color ForestGreen;
#X msg 274 157 color GreenYellow;
#X obj 248 88 inlet;
#X obj 248 113 sel 0 1;
#X obj 238 190 outlet;
#X connect 0 0 4 0;
#X connect 1 0 4 0;
#X connect 2 0 3 0;
#X connect 3 0 0 0;
#X connect 3 1 1 0;
#X restore 214 236 pd playcolor;
#X msg 20 269 symbol mm;
#X obj 27 234 nifs /home/Sounds/drume/;
#X msg 225 208 0 \, 1;
#X obj 112 414 spigot;
#X msg 282 351 0;
#X obj 252 331 sel 1;
#X obj 321 380 subtoggle orange 1 1;
#N canvas 0 0 600 400 getstate 0;
#X msg 58 134 state;
#X obj 58 70 loadbang;
#X obj 37 70 bng 15 250 50 0 empty empty empty 20 8 0 8 -262144 -1
-1;
#X obj 58 112 metro 200;
#X obj 58 155 outlet;
#X obj 58 91 delay 100;
#X connect 0 0 4 0;
#X connect 1 0 5 0;
#X connect 2 0 3 0;
#X connect 3 0 0 0;
#X connect 5 0 3 0;
#X restore -4 329 pd getstate;
#X obj 484 307 subslider red 0 1 1 0.77;
#X obj 484 328 pow 4;
#X obj 484 351 * 6;
#X obj 484 419 line~;
#X obj 100 546 *~;
#X obj 161 547 *~;
#X text 401 119 pitch;
#X msg 528 113 -1;
#X msg 557 114 1;
#X obj 529 93 sel 1;
#X obj 402 136 subslider green -8 8 1 0.663998;
#X obj 403 218 line;
#X obj 225 4 inlet;
#X obj 422 296 sel 0 1;
#X msg 344 343 1;
#X obj 324 323 t b b b;
#X msg 372 343 0;
#X msg 316 344 1;
#X obj 252 383 spigot;
#X obj 316 282 loadbang;
#X obj 252 308 change;
#N canvas 232 155 600 400 fade_in_out 0;
#X obj 195 110 inlet;
#X obj 195 137 segregate;
#X obj 237 167 sel 0 1;
#X obj 195 342 outlet;
#X obj 309 342 outlet;
#X msg 351 308 1;
#X msg 319 308 0;
#X msg 242 277 1;
#X msg 210 277 0;
#X msg 210 213 stop;
#X obj 210 241 delay 2;
#X connect 0 0 1 0;
#X connect 1 0 3 0;
#X connect 1 0 9 0;
#X connect 1 0 5 0;
#X connect 1 1 2 0;
#X connect 2 0 6 0;
#X connect 2 0 10 0;
#X connect 2 1 5 0;
#X connect 2 1 7 0;
#X connect 2 1 9 0;
#X connect 5 0 4 0;
#X connect 6 0 4 0;
#X connect 7 0 3 0;
#X connect 8 0 3 0;
#X connect 9 0 10 0;
#X connect 10 0 8 0;
#X restore 112 436 pd fade_in_out;
#X obj 484 373 m;
#X msg 484 399 \$1 2;
#X msg 269 46 0;
#X obj 225 25 route bang stop cont pitch pitchadd pitchmul loop vol
;
#X obj 402 158 ++;
#X msg 349 181 666;
#X floatatom 349 203 5 0 0;
#N canvas 102 0 600 400 init 0;
#X obj 263 144 once;
#X obj 263 165 sel 1;
#X obj 263 187 delay 500;
#X obj 279 77 inlet;
#X obj 263 106 f;
#X obj 195 50 loadbang;
#X obj 195 73 delay 10;
#X obj 263 207 outlet;
#X floatatom 177 162 5 0 0;
#X connect 0 0 1 0;
#X connect 1 0 2 0;
#X connect 2 0 7 0;
#X connect 3 0 4 1;
#X connect 4 0 0 0;
#X connect 4 0 8 0;
#X connect 5 0 6 0;
#X connect 6 0 4 0;
#X restore 347 159 pd init;
#X msg 402 198 \$1 1;
#X obj 402 178 m 1;
#X obj 122 362 sel 0;
#X msg 123 381 0;
#X obj 100 472 sfread2~ 2 68;
#X obj 401 501 lp2~ 4000 0.707;
#X obj -16 413 samplerate~;
#X obj -16 396 bng 15 250 50 1 empty empty empty 20 8 0 8 -262144 -1
-1;
#X obj -4 462 *;
#X obj -4 353 abs;
#X obj -16 434 * 0.45;
#X obj -4 375 min 1;
#X obj -19 507 lp10_butt~ 3500 0.707 10;
#X obj 165 507 lp10_butt~ 3500 0.707 10;
#X connect 0 0 56 0;
#X connect 1 0 15 0;
#X connect 4 0 6 0;
#X connect 4 0 8 0;
#X connect 5 0 4 0;
#X connect 6 0 15 0;
#X connect 7 0 56 0;
#X connect 8 0 7 0;
#X connect 8 1 56 2;
#X connect 8 1 61 0;
#X connect 8 2 13 0;
#X connect 8 2 17 1;
#X connect 8 2 54 0;
#X connect 9 0 16 0;
#X connect 9 1 8 0;
#X connect 10 0 16 0;
#X connect 11 0 1 0;
#X connect 12 0 42 0;
#X connect 12 0 51 0;
#X connect 12 1 35 0;
#X connect 13 0 12 0;
#X connect 14 0 8 0;
#X connect 15 1 4 0;
#X connect 15 1 9 0;
#X connect 16 0 12 0;
#X connect 17 0 43 0;
#X connect 18 0 17 0;
#X connect 19 0 40 0;
#X connect 19 1 18 0;
#X connect 20 0 0 0;
#X connect 21 0 56 0;
#X connect 22 0 23 0;
#X connect 23 0 24 0;
#X connect 24 0 44 0;
#X connect 25 0 26 1;
#X connect 25 0 27 1;
#X connect 26 0 2 0;
#X connect 27 0 3 0;
#X connect 29 0 32 0;
#X connect 30 0 32 0;
#X connect 31 0 29 0;
#X connect 31 1 30 0;
#X connect 32 0 48 0;
#X connect 32 1 31 0;
#X connect 33 0 8 1;
#X connect 34 0 47 0;
#X connect 35 0 16 0;
#X connect 35 1 37 0;
#X connect 36 0 17 0;
#X connect 36 0 42 0;
#X connect 37 0 39 0;
#X connect 37 1 36 0;
#X connect 37 2 38 0;
#X connect 38 0 40 1;
#X connect 39 0 40 1;
#X connect 40 0 17 0;
#X connect 41 0 39 0;
#X connect 42 0 19 0;
#X connect 43 0 56 0;
#X connect 43 1 44 1;
#X connect 44 0 45 0;
#X connect 45 0 25 0;
#X connect 46 0 12 0;
#X connect 47 0 16 0;
#X connect 47 1 46 0;
#X connect 47 2 37 0;
#X connect 47 3 32 0;
#X connect 47 4 48 1;
#X connect 47 5 53 1;
#X connect 47 6 20 0;
#X connect 47 7 22 0;
#X connect 48 0 53 0;
#X connect 49 0 50 0;
#X connect 51 0 49 0;
#X connect 51 0 12 0;
#X connect 52 0 33 0;
#X connect 53 0 52 0;
#X connect 54 0 55 0;
#X connect 55 0 56 0;
#X connect 56 0 64 0;
#X connect 56 1 65 0;
#X connect 56 2 12 0;
#X connect 58 0 62 0;
#X connect 59 0 58 0;
#X connect 60 0 64 1;
#X connect 60 0 65 1;
#X connect 61 0 63 0;
#X connect 62 0 60 1;
#X connect 63 0 60 0;
#X connect 64 0 26 0;
#X connect 65 0 27 0;
