#N canvas 339 -105 599 501 10;
#X obj 54 410 -~;
#X obj 229 262 /~;
#X obj 308 206 clip~ 1 999999;
#X obj 91 279 *~;
#X obj 91 303 clip~ -0.5 0.5;
#X obj 228 185 * 0.33333;
#X obj 228 138 mtof;
#X text 263 139 band limit (MIDI units);
#X text 55 84 frequency;
#X obj 91 327 *~ 1000;
#X obj 71 221 -~ 0.5;
#X text 27 503 Patch to make an approximately band-limited sawtooth.
This is useful if you intend to use sawtooth generators above about
200 Hz. \, perhaps to use any of the techniques shown in the previous
four patches.;
#X text 28 562 We generate a perfect square wave at Nyquist/6 \; this
will have partials 1 \, 3 \, and 5 \, but the Nyquist frequency at
partial 6 will cut off the rest of the partials. This is stored in
array1 using the "make-table" subpatch.;
#X text 64 34 BAND-LIMITED SAWTOOTH GENERATOR;
#X text 28 632 Now any time we wish to make a discontinuity in the
output signal \, we make it look exactly like the bandlimited square
wave looks. We do this by reading through the table we recorded \,
carefully adding a "digital" \, non-band-limited \, sawtooth to "array1"
so that the discontinuities in the two cancel out and what you have
left is the transition in the table.;
#X text 257 735 updated for Pd version 0.26;
#X obj 91 351 +~ 501;
#X obj 307 186 abs~;
#X obj 228 66 inlet;
#X obj 148 108 inlet;
#X obj 54 448 outlet~;
#X obj 71 109 dinlet~ \$1;
#X obj 71 197 phasor~;
#X obj 91 375 tabread~ saw_array;
#X floatatom 293 351 0 0 0 0 - - -;
#X obj 228 209 sig~ 8000;
#X obj 228 111 * 140;
#X obj 228 90 clip 0 1;
#X text 270 67 band limit (0 -> 1);
#X obj 341 251 tabread~;
#X connect 0 0 20 0;
#X connect 1 0 3 1;
#X connect 2 0 1 1;
#X connect 3 0 4 0;
#X connect 4 0 9 0;
#X connect 5 0 24 0;
#X connect 5 0 25 0;
#X connect 6 0 5 0;
#X connect 9 0 16 0;
#X connect 10 0 3 0;
#X connect 10 0 0 0;
#X connect 16 0 23 0;
#X connect 17 0 2 0;
#X connect 18 0 27 0;
#X connect 19 0 22 1;
#X connect 21 0 17 0;
#X connect 21 0 22 0;
#X connect 22 0 10 0;
#X connect 23 0 0 1;
#X connect 25 0 1 0;
#X connect 26 0 6 0;
#X connect 27 0 26 0;
