#N canvas 83 277 700 653 10;
#X obj 51 612 outlet~;
#X obj 50 587 -~;
#X obj 67 447 *~;
#X obj 238 143 * 0.33333;
#X obj 238 119 mtof;
#X text 273 120 band limit (MIDI units);
#X text 51 86 frequency;
#X obj 50 220 -~ 0.5;
#X obj 66 469 +~ 501;
#X obj 255 207 abs~;
#X obj 238 47 inlet;
#X obj 127 107 inlet;
#X obj 50 108 dinlet~ \$1;
#X obj 50 196 phasor~;
#X obj 238 92 * 140;
#X obj 238 71 clip 0 1;
#X text 280 48 band limit (0 -> 1);
#X obj 237 250 /~;
#X obj 205 374 wrap~;
#X obj 205 397 -~ 0.5;
#X obj 204 493 -~;
#X obj 247 430 *~;
#X obj 246 451 +~ 501;
#X obj 494 65 inlet;
#X obj 66 490 tabread~ saw_array;
#X obj 246 475 tabread~ saw_array;
#X obj 255 227 +~ 1;
#X obj 203 522 *~ 1;
#X obj 238 162 * 1000;
#X obj 238 182 sig~ 8e+06;
#X obj 236 272 max~ 1000;
#X text 128 86 phase;
#X text 476 50 pulse width;
#X obj 589 64 inlet;
#X text 571 49 saw/square;
#X text 22 12 BAND-LIMITED SAWTOOTH/PWM_SQUARE GENERATOR (Buchla's
method);
#X obj 204 352 +~ 0;
#X connect 1 0 0 0;
#X connect 2 0 8 0;
#X connect 3 0 28 0;
#X connect 4 0 3 0;
#X connect 7 0 2 0;
#X connect 7 0 1 0;
#X connect 7 0 36 0;
#X connect 8 0 24 0;
#X connect 9 0 26 0;
#X connect 10 0 15 0;
#X connect 11 0 13 1;
#X connect 12 0 9 0;
#X connect 12 0 13 0;
#X connect 13 0 7 0;
#X connect 14 0 4 0;
#X connect 15 0 14 0;
#X connect 17 0 30 0;
#X connect 18 0 19 0;
#X connect 19 0 21 0;
#X connect 19 0 20 0;
#X connect 20 0 27 0;
#X connect 21 0 22 0;
#X connect 22 0 25 0;
#X connect 23 0 36 1;
#X connect 24 0 1 1;
#X connect 25 0 20 1;
#X connect 26 0 17 1;
#X connect 27 0 1 1;
#X connect 28 0 29 0;
#X connect 29 0 17 0;
#X connect 30 0 2 1;
#X connect 30 0 21 1;
#X connect 33 0 27 1;
#X connect 36 0 18 0;
