#N canvas 1081 95 529 466 10;
#X declare -lib zexy;
#X declare -path iemlib -lib iemlib -lib iemlib1;
#X declare -path abs;
#X declare -path moonlib -path ggee -path motex -path hcs;
#X declare -path domoTools;
#X obj 8 29 vu 10 80 empty empty -1 -8 0 8 #404040 #000000 0 0;
#X obj 23 29 vu 10 80 empty empty -1 -8 0 8 #404040 #000000 0 0;
#X obj 38 29 vu 10 80 empty empty -1 -8 0 8 #404040 #000000 0 0;
#X obj 54 29 vu 10 80 empty empty -1 -8 0 8 #404040 #000000 0 0;
#X msg 270 90 \; pd dsp \$1;
#X obj 238 91 tgl 30 0 empty empty empty 0 -6 0 8 #14e814 #fc2828 #000000 0 1;
#X obj 238 33 loadbang;
#X obj 238 52 del 2000;
#X msg 238 72 1;
#N canvas 766 112 398 380 in 0;
#X obj 51 235 unpack 0 0 0;
#X obj 90 256 + 11;
#X obj 90 276 change;
#X obj 90 296 outlet;
#X obj 51 215 prvu~;
#X obj 37 256 s~ inl;
#X obj 31 78 mull~ 1 10;
#N canvas 242 124 192 215 clean_limit 0;
#X obj 39 44 inlet~;
#X obj 39 156 outlet~;
#X obj 39 134 *~;
#X obj 74 102 limiter~;
#X obj 39 102 z~ 64;
#X connect 0 0 3 0;
#X connect 0 0 4 0;
#X connect 2 0 1 0;
#X connect 3 0 2 1;
#X connect 4 0 2 0;
#X restore 31 125 pd clean_limit;
#X obj 79 55 inlet;
#X msg 163 86 t_metro 50 \, t_hold 50 \, t_release 50;
#X obj 162 64 loadbang;
#X obj 38 183 +~;
#X msg 280 142 1;
#X obj 184 145 l compressor~ 2;
#X obj 30 101 hip~ 150;
#X obj 32 53 adc~ 1;
#X obj 88 100 hip~ 5000;
#X obj 32 5 r INPUT_SET_CHAN;
#X floatatom 145 288 5 0 0 0 - - - 0;
#X obj 190 353 s INPUT_VU;
#X msg 32 28 set \$1;
#X floatatom 145 318 5 0 0 0 - - - 0;
#X obj 190 239 change;
#X obj 190 211 max 0;
#X obj 190 187 + 60;
#X obj 190 268 / 60;
#X obj 190 295 clip 0 1;
#X obj 190 324 pow 3;
#X connect 0 1 1 0;
#X connect 0 1 24 0;
#X connect 1 0 2 0;
#X connect 2 0 3 0;
#X connect 4 0 0 0;
#X connect 6 0 14 0;
#X connect 6 0 16 0;
#X connect 7 0 11 0;
#X connect 8 0 6 1;
#X connect 9 0 4 0;
#X connect 10 0 9 0;
#X connect 11 0 4 0;
#X connect 11 0 5 0;
#X connect 12 0 13 1;
#X connect 14 0 7 0;
#X connect 15 0 6 0;
#X connect 16 0 7 0;
#X connect 17 0 20 0;
#X connect 20 0 15 0;
#X connect 22 0 25 0;
#X connect 23 0 22 0;
#X connect 24 0 23 0;
#X connect 25 0 26 0;
#X connect 26 0 27 0;
#X connect 27 0 19 0;
#X restore 187 9 pd in;
#X obj 188 33 vu 15 80 empty empty -1 -8 0 8 #404040 #000000 0 0;
#X obj 8 252 s \$0-clock;
#X obj 20 206 r \$0-pdnet-fromserver;
#X obj 83 253 s Gammes;
#X obj 85 272 s Gammestab;
#X obj 83 293 table Gammestab;
#X obj 59 277 bng 15 250 50 0 empty empty empty 17 7 0 10 #fcfcfc #000000 #000000;
#X obj 8 186 r \$0-fromserver;
#N canvas 340 139 813 383 master 0;
#X obj 23 218 prvu~;
#X obj 23 238 unpack 0 0 0;
#X obj 62 259 + 11;
#X obj 62 279 change;
#X obj 62 299 outlet;
#X obj 20 13 catch~ outl;
#X obj 102 14 catch~ outr;
#X obj 187 14 catch~ outl2;
#X obj 107 172 dac~ 1 2 3 4;
#X obj 276 13 catch~ outr2;
#X obj 113 218 prvu~;
#X obj 113 238 unpack 0 0 0;
#X obj 152 259 + 11;
#X obj 152 279 change;
#X obj 152 299 outlet;
#X obj 208 218 prvu~;
#X obj 208 238 unpack 0 0 0;
#X obj 247 259 + 11;
#X obj 247 279 change;
#X obj 247 299 outlet;
#X obj 298 218 prvu~;
#X obj 298 238 unpack 0 0 0;
#X obj 337 259 + 11;
#X obj 337 279 change;
#X obj 337 299 outlet;
#X msg 154 343 t_metro 50 \, t_hold 50 \, t_release 50;
#X obj 48 197 s~ \$0-outmixlr;
#N canvas 242 97 450 300 clean_limit 0;
#X obj 39 44 inlet~;
#X obj 39 156 outlet~;
#X obj 338 69 switch~;
#X obj 338 42 inlet;
#X obj 39 134 *~;
#X obj 172 44 inlet~;
#X obj 172 156 outlet~;
#X obj 172 134 *~;
#X obj 74 102 limiter~;
#X obj 207 102 limiter~;
#X obj 39 102 z~ 64;
#X obj 172 102 z~ 64;
#X connect 0 0 8 0;
#X connect 0 0 10 0;
#X connect 3 0 2 0;
#X connect 4 0 1 0;
#X connect 5 0 9 0;
#X connect 5 0 11 0;
#X connect 7 0 6 0;
#X connect 8 0 4 1;
#X connect 9 0 7 1;
#X connect 10 0 4 0;
#X connect 11 0 7 0;
#X restore 41 88 pd clean_limit;
#X obj 134 65 tgl 15 1 empty empty empty 0 -6 0 8 #fcfcfc #000000 #000000 1 1;
#N canvas 242 97 450 300 clean_limit 0;
#X obj 39 44 inlet~;
#X obj 39 156 outlet~;
#X obj 338 69 switch~;
#X obj 338 42 inlet;
#X obj 39 134 *~;
#X obj 172 44 inlet~;
#X obj 172 156 outlet~;
#X obj 172 134 *~;
#X obj 74 102 limiter~;
#X obj 207 102 limiter~;
#X obj 39 102 z~ 64;
#X obj 172 102 z~ 64;
#X connect 0 0 8 0;
#X connect 0 0 10 0;
#X connect 3 0 2 0;
#X connect 4 0 1 0;
#X connect 5 0 9 0;
#X connect 5 0 11 0;
#X connect 7 0 6 0;
#X connect 8 0 4 1;
#X connect 9 0 7 1;
#X connect 10 0 4 0;
#X connect 11 0 7 0;
#X restore 186 89 pd clean_limit;
#X obj 279 66 tgl 15 1 empty empty empty 0 -6 0 8 #fcfcfc #000000 #000000 1 1;
#X obj 54 359 catch~ rev1;
#X obj 390 218 prvu~;
#X obj 390 238 unpack 0 0 0;
#X obj 429 259 + 11;
#X obj 429 279 change;
#X obj 429 299 outlet;
#X obj 480 218 prvu~;
#X obj 480 238 unpack 0 0 0;
#X obj 519 259 + 11;
#X obj 519 279 change;
#X obj 519 299 outlet;
#X obj 577 214 prvu~;
#X obj 575 238 unpack 0 0 0;
#X obj 614 259 + 11;
#X obj 614 279 change;
#X obj 614 299 outlet;
#X obj 665 218 prvu~;
#X obj 665 238 unpack 0 0 0;
#X obj 704 259 + 11;
#X obj 704 279 change;
#X obj 704 299 outlet;
#X msg 521 343 t_metro 50 \, t_hold 50 \, t_release 50;
#X obj 415 197 s~ \$0-outmixlr;
#N canvas 242 97 450 300 clean_limit 0;
#X obj 39 44 inlet~;
#X obj 39 156 outlet~;
#X obj 338 69 switch~;
#X obj 338 42 inlet;
#X obj 39 134 *~;
#X obj 172 44 inlet~;
#X obj 172 156 outlet~;
#X obj 172 134 *~;
#X obj 74 102 limiter~;
#X obj 207 102 limiter~;
#X obj 39 102 z~ 64;
#X obj 172 102 z~ 64;
#X connect 0 0 8 0;
#X connect 0 0 10 0;
#X connect 3 0 2 0;
#X connect 4 0 1 0;
#X connect 5 0 9 0;
#X connect 5 0 11 0;
#X connect 7 0 6 0;
#X connect 8 0 4 1;
#X connect 9 0 7 1;
#X connect 10 0 4 0;
#X connect 11 0 7 0;
#X restore 408 88 pd clean_limit;
#X obj 501 65 tgl 15 1 empty empty empty 0 -6 0 8 #fcfcfc #000000 #000000 1 1;
#N canvas 242 97 450 300 clean_limit 0;
#X obj 39 44 inlet~;
#X obj 39 156 outlet~;
#X obj 338 69 switch~;
#X obj 338 42 inlet;
#X obj 39 134 *~;
#X obj 172 44 inlet~;
#X obj 172 156 outlet~;
#X obj 172 134 *~;
#X obj 74 102 limiter~;
#X obj 207 102 limiter~;
#X obj 39 102 z~ 64;
#X obj 172 102 z~ 64;
#X connect 0 0 8 0;
#X connect 0 0 10 0;
#X connect 3 0 2 0;
#X connect 4 0 1 0;
#X connect 5 0 9 0;
#X connect 5 0 11 0;
#X connect 7 0 6 0;
#X connect 8 0 4 1;
#X connect 9 0 7 1;
#X connect 10 0 4 0;
#X connect 11 0 7 0;
#X restore 553 89 pd clean_limit;
#X obj 646 66 tgl 15 1 empty empty empty 0 -6 0 8 #fcfcfc #000000 #000000 1 1;
#X obj 387 13 catch~ outl3;
#X obj 470 14 catch~ outr3;
#X obj 554 14 catch~ outl4;
#X obj 643 14 catch~ outr4;
#X obj 474 172 dac~ 5 6 7 8;
#N canvas 167 299 450 300 mastervol 0;
#X obj 194 17 r \$0-mastervol-snd;
#X obj 63 22 inlet~;
#X obj 130 19 inlet~;
#X obj 162 92 line~;
#X obj 129 122 *~;
#X obj 194 39 pow 2;
#X msg 195 59 \$1 50;
#X obj 64 155 outlet~;
#X obj 129 156 outlet~;
#X obj 64 122 *~;
#X connect 0 0 5 0;
#X connect 1 0 9 0;
#X connect 2 0 4 0;
#X connect 3 0 4 1;
#X connect 3 0 9 1;
#X connect 4 0 8 0;
#X connect 5 0 6 0;
#X connect 6 0 3 0;
#X connect 9 0 7 0;
#X restore 20 50 pd mastervol;
#N canvas 167 299 450 300 mastervol 0;
#X obj 194 17 r \$0-mastervol-snd;
#X obj 63 22 inlet~;
#X obj 130 19 inlet~;
#X obj 162 92 line~;
#X obj 129 122 *~;
#X obj 194 39 pow 2;
#X msg 195 59 \$1 50;
#X obj 64 155 outlet~;
#X obj 129 156 outlet~;
#X obj 64 122 *~;
#X connect 0 0 5 0;
#X connect 1 0 9 0;
#X connect 2 0 4 0;
#X connect 3 0 4 1;
#X connect 3 0 9 1;
#X connect 4 0 8 0;
#X connect 5 0 6 0;
#X connect 6 0 3 0;
#X connect 9 0 7 0;
#X restore 186 50 pd mastervol;
#N canvas 167 299 450 300 mastervol 0;
#X obj 194 17 r \$0-mastervol-snd;
#X obj 63 22 inlet~;
#X obj 130 19 inlet~;
#X obj 162 92 line~;
#X obj 129 122 *~;
#X obj 194 39 pow 2;
#X msg 195 59 \$1 50;
#X obj 64 155 outlet~;
#X obj 129 156 outlet~;
#X obj 64 122 *~;
#X connect 0 0 5 0;
#X connect 1 0 9 0;
#X connect 2 0 4 0;
#X connect 3 0 4 1;
#X connect 3 0 9 1;
#X connect 4 0 8 0;
#X connect 5 0 6 0;
#X connect 6 0 3 0;
#X connect 9 0 7 0;
#X restore 382 51 pd mastervol;
#N canvas 167 299 450 300 mastervol 0;
#X obj 194 17 r \$0-mastervol-snd;
#X obj 63 22 inlet~;
#X obj 130 19 inlet~;
#X obj 162 92 line~;
#X obj 129 122 *~;
#X obj 194 39 pow 2;
#X msg 195 59 \$1 50;
#X obj 64 155 outlet~;
#X obj 129 156 outlet~;
#X obj 64 122 *~;
#X connect 0 0 5 0;
#X connect 1 0 9 0;
#X connect 2 0 4 0;
#X connect 3 0 4 1;
#X connect 3 0 9 1;
#X connect 4 0 8 0;
#X connect 5 0 6 0;
#X connect 6 0 3 0;
#X connect 9 0 7 0;
#X restore 557 48 pd mastervol;
#X connect 0 0 1 0;
#X connect 1 1 2 0;
#X connect 2 0 3 0;
#X connect 3 0 4 0;
#X connect 5 0 63 0;
#X connect 6 0 63 1;
#X connect 7 0 64 0;
#X connect 9 0 64 1;
#X connect 10 0 11 0;
#X connect 11 1 12 0;
#X connect 12 0 13 0;
#X connect 13 0 14 0;
#X connect 15 0 16 0;
#X connect 16 1 17 0;
#X connect 17 0 18 0;
#X connect 18 0 19 0;
#X connect 20 0 21 0;
#X connect 21 1 22 0;
#X connect 22 0 23 0;
#X connect 23 0 24 0;
#X connect 25 0 0 0;
#X connect 25 0 10 0;
#X connect 25 0 15 0;
#X connect 25 0 20 0;
#X connect 27 0 8 0;
#X connect 27 0 0 0;
#X connect 27 1 8 1;
#X connect 27 1 10 0;
#X connect 28 0 27 2;
#X connect 29 0 8 2;
#X connect 29 0 15 0;
#X connect 29 1 8 3;
#X connect 29 1 20 0;
#X connect 30 0 29 2;
#X connect 32 0 33 0;
#X connect 33 1 34 0;
#X connect 34 0 35 0;
#X connect 35 0 36 0;
#X connect 37 0 38 0;
#X connect 38 1 39 0;
#X connect 39 0 40 0;
#X connect 40 0 41 0;
#X connect 42 0 43 0;
#X connect 43 1 44 0;
#X connect 44 0 45 0;
#X connect 45 0 46 0;
#X connect 47 0 48 0;
#X connect 48 1 49 0;
#X connect 49 0 50 0;
#X connect 50 0 51 0;
#X connect 52 0 32 0;
#X connect 52 0 37 0;
#X connect 52 0 42 0;
#X connect 52 0 47 0;
#X connect 54 0 32 0;
#X connect 54 0 62 0;
#X connect 54 1 37 0;
#X connect 54 1 62 1;
#X connect 55 0 54 2;
#X connect 56 0 42 0;
#X connect 56 0 62 2;
#X connect 56 1 47 0;
#X connect 56 1 62 3;
#X connect 57 0 56 2;
#X connect 58 0 65 0;
#X connect 59 0 65 1;
#X connect 60 0 66 0;
#X connect 61 0 66 1;
#X connect 63 0 27 0;
#X connect 63 1 27 1;
#X connect 64 0 29 0;
#X connect 64 1 29 1;
#X connect 65 0 54 0;
#X connect 65 1 54 1;
#X connect 66 0 56 0;
#X connect 66 1 56 1;
#X restore 7 7 pd master ---------;
#X obj 70 29 vu 10 80 empty empty -1 -8 0 8 #404040 #000000 0 0;
#X obj 85 29 vu 10 80 empty empty -1 -8 0 8 #404040 #000000 0 0;
#X obj 101 29 vu 10 80 empty empty -1 -8 0 8 #404040 #000000 0 0;
#X obj 117 29 vu 10 80 empty empty -1 -8 0 8 #404040 #000000 0 0;
#X obj 9 121 netreceive 8002 0 old;
#X obj 7 331 ClochesPieds \$0;
#X obj 207 33 vsl 15 80 0.1 50 1 1 empty empty empty 0 -9 0 10 #fcfcfc #000000 #000000 3808 1;
#X msg 224 8 1;
#X floatatom 192 118 5 0 0 0 - - - 0;
#X obj 132 28 vsl 15 80 0 1.2 0 1 \$0-mastervol-snd \$0-mastervol-rcv master 0 -9 0 10 #fc0400 #000000 #000000 6583 1;
#X floatatom 145 115 5 0 0 0 - - - 0;
#X msg 152 32 1;
#X obj 8 229 route clock Gammes standby;
#X obj 159 251 == 0;
#N canvas 72 345 450 300 declares 0;
#X obj 33 17 declare -lib zexy;
#X obj 33 38 declare -path iemlib -lib iemlib -lib iemlib1;
#X obj 34 79 declare -path abs;
#X obj 34 59 declare -path moonlib -path ggee -path motex -path hcs;
#X obj 34 98 declare -path domoTools;
#X restore 270 207 pd declares;
#X obj 10 149 l PdClient \$0 ClochesPieds;
#X obj 111 186 l FraiseNet \$0;
#X obj 227 249 gamme 90 40 1 0 1 0 0 1 0 1 0 1 0 0;
#X obj 310 319 s Gammes;
#X msg 310 298 1 \$1 \, 0 \$1;
#X msg 252 7 2;
#X obj 158 340 domonet/domonet Cloche;
#X obj 382 197 s /GAMME;
#X obj 378 69 gammabs/GAMMEKBV /GAMME;
#X obj 447 147 r /GAMME;
#X floatatom 447 169 5 0 0 0 - - - 0;
#X msg 404 175 171;
#X obj 382 151 loadbang;
#X msg 372 174 145;
#X obj 386 229 r CLOCK;
#X obj 386 251 bng 15 250 50 0 empty empty empty 17 7 0 10 #fcfcfc #000000 #000000;
#X obj 11 379 loadbang;
#X msg 11 402 14;
#X obj 11 425 s INPUT_SET_CHAN;
#X obj 130 425 s AutoGamme;
#X msg 130 402 1;
#N canvas 0 0 350 578 autogamme 0;
#X obj 51 55 tgl 15 0 empty empty empty 17 7 0 10 #fcfcfc #000000 #000000 0 1;
#X obj 51 75 metro 600;
#X obj 51 98 random 10;
#X obj 51 121 sel 0;
#X obj 51 166 random 7;
#X obj 51 143 t b b, f 14;
#X obj 156 399 route 0 1;
#X obj 156 494 &;
#X obj 207 493 |;
#X msg 156 276 1 \$1;
#X obj 156 299 <<;
#X obj 46 449 &;
#X obj 46 407 t f f;
#X obj 46 497 pack f f;
#X obj 46 472 == 0;
#X msg 156 422 4095 \$1;
#X obj 156 448 -;
#X obj 51 189 sel 0 1 2 3 4 5 6, f 35;
#X msg 51 212 0;
#X msg 80 212 2;
#X msg 108 213 4;
#X msg 138 212 5;
#X msg 169 213 7;
#X msg 198 212 9;
#X obj 156 251 f;
#X obj 156 339 pack f f;
#X obj 59 428 r /GAMME;
#X obj 171 472 r /GAMME;
#X obj 222 469 r /GAMME;
#X msg 123 78 10;
#X msg 155 78 0;
#X floatatom 123 102 5 0 0 0 - - - 0;
#X obj 156 517 s /GAMME;
#X msg 156 362 \$2 \$1;
#X obj 237 338 != 0;
#X obj 132 165 random 4;
#X msg 229 212 11;
#X obj 51 30 r AutoGamme;
#X connect 0 0 1 0;
#X connect 1 0 2 0;
#X connect 2 0 3 0;
#X connect 3 0 5 0;
#X connect 4 0 17 0;
#X connect 5 0 4 0;
#X connect 5 1 35 0;
#X connect 6 0 15 0;
#X connect 6 1 8 0;
#X connect 7 0 32 0;
#X connect 8 0 32 0;
#X connect 9 0 10 0;
#X connect 10 0 12 0;
#X connect 10 0 25 0;
#X connect 11 0 14 0;
#X connect 12 0 11 0;
#X connect 12 1 13 1;
#X connect 14 0 13 0;
#X connect 15 0 16 0;
#X connect 16 0 7 0;
#X connect 17 0 18 0;
#X connect 17 1 19 0;
#X connect 17 2 20 0;
#X connect 17 3 21 0;
#X connect 17 4 22 0;
#X connect 17 5 23 0;
#X connect 17 6 36 0;
#X connect 18 0 24 0;
#X connect 19 0 24 0;
#X connect 20 0 24 0;
#X connect 21 0 24 0;
#X connect 22 0 24 0;
#X connect 23 0 24 0;
#X connect 24 0 9 0;
#X connect 25 0 33 0;
#X connect 26 0 11 1;
#X connect 27 0 7 1;
#X connect 28 0 8 1;
#X connect 29 0 31 0;
#X connect 30 0 31 0;
#X connect 31 0 2 1;
#X connect 33 0 6 0;
#X connect 34 0 25 1;
#X connect 35 0 34 0;
#X connect 36 0 24 0;
#X connect 37 0 0 0;
#X restore 393 348 pd autogamme;
#X obj 303 8 r pd;
#X obj 303 31 route dsp;
#X msg 303 54 set \$1;
#X connect 5 0 4 0;
#X connect 6 0 7 0;
#X connect 6 0 30 0;
#X connect 7 0 8 0;
#X connect 8 0 5 0;
#X connect 9 0 10 0;
#X connect 12 0 31 0;
#X connect 17 0 31 0;
#X connect 18 0 0 0;
#X connect 18 1 1 0;
#X connect 18 2 2 0;
#X connect 18 3 3 0;
#X connect 18 4 19 0;
#X connect 18 5 20 0;
#X connect 18 6 21 0;
#X connect 18 7 22 0;
#X connect 25 0 9 0;
#X connect 25 0 27 0;
#X connect 26 0 25 0;
#X connect 28 0 29 0;
#X connect 30 0 28 0;
#X connect 31 0 11 0;
#X connect 31 0 16 0;
#X connect 31 1 13 0;
#X connect 31 1 14 0;
#X connect 31 2 32 0;
#X connect 32 0 5 0;
#X connect 36 3 38 0;
#X connect 38 0 37 0;
#X connect 39 0 25 0;
#X connect 43 0 44 0;
#X connect 45 0 41 0;
#X connect 46 0 47 0;
#X connect 47 0 41 0;
#X connect 48 0 49 0;
#X connect 50 0 51 0;
#X connect 50 0 54 0;
#X connect 51 0 52 0;
#X connect 54 0 53 0;
#X connect 56 0 57 0;
#X connect 57 0 58 0;
#X connect 58 0 5 0;
