#N canvas 133 259 546 388 10;
#X declare -lib zexy;
#X declare -path iemlib -lib iemlib -lib iemlib1;
#X declare -path abs;
#X declare -path moonlib -path ggee -path motex -path hcs;
#X declare -path domoTools;
#X obj 8 29 vu 10 80 empty empty -1 -8 0 8 -66577 -1 0 0;
#X obj 23 29 vu 10 80 empty empty -1 -8 0 8 -66577 -1 0 0;
#X obj 38 29 vu 10 80 empty empty -1 -8 0 8 -66577 -1 0 0;
#X obj 54 29 vu 10 80 empty empty -1 -8 0 8 -66577 -1 0 0;
#X msg 270 90 \; pd dsp \$1;
#X obj 238 91 tgl 30 0 empty empty empty 0 -6 0 8 -24198 -258699 -1
1 1;
#X obj 238 33 loadbang;
#X obj 238 52 del 2000;
#X msg 238 72 1;
#N canvas 709 218 398 318 in 0;
#X obj 51 215 unpack 0 0 0;
#X obj 90 236 + 11;
#X obj 90 256 change;
#X obj 90 276 outlet;
#X obj 51 195 prvu~;
#X obj 37 236 s~ inl;
#X obj 31 58 mull~ 1 10;
#N canvas 242 124 192 215 clean_limit 0;
#X obj 39 44 inlet~;
#X obj 39 156 outlet~;
#X obj 39 134 *~;
#X obj 74 102 limiter~;
#X obj 39 102 z~ 64;
#X connect 0 0 3 0;
#X connect 0 0 4 0;
#X connect 2 0 1 0;
#X connect 3 0 2 1;
#X connect 4 0 2 0;
#X restore 31 105 pd clean_limit;
#X obj 68 8 inlet;
#X msg 163 66 t_metro 50 \, t_hold 50 \, t_release 50;
#X obj 162 44 loadbang;
#X obj 38 163 +~;
#X msg 280 122 1;
#X obj 184 125 l compressor~ 2;
#X obj 30 81 hip~ 150;
#X obj 10 13 adc~ 1;
#X obj 88 80 hip~ 5000;
#X connect 0 1 1 0;
#X connect 1 0 2 0;
#X connect 2 0 3 0;
#X connect 4 0 0 0;
#X connect 6 0 14 0;
#X connect 6 0 16 0;
#X connect 7 0 11 0;
#X connect 8 0 6 1;
#X connect 9 0 4 0;
#X connect 10 0 9 0;
#X connect 11 0 4 0;
#X connect 11 0 5 0;
#X connect 12 0 13 1;
#X connect 14 0 7 0;
#X connect 15 0 6 0;
#X connect 16 0 7 0;
#X restore 187 9 pd in;
#X obj 188 33 vu 15 80 empty empty -1 -8 0 8 -66577 -1 0 0;
#X obj 8 252 s \$0-clock;
#X obj 20 206 r \$0-pdnet-fromserver;
#X obj 83 253 s Gammes;
#X obj 85 272 s Gammestab;
#X obj 83 293 table Gammestab;
#X obj 59 277 bng 15 250 50 0 empty empty empty 17 7 0 10 -262144 -1
-1;
#X obj 8 186 r \$0-fromserver;
#N canvas 392 139 813 383 master 0;
#X obj 23 218 prvu~;
#X obj 23 238 unpack 0 0 0;
#X obj 62 259 + 11;
#X obj 62 279 change;
#X obj 62 299 outlet;
#X obj 20 13 catch~ outl;
#X obj 102 14 catch~ outr;
#X obj 187 14 catch~ outl2;
#X obj 107 172 dac~ 1 2 3 4;
#X obj 276 13 catch~ outr2;
#X obj 113 218 prvu~;
#X obj 113 238 unpack 0 0 0;
#X obj 152 259 + 11;
#X obj 152 279 change;
#X obj 152 299 outlet;
#X obj 208 218 prvu~;
#X obj 208 238 unpack 0 0 0;
#X obj 247 259 + 11;
#X obj 247 279 change;
#X obj 247 299 outlet;
#X obj 298 218 prvu~;
#X obj 298 238 unpack 0 0 0;
#X obj 337 259 + 11;
#X obj 337 279 change;
#X obj 337 299 outlet;
#X msg 154 343 t_metro 50 \, t_hold 50 \, t_release 50;
#X obj 48 197 s~ \$0-outmixlr;
#N canvas 242 97 450 300 clean_limit 0;
#X obj 39 44 inlet~;
#X obj 39 156 outlet~;
#X obj 338 69 switch~;
#X obj 338 42 inlet;
#X obj 39 134 *~;
#X obj 172 44 inlet~;
#X obj 172 156 outlet~;
#X obj 172 134 *~;
#X obj 74 102 limiter~;
#X obj 207 102 limiter~;
#X obj 39 102 z~ 64;
#X obj 172 102 z~ 64;
#X connect 0 0 8 0;
#X connect 0 0 10 0;
#X connect 3 0 2 0;
#X connect 4 0 1 0;
#X connect 5 0 9 0;
#X connect 5 0 11 0;
#X connect 7 0 6 0;
#X connect 8 0 4 1;
#X connect 9 0 7 1;
#X connect 10 0 4 0;
#X connect 11 0 7 0;
#X restore 41 88 pd clean_limit;
#X obj 134 65 tgl 15 1 empty empty empty 0 -6 0 8 -262144 -1 -1 1 1
;
#N canvas 242 97 450 300 clean_limit 0;
#X obj 39 44 inlet~;
#X obj 39 156 outlet~;
#X obj 338 69 switch~;
#X obj 338 42 inlet;
#X obj 39 134 *~;
#X obj 172 44 inlet~;
#X obj 172 156 outlet~;
#X obj 172 134 *~;
#X obj 74 102 limiter~;
#X obj 207 102 limiter~;
#X obj 39 102 z~ 64;
#X obj 172 102 z~ 64;
#X connect 0 0 8 0;
#X connect 0 0 10 0;
#X connect 3 0 2 0;
#X connect 4 0 1 0;
#X connect 5 0 9 0;
#X connect 5 0 11 0;
#X connect 7 0 6 0;
#X connect 8 0 4 1;
#X connect 9 0 7 1;
#X connect 10 0 4 0;
#X connect 11 0 7 0;
#X restore 186 89 pd clean_limit;
#X obj 279 66 tgl 15 1 empty empty empty 0 -6 0 8 -262144 -1 -1 1 1
;
#X obj 54 359 catch~ rev1;
#X obj 390 218 prvu~;
#X obj 390 238 unpack 0 0 0;
#X obj 429 259 + 11;
#X obj 429 279 change;
#X obj 429 299 outlet;
#X obj 480 218 prvu~;
#X obj 480 238 unpack 0 0 0;
#X obj 519 259 + 11;
#X obj 519 279 change;
#X obj 519 299 outlet;
#X obj 577 214 prvu~;
#X obj 575 238 unpack 0 0 0;
#X obj 614 259 + 11;
#X obj 614 279 change;
#X obj 614 299 outlet;
#X obj 665 218 prvu~;
#X obj 665 238 unpack 0 0 0;
#X obj 704 259 + 11;
#X obj 704 279 change;
#X obj 704 299 outlet;
#X msg 521 343 t_metro 50 \, t_hold 50 \, t_release 50;
#X obj 415 197 s~ \$0-outmixlr;
#N canvas 242 97 450 300 clean_limit 0;
#X obj 39 44 inlet~;
#X obj 39 156 outlet~;
#X obj 338 69 switch~;
#X obj 338 42 inlet;
#X obj 39 134 *~;
#X obj 172 44 inlet~;
#X obj 172 156 outlet~;
#X obj 172 134 *~;
#X obj 74 102 limiter~;
#X obj 207 102 limiter~;
#X obj 39 102 z~ 64;
#X obj 172 102 z~ 64;
#X connect 0 0 8 0;
#X connect 0 0 10 0;
#X connect 3 0 2 0;
#X connect 4 0 1 0;
#X connect 5 0 9 0;
#X connect 5 0 11 0;
#X connect 7 0 6 0;
#X connect 8 0 4 1;
#X connect 9 0 7 1;
#X connect 10 0 4 0;
#X connect 11 0 7 0;
#X restore 408 88 pd clean_limit;
#X obj 501 65 tgl 15 1 empty empty empty 0 -6 0 8 -262144 -1 -1 1 1
;
#N canvas 242 97 450 300 clean_limit 0;
#X obj 39 44 inlet~;
#X obj 39 156 outlet~;
#X obj 338 69 switch~;
#X obj 338 42 inlet;
#X obj 39 134 *~;
#X obj 172 44 inlet~;
#X obj 172 156 outlet~;
#X obj 172 134 *~;
#X obj 74 102 limiter~;
#X obj 207 102 limiter~;
#X obj 39 102 z~ 64;
#X obj 172 102 z~ 64;
#X connect 0 0 8 0;
#X connect 0 0 10 0;
#X connect 3 0 2 0;
#X connect 4 0 1 0;
#X connect 5 0 9 0;
#X connect 5 0 11 0;
#X connect 7 0 6 0;
#X connect 8 0 4 1;
#X connect 9 0 7 1;
#X connect 10 0 4 0;
#X connect 11 0 7 0;
#X restore 553 89 pd clean_limit;
#X obj 646 66 tgl 15 1 empty empty empty 0 -6 0 8 -262144 -1 -1 1 1
;
#X obj 387 13 catch~ outl3;
#X obj 470 14 catch~ outr3;
#X obj 554 14 catch~ outl4;
#X obj 643 14 catch~ outr4;
#X obj 474 172 dac~ 5 6 7 8;
#N canvas 167 299 450 300 mastervol 0;
#X obj 194 17 r \$0-mastervol-snd;
#X obj 63 22 inlet~;
#X obj 130 19 inlet~;
#X obj 162 92 line~;
#X obj 129 122 *~;
#X obj 194 39 pow 2;
#X msg 195 59 \$1 50;
#X obj 64 155 outlet~;
#X obj 129 156 outlet~;
#X obj 64 122 *~;
#X connect 0 0 5 0;
#X connect 1 0 9 0;
#X connect 2 0 4 0;
#X connect 3 0 4 1;
#X connect 3 0 9 1;
#X connect 4 0 8 0;
#X connect 5 0 6 0;
#X connect 6 0 3 0;
#X connect 9 0 7 0;
#X restore 20 50 pd mastervol;
#N canvas 167 299 450 300 mastervol 0;
#X obj 194 17 r \$0-mastervol-snd;
#X obj 63 22 inlet~;
#X obj 130 19 inlet~;
#X obj 162 92 line~;
#X obj 129 122 *~;
#X obj 194 39 pow 2;
#X msg 195 59 \$1 50;
#X obj 64 155 outlet~;
#X obj 129 156 outlet~;
#X obj 64 122 *~;
#X connect 0 0 5 0;
#X connect 1 0 9 0;
#X connect 2 0 4 0;
#X connect 3 0 4 1;
#X connect 3 0 9 1;
#X connect 4 0 8 0;
#X connect 5 0 6 0;
#X connect 6 0 3 0;
#X connect 9 0 7 0;
#X restore 186 50 pd mastervol;
#N canvas 167 299 450 300 mastervol 0;
#X obj 194 17 r \$0-mastervol-snd;
#X obj 63 22 inlet~;
#X obj 130 19 inlet~;
#X obj 162 92 line~;
#X obj 129 122 *~;
#X obj 194 39 pow 2;
#X msg 195 59 \$1 50;
#X obj 64 155 outlet~;
#X obj 129 156 outlet~;
#X obj 64 122 *~;
#X connect 0 0 5 0;
#X connect 1 0 9 0;
#X connect 2 0 4 0;
#X connect 3 0 4 1;
#X connect 3 0 9 1;
#X connect 4 0 8 0;
#X connect 5 0 6 0;
#X connect 6 0 3 0;
#X connect 9 0 7 0;
#X restore 382 51 pd mastervol;
#N canvas 167 299 450 300 mastervol 0;
#X obj 194 17 r \$0-mastervol-snd;
#X obj 63 22 inlet~;
#X obj 130 19 inlet~;
#X obj 162 92 line~;
#X obj 129 122 *~;
#X obj 194 39 pow 2;
#X msg 195 59 \$1 50;
#X obj 64 155 outlet~;
#X obj 129 156 outlet~;
#X obj 64 122 *~;
#X connect 0 0 5 0;
#X connect 1 0 9 0;
#X connect 2 0 4 0;
#X connect 3 0 4 1;
#X connect 3 0 9 1;
#X connect 4 0 8 0;
#X connect 5 0 6 0;
#X connect 6 0 3 0;
#X connect 9 0 7 0;
#X restore 557 48 pd mastervol;
#X connect 0 0 1 0;
#X connect 1 1 2 0;
#X connect 2 0 3 0;
#X connect 3 0 4 0;
#X connect 5 0 63 0;
#X connect 6 0 63 1;
#X connect 7 0 64 0;
#X connect 9 0 64 1;
#X connect 10 0 11 0;
#X connect 11 1 12 0;
#X connect 12 0 13 0;
#X connect 13 0 14 0;
#X connect 15 0 16 0;
#X connect 16 1 17 0;
#X connect 17 0 18 0;
#X connect 18 0 19 0;
#X connect 20 0 21 0;
#X connect 21 1 22 0;
#X connect 22 0 23 0;
#X connect 23 0 24 0;
#X connect 25 0 0 0;
#X connect 25 0 10 0;
#X connect 25 0 15 0;
#X connect 25 0 20 0;
#X connect 27 0 8 0;
#X connect 27 0 0 0;
#X connect 27 1 8 1;
#X connect 27 1 10 0;
#X connect 28 0 27 2;
#X connect 29 0 8 2;
#X connect 29 0 15 0;
#X connect 29 1 8 3;
#X connect 29 1 20 0;
#X connect 30 0 29 2;
#X connect 32 0 33 0;
#X connect 33 1 34 0;
#X connect 34 0 35 0;
#X connect 35 0 36 0;
#X connect 37 0 38 0;
#X connect 38 1 39 0;
#X connect 39 0 40 0;
#X connect 40 0 41 0;
#X connect 42 0 43 0;
#X connect 43 1 44 0;
#X connect 44 0 45 0;
#X connect 45 0 46 0;
#X connect 47 0 48 0;
#X connect 48 1 49 0;
#X connect 49 0 50 0;
#X connect 50 0 51 0;
#X connect 52 0 32 0;
#X connect 52 0 37 0;
#X connect 52 0 42 0;
#X connect 52 0 47 0;
#X connect 54 0 32 0;
#X connect 54 0 62 0;
#X connect 54 1 37 0;
#X connect 54 1 62 1;
#X connect 55 0 54 2;
#X connect 56 0 42 0;
#X connect 56 0 62 2;
#X connect 56 1 47 0;
#X connect 56 1 62 3;
#X connect 57 0 56 2;
#X connect 58 0 65 0;
#X connect 59 0 65 1;
#X connect 60 0 66 0;
#X connect 61 0 66 1;
#X connect 63 0 27 0;
#X connect 63 1 27 1;
#X connect 64 0 29 0;
#X connect 64 1 29 1;
#X connect 65 0 54 0;
#X connect 65 1 54 1;
#X connect 66 0 56 0;
#X connect 66 1 56 1;
#X restore 7 7 pd master ---------;
#X obj 70 29 vu 10 80 empty empty -1 -8 0 8 -66577 -1 0 0;
#X obj 85 29 vu 10 80 empty empty -1 -8 0 8 -66577 -1 0 0;
#X obj 101 29 vu 10 80 empty empty -1 -8 0 8 -66577 -1 0 0;
#X obj 117 29 vu 10 80 empty empty -1 -8 0 8 -66577 -1 0 0;
#X obj 9 121 netreceive 8002 0 old;
#X obj 7 331 ClochesPieds \$0;
#X obj 207 33 vsl 15 80 0.1 50 1 1 empty empty empty 0 -9 0 10 -262144
-1 -1 3808 1;
#X msg 224 8 1;
#X floatatom 192 118 5 0 0 0 - - -;
#X obj 132 28 vsl 15 80 0 1.2 0 1 \$0-mastervol-snd \$0-mastervol-rcv
master 0 -9 0 10 -258113 -1 -1 6583 1;
#X floatatom 145 115 5 0 0 0 - - -;
#X msg 152 32 1;
#X obj 8 229 route clock Gammes standby;
#X obj 159 251 == 0;
#N canvas 79 345 450 300 declares 0;
#X obj 33 17 declare -lib zexy;
#X obj 33 38 declare -path iemlib -lib iemlib -lib iemlib1;
#X obj 34 79 declare -path abs;
#X obj 34 59 declare -path moonlib -path ggee -path motex -path hcs
;
#X obj 34 98 declare -path domoTools;
#X restore 270 207 pd declares;
#X obj 10 149 l PdClient \$0 ClochesPieds;
#X obj 111 186 l FraiseNet \$0;
#X obj 227 249 gamme 90 40 1 0 1 0 0 1 0 1 0 1 0 0;
#X obj 310 319 s Gammes;
#X msg 310 298 1 \$1 \, 0 \$1;
#X msg 252 7 2;
#X obj 158 340 domonet/domonet Cloche;
#X obj 382 197 s /GAMME;
#X obj 378 69 gammabs/GAMMEKBV /GAMME;
#X obj 447 147 r /GAMME;
#X floatatom 447 169 5 0 0 0 - - -;
#X msg 404 175 171;
#X obj 382 151 loadbang;
#X msg 372 174 145;
#X obj 386 229 r CLOCK;
#X obj 386 251 bng 15 250 50 0 empty empty empty 17 7 0 10 -262144
-1 -1;
#X connect 5 0 4 0;
#X connect 6 0 7 0;
#X connect 7 0 8 0;
#X connect 8 0 5 0;
#X connect 9 0 10 0;
#X connect 12 0 31 0;
#X connect 17 0 31 0;
#X connect 18 0 0 0;
#X connect 18 1 1 0;
#X connect 18 2 2 0;
#X connect 18 3 3 0;
#X connect 18 4 19 0;
#X connect 18 5 20 0;
#X connect 18 6 21 0;
#X connect 18 7 22 0;
#X connect 25 0 9 0;
#X connect 25 0 27 0;
#X connect 26 0 25 0;
#X connect 28 0 29 0;
#X connect 30 0 28 0;
#X connect 31 0 11 0;
#X connect 31 0 16 0;
#X connect 31 1 13 0;
#X connect 31 1 14 0;
#X connect 31 2 32 0;
#X connect 32 0 5 0;
#X connect 36 3 38 0;
#X connect 38 0 37 0;
#X connect 39 0 25 0;
#X connect 43 0 44 0;
#X connect 45 0 41 0;
#X connect 46 0 47 0;
#X connect 47 0 41 0;
#X connect 48 0 49 0;
