#N canvas 79 84 715 610 10;
#X declare -path Fraise;
#N canvas 106 644 402 323 Interface 0;
#X obj 0 1 cnv 15 400 320 empty empty empty 20 12 0 14 #583000 #404040 0;
#X obj 239 13 cnv 15 120 120 empty empty Myosotis 20 12 2 14 #d8fcd8 #404040 0;
#X obj 284 49 tgl 30 0 \$0-myoso3-snd \$0-myoso3-rcv 3 13 15 1 10 #fcfcc8 #000000 #000000 0 1;
#X obj 317 49 tgl 30 0 \$0-myoso4-snd \$0-myoso4-rcv 4 13 15 1 10 #fcfcc8 #000000 #000000 0 1;
#X obj 317 82 tgl 30 0 \$0-myoso5-snd \$0-myoso5-rcv 5 13 15 1 10 #fcfcc8 #000000 #000000 0 1;
#X obj 251 49 tgl 30 0 \$0-myoso2-snd \$0-myoso2-rcv 2 13 15 1 10 #fcfcc8 #000000 #000000 0 1;
#X obj 284 82 tgl 30 0 \$0-myoso0-snd \$0-myoso0-rcv E 13 15 1 10 #dce4fc #000000 #000000 0 1;
#X obj 251 82 tgl 30 0 \$0-myoso1-snd \$0-myoso1-rcv 1 13 15 1 10 #fcfcc8 #000000 #000000 0 1;
#X obj 225 211 cnv 15 100 100 empty empty Répiétiteur 5 12 2 14 #d8fcd8 #404040 0;
#X obj 244 238 tgl 30 0 \$0-rep1-snd \$0-rep1-rcv 1 13 15 1 10 #fcfcfc #000000 #000000 0 1;
#X obj 276 238 tgl 30 0 \$0-rep2-snd \$0-rep2-rcv 2 13 15 1 10 #fcfcfc #000000 #000000 0 1;
#X obj 244 270 tgl 30 0 \$0-rep3-snd \$0-rep3-rcv 3 13 15 1 10 #fcfcfc #000000 #000000 0 1;
#X obj 276 270 tgl 30 0 \$0-rep4-snd \$0-rep4-rcv 4 13 15 1 10 #fcfcfc #000000 #000000 0 1;
#X obj 25 10 cnv 15 200 70 empty empty Syllaboratoire 40 12 2 14 #d8fcd8 #404040 0;
#X obj 30 37 tgl 30 0 \$0-s1-snd \$0-s1-rcv I 13 15 1 10 #fcfcfc #000000 #000000 0 1;
#X obj 62 37 tgl 30 0 \$0-s2-snd \$0-s2-rcv PO 7 15 1 10 #fcfcfc #000000 #000000 0 1;
#X obj 94 37 tgl 30 0 \$0-s3-snd \$0-s3-rcv PO 7 15 1 10 #fcfcfc #000000 #000000 0 1;
#X obj 126 37 tgl 30 0 \$0-s4-snd \$0-s4-rcv TAM 2 15 1 10 #fcfcfc #000000 #000000 0 1;
#X obj 160 37 tgl 30 0 \$0-st-snd \$0-st-rcv hippopotame 1 15 1 8 #fcfcc8 #000000 #000000 0 1;
#X obj 194 143 cnv 15 200 60 empty empty Collecsonneurs 40 12 2 14 #d8fcd8 #404040 0;
#X obj 203 168 tgl 30 0 \$0-tellucri-snd \$0-tellucri-rcv cri 5 15 1 10 #fcfcfc #000000 #000000 0 1;
#X obj 256 169 tgl 30 0 \$0-tellujetaime-snd \$0-tellujetaime-rcv jetaime 2 15 1 10 #fcfcfc #000000 #000000 0 1;
#X obj 302 169 tgl 30 0 \$0-telludeteste-snd \$0-telludeteste-rcv deteste 2 15 1 10 #fcfcfc #000000 #000000 0 1;
#X obj 9 124 cnv 15 170 180 empty empty Rotobservatoire 20 12 2 14 #d8fcd8 #404040 0;
#X obj 74 149 tgl 30 0 \$0-rotob1-snd \$0-rotob1-rcv 1:E 7 15 1 10 #fcfcc8 #000000 #000000 0 1;
#X obj 117 166 tgl 30 0 \$0-rotob2-snd \$0-rotob2-rcv 2:SE 2 15 1 10 #fcfcc8 #000000 #000000 0 1;
#X obj 139 208 tgl 30 0 \$0-rotob3-snd \$0-rotob3-rcv 3:S 7 15 1 10 #fcfcc8 #000000 #000000 0 1;
#X obj 120 250 tgl 30 0 \$0-rotob4-snd \$0-rotob4-rcv 4:SO 2 15 1 10 #fcfcc8 #000000 #000000 0 1;
#X obj 76 269 tgl 30 0 \$0-rotob5-snd \$0-rotob5-rcv 5:O 7 15 1 10 #fcfcc8 #000000 #000000 0 1;
#X obj 31 165 tgl 30 0 \$0-rotob8-snd \$0-rotob8-rcv 8:NE 2 15 1 10 #fcfcc8 #000000 #000000 0 1;
#X obj 16 208 tgl 30 0 \$0-rotob7-snd \$0-rotob7-rcv 7:N 7 15 1 10 #fcfcc8 #000000 #000000 0 1;
#X obj 34 251 tgl 30 0 \$0-rotob6-snd \$0-rotob6-rcv 6:NO 2 15 1 10 #fcfcc8 #000000 #000000 0 1;
#X obj 74 208 tgl 30 0 \$0-rotob0-snd \$0-rotob0-rcv C 10 15 1 10 #d8fcfc #000000 #000000 0 1;
#X obj 357 169 tgl 30 0 \$0-telludiing-snd \$0-telludiing-rcv diing 2 15 1 10 #fcfcfc #000000 #000000 0 1;
#X restore 412 9 pd Interface;
#N canvas 72 297 245 292 interfguts 0;
#X obj 47 13 dispatch \$0-s 1 4;
#X obj 47 32 dispatch \$0-rep 1 4;
#N canvas 197 0 450 258 8bits 0;
#X obj 159 29 inlet;
#X obj 39 110 & 128;
#X obj 39 131 != 0;
#X obj 39 152 change;
#X obj 91 131 != 0;
#X obj 91 152 change;
#X obj 141 131 != 0;
#X obj 141 152 change;
#X obj 193 131 != 0;
#X obj 193 152 change;
#X obj 241 132 != 0;
#X obj 241 153 change;
#X obj 293 132 != 0;
#X obj 293 153 change;
#X obj 343 132 != 0;
#X obj 343 153 change;
#X obj 395 132 != 0;
#X obj 395 153 change;
#X obj 159 50 t f f f f f f f f;
#X obj 395 111 & 1;
#X obj 343 111 & 2;
#X obj 293 111 & 4;
#X obj 241 111 & 8;
#X obj 193 110 & 16;
#X obj 141 110 & 32;
#X obj 91 110 & 64;
#X obj 193 223 outlet;
#X msg 39 172 7 \$1;
#X msg 343 175 1 \$1;
#X msg 395 175 0 \$1;
#X msg 293 174 2 \$1;
#X msg 241 174 3 \$1;
#X msg 193 173 4 \$1;
#X msg 141 173 5 \$1;
#X msg 91 172 6 \$1;
#X connect 0 0 18 0;
#X connect 1 0 2 0;
#X connect 2 0 3 0;
#X connect 3 0 27 0;
#X connect 4 0 5 0;
#X connect 5 0 34 0;
#X connect 6 0 7 0;
#X connect 7 0 33 0;
#X connect 8 0 9 0;
#X connect 9 0 32 0;
#X connect 10 0 11 0;
#X connect 11 0 31 0;
#X connect 12 0 13 0;
#X connect 13 0 30 0;
#X connect 14 0 15 0;
#X connect 15 0 28 0;
#X connect 16 0 17 0;
#X connect 17 0 29 0;
#X connect 18 0 1 0;
#X connect 18 1 25 0;
#X connect 18 2 24 0;
#X connect 18 3 23 0;
#X connect 18 4 22 0;
#X connect 18 5 21 0;
#X connect 18 6 20 0;
#X connect 18 7 19 0;
#X connect 19 0 16 0;
#X connect 20 0 14 0;
#X connect 21 0 12 0;
#X connect 22 0 10 0;
#X connect 23 0 8 0;
#X connect 24 0 6 0;
#X connect 25 0 4 0;
#X connect 27 0 26 0;
#X connect 28 0 26 0;
#X connect 29 0 26 0;
#X connect 30 0 26 0;
#X connect 31 0 26 0;
#X connect 32 0 26 0;
#X connect 33 0 26 0;
#X connect 34 0 26 0;
#X restore 55 93 pd 8bits;
#X obj 47 51 dispatch \$0-myoso 0 5;
#X obj 47 69 dispatch \$0-rotob 0 8;
#N canvas 231 98 477 437 Myo 0;
#X obj 165 281 s \$0-myoso-rcv;
#X msg 65 215 1 \$1;
#X msg 33 216 2 \$1;
#X msg 100 213 3 \$1;
#X msg 172 208 4 \$1;
#X msg 134 212 5 \$1;
#X msg 231 233 0 \$1;
#X obj 83 64 route s a;
#X obj 82 92 route 0 1 2 3 4;
#X obj 142 134 tgl 15 0 empty empty empty 17 7 0 10 #fcfcfc #000000 #000000 0 1;
#X obj 184 142 tgl 15 0 empty empty empty 17 7 0 10 #fcfcfc #000000 #000000 0 1;
#X obj 88 133 tgl 15 0 empty empty empty 17 7 0 10 #fcfcfc #000000 #000000 0 1;
#X obj 110 136 tgl 15 0 empty empty empty 17 7 0 10 #fcfcfc #000000 #000000 0 1;
#X obj 62 126 tgl 15 0 empty empty empty 17 7 0 10 #fcfcfc #000000 #000000 0 1;
#X obj 238 144 route 0;
#X msg 132 341 c 3 i 63;
#X msg 207 346 W1;
#X obj 237 200 change;
#X obj 239 170 < 1000;
#X obj 83 29 fruit/receive Myo;
#X obj 132 376 fruit/send Myo;
#X connect 1 0 0 0;
#X connect 2 0 0 0;
#X connect 3 0 0 0;
#X connect 4 0 0 0;
#X connect 5 0 0 0;
#X connect 6 0 0 0;
#X connect 7 0 8 0;
#X connect 7 1 14 0;
#X connect 8 0 13 0;
#X connect 8 1 11 0;
#X connect 8 2 12 0;
#X connect 8 3 9 0;
#X connect 8 4 10 0;
#X connect 9 0 5 0;
#X connect 10 0 4 0;
#X connect 11 0 1 0;
#X connect 12 0 3 0;
#X connect 13 0 2 0;
#X connect 14 0 18 0;
#X connect 15 0 20 0;
#X connect 16 0 20 1;
#X connect 17 0 6 0;
#X connect 18 0 17 0;
#X connect 19 0 7 0;
#X restore 49 142 pd Myo;
#N canvas 434 208 593 535 Sylla 0;
#X obj 67 262 s \$0-st-rcv;
#X msg 261 155 5 \$1;
#X obj 114 59 route s a;
#X obj 165 131 tgl 15 0 empty empty empty 17 7 0 10 #fcfcfc #000000 #000000 0 1;
#X obj 203 128 tgl 15 0 empty empty empty 17 7 0 10 #fcfcfc #000000 #000000 0 1;
#X obj 99 128 tgl 15 0 empty empty empty 17 7 0 10 #fcfcfc #000000 #000000 0 1;
#X obj 136 122 tgl 15 0 empty empty empty 17 7 0 10 #fcfcfc #000000 #000000 0 1;
#X obj 66 131 tgl 15 0 empty empty empty 17 7 0 10 #fcfcfc #000000 #000000 0 1;
#X obj 113 82 route 0 1 2 3 4 5 6 7 8 9;
#X obj 341 126 tgl 15 0 empty empty empty 17 7 0 10 #fcfcfc #000000 #000000 0 1;
#X obj 376 125 tgl 15 0 empty empty empty 17 7 0 10 #fcfcfc #000000 #000000 0 1;
#X obj 298 132 tgl 15 0 empty empty empty 17 7 0 10 #fcfcfc #000000 #000000 0 1;
#X obj 306 124 tgl 15 0 empty empty empty 17 7 0 10 #fcfcfc #000000 #000000 0 1;
#X obj 239 128 tgl 15 0 empty empty empty 17 7 0 10 #fcfcfc #000000 #000000 0 1;
#X obj 188 265 s \$0-s-rcv;
#X msg 280 183 111110;
#X msg 273 207 c 3 i 62;
#X msg 285 235 c 3 i 0;
#X msg 357 238 W0;
#X msg 94 191 1 \$1;
#X msg 130 193 4 \$1;
#X msg 167 194 2 \$1;
#X msg 206 195 3 \$1;
#N canvas 0 0 450 300 debounce 0;
#X obj 168 49 inlet;
#X obj 171 82 sel 1 0;
#X obj 202 137 del 50;
#X msg 182 108 stop;
#X obj 204 160 0;
#X obj 173 159 1;
#X obj 183 192 change;
#X obj 187 223 outlet;
#X obj 238 114 r \$0-sylldebtime;
#X connect 0 0 1 0;
#X connect 1 0 3 0;
#X connect 1 0 5 0;
#X connect 1 1 2 0;
#X connect 2 0 4 0;
#X connect 3 0 2 0;
#X connect 4 0 6 0;
#X connect 5 0 6 0;
#X connect 6 0 7 0;
#X connect 8 0 2 1;
#X restore 94 149 pd debounce;
#N canvas 0 0 450 300 debounce 0;
#X obj 168 49 inlet;
#X obj 171 82 sel 1 0;
#X obj 202 137 del 50;
#X msg 182 108 stop;
#X obj 204 160 0;
#X obj 173 159 1;
#X obj 183 192 change;
#X obj 187 223 outlet;
#X obj 238 114 r \$0-sylldebtime;
#X connect 0 0 1 0;
#X connect 1 0 3 0;
#X connect 1 0 5 0;
#X connect 1 1 2 0;
#X connect 2 0 4 0;
#X connect 3 0 2 0;
#X connect 4 0 6 0;
#X connect 5 0 6 0;
#X connect 6 0 7 0;
#X connect 8 0 2 1;
#X restore 127 170 pd debounce;
#N canvas 0 0 450 300 debounce 0;
#X obj 168 49 inlet;
#X obj 171 82 sel 1 0;
#X obj 202 137 del 50;
#X msg 182 108 stop;
#X obj 204 160 0;
#X obj 173 159 1;
#X obj 183 192 change;
#X obj 187 223 outlet;
#X obj 238 114 r \$0-sylldebtime;
#X connect 0 0 1 0;
#X connect 1 0 3 0;
#X connect 1 0 5 0;
#X connect 1 1 2 0;
#X connect 2 0 4 0;
#X connect 3 0 2 0;
#X connect 4 0 6 0;
#X connect 5 0 6 0;
#X connect 6 0 7 0;
#X connect 8 0 2 1;
#X restore 169 148 pd debounce;
#N canvas 0 0 450 300 debounce 0;
#X obj 168 49 inlet;
#X obj 171 82 sel 1 0;
#X obj 202 137 del 50;
#X msg 182 108 stop;
#X obj 204 160 0;
#X obj 173 159 1;
#X obj 183 192 change;
#X obj 187 223 outlet;
#X obj 238 114 r \$0-sylldebtime;
#X connect 0 0 1 0;
#X connect 1 0 3 0;
#X connect 1 0 5 0;
#X connect 1 1 2 0;
#X connect 2 0 4 0;
#X connect 3 0 2 0;
#X connect 4 0 6 0;
#X connect 5 0 6 0;
#X connect 6 0 7 0;
#X connect 8 0 2 1;
#X restore 203 170 pd debounce;
#N canvas 0 0 450 300 debounce 0;
#X obj 168 49 inlet;
#X obj 171 82 sel 1 0;
#X obj 202 137 del 50;
#X msg 182 108 stop;
#X obj 204 160 0;
#X obj 173 159 1;
#X obj 183 192 change;
#X obj 187 223 outlet;
#X obj 238 114 r \$0-sylldebtime;
#X connect 0 0 1 0;
#X connect 1 0 3 0;
#X connect 1 0 5 0;
#X connect 1 1 2 0;
#X connect 2 0 4 0;
#X connect 3 0 2 0;
#X connect 4 0 6 0;
#X connect 5 0 6 0;
#X connect 6 0 7 0;
#X connect 8 0 2 1;
#X restore 54 231 pd debounce;
#X obj 422 68 s \$0-sylldebtime;
#X msg 418 43 150;
#X obj 420 14 loadbang;
#X msg 446 43 10;
#X obj 115 34 fruit/receive Sylla;
#X obj 272 260 fruit/send Sylla;
#X obj 197 305 r \$0-s-rcv;
#X obj 197 328 route 5;
#X obj 197 352 s \$0-st-rcv;
#X obj 294 306 r \$0-st-snd;
#X msg 294 329 5 \$1;
#X obj 294 352 s \$0-s-snd;
#X connect 1 0 14 0;
#X connect 2 0 8 0;
#X connect 3 0 25 0;
#X connect 4 0 26 0;
#X connect 5 0 23 0;
#X connect 6 0 24 0;
#X connect 7 0 27 0;
#X connect 8 0 7 0;
#X connect 8 1 5 0;
#X connect 8 2 6 0;
#X connect 8 3 3 0;
#X connect 8 4 4 0;
#X connect 8 5 13 0;
#X connect 8 6 11 0;
#X connect 8 7 12 0;
#X connect 8 8 9 0;
#X connect 16 0 33 0;
#X connect 17 0 33 0;
#X connect 18 0 33 1;
#X connect 19 0 14 0;
#X connect 20 0 14 0;
#X connect 21 0 14 0;
#X connect 22 0 14 0;
#X connect 23 0 19 0;
#X connect 24 0 20 0;
#X connect 25 0 21 0;
#X connect 26 0 22 0;
#X connect 27 0 0 0;
#X connect 29 0 28 0;
#X connect 30 0 31 0;
#X connect 31 0 28 0;
#X connect 32 0 2 0;
#X connect 34 0 35 0;
#X connect 35 0 36 0;
#X connect 37 0 38 0;
#X connect 38 0 39 0;
#X restore 49 166 pd Sylla;
#N canvas 23 328 651 415 Repie 0;
#X msg 248 142 5 \$1;
#X obj 101 46 route s a;
#X obj 149 114 tgl 15 0 empty empty empty 17 7 0 10 #fcfcfc #000000 #000000 0 1;
#X obj 9 126 tgl 15 0 empty empty empty 17 7 0 10 #fcfcfc #000000 #000000 0 1;
#X obj 70 117 tgl 15 0 empty empty empty 17 7 0 10 #fcfcfc #000000 #000000 0 1;
#X obj 113 116 tgl 15 0 empty empty empty 17 7 0 10 #fcfcfc #000000 #000000 0 1;
#X obj 100 69 route 0 1 2 3 4 5 6 7 8 9;
#X obj 328 113 tgl 15 0 empty empty empty 17 7 0 10 #fcfcfc #000000 #000000 0 1;
#X obj 363 112 tgl 15 0 empty empty empty 17 7 0 10 #fcfcfc #000000 #000000 0 1;
#X obj 270 113 tgl 15 0 empty empty empty 17 7 0 10 #fcfcfc #000000 #000000 0 1;
#X obj 293 111 tgl 15 0 empty empty empty 17 7 0 10 #fcfcfc #000000 #000000 0 1;
#X obj 226 115 tgl 15 0 empty empty empty 17 7 0 10 #fcfcfc #000000 #000000 0 1;
#X msg 391 224 c 3 i 0;
#X msg 465 224 W0;
#X obj 175 252 s \$0-rep-rcv;
#X msg 386 172 11110;
#X msg 379 196 c 3 i 30;
#X msg 58 200 1 \$1;
#X msg 13 187 2 \$1;
#X msg 151 185 3 \$1;
#X msg 109 187 4 \$1;
#N canvas 1 79 450 300 debounce 0;
#X obj 168 49 inlet;
#X obj 171 82 sel 1 0;
#X obj 202 137 del 50;
#X msg 182 108 stop;
#X obj 204 160 0;
#X obj 173 159 1;
#X obj 183 192 change;
#X obj 187 223 outlet;
#X obj 238 114 r \$0-repiedebtime;
#X connect 0 0 1 0;
#X connect 1 0 3 0;
#X connect 1 0 5 0;
#X connect 1 1 2 0;
#X connect 2 0 4 0;
#X connect 3 0 2 0;
#X connect 4 0 6 0;
#X connect 5 0 6 0;
#X connect 6 0 7 0;
#X connect 8 0 2 1;
#X restore 5 148 pd debounce;
#X obj 430 24 loadbang;
#X obj 432 78 s \$0-repiedebtime;
#N canvas 0 0 450 300 debounce 0;
#X obj 168 49 inlet;
#X obj 171 82 sel 1 0;
#X obj 202 137 del 50;
#X msg 182 108 stop;
#X obj 204 160 0;
#X obj 173 159 1;
#X obj 183 192 change;
#X obj 187 223 outlet;
#X obj 238 114 r \$0-repiedebtime;
#X connect 0 0 1 0;
#X connect 1 0 3 0;
#X connect 1 0 5 0;
#X connect 1 1 2 0;
#X connect 2 0 4 0;
#X connect 3 0 2 0;
#X connect 4 0 6 0;
#X connect 5 0 6 0;
#X connect 6 0 7 0;
#X connect 8 0 2 1;
#X restore 66 167 pd debounce;
#N canvas 1 81 450 300 debounce 0;
#X obj 168 49 inlet;
#X obj 171 82 sel 1 0;
#X obj 202 137 del 50;
#X msg 182 108 stop;
#X obj 204 160 0;
#X obj 173 159 1;
#X obj 183 192 change;
#X obj 187 223 outlet;
#X obj 238 114 r \$0-repiedebtime;
#X connect 0 0 1 0;
#X connect 1 0 3 0;
#X connect 1 0 5 0;
#X connect 1 1 2 0;
#X connect 2 0 4 0;
#X connect 3 0 2 0;
#X connect 4 0 6 0;
#X connect 5 0 6 0;
#X connect 6 0 7 0;
#X connect 8 0 2 1;
#X restore 153 159 pd debounce;
#N canvas 0 0 450 300 debounce 0;
#X obj 168 49 inlet;
#X obj 171 82 sel 1 0;
#X obj 202 137 del 50;
#X msg 182 108 stop;
#X obj 204 160 0;
#X obj 173 159 1;
#X obj 183 192 change;
#X obj 187 223 outlet;
#X obj 238 114 r \$0-repiedebtime;
#X connect 0 0 1 0;
#X connect 1 0 3 0;
#X connect 1 0 5 0;
#X connect 1 1 2 0;
#X connect 2 0 4 0;
#X connect 3 0 2 0;
#X connect 4 0 6 0;
#X connect 5 0 6 0;
#X connect 6 0 7 0;
#X connect 8 0 2 1;
#X restore 103 138 pd debounce;
#X obj 102 21 fruit/receive Repie;
#X obj 378 249 fruit/send Repie;
#X msg 428 53 50;
#X connect 0 0 14 0;
#X connect 1 0 6 0;
#X connect 2 0 25 0;
#X connect 3 0 21 0;
#X connect 4 0 24 0;
#X connect 5 0 26 0;
#X connect 6 0 3 0;
#X connect 6 1 4 0;
#X connect 6 2 5 0;
#X connect 6 3 2 0;
#X connect 6 5 11 0;
#X connect 6 6 9 0;
#X connect 6 7 10 0;
#X connect 6 8 7 0;
#X connect 12 0 28 0;
#X connect 13 0 28 1;
#X connect 16 0 28 0;
#X connect 17 0 14 0;
#X connect 18 0 14 0;
#X connect 19 0 14 0;
#X connect 20 0 14 0;
#X connect 21 0 18 0;
#X connect 22 0 29 0;
#X connect 24 0 17 0;
#X connect 25 0 19 0;
#X connect 26 0 20 0;
#X connect 27 0 1 0;
#X connect 29 0 23 0;
#X restore 49 188 pd Repie;
#N canvas 72 405 450 300 Roto 0;
#X msg 107 160 1 \$1;
#X msg 143 156 2 \$1;
#X msg 379 147 3 \$1;
#X msg 340 143 4 \$1;
#X msg 254 152 5 \$1;
#X obj 125 35 route s a;
#X obj 149 114 tgl 15 0 empty empty empty 17 7 0 10 #fcfcfc #000000 #000000 0 1;
#X obj 185 117 tgl 15 0 empty empty empty 17 7 0 10 #fcfcfc #000000 #000000 0 1;
#X obj 72 115 tgl 15 0 empty empty empty 17 7 0 10 #fcfcfc #000000 #000000 0 1;
#X obj 113 116 tgl 15 0 empty empty empty 17 7 0 10 #fcfcfc #000000 #000000 0 1;
#X obj 344 121 tgl 15 0 empty empty empty 17 7 0 10 #fcfcfc #000000 #000000 0 1;
#X obj 372 119 tgl 15 0 empty empty empty 17 7 0 10 #fcfcfc #000000 #000000 0 1;
#X obj 257 117 tgl 15 0 empty empty empty 17 7 0 10 #fcfcfc #000000 #000000 0 1;
#X obj 300 121 tgl 15 0 empty empty empty 17 7 0 10 #fcfcfc #000000 #000000 0 1;
#X obj 226 115 tgl 15 0 empty empty empty 17 7 0 10 #fcfcfc #000000 #000000 0 1;
#X msg 300 236 c 3 i 0;
#X msg 374 236 W0;
#X msg 360 205 1.11111e+09;
#X obj 33 116 tgl 15 0 empty empty empty 17 7 0 10 #fcfcfc #000000 #000000 0 1;
#X msg 58 156 7 \$1;
#X msg 19 162 8 \$1;
#X msg 215 148 6 \$1;
#X msg 175 154 0 \$1;
#X msg 336 181 c 3 i 1022;
#X obj 175 252 s \$0-rotob-rcv;
#X obj 124 58 route 0 1 2 3 4 5 6 7 8 9;
#X msg 362 43 c 3 i 3776;
#X msg 287 207 c 3 i 2046;
#X obj 126 10 fruit/receive Roto;
#X obj 20 12 fruit/receive Myo;
#X obj 287 261 fruit/send Roto;
#X connect 0 0 24 0;
#X connect 1 0 24 0;
#X connect 2 0 24 0;
#X connect 3 0 24 0;
#X connect 4 0 24 0;
#X connect 5 0 25 0;
#X connect 6 0 1 0;
#X connect 7 0 22 0;
#X connect 8 0 19 0;
#X connect 9 0 0 0;
#X connect 10 0 3 0;
#X connect 11 0 2 0;
#X connect 12 0 4 0;
#X connect 14 0 21 0;
#X connect 15 0 30 0;
#X connect 16 0 30 1;
#X connect 18 0 20 0;
#X connect 19 0 24 0;
#X connect 20 0 24 0;
#X connect 21 0 24 0;
#X connect 22 0 24 0;
#X connect 25 0 18 0;
#X connect 25 1 8 0;
#X connect 25 2 9 0;
#X connect 25 3 6 0;
#X connect 25 4 7 0;
#X connect 25 5 14 0;
#X connect 25 6 12 0;
#X connect 25 7 13 0;
#X connect 25 8 10 0;
#X connect 25 9 11 0;
#X connect 27 0 30 0;
#X connect 28 0 5 0;
#X restore 50 211 pd Roto;
#N canvas 98 573 450 300 Myo2Rot 0;
#X obj 183 191 s \$0-rotob-rcv;
#X obj 183 112 unpack f f;
#X obj 183 166 pack f f;
#X obj 184 86 spigot;
#X obj 229 84 tgl 15 0 empty empty empty 17 7 0 10 #fcfcfc #000000 #000000 0 1;
#X obj 183 141 - 0;
#X obj 182 52 r \$0-myoso-snd;
#X obj 253 83 r \$0-myo-to-roto;
#X connect 1 0 5 0;
#X connect 1 1 2 1;
#X connect 2 0 0 0;
#X connect 3 0 1 0;
#X connect 4 0 3 1;
#X connect 5 0 2 0;
#X connect 6 0 3 0;
#X connect 7 0 4 0;
#X restore 128 158 pd Myo2Rot;
#X restore 412 28 pd interfguts;
#X obj 343 42 switch~;
#X obj 343 20 tgl 15 1 empty empty on 0 -6 0 8 #fc0400 #000000 #000000 1 1;
#X text 257 97 1;
#X text 255 302 4;
#X obj 272 96 Rotosampleur2/Rotosampleur \$0;
#X obj 505 150 tgl 15 1 empty empty empty 17 7 0 10 #fcfcfc #000000 #000000 0 1;
#X obj 505 169 s \$0-myo-to-roto;
#X obj 271 142 SyllaboCombat/Syllaboratoire \$0;
#X obj 271 231 MyosotisBaroque/Myosotis \$0;
#X obj 412 47 declare -path Fraise;
#X obj 9 11 pied/pied 0 41424;
#X obj 275 324 RepietiteurBar/Repietiteur \$0;
#X obj 10 90 fruit/fruit 1 Roto 50 ClochePied26k22;
#X obj 10 228 fruit/fruit 1 Myo 51 ClochePied26k22;
#X obj 10 149 fruit/fruit 1 Sylla 52 ClochePied26k22;
#X obj 8 289 fruit/fruit 1 Repie 53 ClochePied26k22;
#X obj 97 537 s ClochesMode;
#X obj 272 163 Syllabasse/0master \$0;
#X msg 206 445 Syllabo Combat;
#X msg 197 422 Syllabo Basse;
#X obj 275 345 RepieDrum/0master \$0;
#X msg 355 421 Repie Drum;
#X msg 368 441 Repie Baroque;
#X msg 375 471 Repie Classic;
#X obj 275 303 Repietiteur/Repietiteur \$0;
#X obj 17 575 1TELECO_OSC/TelecoMaster \$0;
#X obj 503 117 r Myososampleur/Myososampleur \$0;
#X obj 271 183 SyllaOrgue/0master \$0;
#X obj 275 365 RepieOrgue/0master \$0;
#X obj 271 252 MyosotisNappe/0master \$0;
#X msg 100 417 Myo Baroque;
#X msg 4 421 Roto Sampleur;
#X msg 108 445 Myo Nappe;
#X msg 212 466 Syllabo Orgue;
#X obj 477 423 pdcontrol;
#X msg 477 397 dir;
#X msg 477 446 symbol \$1/WAVS;
#X obj 477 469 s ClochesWavPath;
#X obj 477 372 loadbang;
#X obj 100 352 loadbang;
#X obj 100 380 del 1;
#X obj 272 116 RotoAmourChanson/RotoAmour \$0;
#X msg 5 452 Roto Amour;
#X obj 275 386 RepieAmourAnimo/RepieAmour \$0;
#X msg 389 496 Repie Amour;
#X obj 76 352 bng 18 250 50 0 empty empty empty 0 -9 0 10 #fcfcfc #000000 #000000;
#X obj 271 272 MyoAmourFilm/MyoAmour \$0;
#X msg 116 475 Myo Amour;
#X obj 507 275 tgl 30 0 Monitor12 Monitor12 Monitor12 0 -9 0 12 #fcfcfc #000000 #000000 0 1;
#X obj 271 204 SyllaAmourBruits/SyllaAmour \$0;
#X msg 221 494 Syllabo Amour;
#X obj 593 276 tgl 30 0 ClochesMono ClochesMono ClochesMono 0 -9 0 12 #fcfcfc #000000 #000000 0 1;
#X text 242 119 1-2;
#X text 243 177 3-4;
#X text 243 260 5-6;
#X text 242 345 7-8;
#X text 253 164 2;
#X text 257 243 3;
#X connect 3 0 2 0;
#X connect 7 0 8 0;
#X connect 20 0 18 0;
#X connect 21 0 18 0;
#X connect 23 0 18 0;
#X connect 24 0 18 0;
#X connect 25 0 18 0;
#X connect 32 0 18 0;
#X connect 33 0 18 0;
#X connect 34 0 18 0;
#X connect 35 0 18 0;
#X connect 36 0 38 0;
#X connect 37 0 36 0;
#X connect 38 0 39 0;
#X connect 40 0 37 0;
#X connect 41 0 42 0;
#X connect 42 0 44 0;
#X connect 42 0 46 0;
#X connect 42 0 49 0;
#X connect 42 0 52 0;
#X connect 44 0 18 0;
#X connect 46 0 18 0;
#X connect 47 0 42 0;
#X connect 49 0 18 0;
#X connect 52 0 18 0;
#X coords 0 0 1 1 150 240 0;
