#N canvas 0 -2 188 181 10;
#N canvas 18 18 265 293 debounce8 0;
#X obj 24 38 route 0 1 2 3 4 5 6 7;
#X msg 24 106 1 \$1;
#X msg 42 131 2 \$1;
#X msg 76 152 3 \$1;
#X msg 116 210 4 \$1;
#X msg 5 79 0 \$1;
#X msg 139 191 5 \$1;
#X msg 151 172 6 \$1;
#X msg 169 153 7 \$1;
#N canvas 211 32 206 281 debounce1 0;
#X obj 69 49 inlet;
#X obj 111 245 outlet;
#X obj 82 112 sel 0 1;
#X obj 82 165 del 50;
#X obj 132 165 del 250;
#X msg 92 141 stop;
#X msg 135 142 stop;
#X msg 82 185 0;
#X msg 132 186 1;
#X obj 109 214 change;
#X obj 92 74 r \$0-deb0time;
#X obj 138 92 r \$0-deb1time;
#X connect 0 0 2 0;
#X connect 2 0 3 0;
#X connect 2 0 5 0;
#X connect 2 1 4 0;
#X connect 2 1 6 0;
#X connect 3 0 7 0;
#X connect 4 0 8 0;
#X connect 5 0 4 0;
#X connect 6 0 3 0;
#X connect 7 0 9 0;
#X connect 8 0 9 0;
#X connect 9 0 1 0;
#X connect 10 0 3 1;
#X connect 11 0 4 1;
#X restore 24 60 pd debounce1;
#N canvas 211 32 206 281 debounce1 0;
#X obj 86 57 inlet;
#X obj 111 245 outlet;
#X obj 82 112 sel 0 1;
#X obj 82 165 del 50;
#X obj 132 165 del 250;
#X msg 92 141 stop;
#X msg 135 142 stop;
#X msg 82 185 0;
#X msg 132 186 1;
#X obj 109 214 change;
#X obj 92 74 r \$0-deb0time;
#X obj 138 92 r \$0-deb1time;
#X connect 0 0 2 0;
#X connect 2 0 3 0;
#X connect 2 0 5 0;
#X connect 2 1 4 0;
#X connect 2 1 6 0;
#X connect 3 0 7 0;
#X connect 4 0 8 0;
#X connect 5 0 4 0;
#X connect 6 0 3 0;
#X connect 7 0 9 0;
#X connect 8 0 9 0;
#X connect 9 0 1 0;
#X connect 10 0 3 1;
#X connect 11 0 4 1;
#X restore 40 83 pd debounce1;
#N canvas 211 32 206 281 debounce1 0;
#X obj 86 57 inlet;
#X obj 111 245 outlet;
#X obj 82 112 sel 0 1;
#X obj 82 165 del 50;
#X obj 132 165 del 250;
#X msg 92 141 stop;
#X msg 135 142 stop;
#X msg 82 185 0;
#X msg 132 186 1;
#X obj 109 214 change;
#X obj 97 82 r \$0-deb0time;
#X obj 143 100 r \$0-deb1time;
#X connect 0 0 2 0;
#X connect 2 0 3 0;
#X connect 2 0 5 0;
#X connect 2 1 4 0;
#X connect 2 1 6 0;
#X connect 3 0 7 0;
#X connect 4 0 8 0;
#X connect 5 0 4 0;
#X connect 6 0 3 0;
#X connect 7 0 9 0;
#X connect 8 0 9 0;
#X connect 9 0 1 0;
#X connect 10 0 3 1;
#X connect 11 0 4 1;
#X restore 63 107 pd debounce1;
#N canvas 211 32 206 281 debounce1 0;
#X obj 86 57 inlet;
#X obj 111 245 outlet;
#X obj 82 112 sel 0 1;
#X obj 82 165 del 50;
#X obj 132 165 del 250;
#X msg 92 141 stop;
#X msg 135 142 stop;
#X msg 82 185 0;
#X msg 132 186 1;
#X obj 109 214 change;
#X obj 109 86 r \$0-deb0time;
#X obj 155 104 r \$0-deb1time;
#X connect 0 0 2 0;
#X connect 2 0 3 0;
#X connect 2 0 5 0;
#X connect 2 1 4 0;
#X connect 2 1 6 0;
#X connect 3 0 7 0;
#X connect 4 0 8 0;
#X connect 5 0 4 0;
#X connect 6 0 3 0;
#X connect 7 0 9 0;
#X connect 8 0 9 0;
#X connect 9 0 1 0;
#X connect 10 0 3 1;
#X connect 11 0 4 1;
#X restore 79 130 pd debounce1;
#N canvas 211 32 206 281 debounce1 0;
#X obj 86 57 inlet;
#X obj 111 245 outlet;
#X obj 82 112 sel 0 1;
#X obj 82 165 del 50;
#X obj 132 165 del 250;
#X msg 92 141 stop;
#X msg 135 142 stop;
#X msg 82 185 0;
#X msg 132 186 1;
#X obj 109 214 change;
#X obj 109 91 r \$0-deb0time;
#X obj 155 109 r \$0-deb1time;
#X connect 0 0 2 0;
#X connect 2 0 3 0;
#X connect 2 0 5 0;
#X connect 2 1 4 0;
#X connect 2 1 6 0;
#X connect 3 0 7 0;
#X connect 4 0 8 0;
#X connect 5 0 4 0;
#X connect 6 0 3 0;
#X connect 7 0 9 0;
#X connect 8 0 9 0;
#X connect 9 0 1 0;
#X connect 10 0 3 1;
#X connect 11 0 4 1;
#X restore 113 61 pd debounce1;
#N canvas 211 32 206 281 debounce1 0;
#X obj 86 57 inlet;
#X obj 111 245 outlet;
#X obj 82 112 sel 0 1;
#X obj 82 165 del 50;
#X obj 132 165 del 250;
#X msg 92 141 stop;
#X msg 135 142 stop;
#X msg 82 185 0;
#X msg 132 186 1;
#X obj 109 214 change;
#X obj 105 88 r \$0-deb0time;
#X obj 151 106 r \$0-deb1time;
#X connect 0 0 2 0;
#X connect 2 0 3 0;
#X connect 2 0 5 0;
#X connect 2 1 4 0;
#X connect 2 1 6 0;
#X connect 3 0 7 0;
#X connect 4 0 8 0;
#X connect 5 0 4 0;
#X connect 6 0 3 0;
#X connect 7 0 9 0;
#X connect 8 0 9 0;
#X connect 9 0 1 0;
#X connect 10 0 3 1;
#X connect 11 0 4 1;
#X restore 129 84 pd debounce1;
#N canvas 211 32 206 281 debounce1 0;
#X obj 86 57 inlet;
#X obj 111 245 outlet;
#X obj 82 112 sel 0 1;
#X obj 82 165 del 50;
#X obj 132 165 del 250;
#X msg 92 141 stop;
#X msg 135 142 stop;
#X msg 82 185 0;
#X msg 132 186 1;
#X obj 109 214 change;
#X obj 102 92 r \$0-deb0time;
#X obj 148 110 r \$0-deb1time;
#X connect 0 0 2 0;
#X connect 2 0 3 0;
#X connect 2 0 5 0;
#X connect 2 1 4 0;
#X connect 2 1 6 0;
#X connect 3 0 7 0;
#X connect 4 0 8 0;
#X connect 5 0 4 0;
#X connect 6 0 3 0;
#X connect 7 0 9 0;
#X connect 8 0 9 0;
#X connect 9 0 1 0;
#X connect 10 0 3 1;
#X connect 11 0 4 1;
#X restore 152 108 pd debounce1;
#N canvas 211 32 206 281 debounce1 0;
#X obj 86 57 inlet;
#X obj 111 245 outlet;
#X obj 82 112 sel 0 1;
#X obj 82 165 del 50;
#X obj 132 165 del 250;
#X msg 92 141 stop;
#X msg 135 142 stop;
#X msg 82 185 0;
#X msg 132 186 1;
#X obj 109 214 change;
#X obj 99 89 r \$0-deb0time;
#X obj 145 107 r \$0-deb1time;
#X connect 0 0 2 0;
#X connect 2 0 3 0;
#X connect 2 0 5 0;
#X connect 2 1 4 0;
#X connect 2 1 6 0;
#X connect 3 0 7 0;
#X connect 4 0 8 0;
#X connect 5 0 4 0;
#X connect 6 0 3 0;
#X connect 7 0 9 0;
#X connect 8 0 9 0;
#X connect 9 0 1 0;
#X connect 10 0 3 1;
#X connect 11 0 4 1;
#X restore 168 131 pd debounce1;
#X obj 24 12 inlet;
#X obj 74 269 outlet;
#X connect 0 0 9 0;
#X connect 0 1 10 0;
#X connect 0 2 11 0;
#X connect 0 3 12 0;
#X connect 0 4 13 0;
#X connect 0 5 14 0;
#X connect 0 6 15 0;
#X connect 0 7 16 0;
#X connect 1 0 18 0;
#X connect 2 0 18 0;
#X connect 3 0 18 0;
#X connect 4 0 18 0;
#X connect 5 0 18 0;
#X connect 6 0 18 0;
#X connect 7 0 18 0;
#X connect 8 0 18 0;
#X connect 9 0 5 0;
#X connect 10 0 1 0;
#X connect 11 0 2 0;
#X connect 12 0 3 0;
#X connect 13 0 4 0;
#X connect 14 0 6 0;
#X connect 15 0 7 0;
#X connect 16 0 8 0;
#X connect 17 0 0 0;
#X restore 31 105 pd debounce8;
#N canvas 18 18 265 293 debounce8 0;
#X obj 24 38 route 0 1 2 3 4 5 6 7;
#X msg 24 106 1 \$1;
#X msg 42 131 2 \$1;
#X msg 76 152 3 \$1;
#X msg 116 210 4 \$1;
#X msg 5 79 0 \$1;
#X msg 139 191 5 \$1;
#X msg 151 172 6 \$1;
#X msg 169 153 7 \$1;
#N canvas 211 32 206 281 debounce1 0;
#X obj 69 49 inlet;
#X obj 111 245 outlet;
#X obj 82 112 sel 0 1;
#X obj 82 165 del 50;
#X obj 132 165 del 250;
#X msg 92 141 stop;
#X msg 135 142 stop;
#X msg 82 185 0;
#X msg 132 186 1;
#X obj 109 214 change;
#X obj 92 74 r \$0-deb0time;
#X obj 138 92 r \$0-deb1time;
#X connect 0 0 2 0;
#X connect 2 0 3 0;
#X connect 2 0 5 0;
#X connect 2 1 4 0;
#X connect 2 1 6 0;
#X connect 3 0 7 0;
#X connect 4 0 8 0;
#X connect 5 0 4 0;
#X connect 6 0 3 0;
#X connect 7 0 9 0;
#X connect 8 0 9 0;
#X connect 9 0 1 0;
#X connect 10 0 3 1;
#X connect 11 0 4 1;
#X restore 24 60 pd debounce1;
#N canvas 211 32 206 281 debounce1 0;
#X obj 86 57 inlet;
#X obj 111 245 outlet;
#X obj 82 112 sel 0 1;
#X obj 82 165 del 50;
#X obj 132 165 del 250;
#X msg 92 141 stop;
#X msg 135 142 stop;
#X msg 82 185 0;
#X msg 132 186 1;
#X obj 109 214 change;
#X obj 92 74 r \$0-deb0time;
#X obj 138 92 r \$0-deb1time;
#X connect 0 0 2 0;
#X connect 2 0 3 0;
#X connect 2 0 5 0;
#X connect 2 1 4 0;
#X connect 2 1 6 0;
#X connect 3 0 7 0;
#X connect 4 0 8 0;
#X connect 5 0 4 0;
#X connect 6 0 3 0;
#X connect 7 0 9 0;
#X connect 8 0 9 0;
#X connect 9 0 1 0;
#X connect 10 0 3 1;
#X connect 11 0 4 1;
#X restore 40 83 pd debounce1;
#N canvas 211 32 206 281 debounce1 0;
#X obj 86 57 inlet;
#X obj 111 245 outlet;
#X obj 82 112 sel 0 1;
#X obj 82 165 del 50;
#X obj 132 165 del 250;
#X msg 92 141 stop;
#X msg 135 142 stop;
#X msg 82 185 0;
#X msg 132 186 1;
#X obj 109 214 change;
#X obj 97 82 r \$0-deb0time;
#X obj 143 100 r \$0-deb1time;
#X connect 0 0 2 0;
#X connect 2 0 3 0;
#X connect 2 0 5 0;
#X connect 2 1 4 0;
#X connect 2 1 6 0;
#X connect 3 0 7 0;
#X connect 4 0 8 0;
#X connect 5 0 4 0;
#X connect 6 0 3 0;
#X connect 7 0 9 0;
#X connect 8 0 9 0;
#X connect 9 0 1 0;
#X connect 10 0 3 1;
#X connect 11 0 4 1;
#X restore 63 107 pd debounce1;
#N canvas 211 32 206 281 debounce1 0;
#X obj 86 57 inlet;
#X obj 111 245 outlet;
#X obj 82 112 sel 0 1;
#X obj 82 165 del 50;
#X obj 132 165 del 250;
#X msg 92 141 stop;
#X msg 135 142 stop;
#X msg 82 185 0;
#X msg 132 186 1;
#X obj 109 214 change;
#X obj 109 86 r \$0-deb0time;
#X obj 155 104 r \$0-deb1time;
#X connect 0 0 2 0;
#X connect 2 0 3 0;
#X connect 2 0 5 0;
#X connect 2 1 4 0;
#X connect 2 1 6 0;
#X connect 3 0 7 0;
#X connect 4 0 8 0;
#X connect 5 0 4 0;
#X connect 6 0 3 0;
#X connect 7 0 9 0;
#X connect 8 0 9 0;
#X connect 9 0 1 0;
#X connect 10 0 3 1;
#X connect 11 0 4 1;
#X restore 79 130 pd debounce1;
#N canvas 211 32 206 281 debounce1 0;
#X obj 86 57 inlet;
#X obj 111 245 outlet;
#X obj 82 112 sel 0 1;
#X obj 82 165 del 50;
#X obj 132 165 del 250;
#X msg 92 141 stop;
#X msg 135 142 stop;
#X msg 82 185 0;
#X msg 132 186 1;
#X obj 109 214 change;
#X obj 109 91 r \$0-deb0time;
#X obj 155 109 r \$0-deb1time;
#X connect 0 0 2 0;
#X connect 2 0 3 0;
#X connect 2 0 5 0;
#X connect 2 1 4 0;
#X connect 2 1 6 0;
#X connect 3 0 7 0;
#X connect 4 0 8 0;
#X connect 5 0 4 0;
#X connect 6 0 3 0;
#X connect 7 0 9 0;
#X connect 8 0 9 0;
#X connect 9 0 1 0;
#X connect 10 0 3 1;
#X connect 11 0 4 1;
#X restore 113 61 pd debounce1;
#N canvas 211 32 206 281 debounce1 0;
#X obj 86 57 inlet;
#X obj 111 245 outlet;
#X obj 82 112 sel 0 1;
#X obj 82 165 del 50;
#X obj 132 165 del 250;
#X msg 92 141 stop;
#X msg 135 142 stop;
#X msg 82 185 0;
#X msg 132 186 1;
#X obj 109 214 change;
#X obj 105 88 r \$0-deb0time;
#X obj 151 106 r \$0-deb1time;
#X connect 0 0 2 0;
#X connect 2 0 3 0;
#X connect 2 0 5 0;
#X connect 2 1 4 0;
#X connect 2 1 6 0;
#X connect 3 0 7 0;
#X connect 4 0 8 0;
#X connect 5 0 4 0;
#X connect 6 0 3 0;
#X connect 7 0 9 0;
#X connect 8 0 9 0;
#X connect 9 0 1 0;
#X connect 10 0 3 1;
#X connect 11 0 4 1;
#X restore 129 84 pd debounce1;
#N canvas 211 32 206 281 debounce1 0;
#X obj 86 57 inlet;
#X obj 111 245 outlet;
#X obj 82 112 sel 0 1;
#X obj 82 165 del 50;
#X obj 132 165 del 250;
#X msg 92 141 stop;
#X msg 135 142 stop;
#X msg 82 185 0;
#X msg 132 186 1;
#X obj 109 214 change;
#X obj 102 92 r \$0-deb0time;
#X obj 148 110 r \$0-deb1time;
#X connect 0 0 2 0;
#X connect 2 0 3 0;
#X connect 2 0 5 0;
#X connect 2 1 4 0;
#X connect 2 1 6 0;
#X connect 3 0 7 0;
#X connect 4 0 8 0;
#X connect 5 0 4 0;
#X connect 6 0 3 0;
#X connect 7 0 9 0;
#X connect 8 0 9 0;
#X connect 9 0 1 0;
#X connect 10 0 3 1;
#X connect 11 0 4 1;
#X restore 152 108 pd debounce1;
#N canvas 211 32 206 281 debounce1 0;
#X obj 86 57 inlet;
#X obj 111 245 outlet;
#X obj 82 112 sel 0 1;
#X obj 82 165 del 50;
#X obj 132 165 del 250;
#X msg 92 141 stop;
#X msg 135 142 stop;
#X msg 82 185 0;
#X msg 132 186 1;
#X obj 109 214 change;
#X obj 99 89 r \$0-deb0time;
#X obj 145 107 r \$0-deb1time;
#X connect 0 0 2 0;
#X connect 2 0 3 0;
#X connect 2 0 5 0;
#X connect 2 1 4 0;
#X connect 2 1 6 0;
#X connect 3 0 7 0;
#X connect 4 0 8 0;
#X connect 5 0 4 0;
#X connect 6 0 3 0;
#X connect 7 0 9 0;
#X connect 8 0 9 0;
#X connect 9 0 1 0;
#X connect 10 0 3 1;
#X connect 11 0 4 1;
#X restore 168 131 pd debounce1;
#X obj 24 12 inlet;
#X obj 74 269 outlet;
#X connect 0 0 9 0;
#X connect 0 1 10 0;
#X connect 0 2 11 0;
#X connect 0 3 12 0;
#X connect 0 4 13 0;
#X connect 0 5 14 0;
#X connect 0 6 15 0;
#X connect 0 7 16 0;
#X connect 1 0 18 0;
#X connect 2 0 18 0;
#X connect 3 0 18 0;
#X connect 4 0 18 0;
#X connect 5 0 18 0;
#X connect 6 0 18 0;
#X connect 7 0 18 0;
#X connect 8 0 18 0;
#X connect 9 0 5 0;
#X connect 10 0 1 0;
#X connect 11 0 2 0;
#X connect 12 0 3 0;
#X connect 13 0 4 0;
#X connect 14 0 6 0;
#X connect 15 0 7 0;
#X connect 16 0 8 0;
#X connect 17 0 0 0;
#X restore 63 72 pd debounce8;
