#N canvas 406 193 372 204 10;
#X obj 28 16 r \$1-initcollectnameb;
#X obj 28 173 s \$1-initcollectname;
#X obj 58 128 symbol \$3;
#X obj 127 128 symbol \$4;
#X obj 28 85 f \$2;
#X obj 28 106 t f b;
#X obj 28 150 pack f s s;
#X obj 75 59 symbol \$4;
#X obj 28 58 t b b;
#X obj 194 18 r \$1-collecs_faire_choix;
#X obj 194 43 route \$2;
#N canvas 271 37 503 345 faire_choix 0;
#X obj 229 292 slist;
#X obj 272 292 r \$0-choix-ln;
#X obj 129 190 shuffle 1 10 0.5;
#X msg 129 168 1;
#X obj 84 97 slist;
#X obj 113 75 r \$0-ln;
#X msg 84 75 len;
#X obj 129 147 t b f;
#X obj 45 48 t b f b;
#X obj 35 162 until;
#X obj 35 140 clip 1 30000;
#X floatatom 190 159 5 0 0 0 - - -;
#X obj 388 72 print;
#X msg 15 45 10;
#X obj 214 248 slist;
#X obj 252 248 r \$0-ln;
#X obj 38 222 slist;
#X obj 76 222 r \$0-len-ln;
#X obj 53 253 s2f;
#X obj 53 277 +;
#X obj 80 277 f;
#X floatatom 53 298 5 0 0 0 - - -;
#X msg 80 256 0;
#X msg 229 271 add \$1;
#X obj 7 313 s \$1-collecs_accu_choix_len;
#X obj 211 316 s \$1-collecs_accu_choix_list;
#X msg 316 252 reset;
#X obj 114 119 + 1;
#X msg 277 160 add phrase \$1;
#X obj 277 138 symbol \$4;
#X msg 301 207 add num \$1;
#X obj 277 185 s \$1-collecs_accu_choix_list2;
#X floatatom 8 193 5 0 0 0 - - -;
#X obj 45 10 inlet;
#X connect 1 0 0 0;
#X connect 2 0 14 0;
#X connect 2 0 16 0;
#X connect 3 0 2 0;
#X connect 4 2 7 0;
#X connect 4 2 11 0;
#X connect 4 2 27 0;
#X connect 5 0 4 0;
#X connect 6 0 4 0;
#X connect 7 0 3 0;
#X connect 7 1 2 1;
#X connect 8 1 10 0;
#X connect 8 2 6 0;
#X connect 8 2 22 0;
#X connect 8 2 26 0;
#X connect 8 2 29 0;
#X connect 9 0 2 0;
#X connect 9 0 32 0;
#X connect 10 0 9 0;
#X connect 13 0 8 0;
#X connect 14 1 23 0;
#X connect 14 1 25 0;
#X connect 14 1 30 0;
#X connect 15 0 14 0;
#X connect 16 1 18 0;
#X connect 17 0 16 0;
#X connect 18 0 19 0;
#X connect 18 0 24 0;
#X connect 19 0 20 0;
#X connect 19 0 21 0;
#X connect 20 0 19 1;
#X connect 22 0 20 0;
#X connect 23 0 0 0;
#X connect 26 0 0 0;
#X connect 27 0 10 2;
#X connect 28 0 31 0;
#X connect 29 0 28 0;
#X connect 30 0 31 0;
#X connect 33 0 8 0;
#X restore 194 64 pd faire_choix;
#N canvas 60 107 363 391 init-lists 0;
#X obj 8 43 bng 15 250 50 0 empty empty empty 0 -6 0 8 -262144 -1 -1
;
#X msg 117 202 print;
#X msg 33 92 reset;
#X obj 33 8 inlet;
#X obj 96 224 slist;
#X msg 96 181 setlist \$1;
#X obj 128 119 symbol \$3;
#X obj 96 119 f \$1;
#X obj 96 98 t b b;
#X obj 96 140 pack f s;
#X obj 96 160 makesymbol %s-%s;
#X msg 224 134 setlist \$1;
#X obj 224 113 makesymbol %s-len;
#X msg 245 158 print;
#X obj 224 180 slist;
#X msg 40 295 setlist \$1;
#X msg 56 317 print;
#X obj 40 341 slist;
#X obj 40 274 makesymbol %s-choix;
#X obj 205 209 s \$0-len-ln;
#X obj 85 248 s \$0-ln;
#X obj 28 361 s \$0-choix-ln;
#X obj 202 327 slist;
#X obj 240 327 r \$0-ln;
#X obj 216 290 slist;
#X obj 254 290 r \$0-len-ln;
#X obj 142 55 bng 15 250 50 0 empty empty empty 0 -6 0 8 -262144 -1
-1;
#X msg 217 267 print;
#X obj 33 65 t b b;
#X connect 0 0 28 0;
#X connect 1 0 4 0;
#X connect 2 0 4 0;
#X connect 3 0 28 0;
#X connect 5 0 4 0;
#X connect 5 0 20 0;
#X connect 6 0 9 1;
#X connect 7 0 9 0;
#X connect 8 0 7 0;
#X connect 8 1 6 0;
#X connect 9 0 10 0;
#X connect 10 0 5 0;
#X connect 10 0 12 0;
#X connect 10 0 18 0;
#X connect 11 0 14 0;
#X connect 11 0 19 0;
#X connect 12 0 11 0;
#X connect 13 0 14 0;
#X connect 15 0 17 0;
#X connect 15 0 21 0;
#X connect 16 0 17 0;
#X connect 18 0 15 0;
#X connect 23 0 22 0;
#X connect 25 0 24 0;
#X connect 26 0 8 0;
#X connect 28 0 2 0;
#X connect 28 1 8 0;
#X restore 75 80 pd init-lists;
#X connect 0 0 8 0;
#X connect 2 0 6 1;
#X connect 3 0 6 2;
#X connect 4 0 5 0;
#X connect 5 0 6 0;
#X connect 5 1 2 0;
#X connect 5 1 3 0;
#X connect 6 0 1 0;
#X connect 7 0 12 0;
#X connect 8 0 4 0;
#X connect 8 1 7 0;
#X connect 9 0 10 0;
#X connect 10 0 11 0;
