#N canvas 33 190 158 119 10;
#N canvas 218 166 464 275 crisdir 0;
#X obj 19 11 subbang;
#X obj 19 73 nifs;
#X msg 19 34 show;
#X symbolatom 42 179 0 0 0 0 - - -;
#X obj 80 34 bng 15 250 50 0 empty empty empty 0 -6 0 8 -262144 -1
-1;
#X obj 80 11 subbang gray;
#X obj 28 94 basedir;
#X msg 28 113 symbol \$2/;
#X msg 19 236 goto \$1 \, bang;
#X obj 47 201 subsymbol /home/toto/Shout/Cris/00001_court52.wav 1;
#X obj 181 12 r \$0-chargersons-snd;
#X obj 108 143 s \$1-realcri_dir;
#X obj 246 63 loadbang;
#X obj 246 111 s \$1-cri_dir;
#X msg 246 86 symbol /mnt/ram/Shout/Cris/;
#X obj 182 33 r \$0-rechargersons-snd;
#X connect 0 0 2 0;
#X connect 1 0 6 0;
#X connect 1 0 9 0;
#X connect 2 0 1 0;
#X connect 4 0 1 0;
#X connect 4 0 14 0;
#X connect 5 0 4 0;
#X connect 6 0 7 0;
#X connect 7 0 3 0;
#X connect 7 0 11 0;
#X connect 8 0 1 0;
#X connect 9 0 8 0;
#X connect 10 0 4 0;
#X connect 12 0 14 0;
#X connect 14 0 13 0;
#X connect 15 0 4 0;
#X restore 4 66 pd crisdir;
#N canvas 0 0 310 285 collecs 0;
#X obj 5 47 hcolname \$1 127 CRI cri;
#X obj 5 8 hcolname \$1 74 jetaime long14;
#X obj 5 27 hcolname \$1 75 jevousdeteste long15;
#X obj 5 67 hcolname \$1 73 silvousplait long13;
#X obj 5 87 hcolname \$1 76 jaipasltemps long16;
#X obj 5 110 hcolname \$1 21 diing court24;
#X obj 5 129 hcolname \$1 22 dong court25;
#X obj 5 148 hcolname \$1 23 dingu court26;
#X restore 4 25 pd collecs;
#N canvas 194 84 418 418 guts 0;
#X obj 7 37 unpack f s s;
#X obj 7 65 pack f s;
#X obj 188 64 pack f s;
#X msg 7 86 set \$1 \$2;
#X msg 188 84 set \$1 \$2;
#X msg 85 85 print;
#X msg 262 84 print;
#X obj 22 159 bng 15 250 50 0 empty empty empty 0 -6 0 8 -262144 -1
-1;
#X obj 171 11 loadbang;
#X obj 171 33 s \$1-initcollectnameb;
#X obj 7 18 r \$1-initcollectname;
#X obj 8 105 sarray \$1-collecnames 128;
#X obj 188 105 sarray \$1-collecfilenames 128;
#N canvas 0 45 632 560 loadcollec_list 0;
#X obj 56 74 textfile;
#X obj 56 99 t b a;
#X obj 11 98 del 1;
#X msg 56 51 read cris_list.txt cr \, rewind \, bang;
#X obj 86 120 route phrase num;
#X obj 86 219 sarray \$1-collecfilenames 128;
#X obj 321 308 sarray \$1-collecnames 128;
#X msg 86 199 find \$1;
#X obj 86 149 symbol;
#X obj 86 175 t s s;
#X obj 284 262 sel -1;
#X msg 207 392 add \$1;
#X obj 207 329 pack s s;
#X obj 207 369 makesymbol %s_%s.wav;
#X msg 207 349 list \$1 \$2;
#X msg 386 436 setlist \$1;
#X obj 386 374 f \$1;
#X obj 386 395 pack f s;
#X obj 386 415 makesymbol %s-%s;
#X msg 321 288 get \$1;
#X obj 386 353 t b s;
#X obj 207 413 slist;
#X obj 207 286 spigot;
#X obj 284 239 t f f;
#X obj 244 264 != -1;
#X obj 321 330 route bang;
#X obj 56 13 inlet;
#X obj 150 150 unpack f f;
#X msg 177 475 setlist \$1;
#X obj 110 307 / 1000;
#X obj 110 327 + 0.5;
#X obj 110 347 i;
#X obj 177 455 makesymbol %s-len;
#X msg 110 390 add \$1;
#X obj 110 368 makesymbol %s;
#X obj 110 412 slist;
#X symbolatom 75 518 30 0 0 0 - - -;
#X obj 410 144 outlet;
#X msg 268 192 print;
#X symbolatom 518 531 10 0 0 0 - - -;
#X msg 518 395 78690;
#N canvas 549 0 347 340 val-to-symbol 0;
#X floatatom 251 8 0 0 0 0 - - -;
#X floatatom 251 57 0 0 0 0 - - -;
#X obj 251 33 exp;
#X obj 285 33 bng 15 250 50 0 empty empty empty 0 -6 0 8 -262144 -1
-1;
#X symbolatom 209 279 10 0 0 0 - - -;
#X floatatom 194 25 5 0 0 0 - - -;
#X obj 191 42 * 100;
#X obj 209 298 s2f;
#X floatatom 209 320 5 0 0 0 - - -;
#X obj 20 30 i;
#X obj 20 49 clip 0 99999;
#X obj 20 9 inlet;
#X obj 32 309 outlet;
#X obj 20 68 t f f f f f;
#X obj 222 146 makesymbol %s;
#X obj 20 259 pack s s s s s;
#X obj 20 279 makesymbol %s%s%s%s%s;
#X obj 175 168 makesymbol %s;
#X obj 125 189 makesymbol %s;
#X obj 74 211 makesymbol %s;
#X obj 20 232 makesymbol %s;
#X obj 222 127 mod 10;
#X obj 222 107 / 1;
#X obj 175 128 / 10;
#X obj 175 148 mod 10;
#X obj 125 169 mod 10;
#X obj 125 149 / 100;
#X obj 74 192 mod 10;
#X obj 74 172 / 1000;
#X obj 20 212 mod 10;
#X obj 20 192 / 10000;
#X connect 0 0 2 0;
#X connect 2 0 1 0;
#X connect 3 0 1 0;
#X connect 4 0 7 0;
#X connect 5 0 6 0;
#X connect 6 0 1 0;
#X connect 7 0 8 0;
#X connect 9 0 10 0;
#X connect 10 0 13 0;
#X connect 11 0 9 0;
#X connect 13 0 30 0;
#X connect 13 1 28 0;
#X connect 13 2 26 0;
#X connect 13 3 23 0;
#X connect 13 4 22 0;
#X connect 14 0 15 4;
#X connect 15 0 16 0;
#X connect 16 0 12 0;
#X connect 17 0 15 3;
#X connect 18 0 15 2;
#X connect 19 0 15 1;
#X connect 20 0 15 0;
#X connect 21 0 14 0;
#X connect 22 0 21 0;
#X connect 23 0 24 0;
#X connect 24 0 17 0;
#X connect 25 0 18 0;
#X connect 26 0 25 0;
#X connect 27 0 19 0;
#X connect 28 0 27 0;
#X connect 29 0 20 0;
#X connect 30 0 29 0;
#X restore 497 460 pd val-to-symbol;
#N canvas 549 0 347 340 val-to-symbol 0;
#X floatatom 251 8 0 0 0 0 - - -;
#X floatatom 251 57 0 0 0 0 - - -;
#X obj 251 33 exp;
#X obj 285 33 bng 15 250 50 0 empty empty empty 0 -6 0 8 -262144 -1
-1;
#X symbolatom 209 279 10 0 0 0 - - -;
#X floatatom 194 25 5 0 0 0 - - -;
#X obj 191 42 * 100;
#X obj 209 298 s2f;
#X floatatom 209 320 5 0 0 0 - - -;
#X obj 20 30 i;
#X obj 20 49 clip 0 99999;
#X obj 20 9 inlet;
#X obj 32 309 outlet;
#X obj 20 68 t f f f f f;
#X obj 222 146 makesymbol %s;
#X obj 20 259 pack s s s s s;
#X obj 20 279 makesymbol %s%s%s%s%s;
#X obj 175 168 makesymbol %s;
#X obj 125 189 makesymbol %s;
#X obj 74 211 makesymbol %s;
#X obj 20 232 makesymbol %s;
#X obj 222 127 mod 10;
#X obj 222 107 / 1;
#X obj 175 128 / 10;
#X obj 175 148 mod 10;
#X obj 125 169 mod 10;
#X obj 125 149 / 100;
#X obj 74 192 mod 10;
#X obj 74 172 / 1000;
#X obj 20 212 mod 10;
#X obj 20 192 / 10000;
#X connect 0 0 2 0;
#X connect 2 0 1 0;
#X connect 3 0 1 0;
#X connect 4 0 7 0;
#X connect 5 0 6 0;
#X connect 6 0 1 0;
#X connect 7 0 8 0;
#X connect 9 0 10 0;
#X connect 10 0 13 0;
#X connect 11 0 9 0;
#X connect 13 0 30 0;
#X connect 13 1 28 0;
#X connect 13 2 26 0;
#X connect 13 3 23 0;
#X connect 13 4 22 0;
#X connect 14 0 15 4;
#X connect 15 0 16 0;
#X connect 16 0 12 0;
#X connect 17 0 15 3;
#X connect 18 0 15 2;
#X connect 19 0 15 1;
#X connect 20 0 15 0;
#X connect 21 0 14 0;
#X connect 22 0 21 0;
#X connect 23 0 24 0;
#X connect 24 0 17 0;
#X connect 25 0 18 0;
#X connect 26 0 25 0;
#X connect 27 0 19 0;
#X connect 28 0 27 0;
#X connect 29 0 20 0;
#X connect 30 0 29 0;
#X restore 207 308 pd val-to-symbol;
#N canvas 338 63 450 463 val-to-symbol-BUG 0;
#X floatatom 100 29 0 0 0 0 - - -;
#X floatatom 100 78 0 0 0 0 - - -;
#X obj 100 54 exp;
#X floatatom 242 234 0 0 0 0 - - -;
#X obj 200 283 dripchar;
#X obj 200 350 makesymbol %s;
#X obj 199 261 makesymbol;
#X obj 134 54 bng 15 250 50 0 empty empty empty 0 -6 0 8 -262144 -1
-1;
#X msg 299 349 symbol \$1%s;
#X obj 200 329 drip;
#X msg 296 321 symbol %s;
#X obj 135 307 unwonk s s;
#X obj 177 237 t b f b;
#X obj 163 373 symbol;
#X symbolatom 61 386 10 0 0 0 - - -;
#X obj 177 213 + 1;
#X obj 24 98 + 0.1;
#X obj 177 169 | 1;
#X obj 177 192 / 100000;
#X floatatom 43 46 5 0 0 0 - - -;
#X obj 40 63 * 100;
#X obj 61 405 s2f;
#X floatatom 61 427 5 0 0 0 - - -;
#X obj 211 90 / 10;
#X obj 211 110 i;
#X obj 211 129 * 10;
#X obj 193 148 ==;
#X obj 168 70 t f f f;
#X obj 168 32 i;
#X obj 168 51 clip 0 99999;
#X obj 167 13 inlet;
#X obj 163 394 outlet;
#X connect 0 0 2 0;
#X connect 1 0 28 0;
#X connect 2 0 1 0;
#X connect 4 0 11 0;
#X connect 5 0 8 0;
#X connect 5 0 13 1;
#X connect 6 0 4 0;
#X connect 7 0 1 0;
#X connect 8 0 5 1;
#X connect 9 0 5 0;
#X connect 10 0 5 1;
#X connect 11 2 9 0;
#X connect 12 0 13 0;
#X connect 12 1 6 0;
#X connect 12 2 10 0;
#X connect 13 0 14 0;
#X connect 13 0 31 0;
#X connect 14 0 21 0;
#X connect 15 0 3 0;
#X connect 15 0 12 0;
#X connect 17 0 18 0;
#X connect 18 0 15 0;
#X connect 19 0 20 0;
#X connect 20 0 1 0;
#X connect 21 0 22 0;
#X connect 23 0 24 0;
#X connect 24 0 25 0;
#X connect 25 0 26 1;
#X connect 26 0 17 1;
#X connect 27 0 17 0;
#X connect 27 1 26 0;
#X connect 27 2 23 0;
#X connect 28 0 29 0;
#X connect 29 0 27 0;
#X connect 30 0 28 0;
#X restore 443 228 pd val-to-symbol-BUG;
#X connect 0 0 1 0;
#X connect 0 1 37 0;
#X connect 1 0 2 0;
#X connect 1 1 4 0;
#X connect 2 0 0 0;
#X connect 3 0 0 0;
#X connect 4 0 8 0;
#X connect 4 1 27 0;
#X connect 5 1 23 0;
#X connect 6 0 25 0;
#X connect 7 0 5 0;
#X connect 8 0 9 0;
#X connect 9 0 7 0;
#X connect 9 1 12 1;
#X connect 10 1 19 0;
#X connect 11 0 21 0;
#X connect 12 0 14 0;
#X connect 13 0 11 0;
#X connect 14 0 13 0;
#X connect 15 0 21 0;
#X connect 16 0 17 0;
#X connect 17 0 18 0;
#X connect 18 0 15 0;
#X connect 18 0 32 0;
#X connect 19 0 6 0;
#X connect 20 0 16 0;
#X connect 20 1 17 1;
#X connect 22 0 42 0;
#X connect 23 0 10 0;
#X connect 23 1 24 0;
#X connect 24 0 22 1;
#X connect 25 1 20 0;
#X connect 26 0 3 0;
#X connect 27 0 29 0;
#X connect 27 1 22 0;
#X connect 28 0 35 0;
#X connect 29 0 30 0;
#X connect 30 0 31 0;
#X connect 31 0 34 0;
#X connect 32 0 28 0;
#X connect 33 0 35 0;
#X connect 34 0 33 0;
#X connect 38 0 5 0;
#X connect 40 0 41 0;
#X connect 41 0 39 0;
#X connect 42 0 12 0;
#X restore 36 239 pd loadcollec_list;
#X obj 36 216 del 200;
#N canvas 58 339 450 300 updatelist 0;
#X obj 134 159 absolutepath;
#X msg 134 137 symbol cris_makelist;
#X obj 282 157 absolutepath;
#X msg 282 136 symbol cris_list.txt;
#X obj 134 115 t b b;
#X obj 134 197 pack s s s;
#X obj 134 240 system;
#X obj 134 78 bng 15 250 50 0 empty empty empty 0 -6 0 8 -262144 -1
-1;
#X obj 132 43 inlet;
#X obj 166 176 r \$1-realcri_dir;
#X msg 134 220 echo " \$1 \$2 > \$3 "|at now;
#X obj 101 262 print;
#X connect 0 0 5 0;
#X connect 1 0 0 0;
#X connect 2 0 5 2;
#X connect 3 0 2 0;
#X connect 4 0 1 0;
#X connect 4 1 3 0;
#X connect 5 0 10 0;
#X connect 7 0 4 0;
#X connect 8 0 7 0;
#X connect 9 0 5 1;
#X connect 10 0 6 0;
#X connect 10 0 11 0;
#X restore 260 165 pd updatelist;
#X obj 260 145 bng 15 250 50 0 empty empty empty 0 -6 0 8 -262144 -1
-1;
#N canvas 217 130 782 522 makechoix 0;
#X obj 139 5 inlet;
#X obj 70 55 bng 15 250 50 0 empty empty empty 0 -6 0 8 -262144 -1
-1;
#X obj 161 145 s \$1-collecs_faire_choix;
#X obj 172 334 r \$1-collecs_accu_choix_list;
#X obj 72 168 r \$1-collecs_accu_choix_len;
#X obj 72 210 +;
#X obj 99 210 f;
#X msg 99 189 0;
#X floatatom 99 300 0 0 0 0 - - -;
#X obj 40 270 f;
#X obj 71 235 bng 15 250 50 0 empty empty empty 0 -6 0 8 -262144 -1
-1;
#X obj 139 56 t b b b;
#X obj 357 132 slist \$0-all_choix;
#X msg 409 104 print;
#X msg 369 109 reset;
#X obj 428 80 f;
#X obj 39 372 outlet;
#X obj 40 310 / 1000;
#X obj 39 332 i;
#X obj 39 352 makesymbol %sMo;
#X obj 172 442 textfile;
#X msg 225 361 clear;
#X msg 162 314 write cris_choix.txt cr;
#X msg 269 361 print;
#X msg 521 31 100000;
#X obj 521 50 until;
#X msg 500 93 add \$1;
#X obj 382 87 t b b;
#X obj 310 20 bng 15 250 50 0 empty empty empty 0 -6 0 8 -262144 -1
-1;
#X text 331 19 reload from file;
#X msg 460 13 read cris_choix.txt cr \, rewind;
#X obj 500 70 symbol;
#X obj 352 56 r \$1-rechargersons-snd;
#X msg 533 178 get \$1;
#X obj 533 219 t b s;
#X obj 533 239 f \$1;
#X obj 533 259 pack f s;
#X obj 533 280 makesymbol %s-%s;
#X text 650 279 1055-kill;
#X symbolatom 619 390 0 0 0 0 - - -;
#X obj 533 199 sarray \$1-collecnames;
#X obj 533 325 slist;
#X msg 533 302 setlist \$1;
#X obj 533 157 for++ 0 127 2;
#X obj 40 143 del 500;
#X obj 161 92 for++ 0 127 2;
#X msg 406 472 add \$1;
#X obj 294 457 textfile;
#X msg 347 423 clear;
#X msg 391 423 print;
#X msg 172 361 add \$1;
#X obj 294 406 r \$1-collecs_accu_choix_list2;
#X msg 501 128 127;
#X msg 284 386 write cris_choix_list.txt cr;
#X obj 161 119 pack f 35;
#X obj 139 29 t b f;
#X connect 0 0 55 0;
#X connect 1 0 11 0;
#X connect 3 0 50 0;
#X connect 4 0 5 0;
#X connect 5 0 6 0;
#X connect 6 0 5 1;
#X connect 6 0 9 1;
#X connect 7 0 6 0;
#X connect 9 0 8 0;
#X connect 9 0 17 0;
#X connect 10 0 9 0;
#X connect 11 0 44 0;
#X connect 11 1 45 0;
#X connect 11 2 7 0;
#X connect 11 2 14 0;
#X connect 11 2 21 0;
#X connect 13 0 12 0;
#X connect 14 0 12 0;
#X connect 17 0 18 0;
#X connect 18 0 19 0;
#X connect 19 0 16 0;
#X connect 21 0 20 0;
#X connect 21 0 47 0;
#X connect 22 0 20 0;
#X connect 23 0 20 0;
#X connect 24 0 25 0;
#X connect 27 1 14 0;
#X connect 28 0 27 0;
#X connect 31 0 26 0;
#X connect 32 0 27 0;
#X connect 33 0 40 0;
#X connect 34 0 35 0;
#X connect 34 1 36 1;
#X connect 35 0 36 0;
#X connect 36 0 37 0;
#X connect 37 0 42 0;
#X connect 40 0 34 0;
#X connect 42 0 41 0;
#X connect 43 0 33 0;
#X connect 44 0 9 0;
#X connect 44 0 22 0;
#X connect 44 0 53 0;
#X connect 45 0 54 0;
#X connect 48 0 47 0;
#X connect 49 0 47 0;
#X connect 50 0 20 0;
#X connect 51 0 47 0;
#X connect 52 0 33 0;
#X connect 53 0 47 0;
#X connect 54 0 2 0;
#X connect 55 0 11 0;
#X connect 55 1 54 1;
#X restore 36 291 pd makechoix;
#X obj 36 351 del 200;
#X symbolatom 36 311 10 0 0 0 - - -;
#X obj 15 271 bng 15 250 50 0 empty empty empty 0 -6 0 8 -262144 -1
-1;
#N canvas 494 426 381 236 passer_en_ram 0;
#X obj 81 28 inlet;
#X msg 190 83 symbol cris_choix.txt;
#X obj 190 104 absolutepath;
#X obj 12 106 absolutepath;
#X obj 12 147 pack s s s;
#X obj 81 50 t b b;
#X obj 12 192 system;
#X obj 204 189 print;
#X msg 12 169 echo " \$1 \$2 \$3" | at now;
#X obj 179 22 r \$0-chargersons-snd;
#X msg 12 85 symbol passer_en_ramdisk;
#X obj 44 126 r \$1-realcri_dir;
#X connect 0 0 5 0;
#X connect 1 0 2 0;
#X connect 2 0 4 2;
#X connect 3 0 4 0;
#X connect 4 0 8 0;
#X connect 4 0 7 0;
#X connect 5 0 10 0;
#X connect 5 1 1 0;
#X connect 8 0 6 0;
#X connect 10 0 3 0;
#X connect 11 0 4 1;
#X restore 36 389 pd passer_en_ram;
#X obj 36 329 t b;
#X obj 36 371 bng 15 250 50 0 empty empty empty 0 -6 0 8 -262144 -1
-1;
#X obj 36 194 t b b;
#X obj 44 147 r \$1-chargersons-snd;
#X obj 11 218 bng 15 250 50 0 empty empty empty 0 -6 0 8 -262144 -1
-1;
#N canvas 337 120 577 560 loadcollec_choixlist 0;
#X obj 56 74 textfile;
#X obj 11 98 del 1;
#X obj 86 120 route phrase num;
#X obj 86 219 sarray \$1-collecfilenames 128;
#X obj 321 308 sarray \$1-collecnames 128;
#X msg 86 199 find \$1;
#X obj 86 149 symbol;
#X obj 86 175 t s s;
#X obj 284 262 sel -1;
#X msg 277 399 add \$1;
#N canvas 338 63 450 463 val-to-symbol 0;
#X floatatom 100 29 0 0 0 0 - - -;
#X floatatom 100 78 0 0 0 0 - - -;
#X obj 100 54 exp;
#X floatatom 242 234 0 0 0 0 - - -;
#X obj 200 283 dripchar;
#X obj 200 350 makesymbol %s;
#X obj 199 261 makesymbol;
#X obj 134 54 bng 15 250 50 0 empty empty empty 0 -6 0 8 -262144 -1
-1;
#X msg 299 349 symbol \$1%s;
#X obj 200 329 drip;
#X msg 296 321 symbol %s;
#X obj 135 307 unwonk s s;
#X obj 177 237 t b f b;
#X obj 163 373 symbol;
#X symbolatom 61 386 10 0 0 0 - - -;
#X obj 177 213 + 1;
#X obj 24 98 + 0.1;
#X obj 177 169 | 1;
#X obj 177 192 / 100000;
#X floatatom 43 46 5 0 0 0 - - -;
#X obj 40 63 * 100;
#X obj 61 405 s2f;
#X floatatom 61 427 5 0 0 0 - - -;
#X obj 211 90 / 10;
#X obj 211 110 i;
#X obj 211 129 * 10;
#X obj 193 148 ==;
#X obj 168 70 t f f f;
#X obj 168 32 i;
#X obj 168 51 clip 0 99999;
#X obj 167 13 inlet;
#X obj 163 394 outlet;
#X connect 0 0 2 0;
#X connect 1 0 28 0;
#X connect 2 0 1 0;
#X connect 4 0 11 0;
#X connect 5 0 8 0;
#X connect 5 0 13 1;
#X connect 6 0 4 0;
#X connect 7 0 1 0;
#X connect 8 0 5 1;
#X connect 9 0 5 0;
#X connect 10 0 5 1;
#X connect 11 2 9 0;
#X connect 12 0 13 0;
#X connect 12 1 6 0;
#X connect 12 2 10 0;
#X connect 13 0 14 0;
#X connect 13 0 31 0;
#X connect 14 0 21 0;
#X connect 15 0 3 0;
#X connect 15 0 12 0;
#X connect 17 0 18 0;
#X connect 18 0 15 0;
#X connect 19 0 20 0;
#X connect 20 0 1 0;
#X connect 21 0 22 0;
#X connect 23 0 24 0;
#X connect 24 0 25 0;
#X connect 25 0 26 1;
#X connect 26 0 17 1;
#X connect 27 0 17 0;
#X connect 27 1 26 0;
#X connect 27 2 23 0;
#X connect 28 0 29 0;
#X connect 29 0 27 0;
#X connect 30 0 28 0;
#X restore 8 437 pd val-to-symbol;
#X obj 8 457 pack s s;
#X obj 8 497 makesymbol %s_%s.wav;
#X msg 8 477 list \$1 \$2;
#X obj 386 374 f \$1;
#X obj 386 395 pack f s;
#X msg 321 288 get \$1;
#X obj 386 353 t b s;
#X obj 277 420 slist;
#X obj 277 377 spigot;
#X obj 284 239 t f f;
#X obj 314 355 != -1;
#X obj 321 330 route bang;
#X obj 56 13 inlet;
#X obj 12 364 unpack f f;
#X msg 149 475 setlist \$1;
#X obj 110 307 / 1000;
#X obj 110 327 + 0.5;
#X obj 110 347 i;
#X obj 149 455 makesymbol %s-len;
#X msg 110 390 add \$1;
#X obj 110 368 makesymbol %s;
#X obj 110 412 slist;
#X symbolatom 75 518 30 0 0 0 - - -;
#X obj 410 144 outlet;
#X msg 56 51 read cris_choix_list.txt cr \, rewind \, bang;
#X obj 386 415 makesymbol %s-%s-choix;
#X obj 263 354 symbol;
#X obj 146 17 bng 15 250 50 0 empty empty empty 0 -6 0 8 -262144 -1
-1;
#X msg 386 436 setlist \$1 \, reset;
#X msg 340 395 print;
#X obj 56 99 t b a a;
#X connect 0 0 41 0;
#X connect 0 1 34 0;
#X connect 1 0 0 0;
#X connect 2 0 6 0;
#X connect 2 1 37 0;
#X connect 3 1 20 0;
#X connect 4 0 22 0;
#X connect 5 0 3 0;
#X connect 6 0 7 0;
#X connect 7 0 5 0;
#X connect 7 1 11 1;
#X connect 8 1 16 0;
#X connect 9 0 18 0;
#X connect 10 0 11 0;
#X connect 11 0 13 0;
#X connect 13 0 12 0;
#X connect 14 0 15 0;
#X connect 15 0 36 0;
#X connect 16 0 4 0;
#X connect 17 0 14 0;
#X connect 17 1 15 1;
#X connect 19 0 9 0;
#X connect 20 0 8 0;
#X connect 20 1 21 0;
#X connect 21 0 19 1;
#X connect 22 1 17 0;
#X connect 23 0 35 0;
#X connect 25 0 32 0;
#X connect 26 0 27 0;
#X connect 27 0 28 0;
#X connect 28 0 31 0;
#X connect 29 0 25 0;
#X connect 30 0 32 0;
#X connect 31 0 30 0;
#X connect 35 0 0 0;
#X connect 36 0 39 0;
#X connect 37 0 19 0;
#X connect 38 0 35 0;
#X connect 39 0 18 0;
#X connect 40 0 18 0;
#X connect 41 0 1 0;
#X connect 41 1 2 0;
#X restore 209 244 pd loadcollec_choixlist;
#X obj 187 207 bng 15 250 50 0 empty empty empty 0 -6 0 8 -262144 -1
-1;
#X obj 209 222 r \$1-rechargersons-snd;
#X obj 44 167 del 5;
#X obj 237 14 bng 15 250 50 0 empty empty empty 0 -6 0 8 -262144 -1
-1;
#X text 64 261 nb sons par collec;
#X text 110 312 poids net;
#X msg 36 261 500;
#X connect 0 0 1 0;
#X connect 0 0 2 0;
#X connect 0 1 1 1;
#X connect 0 2 2 1;
#X connect 1 0 3 0;
#X connect 2 0 4 0;
#X connect 3 0 11 0;
#X connect 4 0 12 0;
#X connect 5 0 11 0;
#X connect 6 0 12 0;
#X connect 7 0 24 0;
#X connect 8 0 9 0;
#X connect 10 0 0 0;
#X connect 13 0 34 0;
#X connect 14 0 13 0;
#X connect 16 0 15 0;
#X connect 17 0 19 0;
#X connect 18 0 23 0;
#X connect 19 0 22 0;
#X connect 20 0 17 0;
#X connect 22 0 18 0;
#X connect 23 0 21 0;
#X connect 24 0 14 0;
#X connect 25 0 30 0;
#X connect 26 0 13 0;
#X connect 28 0 27 0;
#X connect 29 0 27 0;
#X connect 30 0 24 0;
#X connect 31 0 9 0;
#X connect 34 0 17 0;
#X restore 4 45 pd guts;
#X obj 96 42 bng 15 250 50 0 \$1-chargersons-snd empty charger -8 -6
1 10 -258699 -1 -1;
#X obj 96 62 bng 15 250 50 0 \$1-rechargersons-snd empty recharger
-10 22 1 10 -260818 -1 -1;
