#N canvas 643 276 257 213 10;
#N canvas 270 148 363 264 guts 1;
#N canvas 0 0 450 300 parole 0;
#X obj 204 184 t s s;
#X obj 140 163 slist \$1-parolelist;
#X msg 119 140 len;
#X obj 89 99 +;
#X obj 140 99 clip 1 1;
#X obj 89 75 t f b;
#X msg 227 54 1;
#X msg 89 54 -1;
#X obj 115 99 1;
#X obj 234 205 s \$1-parole;
#X msg 22 177 find \$1;
#X obj 22 157 r \$1-parole;
#X obj 22 198 slist \$1-parolelist;
#X obj 89 32 route paroledown paroleup;
#X obj 89 12 r \$0-interface-snd;
#X msg 45 226 parolenamecnv label \$1;
#X obj 45 247 s \$0-interface-rcv;
#X connect 0 1 9 0;
#X connect 1 1 0 0;
#X connect 1 2 4 2;
#X connect 2 0 1 0;
#X connect 3 0 8 0;
#X connect 4 0 3 1;
#X connect 4 0 1 0;
#X connect 5 0 3 0;
#X connect 5 1 2 0;
#X connect 6 0 5 0;
#X connect 7 0 5 0;
#X connect 8 0 4 0;
#X connect 10 0 12 0;
#X connect 11 0 10 0;
#X connect 11 0 15 0;
#X connect 12 0 8 1;
#X connect 13 0 7 0;
#X connect 13 1 6 0;
#X connect 14 0 13 0;
#X connect 15 0 16 0;
#X restore 10 8 pd parole;
#N canvas 0 79 537 422 mode 1;
#X obj 14 17 r \$0-interface-snd;
#X obj 14 37 route mode;
#X obj 18 285 s \$0-interface-rcv;
#X obj 242 153 * 100;
#X obj 242 174 t b f;
#X msg 212 42 find \$1;
#X obj 212 83 sel 0;
#X obj 242 131 - 1;
#X obj 350 26 sel 0;
#X obj 242 109 f;
#X obj 350 46 del 100;
#X obj 350 65 t b b;
#X obj 212 63 slist \$1-parolelist;
#X obj 350 6 r \$1-recording;
#X obj 419 25 r \$1-update_done;
#X obj 288 262 +;
#X obj 288 242 * 10;
#X obj 288 221 t f f;
#X obj 288 304 sel 0;
#X obj 288 391 s \$0-interface-rcv;
#X obj 288 283 tabread \$1-parole_used;
#X msg 65 262 mode \$1 set 1;
#X msg 14 219 mode \$1 set 0;
#X obj 212 20 r \$1-parole;
#X msg 288 371 mode \$2 color \$1 22 22;
#X obj 288 351 pack f f;
#X msg 318 325 16;
#X msg 288 326 0;
#X obj 14 146 r \$1-parole_mode;
#X obj 14 103 s \$1-parole_mode;
#X floatatom 137 289 5 0 0 0 - - -;
#X msg 14 60 \$1;
#X obj 242 200 for++ 0 9;
#X obj 14 197 for++ 0 9;
#X obj 14 168 t f b, f 12;
#X obj 65 242 f;
#X connect 0 0 1 0;
#X connect 1 0 31 0;
#X connect 3 0 4 0;
#X connect 4 0 32 0;
#X connect 4 1 15 1;
#X connect 5 0 12 0;
#X connect 6 1 9 0;
#X connect 7 0 3 0;
#X connect 8 0 10 0;
#X connect 9 0 7 0;
#X connect 10 0 11 0;
#X connect 11 1 9 0;
#X connect 12 0 6 0;
#X connect 13 0 8 0;
#X connect 14 0 10 0;
#X connect 15 0 20 0;
#X connect 16 0 15 0;
#X connect 17 0 16 0;
#X connect 17 1 25 1;
#X connect 18 0 27 0;
#X connect 18 1 26 0;
#X connect 20 0 18 0;
#X connect 21 0 2 0;
#X connect 22 0 2 0;
#X connect 23 0 5 0;
#X connect 24 0 19 0;
#X connect 25 0 24 0;
#X connect 26 0 25 0;
#X connect 27 0 25 0;
#X connect 28 0 30 0;
#X connect 28 0 34 0;
#X connect 31 0 29 0;
#X connect 32 0 17 0;
#X connect 33 0 22 0;
#X connect 33 1 35 0;
#X connect 34 0 33 0;
#X connect 34 1 35 1;
#X connect 35 0 21 0;
#X restore 10 30 pd mode;
#N canvas 127 0 479 554 play 0;
#X obj 26 251 +;
#X obj 26 119 +;
#X obj 174 123 * 100;
#X obj 26 40 * 10;
#X obj 26 300 demux;
#X obj 26 228 t f f;
#X obj 56 250 > 0;
#X obj 26 207 for++ 0 9 1;
#X obj 39 93 t b f;
#X obj 22 440 f;
#X obj 26 141 t b f b;
#X obj 174 102 t f f;
#X obj 26 20 t f f;
#X obj 22 465 t b f;
#X obj 216 123 + 1;
#X msg 144 20 find \$1;
#X obj 144 61 sel 0;
#X obj 174 82 - 1;
#X obj 292 16 sel 0;
#X obj 292 36 del 100;
#X obj 22 493 dire \$1 bonjour;
#X obj 144 -2 r \$1-parole;
#X obj 144 41 slist \$1-parolelist;
#X obj 292 -4 r \$1-recording;
#X obj 346 15 r \$1-update_done;
#X obj 216 144 slist \$1-parolelist;
#X obj 26 -2 r \$1-parole_mode;
#X obj 62 179 tabread \$1-parole_used;
#X obj 26 271 tabread \$1-parole_used;
#X msg 56 321 play \$1 color 16 22 22;
#X msg 203 270 play \$1 color 0 22 22;
#X obj 157 249 kalashnikov 10;
#X obj 56 344 s \$0-interface-rcv;
#X obj 22 378 r \$0-interface-snd;
#X obj 22 399 route play;
#X msg 22 419 \$1;
#X connect 0 0 28 0;
#X connect 1 0 10 0;
#X connect 2 0 8 0;
#X connect 3 0 1 0;
#X connect 4 1 29 0;
#X connect 5 0 0 0;
#X connect 5 1 6 0;
#X connect 6 0 4 1;
#X connect 7 0 5 0;
#X connect 8 0 1 0;
#X connect 8 1 1 1;
#X connect 9 0 13 0;
#X connect 10 0 7 0;
#X connect 10 1 0 1;
#X connect 10 1 27 0;
#X connect 10 2 31 0;
#X connect 11 0 2 0;
#X connect 11 1 14 0;
#X connect 12 0 3 0;
#X connect 12 1 20 3;
#X connect 13 0 20 0;
#X connect 13 1 20 2;
#X connect 14 0 25 0;
#X connect 15 0 22 0;
#X connect 16 1 17 0;
#X connect 17 0 11 0;
#X connect 18 0 19 0;
#X connect 19 0 1 0;
#X connect 21 0 15 0;
#X connect 22 0 16 0;
#X connect 23 0 18 0;
#X connect 24 0 19 0;
#X connect 25 1 20 1;
#X connect 26 0 12 0;
#X connect 27 0 7 1;
#X connect 28 0 4 0;
#X connect 29 0 32 0;
#X connect 30 0 32 0;
#X connect 31 1 30 0;
#X connect 33 0 34 0;
#X connect 34 0 35 0;
#X connect 35 0 9 0;
#X restore 10 52 pd play;
#N canvas 63 75 345 188 rec 0;
#X obj 11 93 f;
#X obj 11 116 t f f;
#X obj 11 72 f;
#X obj 11 10 r \$0-interface-snd;
#X msg 11 51 \$1;
#X obj 11 31 route rec;
#X obj 178 50 r \$1-recording;
#X obj 178 95 s \$0-interface-rcv;
#X msg 178 72 recording \$1;
#X obj 41 138 s \$1-parole_num;
#X obj 11 158 s \$1-parole_rec_this;
#X connect 0 0 1 0;
#X connect 1 0 10 0;
#X connect 1 1 9 0;
#X connect 2 0 0 0;
#X connect 3 0 5 0;
#X connect 4 0 2 0;
#X connect 5 0 4 0;
#X connect 6 0 8 0;
#X connect 8 0 7 0;
#X restore 10 73 pd rec;
#X obj 10 165 s \$1-vol-rcv;
#X obj 10 100 r \$0-interface-snd;
#X obj 10 195 r \$1-vol-snd;
#X msg 10 216 vol set \$1;
#X obj 10 238 s \$0-interface-rcv;
#X obj 10 121 route vol UPDATE;
#X obj 63 141 b;
#X connect 5 0 9 0;
#X connect 6 0 7 0;
#X connect 7 0 8 0;
#X connect 9 0 4 0;
#X connect 9 1 10 0;
#X connect 10 0 4 0;
#X restore 233 9 pd guts;
#N canvas 271 6 697 399 interfgut 0;
#X obj 34 45 r \$0-paroledown-snd;
#X obj 172 45 r \$0-paroleup-snd;
#X msg 34 67 paroledown;
#X msg 172 68 paroleup;
#X obj 286 111 s \$0-interface-snd;
#X obj 124 144 r \$0-interface-rcv;
#X obj 28 196 s \$0-parolenamecnv;
#X obj 158 196 s \$0-mode-rcv;
#X obj 296 45 r \$0-mode-snd;
#X msg 296 67 mode \$1 \$2;
#X obj 23 9 dispatch \$0-mode 0 9;
#X obj 172 9 dispatch \$0-play 1 9;
#X obj 321 9 dispatch \$0-rec 1 9;
#X obj 397 44 r \$0-play-snd;
#X obj 496 44 r \$0-rec-snd;
#X msg 496 66 rec \$1 \$2;
#X msg 397 66 play \$1 \$2;
#X obj 254 196 s \$0-play-rcv;
#X obj 350 196 s \$0-rec-rcv;
#X obj 442 216 s \$0-recording-rcv;
#X msg 442 196 set \$1;
#X obj 45 306 glue;
#X obj 45 285 l \$3;
#X obj 45 265 t b a;
#X obj 80 285 a2l;
#X obj 124 166 route parolenamecnv mode play rec recording vol;
#X obj 589 43 r \$1-vol-snd;
#X msg 589 65 vol \$1;
#X obj 45 328 route list;
#X obj 45 243 r \$0-interface-rcv;
#X obj 192 310 s \$0-interface-snd;
#X obj 192 244 r \$2-interfaces-snd;
#X obj 45 349 s \$2-interfaces-rcv;
#X obj 192 267 route \$3 UPDATE;
#X msg 244 287 UPDATE;
#X connect 0 0 2 0;
#X connect 1 0 3 0;
#X connect 2 0 4 0;
#X connect 3 0 4 0;
#X connect 5 0 25 0;
#X connect 8 0 9 0;
#X connect 9 0 4 0;
#X connect 13 0 16 0;
#X connect 14 0 15 0;
#X connect 15 0 4 0;
#X connect 16 0 4 0;
#X connect 20 0 19 0;
#X connect 21 0 28 0;
#X connect 22 0 21 0;
#X connect 23 0 22 0;
#X connect 23 1 24 0;
#X connect 24 0 21 1;
#X connect 25 0 6 0;
#X connect 25 1 7 0;
#X connect 25 2 17 0;
#X connect 25 3 18 0;
#X connect 25 4 20 0;
#X connect 26 0 27 0;
#X connect 28 0 32 0;
#X connect 29 0 23 0;
#X connect 31 0 33 0;
#X connect 33 0 30 0;
#X connect 33 1 34 0;
#X connect 34 0 30 0;
#X restore 233 37 pd interfgut;
#X obj 0 -1 cnv 15 250 200 empty \$0-generalcnv Paroles 20 12 1 14
-355 -262144 0;
#X obj 39 27 cnv 15 160 25 empty \$0-parolenamecnv nouvelle 2 12 0
12 -1 -241291 0;
#X obj 14 27 bng 25 250 50 0 \$0-paroledown-snd \$0-paroledown-rcv
< 7 12 1 16 -225271 -1 -1;
#X obj 201 27 bng 25 250 50 0 \$0-paroleup-snd \$0-paroleup-rcv > 7
12 1 16 -225271 -1 -1;
#X obj 15 53 cnv 15 210 45 empty empty Mode 10 10 1 12 -228992 -66577
0;
#X obj 37 71 tgl 20 0 \$0-mode1-snd \$0-mode1-rcv 1 7 10 1 10 -262144
-1 -1 1 1;
#X obj 17 71 tgl 20 0 \$0-mode0-snd \$0-mode0-rcv 0 7 10 1 10 -262144
-1 -1 1 1;
#X obj 57 71 tgl 20 0 \$0-mode2-snd \$0-mode2-rcv 2 7 10 1 10 -262144
-1 -1 0 1;
#X obj 77 71 tgl 20 0 \$0-mode3-snd \$0-mode3-rcv 3 7 10 1 10 -262144
-1 -1 0 1;
#X obj 117 71 tgl 20 0 \$0-mode5-snd \$0-mode5-rcv 5 7 10 1 10 -262144
-1 -1 0 1;
#X obj 97 71 tgl 20 0 \$0-mode4-snd \$0-mode4-rcv 4 7 10 1 10 -262144
-1 -1 0 1;
#X obj 137 71 tgl 20 0 \$0-mode6-snd \$0-mode6-rcv 6 7 10 1 10 -262144
-1 -1 0 1;
#X obj 157 71 tgl 20 0 \$0-mode7-snd \$0-mode7-rcv 7 7 10 1 10 -262144
-1 -1 0 1;
#X obj 177 71 tgl 20 0 \$0-mode8-snd \$0-mode8-rcv 8 7 10 1 10 -262144
-1 -1 0 1;
#X obj 197 71 tgl 20 0 \$0-mode9-snd \$0-mode9-rcv 9 7 10 1 10 -262144
-1 -1 0 1;
#X obj 15 101 cnv 15 210 45 empty empty Listen 10 10 1 12 -225271 -66577
0;
#X obj 20 123 bng 20 250 50 0 \$0-play1-snd \$0-play1-rcv 1 7 10 1
10 -262144 -1 -1;
#X obj 40 123 bng 20 250 50 0 \$0-play2-snd \$0-play2-rcv 2 7 10 1
10 -262144 -1 -1;
#X obj 60 123 bng 20 250 50 0 \$0-play3-snd \$0-play3-rcv 3 7 10 1
10 -262144 -1 -1;
#X obj 80 123 bng 20 250 50 0 \$0-play4-snd \$0-play4-rcv 4 7 10 1
10 -262144 -1 -1;
#X obj 100 123 bng 20 250 50 0 \$0-play5-snd \$0-play5-rcv 5 7 10 1
10 -262144 -1 -1;
#X obj 120 123 bng 20 250 50 0 \$0-play6-snd \$0-play6-rcv 6 7 10 1
10 -262144 -1 -1;
#X obj 140 123 bng 20 250 50 0 \$0-play7-snd \$0-play7-rcv 7 7 10 1
10 -262144 -1 -1;
#X obj 160 123 bng 20 250 50 0 \$0-play8-snd \$0-play8-rcv 8 7 10 1
10 -262144 -1 -1;
#X obj 180 123 bng 20 250 50 0 \$0-play9-snd \$0-play9-rcv 9 7 10 1
10 -262144 -1 -1;
#X obj 16 150 cnv 15 210 45 empty empty Rec 10 10 1 12 -261681 -66577
0;
#X obj 19 172 bng 20 250 50 0 \$0-rec1-snd \$0-rec1-rcv 1 7 10 1 10
-258699 -1 -1;
#X obj 39 172 bng 20 250 50 0 \$0-rec2-snd \$0-rec2-rcv 2 7 10 1 10
-258699 -1 -1;
#X obj 59 172 bng 20 250 50 0 \$0-rec3-snd \$0-rec3-rcv 3 7 10 1 10
-258699 -1 -1;
#X obj 79 172 bng 20 250 50 0 \$0-rec4-snd \$0-rec4-rcv 4 7 10 1 10
-258699 -1 -1;
#X obj 99 172 bng 20 250 50 0 \$0-rec5-snd \$0-rec5-rcv 5 7 10 1 10
-258699 -1 -1;
#X obj 119 172 bng 20 250 50 0 \$0-rec6-snd \$0-rec6-rcv 6 7 10 1 10
-258699 -1 -1;
#X obj 139 172 bng 20 250 50 0 \$0-rec7-snd \$0-rec7-rcv 7 7 10 1 10
-258699 -1 -1;
#X obj 159 172 bng 20 250 50 0 \$0-rec8-snd \$0-rec8-rcv 8 7 10 1 10
-258699 -1 -1;
#X obj 179 172 bng 20 250 50 0 \$0-rec9-snd \$0-rec9-rcv 9 7 10 1 10
-258699 -1 -1;
#X obj 206 154 tgl 15 0 \$0-recording-snd \$0-recording-rcv empty 0
-6 0 8 -260818 -1 -1 0 1;
