#N canvas 464 362 365 324 10;
#X msg 569 98 fb set \$1;
#X floatatom 141 249 5 0 0 0 - - -;
#X obj 107 198 list trim;
#X msg 230 257 connect \$1 171717;
#X msg 21 177 disconnect;
#X obj 233 203 bng 15 250 50 0 empty empty empty 17 7 0 10 -262144
-1 -1;
#X obj 108 30 r \$1-to\$2;
#X obj 232 235 symbol \$2;
#X obj 107 152 list prepend \$3;
#X obj 107 175 list prepend send;
#X obj 131 63 r \$1-toALL;
#X obj 89 120 t b a b;
#X obj 107 220 tcpsend;
#X obj 22 150 del 100;
#X connect 2 0 12 0;
#X connect 3 0 12 0;
#X connect 4 0 12 0;
#X connect 5 0 7 0;
#X connect 6 0 11 0;
#X connect 7 0 3 0;
#X connect 8 0 9 0;
#X connect 9 0 2 0;
#X connect 10 0 11 0;
#X connect 11 0 13 0;
#X connect 11 1 8 0;
#X connect 11 2 7 0;
#X connect 12 0 1 0;
#X connect 13 0 4 0;
