#N canvas 698 188 462 533 10;
#X msg 569 98 fb set \$1;
#X obj 107 220 tcpserver 171717;
#X floatatom 130 243 5 0 0 0 - - -;
#X obj 39 79 metro 1000;
#X obj 39 58 tgl 15 0 empty empty empty 17 7 0 10 -262144 -1 -1 0 1
;
#X obj 107 175 list prepend broadcast;
#X obj 107 198 list trim;
#X obj 107 128 pack f f f f f;
#X obj 173 88 route 1 2 3 4;
#X obj 107 46 route 0;
#X obj 146 67 t b a;
#X obj 107 289 s \$1-fromteleco;
#X obj 107 7 r \$1-toteleco;
#X obj 107 152 list prepend \$2;
#X obj 107 261 route \$2;
#X obj 39 15 loadbang;
#X msg 39 36 1;
#X connect 1 0 14 0;
#X connect 1 1 2 0;
#X connect 3 0 7 0;
#X connect 4 0 3 0;
#X connect 5 0 6 0;
#X connect 6 0 1 0;
#X connect 7 0 13 0;
#X connect 8 0 7 1;
#X connect 8 1 7 2;
#X connect 8 2 7 3;
#X connect 8 3 7 4;
#X connect 9 0 7 0;
#X connect 9 1 10 0;
#X connect 10 0 7 0;
#X connect 10 1 8 0;
#X connect 12 0 9 0;
#X connect 13 0 5 0;
#X connect 14 0 11 0;
#X connect 15 0 16 0;
#X connect 16 0 4 0;
