#N canvas 80 25 868 657 10;
#X msg 645 113 1;
#X obj 645 156 tgl 15 0 empty empty empty 20 8 0 8 -262144 -1 -1 0
1;
#X msg 645 134 0;
#X obj 646 174 switch~;
#X obj 61 191 f;
#X obj 29 112 bng 15 250 50 0 empty empty empty 20 8 0 8 -262144 -1
-1;
#X msg 334 100 const 0;
#X obj 276 135 / 512;
#X msg 335 158 resize \$1;
#X obj 106 282 bng 15 250 50 0 empty empty empty 20 8 0 8 -262144 -1
-1;
#X obj 171 90 t b f;
#X obj 318 251 i;
#X msg 318 288 ll \$1;
#X obj 318 269 makesymbol %sdB;
#X msg 422 349 ll \$1;
#X obj 413 331 makesymbol %sms;
#X obj 428 442 * 512;
#X obj 428 462 / 44.1;
#X obj 427 421 i;
#X obj 428 484 i;
#X obj 318 332 t b f;
#X obj 415 398 pow 2;
#X floatatom 508 80 5 0 0 0 - - -;
#X floatatom 507 128 10 0 0 0 - - -;
#X obj 376 464 change;
#X obj 376 442 t f f;
#N canvas 363 158 600 400 waitfor 0;
#X obj 156 108 inlet;
#X msg 160 168 1;
#X msg 202 166 0;
#X obj 186 217 f;
#X msg 273 201 1;
#X msg 244 201 0;
#X obj 236 238 spigot;
#X obj 304 201 init 1;
#X obj 202 140 t b b b;
#X obj 200 276 bng 15 250 50 0 empty empty empty 20 8 0 8 -262144 -1
-1;
#X obj 295 272 change;
#X obj 236 273 sel 1;
#X obj 277 318 outlet;
#X obj 275 136 bng 15 250 50 0 empty empty empty 20 8 0 8 -262144 -1
-1;
#X obj 228 297 delay 100;
#X obj 332 239 delay 1000;
#X obj 240 111 r \$1-nbfrag;
#X connect 0 0 1 0;
#X connect 1 0 3 0;
#X connect 1 0 6 0;
#X connect 2 0 3 1;
#X connect 4 0 6 1;
#X connect 5 0 6 1;
#X connect 6 0 5 0;
#X connect 6 0 9 0;
#X connect 6 0 11 0;
#X connect 6 0 15 0;
#X connect 7 0 6 1;
#X connect 8 0 2 0;
#X connect 8 1 3 0;
#X connect 8 2 4 0;
#X connect 11 0 14 0;
#X connect 14 0 12 0;
#X connect 15 0 4 0;
#X connect 16 0 8 0;
#X connect 16 0 13 0;
#X restore 153 391 pd waitfor;
#N canvas 48 261 600 400 printcalc 0;
#X obj 181 71 inlet;
#X msg 221 132 stop;
#X obj 192 180 timer;
#X obj 191 203 /;
#X obj 191 225 * 100;
#X obj 191 247 i;
#X obj 191 363 outlet;
#X msg 191 336 ll \$1;
#X obj 191 314 makesymbol %s%%;
#X obj 290 163 / 20;
#X obj 290 185 / 44.1;
#X obj 182 93 t b b;
#X obj 191 270 moses 101;
#X msg 246 292 100;
#X obj 221 156 metro 50;
#X obj 290 140 r \$1-insamplength;
#X connect 0 0 11 0;
#X connect 1 0 14 0;
#X connect 2 0 3 0;
#X connect 3 0 4 0;
#X connect 4 0 5 0;
#X connect 5 0 12 0;
#X connect 7 0 6 0;
#X connect 8 0 7 0;
#X connect 9 0 10 0;
#X connect 10 0 3 1;
#X connect 11 0 14 0;
#X connect 11 1 2 0;
#X connect 12 0 8 0;
#X connect 12 1 1 0;
#X connect 12 1 13 0;
#X connect 13 0 8 0;
#X connect 14 0 2 1;
#X connect 15 0 9 0;
#X restore 636 234 pd printcalc;
#X obj 153 369 subbang yellow Cut --;
#X obj 152 327 makesymbol;
#X msg 152 348 ll \$1;
#X msg 122 167 0;
#X obj 61 149 t b b;
#X floatatom 508 153 5 0 0 0 - - -;
#X floatatom 507 201 10 0 0 0 - - -;
#X msg 335 138 bounds 0 0 400 100;
#X obj 409 105 loadbang;
#X obj 637 207 delay 2000;
#N canvas 175 138 600 491 enveloppe 0;
#X obj 169 257 i;
#X obj 139 233 t f b;
#X msg 185 235 0;
#X obj 196 257 + 1;
#X msg 185 181 reset;
#X obj 250 302 moses;
#X obj 273 172 / 512;
#X obj 250 438 outlet;
#X obj 338 413 outlet;
#X msg 326 368 bang;
#X obj 250 341 /;
#X obj 250 364 * 100;
#X obj 273 264 moses 1;
#X obj 250 387 i;
#X obj 156 23 inlet;
#X obj 155 48 t b f;
#X obj 139 104 + 1;
#X obj 250 409 change;
#X obj 155 80 / 4096;
#X obj 100 151 * 4096;
#X obj 100 175 pack f 4096;
#X msg 258 73 16384;
#X obj 100 125 for++ 0 10 2;
#X floatatom 258 97 5 0 0 0 - - -;
#X msg 258 48 8192;
#X msg 299 412 100;
#X obj 280 233 - 2;
#X obj 48 298 tabwrite \$1-envtab;
#X obj 139 210 tabenv \$1-lesample 4096 512;
#X connect 0 0 3 0;
#X connect 0 0 5 0;
#X connect 0 0 10 0;
#X connect 0 0 27 1;
#X connect 1 0 27 0;
#X connect 1 1 0 0;
#X connect 2 0 0 1;
#X connect 3 0 0 1;
#X connect 4 0 28 0;
#X connect 5 1 9 0;
#X connect 6 0 12 0;
#X connect 6 0 26 0;
#X connect 9 0 8 0;
#X connect 9 0 25 0;
#X connect 10 0 11 0;
#X connect 11 0 13 0;
#X connect 12 1 10 1;
#X connect 13 0 17 0;
#X connect 14 0 15 0;
#X connect 15 0 22 0;
#X connect 15 1 2 0;
#X connect 15 1 4 0;
#X connect 15 1 6 0;
#X connect 15 1 18 0;
#X connect 16 0 22 1;
#X connect 17 0 7 0;
#X connect 18 0 16 0;
#X connect 19 0 20 0;
#X connect 20 0 28 0;
#X connect 21 0 23 0;
#X connect 22 0 19 0;
#X connect 23 0 18 1;
#X connect 23 0 20 1;
#X connect 23 0 19 1;
#X connect 24 0 23 0;
#X connect 25 0 7 0;
#X connect 26 0 5 1;
#X connect 28 0 1 0;
#X restore 61 219 pd enveloppe;
#X obj 376 486 bang;
#X msg 61 100 ll \$1;
#X obj 61 78 makesymbol %s%%;
#X obj 61 123 subbang gray Calc --;
#X floatatom 60 240 5 0 0 0 - - -;
#X msg 531 416 ll \$1;
#X obj 535 396 makesymbol %sms;
#X obj 537 507 * 512;
#X obj 537 527 / 44.1;
#X obj 536 486 i;
#X obj 537 549 i;
#X obj 538 465 pow 2;
#X obj 488 529 change;
#X obj 488 507 t f f;
#X obj 488 551 bang;
#X obj 415 371 subdial #808080 lmin --- 0 8 1 0;
#X obj 531 437 subdial #E0E0E0 hmin --- 0 8 1 0;
#N canvas 171 98 600 519 diffenv 0;
#X obj 217 127 inlet;
#X obj 143 108 / 512;
#X obj 217 148 t b b b;
#X obj 99 307 sel 400;
#X obj 81 309 bng 15 250 50 0 empty empty empty 20 8 0 8 -262144 -1
-1;
#X obj 143 130 i;
#X obj 202 226 t f f f;
#X text 261 126 bang;
#X obj 229 342 -;
#X msg 281 300 0;
#X floatatom 83 188 5 0 0 0 - - -;
#X obj 338 120 bng 15 250 50 0 empty empty empty 20 8 0 8 -262144 -1
-1;
#X obj 224 191 for++ 0 400 0.5;
#X obj 224 301 t f f f;
#X obj 268 332 dbtorms;
#X obj 268 356 * 50;
#X obj 408 347 -;
#X msg 460 305 0;
#X obj 403 306 t f f f;
#X obj 488 347 dbtorms;
#X obj 488 371 * 50;
#X obj 413 476 -;
#X obj 408 435 t f f f;
#X obj 408 409 max 0;
#X obj 460 258 t b b b;
#X obj 408 386 * 1;
#X obj 229 381 * 10;
#X obj 143 87 r \$1-insamplength;
#X obj 225 268 tabread \$1-envtab;
#X obj 228 483 tabwrite \$1-diffenvtab;
#X connect 0 0 2 0;
#X connect 1 0 5 0;
#X connect 2 1 12 0;
#X connect 2 2 9 0;
#X connect 2 2 24 0;
#X connect 3 0 4 0;
#X connect 5 0 3 1;
#X connect 5 0 10 0;
#X connect 5 0 12 1;
#X connect 6 0 3 0;
#X connect 6 1 28 0;
#X connect 6 2 29 1;
#X connect 8 0 26 0;
#X connect 9 0 8 1;
#X connect 11 0 2 0;
#X connect 12 0 6 0;
#X connect 13 0 8 1;
#X connect 13 1 8 0;
#X connect 13 2 14 0;
#X connect 14 0 15 0;
#X connect 15 0 26 1;
#X connect 16 0 25 0;
#X connect 17 0 16 1;
#X connect 17 0 21 1;
#X connect 18 0 16 1;
#X connect 18 1 16 0;
#X connect 18 2 19 0;
#X connect 19 0 20 0;
#X connect 22 0 21 1;
#X connect 22 1 21 0;
#X connect 23 0 22 0;
#X connect 24 0 17 0;
#X connect 24 1 17 0;
#X connect 24 2 17 0;
#X connect 25 0 23 0;
#X connect 26 0 29 0;
#X connect 27 0 1 0;
#X connect 28 0 13 0;
#X connect 28 0 18 0;
#X restore 35 326 pd diffenv;
#X msg 337 190 bounds 0 -100 400 100;
#N canvas 261 29 442 612 frags_diff 0;
#X obj 153 55 inlet;
#X obj 79 36 / 512;
#X obj 160 240 moses 60;
#X obj 147 409 spigot;
#X obj 144 319 i;
#X msg 204 290 0;
#X obj 160 265 t b;
#X obj 171 319 + 1;
#X obj 181 489 i;
#X obj 208 489 + 1;
#X obj 147 437 t b b;
#X msg 197 461 0;
#X obj 67 520 * 512;
#X obj 201 565 outlet;
#X obj 153 76 t b b b;
#X obj 35 235 sel 400;
#X msg 120 266 1000;
#X obj 144 343 >= 3;
#X obj 251 536 max 0;
#X obj 79 58 i;
#X obj 160 119 for++ 0 400 0.5;
#X obj 211 266 t b b;
#X obj 138 154 t f f f;
#X obj 227 222 inlet;
#X obj 296 273 inlet;
#X obj 21 566 v \$0-laston;
#X obj 311 406 v \$0-laston;
#X obj 376 383 inlet;
#X obj 295 428 -;
#X obj 281 383 t f b;
#X obj 281 318 sel 1;
#X obj 281 360 -;
#X obj 295 451 <;
#X obj 295 472 sel 1;
#X obj 295 495 i;
#X obj 204 382 f;
#X obj 82 384 != 1;
#X obj 45 405 spigot;
#X text 197 54 bang;
#X text 268 222 threshold;
#X text 342 366 high min time;
#X text 291 256 low min time;
#X obj 60 348 bng 15 250 50 0 empty empty empty 20 8 0 8 -262144 -1
-1;
#X floatatom 219 418 5 0 0 0 - - -;
#X obj 201 534 + 0;
#X obj 378 197 bng 15 250 50 0 empty empty empty 20 8 0 8 -262144 -1
-1;
#X obj 278 52 bng 15 250 50 0 empty empty empty 20 8 0 8 -262144 -1
-1;
#X obj 17 525 max 0;
#X obj 17 501 - 3;
#X obj 251 565 s \$1-nbfrag;
#X obj 79 15 r \$1-insamplength;
#X obj 160 197 tabread \$1-diffenvtab;
#X obj 67 481 v \$0-nowi;
#X obj 281 339 v \$0-nowi;
#X obj 230 147 v \$0-nowi;
#X obj 67 540 tabwrite \$1-peaks;
#X connect 0 0 14 0;
#X connect 1 0 19 0;
#X connect 2 0 6 0;
#X connect 2 1 21 0;
#X connect 2 1 45 0;
#X connect 3 0 10 0;
#X connect 4 0 7 0;
#X connect 4 0 17 0;
#X connect 5 0 4 1;
#X connect 5 0 35 0;
#X connect 6 0 4 0;
#X connect 7 0 4 1;
#X connect 8 0 9 0;
#X connect 8 0 34 1;
#X connect 8 0 44 0;
#X connect 8 0 55 1;
#X connect 9 0 8 1;
#X connect 10 0 52 0;
#X connect 10 1 8 0;
#X connect 11 0 8 1;
#X connect 11 0 34 1;
#X connect 12 0 55 0;
#X connect 14 1 20 0;
#X connect 14 2 11 0;
#X connect 14 2 16 0;
#X connect 15 0 37 0;
#X connect 15 0 10 0;
#X connect 15 0 42 0;
#X connect 16 0 4 0;
#X connect 17 0 30 0;
#X connect 17 0 35 0;
#X connect 18 0 49 0;
#X connect 19 0 15 1;
#X connect 19 0 20 1;
#X connect 20 0 22 0;
#X connect 21 0 5 0;
#X connect 21 1 3 0;
#X connect 22 0 15 0;
#X connect 22 1 51 0;
#X connect 22 2 54 0;
#X connect 23 0 2 1;
#X connect 24 0 17 1;
#X connect 24 0 31 1;
#X connect 26 0 28 1;
#X connect 27 0 32 1;
#X connect 28 0 32 0;
#X connect 29 0 28 0;
#X connect 29 1 26 0;
#X connect 30 0 53 0;
#X connect 31 0 29 0;
#X connect 32 0 33 0;
#X connect 33 0 34 0;
#X connect 34 0 8 1;
#X connect 35 0 3 1;
#X connect 35 0 36 0;
#X connect 36 0 37 1;
#X connect 44 0 13 0;
#X connect 44 0 18 0;
#X connect 46 0 14 0;
#X connect 47 0 12 0;
#X connect 48 0 47 0;
#X connect 50 0 1 0;
#X connect 51 0 2 0;
#X connect 52 0 25 0;
#X connect 52 0 48 0;
#X connect 53 0 31 0;
#X restore 217 595 pd frags_diff;
#X obj 318 310 subdial orange seuil --- 0 99 1 3.89764;
#X obj 227 90 s \$1-max;
#X obj 152 305 r \$1-nbfrag;
#X obj 171 4 r \$1-insamplength;
#X obj 123 188 s \$1-nbfrag;
#X obj 475 19 table \$1-peaks 1000;
#X obj 506 102 tabread \$1-peaks;
#X obj 506 175 tabread \$1-envtab;
#X obj 475 57 table \$1-diffenvtab 400;
#X obj 475 38 table \$1-envtab 400;
#X obj 140 241 s \$1-refrag;
#X obj 125 282 r \$1-refrag;
#X obj 488 573 s \$1-refrag;
#X obj 376 508 s \$1-refrag;
#X obj 318 355 s \$1-refrag;
#X msg 113 28 1;
#X msg 226 43 0;
#X obj 226 24 r \$0-inhib;
#X obj 261 54 init 1;
#X obj 59 500 s \$1-nbfrag;
#X obj 59 456 r \$1-nbfrag;
#X obj 149 27 t b f f;
#X floatatom 240 163 5 0 0 0 - - -;
#X obj 348 30 gate;
#X floatatom 24 30 0 0 0 0 - - -;
#X obj 86 571 bng 15 250 50 0 empty empty empty 0 -6 0 8 -262144 -1
-1;
#X obj 496 282 sndrcv \$0-seuil-;
#X obj 563 354 sndrcv \$0-lmin-;
#X obj 676 454 sndrcv \$0-hmin-;
#N canvas 624 100 372 304 apconfig 0;
#X obj 40 99 s \$0-inhib;
#X obj 128 77 route peaks;
#X msg 40 78 bang;
#X obj 26 189 apf \$0 seuil \$0-seuil;
#X obj 26 210 apf \$0 lmin \$0-lmin;
#X obj 26 232 apf \$0 hmin \$0-hmin;
#X obj 27 279 apsubmaster \$0 \$1 \$2;
#X obj 232 56 init 300;
#X obj 232 38 bng 15 250 50 0 empty empty empty 0 -6 0 8 -262144 -1
-1;
#X obj 23 21 r \$0-setap-snd;
#X obj 26 167 aptab \$0 peaks \$1-peaks;
#X obj 232 76 s \$1-peaks-len-snd;
#X obj 26 256 apf \$0 nbfrag \$1-nbfrag;
#X obj 23 43 route peaks;
#X connect 2 0 0 0;
#X connect 7 0 11 0;
#X connect 8 0 7 0;
#X connect 9 0 13 0;
#X restore 666 542 pd apconfig;
#X obj 59 478 sndrcv \$1-nbfrag-;
#X floatatom 115 531 5 0 0 0 - - -;
#X floatatom 13 484 5 0 0 0 - - -;
#X obj 190 62 gate 1;
#X obj 250 213 s \$1-envtab;
#X obj 374 51 s \$1-peaks;
#X obj 337 212 s \$1-diffenvtab;
#X connect 0 0 1 0;
#X connect 1 0 3 0;
#X connect 2 0 1 0;
#X connect 4 0 38 0;
#X connect 5 0 42 0;
#X connect 7 0 8 0;
#X connect 7 0 81 0;
#X connect 8 0 93 0;
#X connect 8 0 95 0;
#X connect 9 0 28 0;
#X connect 10 0 42 0;
#X connect 10 1 7 0;
#X connect 11 0 13 0;
#X connect 12 0 59 0;
#X connect 13 0 12 0;
#X connect 14 0 54 0;
#X connect 15 0 14 0;
#X connect 16 0 17 0;
#X connect 17 0 19 0;
#X connect 18 0 16 0;
#X connect 18 0 25 0;
#X connect 19 0 15 0;
#X connect 20 0 73 0;
#X connect 20 1 58 1;
#X connect 21 0 18 0;
#X connect 22 0 65 0;
#X connect 24 0 39 0;
#X connect 25 0 24 0;
#X connect 25 1 58 2;
#X connect 26 0 58 0;
#X connect 28 0 26 0;
#X connect 29 0 30 0;
#X connect 30 0 28 0;
#X connect 31 0 63 0;
#X connect 32 0 4 0;
#X connect 32 1 31 0;
#X connect 33 0 66 0;
#X connect 35 0 93 0;
#X connect 36 0 35 0;
#X connect 36 0 57 0;
#X connect 38 0 41 0;
#X connect 38 0 43 0;
#X connect 38 1 56 0;
#X connect 38 1 69 0;
#X connect 39 0 72 0;
#X connect 40 0 42 0;
#X connect 41 0 40 0;
#X connect 42 0 32 0;
#X connect 44 0 55 0;
#X connect 45 0 44 0;
#X connect 46 0 47 0;
#X connect 47 0 49 0;
#X connect 48 0 46 0;
#X connect 48 0 52 0;
#X connect 49 0 45 0;
#X connect 50 0 48 0;
#X connect 51 0 53 0;
#X connect 52 0 51 0;
#X connect 52 1 58 3;
#X connect 53 0 71 0;
#X connect 54 0 21 0;
#X connect 54 0 86 0;
#X connect 55 0 50 0;
#X connect 55 0 87 0;
#X connect 57 0 95 0;
#X connect 59 0 11 0;
#X connect 59 0 20 0;
#X connect 59 0 85 0;
#X connect 61 0 29 0;
#X connect 62 0 60 0;
#X connect 62 0 80 0;
#X connect 62 0 83 0;
#X connect 65 0 23 0;
#X connect 66 0 34 0;
#X connect 70 0 28 0;
#X connect 74 0 92 1;
#X connect 75 0 92 1;
#X connect 76 0 75 0;
#X connect 79 0 89 0;
#X connect 79 0 91 0;
#X connect 80 0 74 0;
#X connect 80 1 10 0;
#X connect 80 1 92 0;
#X connect 80 2 4 1;
#X connect 85 0 59 0;
#X connect 86 0 54 0;
#X connect 87 0 55 0;
#X connect 89 0 78 0;
#X connect 89 0 90 0;
