#N canvas 901 70 311 302 10;
#N canvas 299 90 600 445 vox1 0;
#X floatatom 189 16 5 0 12 0 - - -;
#X obj 230 158 -;
#X obj 230 179 / 44.1;
#X obj 189 40 t f f;
#X obj 165 256 pack f f f;
#X obj 123 163 t f f;
#X msg 165 281 \$2 \, \$1 \$3;
#X obj 165 306 line~;
#X msg 297 32 0;
#X floatatom 297 54 5 0 0 0 - - -;
#X obj 363 336 line~;
#X obj 165 379 *~;
#X obj 123 75 + 1;
#X floatatom 393 166 5 0 0 0 - - -;
#X msg 363 314 \$1 \$2;
#X msg 369 266 0;
#X obj 367 240 delay;
#X obj 457 277 outlet;
#X obj 189 -7 inlet;
#X msg 297 8 560;
#X obj 367 218 - 1;
#X obj 362 292 pack f 1;
#X obj 457 258 delay;
#X obj 338 144 inlet;
#X obj 123 121 min;
#X obj 246 136 max 0;
#X obj 123 141 - 500;
#X obj 245 116 - 0;
#X obj 250 281 1;
#X obj 250 259 t b;
#X obj 275 258 r \$0-voxvol;
#X obj 457 237 max 20;
#X obj 123 97 tabread \$1-peaks;
#X obj 245 95 tabread \$1-peaks;
#X obj 393 142 r \$1-smooth;
#X obj 476 218 s \$1-longfrag;
#X obj 39 94 r \$1-max;
#X obj 165 402 outlet~;
#X obj 426 79 r \$0-pitch;
#X obj 407 60 r \$1-pitch;
#X obj 163 333 tabread4~ \$1-lesample;
#X obj 408 104 m 1;
#X obj 230 234 / 1;
#X connect 0 0 3 0;
#X connect 1 0 2 0;
#X connect 2 0 20 0;
#X connect 2 0 31 0;
#X connect 2 0 35 0;
#X connect 2 0 42 0;
#X connect 3 0 12 0;
#X connect 3 1 33 0;
#X connect 4 0 6 0;
#X connect 4 0 29 0;
#X connect 5 0 4 0;
#X connect 5 1 1 0;
#X connect 6 0 7 0;
#X connect 7 0 40 0;
#X connect 8 0 9 0;
#X connect 9 0 27 1;
#X connect 10 0 11 1;
#X connect 11 0 37 0;
#X connect 12 0 32 0;
#X connect 13 0 20 1;
#X connect 13 0 21 1;
#X connect 14 0 10 0;
#X connect 15 0 21 0;
#X connect 16 0 15 0;
#X connect 18 0 0 0;
#X connect 19 0 9 0;
#X connect 20 0 16 0;
#X connect 21 0 14 0;
#X connect 22 0 17 0;
#X connect 23 0 15 0;
#X connect 24 0 26 0;
#X connect 25 0 1 1;
#X connect 25 0 4 1;
#X connect 26 0 5 0;
#X connect 27 0 25 0;
#X connect 28 0 21 0;
#X connect 29 0 28 0;
#X connect 30 0 28 1;
#X connect 31 0 22 0;
#X connect 32 0 24 0;
#X connect 33 0 27 0;
#X connect 34 0 13 0;
#X connect 36 0 24 1;
#X connect 38 0 41 1;
#X connect 39 0 41 0;
#X connect 40 0 11 0;
#X connect 41 0 42 1;
#X connect 42 0 4 2;
#X restore 58 196 pd vox1;
#X obj 115 139 i;
#X obj 145 140 != 1;
#X obj 85 170 demux;
#X obj 86 117 t f b;
#X obj 41 9 inlet;
#X obj 86 86 min;
#X floatatom 149 89 5 0 0 0 - - -;
#X obj 131 62 r \$1-nbfrag;
#N canvas 69 160 600 445 vox1 0;
#X floatatom 189 16 5 0 12 0 - - -;
#X obj 230 158 -;
#X obj 230 179 / 44.1;
#X obj 189 40 t f f;
#X obj 165 256 pack f f f;
#X obj 123 163 t f f;
#X msg 165 281 \$2 \, \$1 \$3;
#X obj 165 306 line~;
#X msg 297 32 0;
#X floatatom 297 54 5 0 0 0 - - -;
#X obj 363 336 line~;
#X obj 165 379 *~;
#X obj 123 75 + 1;
#X floatatom 393 166 5 0 0 0 - - -;
#X msg 363 314 \$1 \$2;
#X msg 369 266 0;
#X obj 367 240 delay;
#X obj 457 277 outlet;
#X obj 189 -7 inlet;
#X msg 297 8 560;
#X obj 367 218 - 1;
#X obj 362 292 pack f 1;
#X obj 457 258 delay;
#X obj 338 144 inlet;
#X obj 123 121 min;
#X obj 246 136 max 0;
#X obj 123 141 - 500;
#X obj 245 116 - 0;
#X obj 287 275 1;
#X obj 264 252 t b;
#X obj 280 226 r \$0-voxvol;
#X obj 457 237 max 20;
#X obj 123 97 tabread \$1-peaks;
#X obj 245 95 tabread \$1-peaks;
#X obj 393 142 r \$1-smooth;
#X obj 476 218 s \$1-longfrag;
#X obj 39 94 r \$1-max;
#X obj 297 184 r \$1-voxvol;
#X obj 322 250 m;
#X obj 165 402 outlet~;
#X obj 419 47 r \$0-pitch;
#X obj 405 28 r \$1-pitch;
#X obj 165 333 tabread4~ \$1-lesample;
#X obj 405 71 m 1;
#X obj 230 234 / 1;
#X connect 0 0 3 0;
#X connect 1 0 2 0;
#X connect 2 0 20 0;
#X connect 2 0 31 0;
#X connect 2 0 35 0;
#X connect 2 0 44 0;
#X connect 3 0 12 0;
#X connect 3 1 33 0;
#X connect 4 0 6 0;
#X connect 4 0 29 0;
#X connect 5 0 4 0;
#X connect 5 1 1 0;
#X connect 6 0 7 0;
#X connect 7 0 42 0;
#X connect 8 0 9 0;
#X connect 9 0 27 1;
#X connect 10 0 11 1;
#X connect 11 0 39 0;
#X connect 12 0 32 0;
#X connect 13 0 20 1;
#X connect 13 0 21 1;
#X connect 14 0 10 0;
#X connect 15 0 21 0;
#X connect 16 0 15 0;
#X connect 18 0 0 0;
#X connect 19 0 9 0;
#X connect 20 0 16 0;
#X connect 21 0 14 0;
#X connect 22 0 17 0;
#X connect 23 0 15 0;
#X connect 24 0 26 0;
#X connect 25 0 1 1;
#X connect 25 0 4 1;
#X connect 26 0 5 0;
#X connect 27 0 25 0;
#X connect 28 0 21 0;
#X connect 29 0 28 0;
#X connect 30 0 38 0;
#X connect 30 0 28 1;
#X connect 31 0 22 0;
#X connect 32 0 24 0;
#X connect 33 0 27 0;
#X connect 34 0 13 0;
#X connect 36 0 24 1;
#X connect 37 0 38 1;
#X connect 40 0 43 1;
#X connect 41 0 43 0;
#X connect 42 0 11 0;
#X connect 43 0 44 1;
#X connect 44 0 4 2;
#X restore 114 197 pd vox1;
#X obj 44 245 throw~ \$1-out1;
#X obj 144 241 throw~ \$1-out2;
#X obj 41 31 route stop;
#X obj 41 51 b;
#X connect 0 0 10 0;
#X connect 1 0 2 0;
#X connect 1 0 3 1;
#X connect 2 0 1 1;
#X connect 3 0 0 0;
#X connect 3 0 9 1;
#X connect 3 1 0 1;
#X connect 3 1 9 0;
#X connect 4 0 3 0;
#X connect 4 1 1 0;
#X connect 5 0 12 0;
#X connect 6 0 4 0;
#X connect 7 0 4 0;
#X connect 8 0 6 1;
#X connect 9 0 11 0;
#X connect 12 0 13 0;
#X connect 12 1 6 0;
#X connect 13 0 0 1;
#X connect 13 0 9 1;
