#N canvas 180 137 658 373 10;
#X declare -path AutoPreset;
#X declare -path ../domoTools/decoupeur -path ../domoTools/effects -path ../domoTools/song;
#X declare -path creb;
#X obj 12 116 mknob 25 100 0 1 0 1 \$0-vol-snd \$0-vol-rcv vol -2 -6 1 10 #fc2828 #000000 #000000 2777 1;
#N canvas 58 168 375 291 master 0;
#X obj 51 27 catch~ \$0-out;
#X obj 83 118 *~;
#X obj 104 81 pow 2;
#X obj 104 102 * 4;
#X obj 104 59 r \$0-vol-snd;
#X msg 95 230 3;
#X floatatom 250 234 5 0 0 0 - - - 0;
#X obj 84 186 busrme 4;
#X obj 178 187 busrme 5;
#X obj 227 120 *~;
#X obj 248 83 pow 2;
#X obj 248 104 * 4;
#X obj 248 61 r \$0-vol-snd;
#X obj 51 60 hip~ 20;
#X obj 195 62 hip~ 20;
#X obj 195 29 catch~ \$0-out2;
#X connect 0 0 13 0;
#X connect 1 0 7 0;
#X connect 2 0 3 0;
#X connect 3 0 1 1;
#X connect 4 0 2 0;
#X connect 6 0 7 1;
#X connect 9 0 8 0;
#X connect 10 0 11 0;
#X connect 11 0 9 1;
#X connect 12 0 10 0;
#X connect 13 0 1 0;
#X connect 14 0 9 0;
#X connect 15 0 14 0;
#X restore 11 50 pd master;
#N canvas 604 553 148 84 Interface 0;
#X obj 10 8 tgl 30 0 \$0-rep1-snd \$0-rep1-rcv 1 13 15 1 10 #fcfcfc #000000 #000000 0 1;
#X obj 42 8 tgl 30 0 \$0-rep2-snd \$0-rep2-rcv 2 13 15 1 10 #fcfcfc #000000 #000000 0 1;
#X obj 10 40 tgl 30 0 \$0-rep3-snd \$0-rep3-rcv 3 13 15 1 10 #fcfcfc #000000 #000000 0 1;
#X obj 42 40 tgl 30 0 \$0-rep4-snd \$0-rep4-rcv 4 13 15 1 10 #fcfcfc #000000 #000000 0 1;
#X text 4 67 keys w x c v;
#X obj 76 188 bng 30 250 50 0 \$0-b1-snd \$0-b1-rcv 1 13 15 1 8 #fcfcfc #000000 #000000;
#X obj 77 154 bng 30 250 50 0 \$0-b2-snd \$0-b2-rcv 2 13 15 1 8 #fcfcfc #000000 #000000;
#X obj 111 154 bng 30 250 50 0 \$0-b3-snd \$0-b3-rcv 3 13 15 1 8 #fcfcfc #000000 #000000;
#X obj 111 187 bng 30 250 50 0 \$0-b4-snd \$0-b4-rcv 4 13 15 1 8 #fcfcfc #000000 #000000;
#X restore 11 12 pd Interface;
#N canvas 401 185 322 414 interfguts 0;
#X obj 14 31 keyname;
#X obj 14 56 pack f s;
#X obj 14 77 spigot;
#X obj 64 81 tgl 15 0 empty empty keyboard 0 -6 1 8 #e8e828 #000000 #000000 0 1;
#X obj 89 83 r \$0-getkeyb;
#X obj 14 136 route w x c v;
#X obj 148 299 s \$0-antirebond;
#X obj 107 328 s \$0-deb1time;
#X msg 70 275 40;
#X obj 85 361 s \$0-deb0time;
#X obj 72 255 loadbang;
#X msg 110 306 10;
#X msg 14 168 1 \$1;
#X msg 64 168 2 \$1;
#X msg 113 168 3 \$1;
#X msg 163 168 4 \$1;
#X msg 13 99 \$2 \$1;
#X obj 64 198 s \$0-rep-rcv;
#X obj 12 11 dispatch \$0-rep 1 4;
#X obj 180 50 r \$1-rep-snd;
#X obj 187 77 s \$0-rep-rcv;
#X connect 0 0 1 0;
#X connect 0 1 1 1;
#X connect 1 0 2 0;
#X connect 2 0 16 0;
#X connect 3 0 2 1;
#X connect 4 0 3 0;
#X connect 5 0 12 0;
#X connect 5 1 13 0;
#X connect 5 2 14 0;
#X connect 5 3 15 0;
#X connect 8 0 6 0;
#X connect 8 0 9 0;
#X connect 10 0 8 0;
#X connect 10 0 11 0;
#X connect 11 0 7 0;
#X connect 12 0 17 0;
#X connect 13 0 17 0;
#X connect 14 0 17 0;
#X connect 15 0 17 0;
#X connect 16 0 5 0;
#X connect 19 0 20 0;
#X restore 11 31 pd interfguts;
#X obj 12 80 tgl 15 0 \$0-getkeyb \$0-getkeyb-rcv keyboard 0 -6 1 8 #e8e828 #000000 #000000 0 1;
#N canvas 0 0 283 124 unused 0;
#X obj 11 33 apmaster \$0;
#X obj 11 16 bng 15 250 50 0 empty empty empty 0 -6 0 8 #14e814 #000000 #000000;
#X obj 83 15 bng 15 250 50 0 empty empty empty 0 -6 0 8 #fc2828 #000000 #000000;
#X obj 11 63 bng 12 250 50 0 \$0-save_file_patt-snd \$0-save_file_patt-rcv 10.11.12.13.14.15.16 122 -6 1 6 #fc2828 #000000 #fcfcfc;
#X obj 25 63 hradio 12 1 0 16 \$0-file_patt_but-snd \$0-file_patt_but-rcv _1._2._3_4._5._6_7._8.9.10.11.12.13.14.15.16 0 -6 2 9 #fcfcfc #000000 #000000 0;
#N canvas 628 101 443 334 file_patt_but 0;
#X msg 27 31 \$1;
#X obj 203 36 tgl 15 0 empty empty empty 0 -6 0 8 #fcfcfc #000000 #000000 0 1;
#X obj 203 67 sel 0 1;
#X msg 203 88 color 0 22 22;
#X msg 226 112 color 13 22 22;
#X obj 71 88 demux;
#X obj 101 112 t f f b;
#X msg 145 134 0;
#X obj 99 212 s \$0-pattern-snd;
#X obj 27 11 r \$0-file_patt_but-snd;
#X obj 203 10 r \$0-save_file_patt-snd;
#X msg 20 165 _apfile_ load \$1;
#X msg 148 165 _apfile_ store \$1;
#X obj 203 138 s \$0-file_patt_but-rcv;
#X symbolatom 237 306 0 0 0 0 - - - 0;
#X obj 249 286 s \$0-apmaster-rcv;
#X msg 249 266 loadin;
#X obj 237 202 r \$0-_apfile_-snd;
#X obj 249 245 del 50;
#X obj 249 226 b;
#X connect 0 0 5 0;
#X connect 1 0 2 0;
#X connect 1 0 5 1;
#X connect 2 0 3 0;
#X connect 2 1 4 0;
#X connect 3 0 13 0;
#X connect 4 0 13 0;
#X connect 5 0 11 0;
#X connect 5 1 6 0;
#X connect 6 1 12 0;
#X connect 6 2 7 0;
#X connect 7 0 1 0;
#X connect 9 0 0 0;
#X connect 10 0 1 0;
#X connect 11 0 8 0;
#X connect 12 0 8 0;
#X connect 16 0 15 0;
#X connect 17 0 14 0;
#X connect 17 0 19 0;
#X connect 18 0 16 0;
#X connect 19 0 18 0;
#X restore 10 77 pd file_patt_but;
#X connect 1 0 0 0;
#X connect 2 0 0 1;
#X restore 13 254 pd unused;
#X obj 168 63 route 0;
#X obj 141 319 throw~ \$0-out;
#X obj 276 28 r \$0-st-snd;
#X floatatom 131 75 5 0 0 0 - - - 0;
#X msg 275 51 6 \$1;
#X floatatom 189 93 5 0 0 0 - - - 0;
#X obj 169 41 r \$0-rep-snd;
#X obj 369 345 s \$0-Gammes;
#X obj 369 272 r Gammes;
#X obj 369 296 route 0 1;
#X msg 369 321 1 \$1 \, 2 \$1 \, 3 \$1 \, 4 \$1;
#X obj 443 291 r /GAMME;
#X obj 257 116 s \$0-keys;
#X obj 257 94 spigot;
#X obj 290 73 r \$0-onoff;
#X obj 383 27 r ClochesMode;
#X msg 383 90 1;
#X msg 412 90 0;
#X obj 383 113 tgl 15 0 empty empty empty 17 7 0 10 #fcfcfc #000000 #000000 0 1;
#X obj 383 132 s \$0-onoff;
#X obj 383 48 route Repie;
#X obj 383 69 route Drum;
#X obj 410 167 r CLOCK;
#X obj 410 202 bng 15 250 50 0 empty empty empty 17 7 0 10 #fcfcfc #000000 #000000;
#N canvas 130 221 511 460 KICK 0;
#X obj 155 94 sel 1;
#X obj 155 53 r \$0-keys;
#X obj 155 73 route 1;
#X obj 155 115 t b b;
#X obj 272 53 r CLOCK;
#X floatatom 272 95 5 0 0 0 - - - 0;
#X obj 272 74 ndmetro 2 1;
#X obj 182 136 tgl 15 0 empty empty empty 17 7 0 10 #fcfcfc #000000 #000000 0 1;
#X obj 272 162 spigot;
#X obj 272 115 change;
#X obj 272 136 b;
#X obj 391 158 mtof~;
#X obj 155 268 osc~;
#X obj 128 389 *~ 0.3;
#X obj 128 422 outlet~;
#X obj 155 226 *~ 250;
#X obj 155 295 *~;
#X obj 324 227 *~, f 14;
#X obj 395 205 noise~;
#X floatatom 391 291 5 0 0 0 - - - 0;
#X obj 391 311 mtof;
#X floatatom 391 332 5 0 0 0 - - - 0;
#X obj 323 257 bp~ 4000 20;
#X obj 324 283 *~ 5;
#X floatatom 248 335 5 0 0 0 - - - 0;
#X obj 122 330 lop~ 200;
#X obj 187 318 hip~ 100;
#X obj 155 160 b;
#X obj 155 247 +~ 50;
#X obj 304 355 loadbang;
#X msg 304 376 5;
#X obj 117 126 bng 15 250 50 0 empty empty empty 17 7 0 10 #fcfcfc #000000 #000000;
#X obj 101 356 *~ 2;
#X obj 155 205 ead~ 1 400;
#X obj 231 204 ead~ 0.2 2500;
#X obj 324 206 ead~ 0.1 5;
#X obj 199 342 dist~;
#X connect 0 0 3 0;
#X connect 1 0 2 0;
#X connect 2 0 0 0;
#X connect 3 0 27 0;
#X connect 3 1 7 0;
#X connect 4 0 6 0;
#X connect 5 0 9 0;
#X connect 6 0 5 0;
#X connect 7 0 8 1;
#X connect 8 0 27 0;
#X connect 9 0 10 0;
#X connect 10 0 8 0;
#X connect 12 0 16 0;
#X connect 13 0 14 0;
#X connect 15 0 28 0;
#X connect 16 0 25 0;
#X connect 16 0 26 0;
#X connect 17 0 22 0;
#X connect 18 0 17 1;
#X connect 19 0 20 0;
#X connect 20 0 21 0;
#X connect 21 0 22 1;
#X connect 22 0 23 0;
#X connect 23 0 36 0;
#X connect 24 0 36 1;
#X connect 25 0 32 0;
#X connect 26 0 36 0;
#X connect 27 0 33 0;
#X connect 27 0 34 0;
#X connect 27 0 35 0;
#X connect 28 0 12 0;
#X connect 29 0 30 0;
#X connect 30 0 24 0;
#X connect 32 0 13 0;
#X connect 33 0 15 0;
#X connect 34 0 16 1;
#X connect 35 0 17 0;
#X connect 36 0 13 0;
#X restore 109 209 pd KICK;
#N canvas 618 124 534 551 SNARE 0;
#X obj 155 94 sel 1;
#X obj 155 53 r \$0-keys;
#X obj 155 115 t b b;
#X obj 272 53 r CLOCK;
#X floatatom 272 95 5 0 0 0 - - - 0;
#X obj 182 136 tgl 15 0 empty empty empty 17 7 0 10 #fcfcfc #000000 #000000 0 1;
#X obj 272 162 spigot;
#X obj 272 115 change;
#X obj 409 118 mtof~;
#X obj 90 528 outlet~;
#X obj 324 227 *~, f 14;
#X obj 419 201 noise~;
#X floatatom 409 288 5 0 0 0 - - - 0;
#X obj 409 308 mtof;
#X floatatom 409 329 5 0 0 0 - - - 0;
#X obj 324 283 *~ 5;
#X floatatom 248 335 5 0 0 0 - - - 0;
#X obj 155 160 b;
#X obj 155 73 route 2;
#X obj 272 74 ndmetro 2 2;
#X obj 272 136 sel 1;
#X obj 135 127 bng 15 250 50 0 empty empty empty 17 7 0 10 #fcfcfc #000000 #000000;
#X floatatom 405 257 5 0 0 0 - - - 0;
#X obj 128 389 *~ 0.2;
#X obj 295 351 loadbang;
#X msg 295 372 4;
#X floatatom 315 317 5 0 0 0 - - - 0;
#X floatatom 371 347 5 0 0 0 - - - 0;
#X obj 371 367 mtof;
#X floatatom 371 388 5 0 0 0 - - - 0;
#X obj 323 257 bp~ 1750 5;
#X obj 245 260 bp~ 700 10;
#X obj 208 443 *~ -1;
#X obj 120 487 rev2~ 80 75 2000 30;
#X obj 210 525 outlet~;
#X obj 120 467 delread~ \$0-SNAREpredelay 50;
#X obj 221 416 delwrite~ \$0-SNAREpredelay 50;
#X floatatom 162 210 5 0 0 0 - - - 0;
#X obj 154 258 bp~ 400 5;
#X obj 128 363 dist~;
#X obj 324 206 ead~ 0.1 400;
#X connect 0 0 2 0;
#X connect 1 0 18 0;
#X connect 2 0 17 0;
#X connect 2 1 5 0;
#X connect 3 0 19 0;
#X connect 4 0 7 0;
#X connect 5 0 6 1;
#X connect 6 0 17 0;
#X connect 7 0 20 0;
#X connect 10 0 30 0;
#X connect 10 0 31 0;
#X connect 10 0 38 0;
#X connect 11 0 10 1;
#X connect 12 0 13 0;
#X connect 13 0 14 0;
#X connect 14 0 30 1;
#X connect 15 0 39 0;
#X connect 16 0 39 1;
#X connect 17 0 40 0;
#X connect 18 0 0 0;
#X connect 19 0 4 0;
#X connect 20 0 6 0;
#X connect 21 0 17 0;
#X connect 22 0 30 2;
#X connect 23 0 9 0;
#X connect 23 0 32 0;
#X connect 23 0 36 0;
#X connect 24 0 25 0;
#X connect 25 0 16 0;
#X connect 26 0 31 2;
#X connect 27 0 28 0;
#X connect 28 0 29 0;
#X connect 29 0 31 1;
#X connect 30 0 15 0;
#X connect 31 0 15 0;
#X connect 32 0 34 0;
#X connect 33 0 9 0;
#X connect 33 1 34 0;
#X connect 35 0 33 0;
#X connect 37 0 38 1;
#X connect 38 0 15 0;
#X connect 39 0 23 0;
#X connect 40 0 10 0;
#X restore 182 207 pd SNARE;
#X obj 240 318 throw~ \$0-out2;
#N canvas 290 311 995 641 decoupeurs 0;
#X obj 288 87 bng 15 250 50 0 empty empty load 17 7 0 10 #00fc04 #000000 #000000;
#X obj 482 85 bng 15 250 50 0 empty empty save 17 7 0 10 #fc0400 #000000 #000000;
#X obj 288 61 loadbang;
#X obj 22 36 declare -path AutoPreset;
#X obj 22 287 dac~;
#X obj 23 134 hsl 128 15 0 1 0 0 empty empty empty -2 -8 0 10 #fcfcfc #000000 #000000 0 1;
#X msg 601 110 BANKA-1;
#X floatatom 851 22 5 0 0 0 - - - 0;
#X obj 851 64 bng 15 250 50 0 empty empty empty 17 7 0 10 #fcfcfc #000000 #000000;
#X obj 172 413 hsl 128 15 0 1 0 1 empty empty volume -2 -8 0 10 #fc0400 #000000 #000000 11800 1;
#X obj 169 433 pow 2;
#X obj 169 454 * 2;
#X obj 23 415 *~ 0.5;
#X obj 416 418 *~ 0.5;
#X obj 22 5 declare -path ../domoTools/decoupeur -path ../domoTools/effects -path ../domoTools/song;
#X obj 303 22 apmaster \$0-DECSET;
#X obj 288 107 apmasterfile \$0-DECSET DECSET.txt;
#X obj 20 56 decoupeur_ctl decoupeur-setting1 \$0-DECSET;
#X obj 22 309 fragseq \$0-DECSET-SEQ fragseq1;
#X obj 156 481 fdnrev \$0-DECSET-SEQ fd1;
#X obj 20 154 MORPHgroup \$0-DECSET SEQ;
#X obj 601 130 s \$0-DECSET-SEQ-fragseq1-sample;
#X obj 851 44 s \$0-DECSET-SEQ-fragseq1-vol-rcv;
#X obj 851 84 s \$0-DECSET-SEQ-fragseq1-changeall-rcv;
#X obj 22 236 decsample BANKA 1 decoupeur-setting1;
#X obj 662 103 s BANKA-DATASDIR;
#X obj 22 266 *~ 0.1;
#X obj 459 285 dac~;
#X obj 459 264 *~ 0.1;
#X obj 569 175 s \$0-DECSET-SEQ-fragseq2-sample;
#X obj 459 234 decsample BANKA 2 decoupeur-setting1;
#X obj 457 307 fragseq \$0-DECSET-SEQ fragseq2;
#X obj 337 146 r \$0-keys;
#X obj 337 207 s \$0-DECSET-SEQ-fragseq1-on-rcv;
#X obj 337 166 route 3 4;
#X obj 362 188 s \$0-DECSET-SEQ-fragseq2-on-rcv;
#X msg 422 153 0;
#X obj 422 132 del 100;
#X obj 154 557 *~ 0.5;
#X obj 252 558 *~ 0.5;
#X obj 116 603 outlet~;
#X obj 303 602 outlet~;
#X obj 798 285 dac~;
#X obj 798 264 *~ 0.1;
#X obj 798 234 decsample BANKA 3 decoupeur-setting1;
#X msg 569 155 BANKA-3;
#X obj 569 14 r \$0-loadtables;
#X obj 569 37 t b b, f 16;
#X obj 695 35 r ClochesWavPath;
#X obj 662 60 symbol;
#X obj 672 13 bng 18 250 50 0 empty empty empty 0 -9 0 10 #fcfcfc #000000 #000000;
#X msg 662 82 symbol \$1/RepieDrum/decoupeur/;
#X connect 0 0 16 0;
#X connect 0 0 37 0;
#X connect 1 0 16 1;
#X connect 2 0 0 0;
#X connect 5 0 20 0;
#X connect 6 0 21 0;
#X connect 7 0 22 0;
#X connect 8 0 23 0;
#X connect 9 0 10 0;
#X connect 10 0 11 0;
#X connect 11 0 12 1;
#X connect 11 0 13 1;
#X connect 12 0 19 0;
#X connect 12 0 38 0;
#X connect 12 0 40 0;
#X connect 13 0 19 0;
#X connect 13 0 39 0;
#X connect 13 0 41 0;
#X connect 18 0 12 0;
#X connect 18 1 13 0;
#X connect 19 0 40 0;
#X connect 19 1 41 0;
#X connect 24 0 26 0;
#X connect 26 0 4 0;
#X connect 26 0 4 1;
#X connect 28 0 27 0;
#X connect 28 0 27 1;
#X connect 30 0 28 0;
#X connect 31 0 12 0;
#X connect 31 1 13 0;
#X connect 32 0 34 0;
#X connect 34 0 33 0;
#X connect 34 1 35 0;
#X connect 36 0 35 0;
#X connect 36 0 33 0;
#X connect 37 0 36 0;
#X connect 38 0 41 0;
#X connect 39 0 40 0;
#X connect 43 0 42 0;
#X connect 43 0 42 1;
#X connect 44 0 43 0;
#X connect 45 0 29 0;
#X connect 46 0 47 0;
#X connect 47 0 6 0;
#X connect 47 0 45 0;
#X connect 47 1 49 0;
#X connect 48 0 49 1;
#X connect 49 0 51 0;
#X connect 50 0 47 0;
#X connect 51 0 25 0;
#X restore 258 208 pd decoupeurs;
#X obj 494 137 sel 1;
#X obj 494 160 spigot 1;
#X msg 522 182 0;
#X obj 494 114 r \$1-onoff;
#X obj 494 207 s \$0-loadtables;
#X obj 13 173 tgl 20 0 \$0-onoff \$0-onoff onoff 0 -6 0 12 #fc2828 #000000 #000000 0 1;
#X obj 13 200 r \$0-onoff;
#X obj 13 223 switch~;
#X obj 508 5 declare -path creb;
#X connect 6 1 19 0;
#X connect 8 0 10 0;
#X connect 10 0 19 0;
#X connect 12 0 6 0;
#X connect 14 0 15 0;
#X connect 15 0 16 0;
#X connect 16 0 13 0;
#X connect 17 0 16 0;
#X connect 19 0 18 0;
#X connect 20 0 19 1;
#X connect 21 0 26 0;
#X connect 22 0 24 0;
#X connect 23 0 24 0;
#X connect 24 0 25 0;
#X connect 26 0 27 0;
#X connect 27 0 22 0;
#X connect 27 1 23 0;
#X connect 28 0 29 0;
#X connect 30 0 7 0;
#X connect 30 0 32 0;
#X connect 31 0 7 0;
#X connect 31 1 32 0;
#X connect 33 0 7 0;
#X connect 33 1 32 0;
#X connect 34 0 35 0;
#X connect 35 0 36 0;
#X connect 35 0 38 0;
#X connect 36 0 35 1;
#X connect 37 0 34 0;
#X connect 40 0 41 0;
