#N canvas 215 397 507 567 10;
#X text 71 5 Voix \$0 nom num;
#X obj 15 25 table \$0-samp1;
#X obj 15 42 table \$0-samp2;
#X obj 15 60 table \$0-samp3;
#X obj 15 78 table \$0-samp4;
#X obj 15 95 table \$0-samp5;
#X obj 15 114 table \$0-samp6;
#X obj 15 131 table \$0-samp7;
#X obj 15 149 table \$0-samp8;
#X obj 15 172 table \$0-samp9;
#X obj 15 190 table \$0-samp10;
#X obj 15 208 table \$0-samp11;
#X obj 15 226 table \$0-samp12;
#X obj 15 243 table \$0-samp13;
#X obj 15 262 table \$0-samp14;
#X obj 15 279 table \$0-samp15;
#X obj 15 297 table \$0-samp16;
#N canvas 558 506 701 399 find-pitchs 0;
#X obj 93 146 tabplay~;
#X msg 93 126 set \$1 \, bang;
#X obj 93 105 makesymbol \$0-samp%s;
#X floatatom 93 63 5 1 13 0 - - - 0;
#X floatatom 122 251 5 0 0 0 - - - 0;
#X obj 167 149 fiddle~ 2048;
#X obj 70 66 bng 15 250 50 0 empty empty empty 0 -6 0 8 #fcfcfc #000000 #000000;
#X obj 214 251 mtof;
#X obj 55 233 f;
#X obj 55 254 pack f f;
#X obj 94 43 i;
#X obj 122 43 + 1;
#X msg 124 15 1;
#X obj 93 8 bng 15 250 50 0 empty empty empty 0 -6 0 8 #fcfcfc #000000 #000000;
#X obj 67 154 bng 15 250 50 0 empty empty empty 0 -6 0 8 #fcfcfc #000000 #000000;
#X msg 58 3 8;
#X obj 234 68 switch~;
#X obj 234 47 tgl 15 0 empty empty empty 0 -6 0 8 #fcfcfc #000000 #000000 0 1;
#X obj 19 346 tabwrite \$0-pitchs;
#X obj 453 265 s \$0-pitchs;
#X msg 453 244 write \$1;
#X floatatom 125 285 5 0 0 0 - - - 0;
#X msg 48 111 stop;
#X obj 213 271 phasor~;
#X obj 208 333 dac~;
#X obj 208 312 *~ 0.01;
#X obj 213 292 *~ 0.2;
#X obj 168 298 *~ 2;
#X obj 262 149 tabread \$0-pitchs;
#X obj 167 195 list prepend 0;
#X obj 167 173 f;
#X obj 262 194 list prepend 1;
#X obj 262 171 f;
#X obj 167 216 route 0, f 33;
#X obj 93 82 t f f;
#X obj 395 57 vradio 15 1 0 3 empty empty empty 0 -8 0 10 #fcfcfc #000000 #000000 0;
#X floatatom 401 117 5 0 0 0 - - - 0;
#X obj 452 185 bng 15 250 50 0 empty empty save 17 7 0 10 #fc0400 #000000 #000000;
#X obj 485 198 r \$0-pitchfile;
#X obj 452 221 symbol;
#X connect 0 0 5 0;
#X connect 0 0 27 0;
#X connect 1 0 0 0;
#X connect 2 0 1 0;
#X connect 3 0 34 0;
#X connect 4 0 8 1;
#X connect 4 0 7 0;
#X connect 5 0 30 0;
#X connect 6 0 3 0;
#X connect 7 0 23 0;
#X connect 8 0 9 0;
#X connect 9 0 18 0;
#X connect 10 0 11 0;
#X connect 10 0 3 0;
#X connect 11 0 10 1;
#X connect 12 0 10 1;
#X connect 13 0 10 0;
#X connect 14 0 8 0;
#X connect 15 0 10 0;
#X connect 17 0 16 0;
#X connect 20 0 19 0;
#X connect 21 0 4 0;
#X connect 22 0 0 0;
#X connect 23 0 26 0;
#X connect 25 0 24 0;
#X connect 26 0 25 0;
#X connect 27 0 25 0;
#X connect 28 0 32 0;
#X connect 29 0 33 0;
#X connect 30 0 29 0;
#X connect 31 0 33 0;
#X connect 32 0 31 0;
#X connect 33 0 4 0;
#X connect 34 0 9 1;
#X connect 34 0 2 0;
#X connect 34 1 28 0;
#X connect 35 0 33 1;
#X connect 35 0 36 0;
#X connect 37 0 39 0;
#X connect 38 0 39 1;
#X connect 39 0 20 0;
#X restore 20 374 pd find-pitchs;
#X obj 15 320 table \$0-pitchs 17;
#X obj 201 208 gamme 90 40 1 0 1 0 1 1 0 0 0 1 0 0;
#X obj 129 225 route 0;
#X msg 126 165 setb \$1;
#X obj 201 99 f;
#X floatatom 243 69 5 1 13 0 - - - 0;
#X obj 195 67 + 1;
#X obj 178 523 outlet~;
#X obj 201 142 tabread \$0-pitchs;
#X obj 196 26 bng 15 250 50 0 empty empty empty 17 7 0 10 #fcfcfc #000000 #000000;
#X obj 195 45 random \$3;
#X obj 201 163 t f f;
#X obj 201 254 -;
#N canvas 72 130 419 338 loadtables 0;
#X obj 50 24 bng 15 250 50 0 empty empty empty 0 -6 0 8 #fcfcfc #000000 #000000;
#X floatatom 88 119 5 0 0 0 - - - 0;
#X obj 50 119 t f f;
#X obj 80 141 pack f s;
#X obj 50 72 t b b, f 20;
#X obj 50 275 soundfiler;
#X obj 50 226 pack s s;
#X obj 50 203 makesymbol \$0-samp%s;
#X msg 50 247 read -resize \$2 \$1;
#X obj 50 96 for++ 1 \$3 100;
#X obj 65 42 r \$0-loadtables;
#X obj 202 20 r ClochesWavPath;
#X msg 202 43 symbol \$1/MyosotisBaroque;
#X obj 202 67 makesymbol %s/\$2/\$2;
#X msg 80 174 symbol \$2\$1.wav;
#X obj 207 235 s \$0-pitchs;
#X obj 207 191 symbol;
#X msg 267 157 symbol \$1_pitchs.txt;
#X msg 207 214 read \$1;
#X obj 267 180 s \$0-pitchfile;
#X connect 0 0 4 0;
#X connect 2 0 7 0;
#X connect 2 1 3 0;
#X connect 3 0 14 0;
#X connect 4 0 9 0;
#X connect 4 1 16 0;
#X connect 6 0 8 0;
#X connect 7 0 6 0;
#X connect 8 0 5 0;
#X connect 9 0 1 0;
#X connect 9 0 2 0;
#X connect 10 0 4 0;
#X connect 11 0 12 0;
#X connect 12 0 13 0;
#X connect 13 0 3 1;
#X connect 13 0 17 0;
#X connect 14 0 6 1;
#X connect 16 0 18 0;
#X connect 17 0 16 1;
#X connect 17 0 19 0;
#X connect 18 0 15 0;
#X restore 18 347 pd loadtables;
#X obj 272 5 r \$1-keys;
#X obj 272 25 route \$4;
#X obj 272 46 sel 1;
#X obj 358 64 random \$3;
#X obj 334 126 shuffle 1 \$3 0.25;
#X obj 341 98 bng 15 250 50 0 empty empty empty 17 7 0 10 #fcfcfc #000000 #000000;
#X floatatom 350 175 5 0 0 0 - - - 0;
#X floatatom 331 231 5 0 0 0 - - - 0;
#X obj 136 22 hradio 15 1 0 8 empty empty empty 0 -8 0 10 #fcfcfc #000000 #000000 0;
#X floatatom 161 284 5 0 0 0 - - - 0;
#X msg 201 186 round \$1 1000;
#X obj 122 87 r \$1-Gammes;
#X obj 122 109 route \$4 -1;
#X obj 151 396 subvox \$0 0;
#X obj 201 274 t b f;
#X obj 201 328 pack f f f;
#X obj 201 299 i;
#X obj 239 297 + 1;
#X obj 201 351 s \$0-play;
#X obj 201 120 t f f;
#X obj 164 416 subvox \$0 1;
#X obj 177 436 subvox \$0 2;
#X obj 189 456 subvox \$0 3;
#X obj 200 476 subvox \$0 4;
#X obj 352 334 sel 1;
#X obj 352 357 spigot 1;
#X msg 380 379 0;
#X obj 352 311 r \$1-onoff;
#X obj 352 404 s \$0-loadtables;
#X connect 19 0 30 0;
#X connect 19 0 41 0;
#X connect 21 0 19 0;
#X connect 22 0 51 0;
#X connect 24 0 22 0;
#X connect 26 0 29 0;
#X connect 26 0 38 0;
#X connect 27 0 28 0;
#X connect 28 0 24 0;
#X connect 28 0 23 0;
#X connect 29 0 42 0;
#X connect 29 1 30 1;
#X connect 30 0 46 0;
#X connect 32 0 33 0;
#X connect 33 0 34 0;
#X connect 34 0 36 0;
#X connect 36 0 22 0;
#X connect 37 0 36 0;
#X connect 40 0 24 0;
#X connect 42 0 19 0;
#X connect 43 0 44 0;
#X connect 44 0 21 0;
#X connect 44 1 21 0;
#X connect 45 0 25 0;
#X connect 46 0 48 0;
#X connect 46 1 47 1;
#X connect 47 0 50 0;
#X connect 48 0 49 0;
#X connect 48 0 47 0;
#X connect 49 0 48 1;
#X connect 51 0 26 0;
#X connect 51 1 47 2;
#X connect 52 0 25 0;
#X connect 53 0 25 0;
#X connect 54 0 25 0;
#X connect 55 0 25 0;
#X connect 56 0 57 0;
#X connect 57 0 58 0;
#X connect 57 0 60 0;
#X connect 58 0 57 1;
#X connect 59 0 56 0;
