#N canvas 332 519 370 360 10;
#X obj 52 122 tgl 20 1 \$0-on-snd \$0-on-rcv empty 0 -6 0 8 -258699
-1 -1 1 1;
#X obj 51 102 r \$0-onoff;
#X obj 12 116 mknob 25 100 0 1 0 1 \$0-vol-snd \$0-vol-rcv vol -2 -6
193 10 -258699 -1 -1 1431 1;
#X obj 52 148 switch~;
#N canvas 433 290 298 213 master 1;
#X obj 123 39 catch~ \$0-out;
#X obj 140 111 *~;
#X obj 175 91 pow 2;
#X obj 175 112 * 4;
#X obj 175 69 r \$0-vol-snd;
#X obj 122 70 hip~ 50;
#X obj 133 147 busrme 8;
#X floatatom 201 146 5 0 0 0 - - -;
#X connect 0 0 5 0;
#X connect 1 0 6 0;
#X connect 2 0 3 0;
#X connect 3 0 1 1;
#X connect 4 0 2 0;
#X connect 5 0 1 0;
#X connect 7 0 6 1;
#X restore 11 50 pd master;
#N canvas 694 160 126 154 Interface 0;
#X obj 3 2 cnv 15 120 120 empty empty Myosotis 20 12 2 14 -225271 -66577
0;
#X obj 50 40 tgl 30 0 \$0-myoso3-snd \$0-myoso3-rcv 3 13 15 1 10 -262131
-1 -1 0 1;
#X obj 83 40 tgl 30 0 \$0-myoso4-snd \$0-myoso4-rcv 4 13 15 1 10 -262131
-1 -1 0 1;
#X obj 83 73 tgl 30 0 \$0-myoso5-snd \$0-myoso5-rcv 5 13 15 1 10 -262131
-1 -1 0 1;
#X obj 17 40 tgl 30 0 \$0-myoso2-snd \$0-myoso2-rcv 2 13 15 1 10 -262131
-1 -1 0 1;
#X obj 50 73 tgl 30 0 \$0-myoso0-snd \$0-myoso0-rcv E 13 15 1 10 -228992
-1 -1 0.30637 0.30637;
#X obj 17 73 tgl 30 0 \$0-myoso1-snd \$0-myoso1-rcv 1 13 15 1 10 -262131
-1 -1 0 1;
#X text 3 124 keys w x c v b;
#X text 63 135 n;
#X restore 11 12 pd Interface;
#N canvas 430 91 434 420 interfguts 0;
#X obj 4 38 keyname;
#X obj 4 63 pack f s;
#X obj 4 84 spigot;
#X obj 54 88 tgl 15 0 empty empty keyboard 0 -6 1 8 -241291 -1 -1 0
1;
#X obj 79 90 r \$0-getkeyb;
#X obj 4 143 route w x c v b n;
#X obj -55 13 dispatch \$0-myoso 0 5;
#X obj 120 37 r \$1-myoso-snd;
#X obj 120 56 s \$0-myoso-rcv;
#X msg 4 105 \$2 \$1;
#X msg -37 178 1 \$1;
#X msg -3 178 2 \$1;
#X msg 33 178 3 \$1;
#X msg 68 178 4 \$1;
#X msg 104 178 5 \$1;
#X msg 141 178 0 \$1;
#X obj 50 215 s \$0-myoso-rcv;
#X obj 83 350 s \$0-deb1time;
#X obj -8 350 s \$0-deb0time;
#X obj 46 316 init 20;
#X obj 42 295 bng 15 250 50 0 empty empty empty 17 7 0 10 -262144 -1
-1;
#X connect 0 0 1 0;
#X connect 0 1 1 1;
#X connect 1 0 2 0;
#X connect 2 0 9 0;
#X connect 3 0 2 1;
#X connect 4 0 3 0;
#X connect 5 0 10 0;
#X connect 5 1 11 0;
#X connect 5 2 12 0;
#X connect 5 3 13 0;
#X connect 5 4 14 0;
#X connect 5 5 15 0;
#X connect 7 0 8 0;
#X connect 9 0 5 0;
#X connect 10 0 16 0;
#X connect 11 0 16 0;
#X connect 12 0 16 0;
#X connect 13 0 16 0;
#X connect 14 0 16 0;
#X connect 15 0 16 0;
#X connect 19 0 18 0;
#X connect 19 0 17 0;
#X connect 20 0 19 0;
#X restore 11 31 pd interfguts;
#X obj 12 80 tgl 15 0 \$0-getkeyb \$0-getkeyb-rcv keyboard 0 -6 1 8
-241291 -1 -1 0 1;
#N canvas 0 0 283 124 unused 0;
#X obj 11 33 apmaster \$0;
#X obj 11 16 bng 15 250 50 0 empty empty empty 0 -6 0 8 -24198 -1 -1
;
#X obj 83 15 bng 15 250 50 0 empty empty empty 0 -6 0 8 -258699 -1
-1;
#X obj 11 63 bng 12 250 50 0 \$0-save_file_patt-snd \$0-save_file_patt-rcv
10.11.12.13.14.15.16 122 -6 1 6 -258699 -1 -262144;
#X obj 25 63 hradio 12 1 0 16 \$0-file_patt_but-snd \$0-file_patt_but-rcv
_1._2._3_4._5._6_7._8.9.10.11.12.13.14.15.16 0 -6 2 9 -262144 -1 -1
0;
#N canvas 628 101 443 334 file_patt_but 0;
#X msg 27 31 \$1;
#X obj 203 36 tgl 15 0 empty empty empty 0 -6 0 8 -262144 -1 -1 0 1
;
#X obj 203 67 sel 0 1;
#X msg 203 88 color 0 22 22;
#X msg 226 112 color 13 22 22;
#X obj 71 88 demux;
#X obj 101 112 t f f b;
#X msg 145 134 0;
#X obj 99 212 s \$0-pattern-snd;
#X obj 27 11 r \$0-file_patt_but-snd;
#X obj 203 10 r \$0-save_file_patt-snd;
#X msg 20 165 _apfile_ load \$1;
#X msg 148 165 _apfile_ store \$1;
#X obj 203 138 s \$0-file_patt_but-rcv;
#X symbolatom 237 306 0 0 0 0 - - -;
#X obj 249 286 s \$0-apmaster-rcv;
#X msg 249 266 loadin;
#X obj 237 202 r \$0-_apfile_-snd;
#X obj 249 245 del 50;
#X obj 249 226 b;
#X connect 0 0 5 0;
#X connect 1 0 2 0;
#X connect 1 0 5 1;
#X connect 2 0 3 0;
#X connect 2 1 4 0;
#X connect 3 0 13 0;
#X connect 4 0 13 0;
#X connect 5 0 11 0;
#X connect 5 1 6 0;
#X connect 6 1 12 0;
#X connect 6 2 7 0;
#X connect 7 0 1 0;
#X connect 9 0 0 0;
#X connect 10 0 1 0;
#X connect 11 0 8 0;
#X connect 12 0 8 0;
#X connect 16 0 15 0;
#X connect 17 0 14 0;
#X connect 17 0 19 0;
#X connect 18 0 16 0;
#X connect 19 0 18 0;
#X restore 10 77 pd file_patt_but;
#X connect 1 0 0 0;
#X connect 2 0 0 1;
#X restore 36 200 pd unused;
#N canvas 215 168 544 500 synth 0;
#X obj -6 302 osc~;
#X obj 88 224 mtof;
#X obj 49 287 *~;
#X obj 49 181 t b f;
#X obj 259 129 osc~ 6;
#X obj 65 245 +~ 0;
#X obj 258 150 *~ 10;
#X obj 259 87 random 10;
#X obj 259 52 b;
#X obj 50 531 throw~ \$0-out;
#X obj 327 86 random 1000;
#X obj 327 108 / 1000;
#X obj 327 130 pow 2;
#X obj 189 225 mtof;
#X obj 150 288 *~;
#X obj 166 246 +~ 0;
#X obj 49 133 t f b;
#X obj 89 156 tgl 15 0 empty empty empty 0 -6 0 8 -262144 -1 -1 1 1
;
#X obj 49 154 demux;
#X obj 150 182 t b f;
#X obj 295 271 osc~ 6;
#X obj 294 292 *~ 10;
#X obj 294 194 b;
#X obj 378 229 random 1000;
#X obj 378 251 / 1000;
#X obj 378 273 pow 2;
#X obj 377 294 * 1000;
#X obj 292 250 + 1000;
#X obj 294 231 random 3000;
#X obj 259 30 loadbang;
#X obj 22 83 69;
#X obj 49 83 71;
#X obj 49 112 f;
#X obj 75 83 74;
#X obj 102 83 76;
#X obj 48 14 r \$0-playnote;
#X obj 233 31 bng 15 250 50 0 empty empty empty 0 -6 0 8 -262144 -1
-1;
#X obj 322 44 r \$0-newsound;
#X obj 49 203 ead~ 20 1200;
#X obj 150 204 ead~ 20 1200;
#X obj 36 51 sel 1 2 3 4 5;
#X obj 412 436 s \$0-playnote;
#X obj 412 374 r \$0-myoso-snd;
#X msg 412 395 \$2 \$1;
#X obj 412 415 route 1;
#X floatatom 7 171 5 0 0 0 - - -;
#X obj 71 473 subecho;
#SUB settings 5.15212 0.715 0.645;
#X obj 78 385 delwrite~ \$0-del 20000;
#X obj 110 427 vd~ \$0-del 5000;
#X obj 49 436 +~;
#X obj 414 540 sig~ 5000;
#X obj 414 561 lop~ 0.1;
#X obj 413 583 lop~ 0.1;
#N canvas 534 0 602 452 alea 0;
#X obj 116 174 moses 6;
#X obj 116 154 + 1;
#X obj 116 197 s \$0-playnote;
#X obj 116 75 tgl 15 0 empty empty empty 0 -6 0 8 -262144 -1 -1 0 1
;
#X obj 116 133 random 60;
#X obj 116 108 metro 60;
#X connect 0 0 2 0;
#X connect 1 0 0 0;
#X connect 3 0 5 0;
#X connect 4 0 1 0;
#X connect 5 0 4 0;
#X restore 397 482 pd alea;
#X obj 259 107 + 3;
#X obj 65 267 blosc~ saw;
#X obj 165 266 blosc~ saw;
#X obj 50 347 +~;
#X obj 248 326 LFO_noise~ 0.1;
#X obj 248 347 +~ 1;
#X obj 247 408 unsig~ 50;
#X obj 49 322 lp2~ 1000 4;
#X obj 350 187 bng 15 250 50 0 empty empty empty 0 -6 0 8 -262144 -1
-1;
#X obj 110 446 *~ 0.8;
#N canvas 0 0 762 500 view 0;
#N canvas 0 0 450 300 (subpatch) 0;
#X array \$0-show 1000 float 0;
#X coords 0 10000 999 0 600 500 1;
#X restore 44 18 graph;
#X obj 739 75 inlet;
#X obj 648 117 f;
#X obj 648 94 t b b;
#X obj 677 115 i;
#X obj 703 114 + 1;
#X obj 730 116 mod 1000;
#X obj 648 140 tabwrite \$0-show;
#X obj 649 54 tgl 15 1 empty empty empty 0 -6 0 8 -262144 -1 -1 1 1
;
#X floatatom 791 118 5 0 0 0 - - -;
#X obj 815 94 s \$0-show;
#X msg 790 91 0;
#X msg 811 63 const 0;
#X obj 649 74 metro 10000;
#X obj 678 204 * 1000;
#X obj 678 229 / 3600;
#X floatatom 678 254 5 0 0 0 - - -;
#X msg 675 170 10;
#X text 724 252 2.77h;
#X connect 1 0 2 1;
#X connect 2 0 7 0;
#X connect 3 0 2 0;
#X connect 3 1 4 0;
#X connect 4 0 5 0;
#X connect 4 0 7 1;
#X connect 4 0 9 0;
#X connect 5 0 6 0;
#X connect 6 0 4 1;
#X connect 8 0 13 0;
#X connect 11 0 4 1;
#X connect 12 0 10 0;
#X connect 12 0 11 0;
#X connect 13 0 3 0;
#X connect 14 0 15 0;
#X connect 15 0 16 0;
#X connect 17 0 14 0;
#X restore 316 569 pd view;
#X obj 87 343 hip~ 300;
#X msg 169 147 500;
#X msg 128 155 2;
#X obj 127 83 81;
#X obj 87 362 lop~ 2000;
#X obj 180 93 random 2000;
#X obj 121 117 random 100;
#N canvas 71 205 273 339 lfo-noise 0;
#X obj 74 76 / 1000;
#X obj 74 96 - 1;
#X obj 74 35 metro 100;
#X obj 74 14 tgl 15 1 empty empty empty 0 -6 0 8 -262144 -1 -1 1 1
;
#X floatatom 146 34 5 1 1000 0 - - -;
#X floatatom 12 276 8 0 0 0 - - -;
#X obj 74 201 +;
#X obj 28 125 / 50;
#X obj 28 148 - 1;
#X obj 74 244 +;
#X obj 90 181 -;
#X obj 91 158 t f f;
#X obj 74 301 outlet;
#X obj 74 220 clip -0.01 0.01;
#X obj 105 244 clip 0 1;
#X floatatom 132 284 5 0 0 0 - - -;
#X obj 185 219 * -1;
#X obj 185 199 f;
#X obj 12 248 * 100000;
#X obj 74 56 random 2001;
#X obj 74 118 * 5e-06;
#X msg 185 178 0.0001;
#X connect 0 0 1 0;
#X connect 1 0 20 0;
#X connect 2 0 19 0;
#X connect 3 0 2 0;
#X connect 4 0 2 1;
#X connect 6 0 13 0;
#X connect 7 0 8 0;
#X connect 9 0 12 0;
#X connect 9 0 14 0;
#X connect 9 0 15 0;
#X connect 10 0 6 1;
#X connect 11 0 10 1;
#X connect 11 1 10 0;
#X connect 13 0 9 0;
#X connect 13 0 18 0;
#X connect 14 0 9 1;
#X connect 14 0 11 0;
#X connect 16 0 13 1;
#X connect 17 0 16 0;
#X connect 17 0 13 2;
#X connect 18 0 5 0;
#X connect 19 0 0 0;
#X connect 20 0 6 0;
#X connect 21 0 17 0;
#X restore 213 446 pd lfo-noise;
#X floatatom 342 625 0 0 0 0 - - -;
#X msg 249 624 0.1;
#N canvas 0 0 707 654 view 0;
#N canvas 0 0 450 300 (subpatch) 0;
#X array \$0-shows 1000 float 0;
#X coords 0 10000 999 0 600 500 1;
#X restore 52 10 graph;
#X obj 152 538 inlet;
#X obj 61 580 f;
#X obj 61 557 t b b;
#X obj 90 578 i;
#X obj 116 577 + 1;
#X obj 143 579 mod 1000;
#X obj 62 517 tgl 15 1 empty empty empty 0 -6 0 8 -262144 -1 -1 1 1
;
#X floatatom 204 581 5 0 0 0 - - -;
#X obj 299 565 s \$0-show;
#X msg 258 550 0;
#X msg 287 528 const 0;
#X obj 428 548 * 1000;
#X floatatom 428 598 5 0 0 0 - - -;
#X obj 61 603 tabwrite \$0-shows;
#X obj 62 537 metro 100;
#X obj 428 569 / 60;
#X msg 428 527 0.1;
#X text 465 604 1.66mn;
#X floatatom 20 624 8 0 0 0 - - -;
#X connect 1 0 2 1;
#X connect 2 0 14 0;
#X connect 2 0 19 0;
#X connect 3 0 2 0;
#X connect 3 1 4 0;
#X connect 4 0 5 0;
#X connect 4 0 8 0;
#X connect 4 0 14 1;
#X connect 5 0 6 0;
#X connect 6 0 4 1;
#X connect 7 0 15 0;
#X connect 10 0 4 1;
#X connect 11 0 9 0;
#X connect 11 0 10 0;
#X connect 12 0 16 0;
#X connect 15 0 3 0;
#X connect 16 0 13 0;
#X connect 17 0 12 0;
#X restore 9 621 pd view;
#N canvas 632 0 324 360 lfo-noise 0;
#X obj 74 76 / 1000;
#X obj 74 96 - 1;
#X obj 74 14 tgl 15 0 empty empty empty 0 -6 0 8 -262144 -1 -1 0 1
;
#X floatatom 146 34 5 1 1000 0 - - -;
#X floatatom 8 343 8 0 0 0 - - -;
#X obj 74 201 +;
#X obj 28 125 / 50;
#X obj 28 148 - 1;
#X obj 74 244 +;
#X obj 90 181 -;
#X obj 91 158 t f f;
#X obj 105 301 outlet;
#X obj 74 220 clip -0.01 0.01;
#X obj 105 245 clip 0 1;
#X obj 146 141 * -1;
#X obj 222 80 f;
#X obj 8 323 * 100000;
#X obj 74 56 random 2001;
#X obj 74 35 metro 1;
#X obj 130 192 *;
#X floatatom 238 330 8 0 0 0 - - -;
#X obj 222 37 loadbang;
#X obj 192 193 *;
#X msg 192 133 1 \$1;
#X obj 192 153 -;
#X obj 238 309 sqrt;
#X obj 241 231 * 100000;
#X floatatom 241 252 5 0 0 0 - - -;
#X obj 240 210 speedlim 500;
#X obj 156 290 * 100000;
#X floatatom 155 311 5 0 0 0 - - -;
#X obj 155 269 speedlim 500;
#X obj 74 118 * 1e-06;
#X obj 8 303 speedlim 500;
#X msg 246 141 0.0001;
#X msg 222 59 5e-05;
#X obj 130 171 pow 0.2;
#X obj 192 173 pow 0.2;
#X connect 0 0 1 0;
#X connect 1 0 32 0;
#X connect 2 0 18 0;
#X connect 3 0 18 1;
#X connect 5 0 12 0;
#X connect 6 0 7 0;
#X connect 8 0 13 0;
#X connect 9 0 5 1;
#X connect 10 0 9 1;
#X connect 10 1 9 0;
#X connect 12 0 8 0;
#X connect 12 0 33 0;
#X connect 13 0 8 1;
#X connect 13 0 10 0;
#X connect 13 0 11 0;
#X connect 13 0 23 0;
#X connect 13 0 36 0;
#X connect 14 0 19 1;
#X connect 15 0 14 0;
#X connect 15 0 22 1;
#X connect 16 0 4 0;
#X connect 17 0 0 0;
#X connect 18 0 17 0;
#X connect 19 0 12 1;
#X connect 19 0 31 0;
#X connect 21 0 35 0;
#X connect 22 0 12 2;
#X connect 22 0 28 0;
#X connect 23 0 24 0;
#X connect 24 0 37 0;
#X connect 26 0 27 0;
#X connect 28 0 26 0;
#X connect 29 0 30 0;
#X connect 31 0 29 0;
#X connect 32 0 5 0;
#X connect 33 0 16 0;
#X connect 34 0 5 1;
#X connect 35 0 15 0;
#X connect 36 0 19 0;
#X connect 37 0 22 0;
#X restore 9 560 pd lfo-noise;
#X obj 9 581 * 8000;
#N canvas 665 275 291 330 lfo-noise 0;
#X obj 74 76 / 1000;
#X obj 74 96 - 1;
#X obj 74 14 tgl 15 1 empty empty empty 0 -6 0 8 -262144 -1 -1 1 1
;
#X floatatom 146 34 5 1 1000 0 - - -;
#X floatatom 12 276 8 0 0 0 - - -;
#X obj 74 201 +;
#X obj 28 125 / 50;
#X obj 28 148 - 1;
#X obj 74 244 +;
#X obj 90 181 -;
#X obj 91 158 t f f;
#X obj 105 301 outlet;
#X obj 74 220 clip -0.01 0.01;
#X obj 105 245 clip 0 1;
#X obj 146 141 * -1;
#X obj 222 80 f;
#X obj 74 56 random 2001;
#X obj 74 118 * 1e-06;
#X obj 130 192 *;
#X floatatom 166 285 8 0 0 0 - - -;
#X obj 222 37 loadbang;
#X obj 192 193 *;
#X msg 192 133 1 \$1;
#X obj 192 153 -;
#X obj 74 35 metro 100;
#X obj 12 248 * 100000;
#X msg 208 247;
#X msg 208 218 0.0001;
#X msg 222 59 5e-05;
#X obj 130 171 pow 0.2;
#X obj 192 173 pow 0.2;
#X connect 0 0 1 0;
#X connect 1 0 17 0;
#X connect 2 0 24 0;
#X connect 3 0 24 1;
#X connect 5 0 12 0;
#X connect 6 0 7 0;
#X connect 8 0 13 0;
#X connect 9 0 5 1;
#X connect 10 0 9 1;
#X connect 10 1 9 0;
#X connect 12 0 8 0;
#X connect 12 0 25 0;
#X connect 13 0 8 1;
#X connect 13 0 10 0;
#X connect 13 0 11 0;
#X connect 13 0 22 0;
#X connect 13 0 29 0;
#X connect 14 0 18 1;
#X connect 15 0 14 0;
#X connect 15 0 21 1;
#X connect 16 0 0 0;
#X connect 17 0 5 0;
#X connect 18 0 12 1;
#X connect 20 0 28 0;
#X connect 21 0 12 2;
#X connect 22 0 23 0;
#X connect 23 0 30 0;
#X connect 24 0 16 0;
#X connect 25 0 4 0;
#X connect 27 0 5 1;
#X connect 28 0 15 0;
#X connect 29 0 18 0;
#X connect 30 0 21 0;
#X restore 220 479 pd lfo-noise;
#X obj 220 542 mavg 50;
#X floatatom 100 638 0 0 0 0 - - -;
#X obj 183 625 lop~ 1;
#X obj 222 591 line~;
#X msg 222 569 \$1 100;
#X obj 327 151 * 15;
#X obj 220 501 * 8000;
#X obj 9 601 + 1000;
#N canvas 143 15 634 453 notes 0;
#X obj 199 399 outlet;
#X obj 365 38 r \$0-playnote;
#X obj 180 22 r \$0-myoso-snd;
#X msg 246 102 \$2 \$1;
#X obj 246 122 route 1;
#X obj 199 292 gamme 90 40 1 0 1 1 0 1 0 1 0 1 0 1;
#X floatatom 199 162 4 0 0 0 - - -;
#X floatatom 246 157 4 0 0 0 - - -;
#X obj 221 226 t b f;
#X msg 199 268 get \$1 \$2;
#X text 191 144 octave;
#X text 244 139 note;
#X obj 299 94 s \$0-states;
#X obj 385 114 table \$0-states 10;
#X obj 199 246 pack 5 f;
#X obj 405 157 unpack f f;
#X obj 403 181 route 1 2 3 4 5;
#X obj 423 206 * 2;
#X obj 448 206 * 4;
#X obj 473 206 * 8;
#X obj 498 206 * 16;
#X obj 397 206 * 1;
#X obj 397 255 +;
#X obj 404 236 t b f;
#X obj 444 255 +;
#X obj 449 235 t b f;
#X obj 489 257 +;
#X obj 492 236 t b f;
#X obj 532 257 +;
#X obj 537 236 t b f;
#X floatatom 372 286 5 0 0 0 - - -;
#X obj 199 374 +;
#X obj 246 194 +;
#X obj 224 64 t a a a;
#X obj 44 118 route 1 2 3 4 5;
#X obj 151 156 * 5;
#X obj 115 155 * 5;
#X obj 121 221 +;
#X obj 126 200 t b f;
#X obj 84 154 * 5;
#X obj 95 270 +;
#X obj 100 249 t b f;
#X obj 51 155 * 2;
#X obj 44 195 +;
#X obj 51 176 t b f;
#X obj 345 349 gamme 90 40 1 0 1 1 0 1 0 1 0 1 0 1;
#X obj 345 327 r \$0-gamme2-rcv;
#X obj 345 393 s \$0-gamme2-snd;
#X obj 180 43 route 0;
#X msg 289 238 setb \$1;
#X obj 289 218 r \$0-Gamme;
#X connect 2 0 48 0;
#X connect 3 0 4 0;
#X connect 4 0 7 0;
#X connect 5 0 31 0;
#X connect 6 0 14 0;
#X connect 7 0 32 0;
#X connect 8 0 14 0;
#X connect 8 1 14 1;
#X connect 9 0 5 0;
#X connect 14 0 9 0;
#X connect 16 0 21 0;
#X connect 16 1 17 0;
#X connect 16 2 18 0;
#X connect 16 3 19 0;
#X connect 16 4 20 0;
#X connect 17 0 24 0;
#X connect 18 0 26 0;
#X connect 19 0 28 0;
#X connect 20 0 29 0;
#X connect 21 0 22 0;
#X connect 22 0 30 0;
#X connect 23 0 22 0;
#X connect 23 1 22 1;
#X connect 24 0 23 0;
#X connect 25 0 24 0;
#X connect 25 1 24 1;
#X connect 26 0 25 0;
#X connect 27 0 26 0;
#X connect 27 1 26 1;
#X connect 28 0 27 0;
#X connect 29 0 28 0;
#X connect 29 1 28 1;
#X connect 31 0 0 0;
#X connect 32 0 8 0;
#X connect 33 0 34 0;
#X connect 33 1 3 0;
#X connect 33 2 12 0;
#X connect 34 0 43 0;
#X connect 34 1 42 0;
#X connect 34 2 39 0;
#X connect 34 3 36 0;
#X connect 34 4 35 0;
#X connect 35 0 38 0;
#X connect 36 0 37 0;
#X connect 37 0 41 0;
#X connect 38 0 37 0;
#X connect 38 1 37 1;
#X connect 39 0 40 0;
#X connect 40 0 32 1;
#X connect 41 0 40 0;
#X connect 41 1 40 1;
#X connect 42 0 44 0;
#X connect 43 0 31 1;
#X connect 44 0 43 0;
#X connect 44 1 43 1;
#X connect 45 0 47 0;
#X connect 46 0 45 0;
#X connect 48 1 33 0;
#X connect 49 0 45 0;
#X connect 49 0 5 0;
#X connect 50 0 49 0;
#X restore 171 41 pd notes;
#N canvas 210 43 655 500 samplebank 0;
#X obj 22 10 table \$0-samp1;
#X obj 22 27 table \$0-samp2;
#X obj 22 45 table \$0-samp3;
#X obj 22 63 table \$0-samp4;
#X obj 22 80 table \$0-samp5;
#X obj 22 99 table \$0-samp6;
#X obj 22 116 table \$0-samp7;
#X obj 22 134 table \$0-samp8;
#X obj 22 157 table \$0-samp9;
#X obj 22 175 table \$0-samp10;
#X obj 22 193 table \$0-samp11;
#X obj 22 211 table \$0-samp12;
#X obj 22 228 table \$0-samp13;
#X obj 22 247 table \$0-samp14;
#X obj 22 264 table \$0-samp15;
#X obj 22 282 table \$0-samp16;
#X obj 224 81 for++ 1 13 100;
#X obj 224 9 bng 15 250 50 0 empty empty empty 0 -6 0 8 -262144 -1
-1;
#X floatatom 182 33 5 0 0 0 - - -;
#X obj 224 104 t f f;
#X obj 331 82 getenv HOME;
#X obj 254 126 pack f s;
#X obj 224 57 t b b;
#X obj 224 280 soundfiler;
#X obj 224 211 pack s s;
#X obj 224 188 makesymbol \$0-samp%s;
#X msg 254 147 list \$2 \$1;
#X msg 224 232 read -resize \$2 \$1;
#X obj 240 27 loadbang;
#N canvas 0 0 450 300 (subpatch) 0;
#X array \$0-samppitchs 30 float 3;
#A 0 0 74.7553 71.2996 68.131 68.1095 69.9674 76.762 76.6117 69.4525
64.7511 57.8824 53.8909 59.5665 62.8991 0 0 0 0 0 0 0 0 0 0 0 0 0 0
0 0;
#X coords 0 90 29 0 200 140 1;
#X restore 492 9 graph;
#N canvas 0 0 336 369 find-pitchs 0;
#X obj 93 146 tabplay~;
#X obj 67 303 Out -;
#X msg 93 126 set \$1 \, bang;
#X obj 93 105 makesymbol \$0-samp%s;
#X floatatom 93 63 5 1 13 0 - - -;
#X floatatom 114 190 5 0 0 0 - - -;
#X obj 114 168 fiddle~ 2048;
#X obj 70 66 bng 15 250 50 0 empty empty empty 0 -6 0 8 -262144 -1
-1;
#X obj 173 230 osc~;
#X obj 174 254 subamp;
#SUB settings 0;
#X obj 174 210 mtof;
#X obj 93 82 t f b;
#X obj 55 215 f;
#X obj 55 236 pack f f;
#X obj 19 328 tabwrite \$0-samppitchs;
#X obj 94 43 i;
#X obj 122 43 + 1;
#X msg 115 25 1;
#X obj 94 26 bng 15 250 50 0 empty empty empty 0 -6 0 8 -262144 -1
-1;
#X obj 67 154 bng 15 250 50 0 empty empty empty 0 -6 0 8 -262144 -1
-1;
#X msg 80 7 8;
#X obj 234 68 switch~;
#X obj 234 47 tgl 15 0 empty empty empty 0 -6 0 8 -262144 -1 -1 0 1
;
#X connect 0 0 1 0;
#X connect 0 0 1 1;
#X connect 0 0 6 0;
#X connect 2 0 0 0;
#X connect 3 0 2 0;
#X connect 4 0 11 0;
#X connect 5 0 12 1;
#X connect 5 0 10 0;
#X connect 6 0 5 0;
#X connect 7 0 4 0;
#X connect 8 0 9 0;
#X connect 9 0 1 0;
#X connect 10 0 8 0;
#X connect 11 0 13 1;
#X connect 11 0 3 0;
#X connect 12 0 13 0;
#X connect 13 0 14 0;
#X connect 15 0 16 0;
#X connect 15 0 4 0;
#X connect 16 0 15 1;
#X connect 17 0 15 1;
#X connect 18 0 15 0;
#X connect 19 0 12 0;
#X connect 20 0 15 0;
#X connect 22 0 21 0;
#X restore 567 158 pd find-pitchs;
#X obj 393 514 makesymbol \$0-samp%s;
#X obj 279 389 t f b;
#X obj 278 601 tabread4~;
#X obj 279 577 line~;
#X obj 279 532 pack f 1e+06;
#X msg 279 468 1e+06;
#X msg 393 535 set \$1;
#X msg 492 288 1;
#X msg 279 554 0 \, \$1 \$2;
#X obj 279 489 * 44.1;
#X obj 327 488 mtof;
#X floatatom 528 383 0 0 0 0 - - -;
#X obj 327 508 / 8.1758;
#X obj 279 447 t b f;
#X obj 279 509 * 1;
#X obj 310 425 tabread \$0-samppitchs;
#X obj 336 399 f;
#X floatatom 572 453 5 0 0 0 - - -;
#X obj 279 425 -;
#X msg 279 351 70;
#X msg 525 289;
#X floatatom 473 356 5 1 13 0 - - -;
#X obj 336 356 random 13;
#X obj 336 378 + 1;
#X obj 204 370 inlet;
#X obj 274 627 outlet~;
#X obj 254 166 makesymbol %s/Cloches/wav/Myosotis/sensa%s.wav;
#X connect 16 0 18 0;
#X connect 16 0 19 0;
#X connect 17 0 22 0;
#X connect 19 0 25 0;
#X connect 19 1 21 0;
#X connect 20 0 21 1;
#X connect 21 0 26 0;
#X connect 22 0 16 0;
#X connect 22 1 20 0;
#X connect 24 0 27 0;
#X connect 25 0 24 0;
#X connect 26 0 57 0;
#X connect 27 0 23 0;
#X connect 28 0 22 0;
#X connect 31 0 37 0;
#X connect 32 0 49 0;
#X connect 32 1 53 0;
#X connect 33 0 56 0;
#X connect 34 0 33 0;
#X connect 35 0 39 0;
#X connect 36 0 40 0;
#X connect 37 0 33 0;
#X connect 39 0 34 0;
#X connect 40 0 45 0;
#X connect 41 0 43 0;
#X connect 43 0 45 1;
#X connect 44 0 36 0;
#X connect 44 1 41 0;
#X connect 45 0 35 0;
#X connect 46 0 49 1;
#X connect 47 0 46 0;
#X connect 47 0 31 0;
#X connect 49 0 44 0;
#X connect 50 0 32 0;
#X connect 53 0 54 0;
#X connect 53 0 52 0;
#X connect 54 0 47 0;
#X connect 55 0 32 0;
#X connect 57 0 24 1;
#X restore 432 138 pd samplebank;
#X obj 248 367 *~ 1000;
#X obj 247 387 +~ 2000;
#X obj 447 171 subdist;
#SUB settings 1.74 1;
#X obj 87 289 *~ 0.1;
#X obj 220 521 + 2000;
#N canvas 0 0 471 331 voix 0;
#X obj 246 298 outlet~;
#X obj 197 193 blosc~ saw;
#X obj 9 31 route 0;
#X floatatom 151 54 5 0 0 0 - - -;
#X obj 9 8 r \$0-myoso-snd;
#X obj 9 73 -;
#X msg 9 53 1 \$1;
#X obj 9 94 scale 0.01 0.8 0 1;
#X obj 9 114 clip 0 1;
#X obj 9 185 s \$0-gamme2-rcv;
#X obj 220 13 r \$0-gamme2-snd;
#X obj 220 106 mtof;
#X obj 135 212 abs~;
#X obj 196 213 *~;
#X obj 137 282 *~;
#X obj 135 171 lop~ 6;
#X obj 220 144 lop~ 10;
#X msg 9 163 round \$1 8;
#X obj 153 128 pow 0.2;
#X obj 279 162 +~ 1;
#X obj 278 223 unsig~ 50;
#X obj 279 141 LFO_noise~ 0.3;
#X obj 278 202 +~ 800;
#X obj 279 182 *~ 6000;
#X obj 245 246 lp2~ 1000 6 100;
#X obj 245 269 lop~ 800;
#X obj 9 141 scale 0 1 50 85;
#X obj 136 191 hip~ 0.5;
#X obj 137 258 lop~ 2;
#X obj 153 149 * 5;
#X obj 367 278 osc~;
#X obj 365 298 *~ 0.3;
#X obj 411 164 osc~ 3;
#X obj 412 206 +~ 0.5;
#X obj 367 231 *~;
#X obj 412 186 *~ 0.03;
#X connect 1 0 13 0;
#X connect 2 0 6 0;
#X connect 3 0 11 0;
#X connect 4 0 2 0;
#X connect 5 0 7 0;
#X connect 6 0 5 0;
#X connect 7 0 8 0;
#X connect 8 0 15 0;
#X connect 8 0 18 0;
#X connect 8 0 26 0;
#X connect 10 0 11 0;
#X connect 11 0 16 0;
#X connect 12 0 28 0;
#X connect 13 0 24 0;
#X connect 14 0 13 1;
#X connect 15 0 27 0;
#X connect 16 0 1 0;
#X connect 16 0 34 0;
#X connect 17 0 9 0;
#X connect 18 0 29 0;
#X connect 19 0 23 0;
#X connect 20 0 24 1;
#X connect 21 0 19 0;
#X connect 22 0 20 0;
#X connect 23 0 22 0;
#X connect 24 0 25 0;
#X connect 25 0 0 0;
#X connect 26 0 17 0;
#X connect 27 0 12 0;
#X connect 28 0 14 0;
#X connect 29 0 14 1;
#X connect 30 0 31 0;
#X connect 31 0 13 0;
#X connect 32 0 35 0;
#X connect 33 0 34 1;
#X connect 34 0 30 0;
#X connect 35 0 33 0;
#X restore 462 105 pd voix;
#X obj 441 287 shifter -12;
#X obj 342 398 *~ 0.8;
#X obj 342 376 lop~ 400;
#X msg 319 483 \$2;
#X floatatom 320 507 5 0 0 0 - - -;
#X obj 319 459 r \$1-clock;
#X obj 318 527 * 8;
#X connect 1 0 5 1;
#X connect 2 0 92 0;
#X connect 3 0 38 0;
#X connect 3 1 1 0;
#X connect 4 0 6 0;
#X connect 5 0 55 0;
#X connect 6 0 5 0;
#X connect 6 0 15 0;
#X connect 7 0 54 0;
#X connect 8 0 7 0;
#X connect 8 0 10 0;
#X connect 8 0 22 0;
#X connect 8 0 70 0;
#X connect 8 0 71 0;
#X connect 10 0 11 0;
#X connect 11 0 12 0;
#X connect 12 0 84 0;
#X connect 13 0 15 1;
#X connect 14 0 92 0;
#X connect 15 0 56 0;
#X connect 16 0 18 0;
#X connect 16 1 17 0;
#X connect 17 0 18 1;
#X connect 18 0 3 0;
#X connect 18 1 19 0;
#X connect 19 0 39 0;
#X connect 19 1 13 0;
#X connect 20 0 21 0;
#X connect 22 0 23 0;
#X connect 22 0 28 0;
#X connect 23 0 24 0;
#X connect 24 0 25 0;
#X connect 25 0 26 0;
#X connect 26 0 21 1;
#X connect 27 0 20 0;
#X connect 28 0 27 0;
#X connect 29 0 8 0;
#X connect 30 0 32 0;
#X connect 31 0 32 0;
#X connect 32 0 16 0;
#X connect 32 0 45 0;
#X connect 32 0 8 0;
#X connect 33 0 32 0;
#X connect 34 0 32 0;
#X connect 36 0 8 0;
#X connect 37 0 8 0;
#X connect 38 0 2 0;
#X connect 39 0 14 0;
#X connect 40 0 30 0;
#X connect 40 1 31 0;
#X connect 40 2 33 0;
#X connect 40 3 34 0;
#X connect 40 4 68 0;
#X connect 42 0 43 0;
#X connect 43 0 44 0;
#X connect 44 0 41 0;
#X connect 46 0 9 0;
#X connect 48 0 63 0;
#X connect 49 0 9 0;
#X connect 49 0 46 0;
#X connect 50 0 51 0;
#X connect 51 0 52 0;
#X connect 54 0 4 0;
#X connect 55 0 2 1;
#X connect 56 0 14 1;
#X connect 57 0 49 0;
#X connect 57 0 47 0;
#X connect 58 0 59 0;
#X connect 59 0 89 0;
#X connect 60 0 61 1;
#X connect 61 0 57 0;
#X connect 62 0 22 0;
#X connect 63 0 49 0;
#X connect 63 0 65 0;
#X connect 65 0 69 0;
#X connect 66 0 38 2;
#X connect 66 0 39 2;
#X connect 67 0 38 1;
#X connect 67 0 39 1;
#X connect 68 0 32 0;
#X connect 69 0 47 0;
#X connect 70 0 39 2;
#X connect 70 0 38 2;
#X connect 71 0 38 1;
#X connect 71 0 39 1;
#X connect 76 0 77 0;
#X connect 77 0 86 0;
#X connect 78 0 85 0;
#X connect 79 0 80 0;
#X connect 79 0 83 0;
#X connect 82 0 48 0;
#X connect 83 0 82 0;
#X connect 84 0 6 1;
#X connect 85 0 93 0;
#X connect 86 0 75 0;
#X connect 87 0 88 0;
#X connect 87 0 32 0;
#X connect 88 0 91 0;
#X connect 88 0 95 0;
#X connect 89 0 90 0;
#X connect 90 0 60 0;
#X connect 91 0 61 0;
#X connect 92 0 61 0;
#X connect 93 0 64 0;
#X connect 93 0 73 0;
#X connect 93 0 79 0;
#X connect 94 0 49 0;
#X connect 94 0 95 0;
#X connect 95 0 97 0;
#X connect 96 0 47 0;
#X connect 97 0 96 0;
#X connect 98 0 99 0;
#X connect 99 0 101 0;
#X connect 100 0 98 0;
#X restore 120 13 pd synth;
#X obj 140 121 route vol;
#X obj 140 143 s \$0-vol-rcv;
#X obj 140 80 r \$1-interfaces-snd;
#X obj 140 166 r \$0-vol-snd;
#X msg 140 187 myosotis vol set \$1;
#X obj 140 207 s \$1-interfaces-rcv;
#X obj 140 100 route myosotis UPDATE;
#X obj 211 121 b;
#X obj 204 10 gamme 90 40 1 0 1 1 0 1 0 1 0 1 0 1;
#X obj 235 56 s \$0-Gamme;
#X obj 315 21 r Gammes;
#X obj 322 56 route 0;
#X msg 323 84 setb \$1;
#X obj 37 280 == 0;
#X obj 37 238 r Teleco;
#X obj 37 259 route mute;
#X obj 37 302 s \$0-onoff;
#X connect 0 0 3 0;
#X connect 1 0 0 0;
#X connect 10 0 11 0;
#X connect 12 0 16 0;
#X connect 13 0 14 0;
#X connect 14 0 15 0;
#X connect 16 0 10 0;
#X connect 16 1 17 0;
#X connect 17 0 11 0;
#X connect 18 3 19 0;
#X connect 20 0 21 0;
#X connect 21 0 22 0;
#X connect 22 0 18 0;
#X connect 23 0 26 0;
#X connect 24 0 25 0;
#X connect 25 0 23 0;
