#N canvas 636 104 501 390 10;
#X declare -lib creb;
#X obj 12 205 tgl 20 1 \$0-on-snd \$0-on-rcv empty 0 -6 0 8 -258699
-1 -1 1 1;
#X obj 11 185 r \$0-onoff;
#X obj 12 116 mknob 25 100 0 1 0 1 \$0-vol-snd \$0-vol-rcv vol -2 -6
1 10 -258699 -1 -1 2490 1;
#X obj 12 231 switch~;
#N canvas 77 256 298 213 master 0;
#X obj 175 7 catch~ \$0-out;
#X obj 140 111 *~;
#X obj 14 22 catch~ \$0-parole_out;
#X obj 14 66 hip~ 800;
#X obj 24 43 catch~ \$0-parole_out2;
#X obj 175 91 pow 2;
#X obj 175 112 * 4;
#X obj 175 69 r \$0-vol-snd;
#X floatatom 209 129 5 0 0 0 - - -;
#X obj 141 149 busrme 3;
#X obj 176 39 hip~ 20;
#X connect 0 0 10 0;
#X connect 1 0 9 0;
#X connect 2 0 3 0;
#X connect 3 0 1 0;
#X connect 4 0 3 0;
#X connect 5 0 6 0;
#X connect 6 0 1 1;
#X connect 7 0 5 0;
#X connect 8 0 9 1;
#X connect 10 0 1 0;
#X restore 11 50 pd master;
#N canvas 22 619 220 70 Interface 0;
#X obj 2 2 tgl 30 0 \$0-s1-snd \$0-s1-rcv I 13 15 1 10 -262144 -1 -1
0 1;
#X obj 34 2 tgl 30 0 \$0-s2-snd \$0-s2-rcv PO 7 15 1 10 -262144 -1
-1 0 1;
#X obj 66 2 tgl 30 0 \$0-s3-snd \$0-s3-rcv PO 7 15 1 10 -262144 -1
-1 0 1;
#X obj 98 2 tgl 30 0 \$0-s4-snd \$0-s4-rcv TAM 2 15 1 10 -262144 -1
-1 0 1;
#X obj 132 2 tgl 30 0 \$0-st-snd \$0-st-rcv hippopotame 1 15 1 8 -262131
-1 -1 0 1;
#X text 7 35 keyboard: w x c v b;
#X restore 11 12 pd Interface;
#N canvas 447 122 398 425 interfguts 0;
#X obj 59 42 keyname;
#X obj 59 67 pack f s;
#X msg 59 118 \$2 \$1;
#X obj 59 88 spigot;
#X obj 109 92 tgl 15 0 empty empty keyboard 0 -6 1 8 -241291 -1 -1
0 1;
#X obj 57 14 dispatch \$0-s 1 4;
#X obj 59 139 route w x c v b;
#X obj 174 171 s \$0-st-rcv;
#X obj 134 94 r \$0-getkeyb;
#X msg 28 171 1 \$1;
#X msg 64 171 2 \$1;
#X msg 100 171 3 \$1;
#X msg 136 171 4 \$1;
#X obj 84 209 s \$0-s-rcv;
#X obj 279 120 r \$1-s-snd;
#X obj 279 140 s \$0-s-rcv;
#X obj 287 56 r \$1-st-snd;
#X obj 287 76 s \$0-st-rcv;
#X obj 146 329 s \$0-antirebond;
#X obj 105 358 s \$0-deb1time;
#X msg 92 278 40;
#X obj 83 391 s \$0-deb0time;
#X obj 94 258 loadbang;
#X msg 108 336 10;
#X connect 0 0 1 0;
#X connect 0 1 1 1;
#X connect 1 0 3 0;
#X connect 2 0 6 0;
#X connect 3 0 2 0;
#X connect 4 0 3 1;
#X connect 6 0 9 0;
#X connect 6 1 10 0;
#X connect 6 2 11 0;
#X connect 6 3 12 0;
#X connect 6 4 7 0;
#X connect 8 0 4 0;
#X connect 9 0 13 0;
#X connect 10 0 13 0;
#X connect 11 0 13 0;
#X connect 12 0 13 0;
#X connect 14 0 15 0;
#X connect 16 0 17 0;
#X connect 20 0 18 0;
#X connect 20 0 21 0;
#X connect 20 0 23 0;
#X connect 22 0 20 0;
#X connect 23 0 19 0;
#X restore 11 31 pd interfguts;
#X obj 12 80 tgl 15 0 \$0-getkeyb \$0-getkeyb-rcv keyboard 0 -6 1 8
-241291 -1 -1 0 1;
#N canvas 1 135 283 124 unused 0;
#X obj 11 33 apmaster \$0;
#X obj 11 16 bng 15 250 50 0 empty empty empty 0 -6 0 8 -24198 -1 -1
;
#X obj 83 15 bng 15 250 50 0 empty empty empty 0 -6 0 8 -258699 -1
-1;
#X obj 11 63 bng 12 250 50 0 \$0-save_file_patt-snd \$0-save_file_patt-rcv
10.11.12.13.14.15.16 122 -6 1 6 -258699 -1 -262144;
#X obj 25 63 hradio 12 1 0 16 \$0-file_patt_but-snd \$0-file_patt_but-rcv
_1._2._3_4._5._6_7._8.9.10.11.12.13.14.15.16 0 -6 2 9 -262144 -1 -1
0;
#N canvas 628 101 443 334 file_patt_but 0;
#X msg 27 31 \$1;
#X obj 203 36 tgl 15 0 empty empty empty 0 -6 0 8 -262144 -1 -1 0 1
;
#X obj 203 67 sel 0 1;
#X msg 203 88 color 0 22 22;
#X msg 226 112 color 13 22 22;
#X obj 71 88 demux;
#X obj 101 112 t f f b;
#X msg 145 134 0;
#X obj 99 212 s \$0-pattern-snd;
#X obj 27 11 r \$0-file_patt_but-snd;
#X obj 203 10 r \$0-save_file_patt-snd;
#X msg 20 165 _apfile_ load \$1;
#X msg 148 165 _apfile_ store \$1;
#X obj 203 138 s \$0-file_patt_but-rcv;
#X symbolatom 237 306 0 0 0 0 - - -;
#X obj 249 286 s \$0-apmaster-rcv;
#X msg 249 266 loadin;
#X obj 237 202 r \$0-_apfile_-snd;
#X obj 249 245 del 50;
#X obj 249 226 b;
#X connect 0 0 5 0;
#X connect 1 0 2 0;
#X connect 1 0 5 1;
#X connect 2 0 3 0;
#X connect 2 1 4 0;
#X connect 3 0 13 0;
#X connect 4 0 13 0;
#X connect 5 0 11 0;
#X connect 5 1 6 0;
#X connect 6 1 12 0;
#X connect 6 2 7 0;
#X connect 7 0 1 0;
#X connect 9 0 0 0;
#X connect 10 0 1 0;
#X connect 11 0 8 0;
#X connect 12 0 8 0;
#X connect 16 0 15 0;
#X connect 17 0 14 0;
#X connect 17 0 19 0;
#X connect 18 0 16 0;
#X connect 19 0 18 0;
#X restore 10 77 pd file_patt_but;
#X connect 1 0 0 0;
#X connect 2 0 0 1;
#X restore 59 263 pd unused;
#X obj 112 35 route 0;
#X obj 141 242 throw~ \$0-out;
#X obj 112 13 r \$0-s-snd;
#X obj 181 12 r \$0-st-snd;
#X msg 181 34 5 \$1;
#X obj 169 94 s \$0-keys;
#X obj 169 73 spigot;
#X obj 316 31 r ClochesMode;
#X msg 316 94 1;
#X msg 345 94 0;
#X obj 316 117 tgl 15 0 empty empty empty 17 7 0 10 -262144 -1 -1 1
1;
#X obj 316 52 route Syllabo;
#X obj 316 136 s \$0-onoff;
#X obj 202 52 r \$0-onoff;
#X obj 316 73 route Basse;
#X obj 141 133 r \$0-keys;
#N canvas 91 183 609 438 mono 0;
#X obj 37 37 inlet;
#X msg 37 58 \$2 \$1;
#X obj 245 154 r \$0-monolist;
#X obj 213 154 list;
#X obj 213 175 list split 1;
#X obj 247 195 t a;
#X obj 194 128 t b b f;
#X msg 337 154 list;
#X obj 213 215 sel 0, f 14;
#X obj 294 238 list prepend;
#X obj 294 259 t a a;
#X obj 194 284 list, f 17;
#X obj 194 307 s \$0-monolist;
#X obj 100 174 r \$0-monolist;
#X obj 37 196 list append;
#X obj 37 102 t f f, f 24;
#X obj 37 79 route 1 0, f 53;
#X obj 37 217 s \$0-monolist;
#X obj 40 312 r \$0-monolist;
#X obj 40 335 list split 1;
#X msg 137 367 -1;
#X obj 40 398 outlet;
#X obj 444 138 loadbang;
#X msg 444 158 list;
#X obj 444 178 s \$0-monolist;
#X obj 167 17 tgl 15 0 empty empty empty 17 7 0 10 -262144 -1 -1 0
1;
#X obj 204 16 tgl 15 0 empty empty empty 17 7 0 10 -262144 -1 -1 0
1;
#X obj 233 14 tgl 15 0 empty empty empty 17 7 0 10 -262144 -1 -1 0
1;
#X obj 275 10 tgl 15 0 empty empty empty 17 7 0 10 -262144 -1 -1 0
1;
#X msg 166 37 1 \$1;
#X msg 204 38 2 \$1;
#X msg 240 37 3 \$1;
#X msg 279 38 4 \$1;
#X obj 166 58 t a;
#X obj 315 9 tgl 15 0 empty empty empty 17 7 0 10 -262144 -1 -1 0 1
;
#X msg 319 37 5 \$1;
#X obj 40 366 change;
#X msg 88 364 set -1;
#X connect 0 0 1 0;
#X connect 1 0 16 0;
#X connect 2 0 3 1;
#X connect 3 0 4 0;
#X connect 4 0 8 0;
#X connect 4 1 5 0;
#X connect 5 0 4 0;
#X connect 6 0 11 0;
#X connect 6 1 3 0;
#X connect 6 2 7 0;
#X connect 6 2 8 1;
#X connect 7 0 10 0;
#X connect 8 1 9 0;
#X connect 9 0 10 0;
#X connect 10 0 11 1;
#X connect 10 1 9 1;
#X connect 11 0 12 0;
#X connect 13 0 14 1;
#X connect 14 0 17 0;
#X connect 15 0 14 0;
#X connect 15 1 6 0;
#X connect 16 0 15 0;
#X connect 16 1 6 0;
#X connect 18 0 19 0;
#X connect 19 0 36 0;
#X connect 19 2 20 0;
#X connect 19 2 37 0;
#X connect 20 0 21 0;
#X connect 22 0 23 0;
#X connect 23 0 24 0;
#X connect 25 0 29 0;
#X connect 26 0 30 0;
#X connect 27 0 31 0;
#X connect 28 0 32 0;
#X connect 29 0 33 0;
#X connect 30 0 33 0;
#X connect 31 0 33 0;
#X connect 32 0 33 0;
#X connect 33 0 1 0;
#X connect 34 0 35 0;
#X connect 35 0 33 0;
#X connect 36 0 21 0;
#X connect 37 0 36 0;
#X restore 141 154 pd mono;
#X floatatom 111 185 5 0 0 0 - - -;
#N canvas 201 286 796 569 synth 0;
#X obj 37 37 inlet;
#X obj 70 98 * 2;
#X obj 70 120 gammabs/gammeRound /GAMME 20;
#X obj 37 76 sel -1;
#X obj 37 56 t f f, f 40;
#X obj 70 166 pack f 5;
#X obj 70 192 line~;
#X obj 70 213 mtof~;
#X obj 274 76 != -1;
#X obj 355 31 declare -lib creb;
#X obj 70 284 blosc~ saw;
#X obj 70 319 *~, f 17;
#X obj 70 380 bob~, f 28;
#X obj 152 286 *~, f 5;
#X obj 153 347 min~ 18000;
#X floatatom 302 295 5 0 200 0 - - -;
#X obj 302 317 / 25;
#X floatatom 535 261 5 0 999 0 - - -;
#X msg 535 307 saturation \$1;
#X obj 535 211 loadbang;
#X obj 535 283 / 100;
#X floatatom 672 281 5 1 10 0 - - -;
#X text 668 206 oversampling;
#X msg 672 308 oversample \$1;
#X obj 672 229 loadbang;
#X msg 672 254 2;
#X text 350 313 scaled to 0-8;
#X text 349 295 0-200 control;
#X obj 302 244 loadbang;
#X obj 302 343 sig~;
#X obj 535 333 t a;
#X obj 68 481 outlet~;
#X obj 70 141 + 24;
#X obj 178 213 +~ 1;
#X obj 178 192 *~ 100;
#X obj 178 171 eadsr~ 1 600 0.01 200;
#X obj 331 199 eadsr~ 5 200 0.5 150;
#X obj 416 529 blosc~ comparator;
#X obj 416 415 phasor~;
#X obj 416 499 -~;
#X obj 484 449 osc~;
#X floatatom 484 416 5 0 0 0 - - -;
#X obj 484 479 *~;
#X floatatom 534 461 5 0 0 0 - - -;
#X obj 537 439 hsl 50 15 0 0.99 0 1 empty empty empty -2 -6 0 8 -262144
-1 -1 1500 1;
#X obj 487 395 hsl 50 15 0.1 10 1 1 empty empty empty -2 -6 0 8 -262144
-1 -1 1200 1;
#X text 545 394 mod freq;
#X obj 416 440 *~ 2;
#X obj 416 465 -~ 1;
#X text 591 436 depth;
#X obj 69 256 +~ 1;
#X obj 14 292 osc~;
#X obj 14 251 -~ 1;
#X floatatom 125 445 5 0 0 0 - - -;
#X obj 14 271 *~ 1.99;
#X obj 69 449 dist~ 5;
#X msg 302 269 70;
#X obj 126 398 loadbang;
#X msg 126 423 3;
#X msg 535 236 50;
#X connect 0 0 4 0;
#X connect 1 0 2 0;
#X connect 2 0 32 0;
#X connect 3 1 1 0;
#X connect 4 0 3 0;
#X connect 4 1 8 0;
#X connect 5 0 6 0;
#X connect 6 0 7 0;
#X connect 7 0 13 0;
#X connect 7 0 38 0;
#X connect 7 0 50 0;
#X connect 7 0 52 0;
#X connect 8 0 35 0;
#X connect 8 0 36 0;
#X connect 10 0 11 0;
#X connect 11 0 12 0;
#X connect 12 0 55 0;
#X connect 13 0 14 0;
#X connect 14 0 12 1;
#X connect 15 0 16 0;
#X connect 16 0 29 0;
#X connect 17 0 20 0;
#X connect 18 0 30 0;
#X connect 19 0 59 0;
#X connect 20 0 18 0;
#X connect 21 0 23 0;
#X connect 23 0 30 0;
#X connect 24 0 25 0;
#X connect 25 0 21 0;
#X connect 28 0 56 0;
#X connect 29 0 12 2;
#X connect 30 0 12 0;
#X connect 32 0 5 0;
#X connect 33 0 13 1;
#X connect 34 0 33 0;
#X connect 35 0 34 0;
#X connect 36 0 11 1;
#X connect 37 0 11 0;
#X connect 38 0 47 0;
#X connect 39 0 37 0;
#X connect 40 0 42 0;
#X connect 41 0 40 0;
#X connect 42 0 39 1;
#X connect 43 0 42 1;
#X connect 44 0 43 0;
#X connect 45 0 41 0;
#X connect 47 0 48 0;
#X connect 48 0 39 0;
#X connect 50 0 10 0;
#X connect 51 0 11 0;
#X connect 52 0 54 0;
#X connect 53 0 55 1;
#X connect 54 0 51 0;
#X connect 55 0 31 0;
#X connect 56 0 15 0;
#X connect 57 0 58 0;
#X connect 58 0 53 0;
#X connect 59 0 17 0;
#X restore 141 175 pd synth;
#X obj 141 208 lop~ 5000;
#X connect 0 0 3 0;
#X connect 1 0 0 0;
#X connect 9 1 15 0;
#X connect 11 0 9 0;
#X connect 12 0 13 0;
#X connect 13 0 15 0;
#X connect 15 0 14 0;
#X connect 16 0 20 0;
#X connect 17 0 19 0;
#X connect 18 0 19 0;
#X connect 19 0 21 0;
#X connect 20 0 23 0;
#X connect 22 0 15 1;
#X connect 23 0 17 0;
#X connect 23 1 18 0;
#X connect 24 0 25 0;
#X connect 25 0 26 0;
#X connect 25 0 27 0;
#X connect 27 0 28 0;
#X connect 28 0 10 0;
