#N canvas 445 144 431 567 10;
#X text 71 5 Voix \$0 nom num;
#X obj 15 25 table \$0-samp1;
#X obj 15 42 table \$0-samp2;
#X obj 15 60 table \$0-samp3;
#X obj 15 78 table \$0-samp4;
#X obj 15 95 table \$0-samp5;
#X obj 15 114 table \$0-samp6;
#X obj 15 131 table \$0-samp7;
#X obj 15 149 table \$0-samp8;
#X obj 15 172 table \$0-samp9;
#X obj 15 190 table \$0-samp10;
#X obj 15 208 table \$0-samp11;
#X obj 15 226 table \$0-samp12;
#X obj 15 243 table \$0-samp13;
#X obj 15 262 table \$0-samp14;
#X obj 15 279 table \$0-samp15;
#X obj 15 297 table \$0-samp16;
#N canvas 341 156 588 365 find-pitchs 0;
#X obj 93 146 tabplay~;
#X obj 80 307 Out -;
#X msg 93 126 set \$1 \, bang;
#X obj 93 105 makesymbol \$0-samp%s;
#X floatatom 93 63 5 1 13 0 - - -;
#X floatatom 114 190 5 0 0 0 - - -;
#X obj 114 168 fiddle~ 2048;
#X obj 70 66 bng 15 250 50 0 empty empty empty 0 -6 0 8 -262144 -1
-1;
#X obj 157 244 subamp;
#SUB settings 0;
#X obj 162 201 mtof;
#X obj 93 82 t f b;
#X obj 55 215 f;
#X obj 55 236 pack f f;
#X obj 94 43 i;
#X obj 122 43 + 1;
#X msg 115 25 1;
#X obj 94 26 bng 15 250 50 0 empty empty empty 0 -6 0 8 -262144 -1
-1;
#X obj 67 154 bng 15 250 50 0 empty empty empty 0 -6 0 8 -262144 -1
-1;
#X msg 80 7 8;
#X obj 234 68 switch~;
#X obj 234 47 tgl 15 0 empty empty empty 0 -6 0 8 -262144 -1 -1 0 1
;
#X obj 19 328 tabwrite \$0-pitchs;
#X obj 279 136 getenv HOME;
#X obj 279 201 s \$0-pitchs;
#X msg 279 180 write \$1;
#X obj 281 117 bng 15 250 50 0 empty empty save 17 7 0 10 -258113 -1
-1;
#X floatatom 213 180 5 0 0 0 - - -;
#X msg 48 111 stop;
#X obj 161 221 phasor~;
#X obj 279 323 s \$0-pitchs;
#X msg 291 292 const 60;
#X obj 279 159 makesymbol %s/Cloches/wav/MyosotisBaroque/\$2/\$2_pitchs.txt
;
#X connect 0 0 1 0;
#X connect 0 0 1 1;
#X connect 0 0 6 0;
#X connect 2 0 0 0;
#X connect 3 0 2 0;
#X connect 4 0 10 0;
#X connect 5 0 11 1;
#X connect 5 0 9 0;
#X connect 6 0 5 0;
#X connect 7 0 4 0;
#X connect 8 0 1 0;
#X connect 8 0 1 1;
#X connect 9 0 28 0;
#X connect 10 0 12 1;
#X connect 10 0 3 0;
#X connect 11 0 12 0;
#X connect 12 0 21 0;
#X connect 13 0 14 0;
#X connect 13 0 4 0;
#X connect 14 0 13 1;
#X connect 15 0 13 1;
#X connect 16 0 13 0;
#X connect 17 0 11 0;
#X connect 18 0 13 0;
#X connect 20 0 19 0;
#X connect 22 0 31 0;
#X connect 24 0 23 0;
#X connect 25 0 22 0;
#X connect 26 0 5 0;
#X connect 27 0 0 0;
#X connect 28 0 8 0;
#X connect 30 0 29 0;
#X connect 31 0 24 0;
#X restore 20 374 pd find-pitchs;
#X obj 152 253 route 0;
#X obj 203 99 f;
#X obj 159 460 outlet~;
#N canvas 72 145 571 350 loadtables 0;
#X obj 132 27 bng 15 250 50 0 empty empty empty 0 -6 0 8 -262144 -1
-1;
#X floatatom 170 122 5 0 0 0 - - -;
#X obj 132 122 t f f;
#X obj 231 98 getenv HOME;
#X obj 162 144 pack f s;
#X obj 132 75 t b b;
#X obj 132 278 soundfiler;
#X obj 132 229 pack s s;
#X obj 132 206 makesymbol \$0-samp%s;
#X msg 162 165 list \$2 \$1;
#X msg 132 250 read -resize \$2 \$1;
#X obj 132 99 for++ 1 \$3 100;
#X obj 162 187 makesymbol %s/Cloches/wav/Combat/\$2/\$2%s.wav;
#X obj 148 45 r \$0-loadtables;
#X connect 0 0 5 0;
#X connect 2 0 8 0;
#X connect 2 1 4 0;
#X connect 3 0 4 1;
#X connect 4 0 9 0;
#X connect 5 0 11 0;
#X connect 5 1 3 0;
#X connect 7 0 10 0;
#X connect 8 0 7 0;
#X connect 9 0 12 0;
#X connect 10 0 6 0;
#X connect 11 0 1 0;
#X connect 11 0 2 0;
#X connect 12 0 7 1;
#X connect 13 0 5 0;
#X restore 18 347 pd loadtables;
#X obj 272 5 r \$1-keys;
#X obj 272 25 route \$4;
#X obj 272 46 sel 1;
#X obj 202 79 shuffle 1 \$3 0.25;
#X obj 200 51 bng 15 250 50 0 empty empty empty 17 7 0 10 -262144 -1
-1;
#X floatatom 350 175 5 0 0 0 - - -;
#X floatatom 331 231 5 0 0 0 - - -;
#X floatatom 161 284 5 0 0 0 - - -;
#X obj 200 133 t b f;
#X obj 200 158 i;
#X obj 230 158 + 1;
#X obj 200 210 s \$0-play;
#X obj 151 396 subpercu \$0 0;
#X obj 164 416 subpercu \$0 1;
#X obj 200 187 pack f 0 f;
#X obj 145 26 hradio 15 1 0 8 empty empty empty 0 -8 0 10 -262144 -1
-1 0;
#X obj 147 63 + 1;
#X obj 302 340 sel 1;
#X obj 302 363 spigot 1;
#X msg 330 385 0;
#X obj 302 317 r \$1-onoff;
#X obj 302 410 s \$0-loadtables;
#X connect 19 0 30 0;
#X connect 19 0 27 0;
#X connect 22 0 23 0;
#X connect 23 0 24 0;
#X connect 24 0 25 0;
#X connect 25 0 19 0;
#X connect 26 0 25 0;
#X connect 30 0 31 0;
#X connect 30 1 36 2;
#X connect 31 0 32 0;
#X connect 31 0 36 0;
#X connect 32 0 31 1;
#X connect 34 0 20 0;
#X connect 35 0 20 0;
#X connect 36 0 33 0;
#X connect 37 0 38 0;
#X connect 38 0 19 0;
#X connect 39 0 40 0;
#X connect 40 0 41 0;
#X connect 40 0 43 0;
#X connect 41 0 40 1;
#X connect 42 0 39 0;
