#N canvas 294 224 456 320 10;
#X obj 154 38 inlet;
#X obj 88 177 spigot;
#X msg 154 154 1;
#X msg 125 153 0;
#X obj 88 262 outlet;
#X obj 88 111 sel 0;
#X obj 88 91 r \$1-disant;
#X obj 306 220 s \$1-dire;
#X obj 125 133 r \$1-dire;
#X obj 199 249 subbang;
#X msg 177 214 color white;
#X msg 176 194 color yellow;
#X obj 351 36 inlet;
#X msg 48 178 stop;
#X obj 262 36 inlet;
#X text 267 18 num;
#X text 356 20 wait;
#X text 156 20 bang;
#X obj 88 235 t b b;
#X obj 284 277 s \$1-step;
#X obj 284 256 \$0;
#X obj 85 37 r \$0-rcv;
#X obj 154 61 t b b b;
#X obj 306 179 makesymbol m%s;
#X obj 306 138 tabread \$1-sylnum;
#X obj 306 96 f \$2;
#X obj 306 116 t f f;
#X obj 88 204 del \$3;
#X obj 306 159 + 1;
#X obj 306 199 pack s 0 -1;
#X connect 0 0 22 0;
#X connect 1 0 27 0;
#X connect 2 0 1 1;
#X connect 2 0 11 0;
#X connect 3 0 1 1;
#X connect 3 0 10 0;
#X connect 3 0 13 0;
#X connect 5 0 1 0;
#X connect 6 0 5 0;
#X connect 8 0 3 0;
#X connect 9 0 25 0;
#X connect 9 1 22 0;
#X connect 10 0 9 0;
#X connect 11 0 9 0;
#X connect 12 0 27 1;
#X connect 13 0 27 0;
#X connect 14 0 25 1;
#X connect 18 0 4 0;
#X connect 18 1 3 0;
#X connect 20 0 19 0;
#X connect 21 0 22 0;
#X connect 22 0 20 0;
#X connect 22 0 2 0;
#X connect 22 1 25 0;
#X connect 23 0 29 0;
#X connect 24 0 28 0;
#X connect 25 0 26 0;
#X connect 26 0 24 0;
#X connect 26 1 29 1;
#X connect 27 0 18 0;
#X connect 28 0 23 0;
#X connect 29 0 7 0;
