#N canvas 920 151 377 534 10;
#X obj 12 205 tgl 20 1 \$0-on-snd \$0-on-rcv empty 0 -6 0 8 -258699
-1 -1 1 1;
#X obj 11 185 r \$0-onoff;
#X obj 12 116 mknob 25 100 0 1 0 1 \$0-vol-snd \$0-vol-rcv vol -2 -6
1 10 -258699 -1 -1 6739 1;
#X obj 12 231 switch~;
#N canvas 866 106 298 213 master 0;
#X obj 182 34 catch~ \$0-out;
#X obj 140 111 *~;
#X obj 14 22 catch~ \$0-parole_out;
#X obj 24 43 catch~ \$0-parole_out2;
#X obj 175 91 pow 2;
#X obj 175 112 * 4;
#X obj 175 69 r \$0-vol-snd;
#X floatatom 212 121 5 0 0 0 - - -;
#X msg 80 69 200;
#X obj 14 66 hip~ 200;
#X obj 142 146 busrme 1;
#X connect 0 0 9 0;
#X connect 1 0 10 0;
#X connect 2 0 9 0;
#X connect 3 0 9 0;
#X connect 4 0 5 0;
#X connect 5 0 1 1;
#X connect 6 0 4 0;
#X connect 7 0 10 1;
#X connect 8 0 9 1;
#X connect 9 0 1 0;
#X restore 11 50 pd master;
#N canvas 502 355 567 287 protect 0;
#X obj 260 26 table \$0-modeprotect-tab 10;
#X obj 56 30 r \$0-modeprotect-rcv;
#X obj 55 166 r \$0-reglageprotect-rcv;
#X msg 56 95 write modeprotect-tab.txt;
#X msg 111 73 read modeprotect-tab.txt;
#X obj 56 72 t b a;
#X obj 111 54 loadbang;
#X obj 55 206 t b a;
#X msg 55 228 write reglageprotect-tab.txt;
#X msg 131 207 read reglageprotect-tab.txt;
#X obj 131 187 loadbang;
#X msg 306 117 14 1;
#X obj 56 119 s \$0-modeprotect-tab;
#X obj 55 254 s \$0-reglageprotect-tab;
#X obj 245 167 table \$0-reglageprotect-tab 16;
#X msg 22 8 1 1 1 1 1 1;
#X msg 109 9 0 0 0 0 0 0;
#X connect 1 0 5 0;
#X connect 2 0 7 0;
#X connect 3 0 12 0;
#X connect 4 0 12 0;
#X connect 5 0 3 0;
#X connect 5 1 12 0;
#X connect 6 0 4 0;
#X connect 7 0 8 0;
#X connect 7 1 13 0;
#X connect 8 0 13 0;
#X connect 9 0 13 0;
#X connect 10 0 9 0;
#X connect 11 0 7 0;
#X connect 15 0 5 0;
#X connect 16 0 5 0;
#X restore 134 11 pd protect;
#X obj 12 80 tgl 15 0 \$0-getkeyb \$0-getkeyb-rcv keyboard 0 -6 1 8
-241291 -1 -1 0 1;
#X obj 131 168 s \$0-latency;
#X obj 131 149 init 20;
#X obj 113 81 bng 15 250 50 0 empty empty empty 0 -6 0 8 -262144 -1
-1;
#X obj 131 127 s \$0-nbmodes;
#N canvas 1001 133 264 214 input 0;
#X obj 66 145 s~ \$0-in;
#X obj 65 60 r~ inl;
#X connect 1 0 0 0;
#X restore 11 155 pd input;
#X obj 131 108 init 1;
#N canvas 40 82 483 418 Decoupeur 1;
#X obj 36 391 fragvox \$0;
#X obj 269 8 catch~ \$0-out1;
#X obj 278 41 catch~ \$0-out2;
#X obj 274 79 throw~ \$0-out;
#X obj 36 209 route 0 1 2 3 4 5 6 7 8;
#X obj 263 155 table \$0-sample1 500000;
#X obj 263 173 table \$0-sample2 500000;
#X obj 263 138 table \$0-sample0 500000;
#X obj 263 192 table \$0-sample3 500000;
#X obj 263 210 table \$0-sample4 500000;
#X obj 263 228 table \$0-sample5 500000;
#X obj 263 246 table \$0-sample6 500000;
#X obj 263 265 table \$0-sample7 500000;
#X obj 263 283 table \$0-sample8 500000;
#X obj 267 317 table \$0-samplelen 10;
#X msg 36 187 \$1 \$1 \$2;
#N canvas 110 177 604 439 saveloadsamples 0;
#X obj 22 150 for++ 0 8;
#X obj 19 86 bng 15 250 50 0 empty empty empty 17 7 0 10 -262144 -1
-1;
#X obj 22 61 t b f;
#X obj 331 99 bng 15 250 50 0 empty empty empty 17 7 0 10 -262144 -1
-1;
#X obj 331 253 soundfiler;
#X obj 359 169 tabread \$0-samplelen;
#X obj 332 65 t b f;
#X obj 331 189 pack f f f \$0;
#X obj 331 148 t f f;
#X msg 331 219 write -wave -nframes \$2 wav/bank\$3/s\$1.wav \$4-sample\$1
;
#X msg 417 74 1;
#X obj 331 123 for++ 0 8 50;
#X obj 22 246 soundfiler;
#X obj 20 173 t f f;
#X obj 24 276 tabwrite \$0-samplelen;
#X obj 22 198 pack f f \$0;
#X msg 22 220 read wav/bank\$2/s\$1.wav \$3-sample\$1;
#X msg 113 28 1;
#X msg 450 71 2;
#X msg 138 49 2;
#X obj 114 87 == 0;
#X obj 113 112 s \$0-recenable;
#X obj 186 61 sel 0;
#X obj 183 89 s \$0-reset_rec_count;
#X obj 20 24 r \$0-loadbank;
#X obj 332 33 r \$0-savebank;
#X obj 19 108 del 500;
#X msg 456 106 0;
#X msg 156 21 0;
#X connect 0 0 13 0;
#X connect 1 0 26 0;
#X connect 2 0 1 0;
#X connect 2 1 15 1;
#X connect 2 1 20 0;
#X connect 2 1 22 0;
#X connect 3 0 11 0;
#X connect 5 0 7 1;
#X connect 6 0 3 0;
#X connect 6 1 7 2;
#X connect 7 0 9 0;
#X connect 8 0 7 0;
#X connect 8 1 5 0;
#X connect 9 0 4 0;
#X connect 10 0 6 0;
#X connect 11 0 8 0;
#X connect 12 0 14 0;
#X connect 13 0 15 0;
#X connect 13 1 14 1;
#X connect 15 0 16 0;
#X connect 16 0 12 0;
#X connect 17 0 2 0;
#X connect 18 0 6 0;
#X connect 19 0 2 0;
#X connect 20 0 21 0;
#X connect 24 0 2 0;
#X connect 25 0 6 0;
#X connect 26 0 0 0;
#X connect 27 0 6 0;
#X connect 28 0 2 0;
#X restore 141 14 pd saveloadsamples;
#N canvas 668 117 518 651 record_samples 0;
#X obj 130 2 r~ \$0-in;
#X obj 128 42 env~;
#X obj 161 87 t f f f;
#X obj 194 118 -;
#X obj 128 120 tgl 15 0 empty empty empty 17 7 0 10 -262144 -1 -1 0
1;
#X obj 128 65 t f f;
#X msg 212 188 0;
#X msg 242 188 1;
#X obj 217 248 bng 15 250 50 0 empty empty empty 17 7 0 10 -262144
-1 -1;
#X obj 166 192 m;
#X obj 167 214 change;
#X obj 137 416 tgl 15 0 empty empty empty 17 7 0 10 -262144 -1 -1 0
1;
#X obj 218 213 f;
#X obj 128 170 sel 0;
#X obj 128 144 t f f;
#X msg 126 193 0;
#X obj 167 244 sel 1;
#X msg 167 270 1;
#X obj 126 293 change;
#X obj 126 314 sel 0 1;
#X msg 169 346 stop;
#X msg 129 345 stop;
#X msg 112 393 0;
#X msg 158 390 1;
#X obj 137 455 sel 0 1;
#X obj 156 478 t b b;
#X obj 183 498 i;
#X obj 216 499 + 1;
#X obj 246 500 mod 9;
#X floatatom 183 523 5 0 0 0 - - -;
#X obj 183 543 makesymbol \$0-sample%s;
#X msg 183 566 set \$1;
#X obj 156 612 tabwrite~ \$0-sample1;
#X obj 208 35 delwrite~ \$0-recdel 100;
#X msg 113 540 stop;
#X obj 75 536 timer;
#X obj 85 481 t b b;
#X floatatom 21 625 8 0 0 0 - - -;
#X obj 137 434 change;
#X obj 81 614 pack f f;
#X obj 81 636 tabwrite \$0-samplelen;
#X obj 75 581 * 44.1;
#X obj 345 559 s \$0-currentsample;
#X obj 47 108 hip~ 8000;
#X floatatom 181 68 5 0 0 0 - - -;
#X obj 345 534 spigot;
#X obj 378 510 tgl 15 0 empty empty empty 17 7 0 10 -262144 -1 -1 0
1;
#X msg 412 518 0;
#X obj 109 369 del 60;
#X obj 128 90 > 70;
#X obj 158 367 del 60;
#X obj 162 410 spigot 1;
#X obj 205 390 r \$0-recenable;
#X obj 199 440 r \$0-reset_rec_count;
#X msg 198 471 0;
#X floatatom 250 90 5 0 0 0 - - -;
#X msg 244 120 15;
#X floatatom 306 186 5 0 0 0 - - -;
#X msg 281 120 4;
#X obj 49 136 *~ 15;
#X obj 190 588 delread~ \$0-recdel 90;
#X floatatom 76 313 5 0 0 0 - - -;
#X obj 252 237 tgl 15 0 empty empty empty 17 7 0 10 -262144 -1 -1 0
1;
#X msg 332 120 2;
#X obj 195 138 mavg 6;
#X obj 210 163 moses 4;
#X obj 273 471 r \$0-nbcases;
#X connect 0 0 1 0;
#X connect 0 0 33 0;
#X connect 0 0 43 0;
#X connect 1 0 5 0;
#X connect 2 1 3 1;
#X connect 2 2 3 0;
#X connect 3 0 64 0;
#X connect 4 0 14 0;
#X connect 5 0 49 0;
#X connect 5 1 2 0;
#X connect 6 0 12 0;
#X connect 7 0 12 0;
#X connect 9 0 10 0;
#X connect 10 0 16 0;
#X connect 11 0 38 0;
#X connect 12 0 9 1;
#X connect 12 0 62 0;
#X connect 13 0 15 0;
#X connect 14 0 13 0;
#X connect 14 1 9 0;
#X connect 15 0 18 0;
#X connect 16 0 17 0;
#X connect 16 0 8 0;
#X connect 17 0 18 0;
#X connect 18 0 19 0;
#X connect 18 0 61 0;
#X connect 19 0 20 0;
#X connect 19 0 48 0;
#X connect 19 1 21 0;
#X connect 19 1 50 0;
#X connect 20 0 50 0;
#X connect 21 0 48 0;
#X connect 22 0 11 0;
#X connect 23 0 51 0;
#X connect 24 0 36 0;
#X connect 24 1 25 0;
#X connect 25 0 32 0;
#X connect 25 0 35 0;
#X connect 25 1 26 0;
#X connect 26 0 27 0;
#X connect 26 0 29 0;
#X connect 26 0 39 1;
#X connect 26 0 45 0;
#X connect 27 0 28 0;
#X connect 28 0 26 1;
#X connect 29 0 30 0;
#X connect 30 0 31 0;
#X connect 31 0 32 0;
#X connect 34 0 32 0;
#X connect 35 0 41 0;
#X connect 36 0 35 1;
#X connect 36 1 34 0;
#X connect 38 0 24 0;
#X connect 39 0 40 0;
#X connect 41 0 39 0;
#X connect 43 0 59 0;
#X connect 45 0 42 0;
#X connect 46 0 45 1;
#X connect 47 0 42 0;
#X connect 48 0 22 0;
#X connect 49 0 4 0;
#X connect 50 0 23 0;
#X connect 51 0 11 0;
#X connect 52 0 51 1;
#X connect 53 0 54 0;
#X connect 54 0 26 1;
#X connect 56 0 65 1;
#X connect 58 0 65 1;
#X connect 59 0 1 0;
#X connect 60 0 32 0;
#X connect 63 0 65 1;
#X connect 64 0 65 0;
#X connect 65 0 6 0;
#X connect 65 1 7 0;
#X connect 66 0 28 1;
#X restore 28 15 pd record_samples;
#X obj 51 371 fragvox \$0;
#X obj 66 350 fragvox \$0;
#X obj 81 330 fragvox \$0;
#X obj 141 249 fragvox \$0;
#X obj 96 309 fragvox \$0;
#X obj 111 288 fragvox \$0;
#X obj 126 268 fragvox \$0;
#X obj 156 229 fragvox \$0;
#X obj 37 72 unpack f f;
#X obj 36 133 pack f f;
#X obj 36 92 - 1;
#N canvas 634 111 569 438 randombruits 0;
#X obj 127 20 inlet;
#X msg 127 41 \$2 \$1;
#X obj 199 135 random 15;
#X obj 200 155 == 1;
#X obj 127 64 route 0 1;
#X obj 130 273 outlet;
#X msg 127 212 \$1 0;
#X msg 173 213 \$1 1;
#X obj 173 114 t f b;
#X obj 280 371 throw~ \$0-out;
#X obj 271 203 swav;
#SUB settings /home/antoine/Datas/Sounds/Recordings/flutios.wav 0 0
1 0.71;
#X obj 295 106 bng 15 250 50 0 empty empty empty 17 7 0 10 -262144
-1 -1;
#X obj 223 200 bng 15 250 50 0 empty empty empty 17 7 0 10 -262144
-1 -1;
#X obj 271 145 random 46;
#X floatatom 348 167 5 0 0 0 - - -;
#X msg 273 173 nb \$1;
#X obj 361 259 lop~ 2000;
#X obj 379 297 subrev;
#SUB settings 0.395 67.5 0.71;
#X obj 173 181 demux;
#X connect 0 0 1 0;
#X connect 1 0 4 0;
#X connect 2 0 3 0;
#X connect 4 0 6 0;
#X connect 4 1 8 0;
#X connect 6 0 5 0;
#X connect 7 0 5 0;
#X connect 8 0 18 0;
#X connect 8 1 2 0;
#X connect 10 0 9 0;
#X connect 10 0 16 0;
#X connect 10 1 9 0;
#X connect 11 0 13 0;
#X connect 12 0 13 0;
#X connect 13 0 15 0;
#X connect 13 0 14 0;
#X connect 15 0 10 0;
#X connect 16 0 17 0;
#X connect 17 0 9 0;
#X connect 18 0 7 0;
#X connect 18 1 6 0;
#X connect 18 1 12 0;
#X restore 37 159 pd randombruits;
#X obj 122 72 r \$0-nbcases;
#X obj 37 43 r \$0-myoso-snd;
#X obj 36 112 mod 6;
#X connect 1 0 3 0;
#X connect 2 0 3 0;
#X connect 4 0 0 0;
#X connect 4 1 18 0;
#X connect 4 2 19 0;
#X connect 4 3 20 0;
#X connect 4 4 22 0;
#X connect 4 5 23 0;
#X connect 4 6 24 0;
#X connect 4 7 21 0;
#X connect 4 8 25 0;
#X connect 15 0 4 0;
#X connect 26 0 28 0;
#X connect 26 1 27 1;
#X connect 27 0 29 0;
#X connect 28 0 32 0;
#X connect 29 0 15 0;
#X connect 30 0 32 1;
#X connect 31 0 26 0;
#X connect 32 0 27 0;
#X restore 217 89 pd Decoupeur;
#X obj 224 169 s \$0-smooth;
#X obj 228 126 bng 15 250 50 0 empty empty empty 17 7 0 10 -262144
-1 -1;
#X obj 225 150 init 1;
#X obj 101 332 hradio 20 1 0 6 \$0-loadbank \$0-loadbank-rcv loadbank
0 -8 0 10 -262144 -1 -1 0;
#X obj 256 250 bng 20 250 50 0 \$0-reset_rec_count empty reset_rec_count
-30 -7 0 10 -262144 -1 -1;
#X obj 92 214 r Teleco;
#X obj 101 243 route cp;
#X obj 101 264 == 2;
#X obj 101 287 change;
#X obj 244 325 == 0;
#X obj 244 283 r Teleco;
#X obj 244 304 route mute;
#X obj 244 347 s \$0-onoff;
#X obj 92 414 init 6;
#X obj 39 461 s \$0-nbcases;
#X obj 91 395 bng 15 250 50 0 empty empty empty 17 7 0 10 -262144 -1
-1;
#X obj 13 352 r \$1-myo-to-roto;
#X obj 19 406 sel 0 1;
#X msg 18 430 9;
#X obj 15 381 tgl 15 0 empty empty empty 17 7 0 10 -262144 -1 -1 0
1;
#X msg 49 429 6;
#X obj 133 194 l ../Parole \$0 \$1 rotobservatoire;
#N canvas 1165 427 132 154 Interface 1;
#X obj 3 2 cnv 15 120 120 empty empty Myosotis 20 12 2 14 -225271 -66577
0;
#X obj 50 40 tgl 30 0 \$0-myoso3-snd \$0-myoso3-rcv 3 13 15 1 10 -262131
-1 -1 0 1;
#X obj 83 40 tgl 30 0 \$0-myoso4-snd \$0-myoso4-rcv 4 13 15 1 10 -262131
-1 -1 0 1;
#X obj 83 73 tgl 30 0 \$0-myoso5-snd \$0-myoso5-rcv 5 13 15 1 10 -262131
-1 -1 0 1;
#X obj 17 40 tgl 30 0 \$0-myoso2-snd \$0-myoso2-rcv 2 13 15 1 10 -262131
-1 -1 0 1;
#X obj 50 73 tgl 30 0 \$0-myoso0-snd \$0-myoso0-rcv E 13 15 1 10 -228992
-1 -1 0 1;
#X obj 17 73 tgl 30 0 \$0-myoso1-snd \$0-myoso1-rcv 1 13 15 1 10 -262131
-1 -1 0 1;
#X text 3 124 keys w x c v b;
#X text 63 135 n;
#X restore 11 12 pd Interface;
#N canvas 126 230 434 420 interfguts 0;
#X obj 81 45 keyname;
#X obj 81 70 pack f s;
#X obj 81 91 spigot;
#X obj 131 95 tgl 15 0 empty empty keyboard 0 -6 1 8 -241291 -1 -1
0 1;
#X obj 156 97 r \$0-getkeyb;
#X obj 81 150 route w x c v b n;
#X obj 22 20 dispatch \$0-myoso 0 5;
#X obj 197 44 r \$1-myoso-snd;
#X obj 197 63 s \$0-myoso-rcv;
#X msg 81 112 \$2 \$1;
#X msg 40 185 1 \$1;
#X msg 74 185 2 \$1;
#X msg 110 185 3 \$1;
#X msg 145 185 4 \$1;
#X msg 181 185 5 \$1;
#X msg 218 185 0 \$1;
#X obj 127 222 s \$0-myoso-rcv;
#X obj 160 357 s \$0-deb1time;
#X obj 69 357 s \$0-deb0time;
#X obj 123 323 init 20;
#X obj 119 302 bng 15 250 50 0 empty empty empty 17 7 0 10 -262144
-1 -1;
#X obj 217 159 tgl 15 0 empty empty empty 17 7 0 10 -262144 -1 -1 0
1;
#X connect 0 0 1 0;
#X connect 0 1 1 1;
#X connect 1 0 2 0;
#X connect 2 0 9 0;
#X connect 3 0 2 1;
#X connect 4 0 3 0;
#X connect 5 0 10 0;
#X connect 5 1 11 0;
#X connect 5 2 12 0;
#X connect 5 3 13 0;
#X connect 5 4 14 0;
#X connect 5 5 15 0;
#X connect 7 0 8 0;
#X connect 9 0 5 0;
#X connect 10 0 16 0;
#X connect 11 0 16 0;
#X connect 12 0 16 0;
#X connect 13 0 16 0;
#X connect 14 0 16 0;
#X connect 15 0 16 0;
#X connect 19 0 18 0;
#X connect 19 0 17 0;
#X connect 20 0 19 0;
#X connect 21 0 15 0;
#X restore 11 31 pd interfguts;
#X connect 0 0 3 0;
#X connect 1 0 0 0;
#X connect 8 0 7 0;
#X connect 9 0 8 0;
#X connect 9 0 12 0;
#X connect 12 0 10 0;
#X connect 15 0 16 0;
#X connect 16 0 14 0;
#X connect 19 0 20 0;
#X connect 20 0 21 0;
#X connect 21 0 22 0;
#X connect 22 0 17 0;
#X connect 23 0 26 0;
#X connect 24 0 25 0;
#X connect 25 0 23 0;
#X connect 27 0 28 0;
#X connect 29 0 27 0;
#X connect 30 0 33 0;
#X connect 31 0 32 0;
#X connect 31 1 34 0;
#X connect 32 0 28 0;
#X connect 33 0 31 0;
#X connect 34 0 28 0;
