#N canvas 426 120 1072 658 12;
#X obj 299 265 tabplay~;
#X obj 107 266 tabplay~;
#X msg 107 233 set \$2-wavtableL-\$1 \, bang;
#X msg 299 233 set \$2-wavtableR-\$1 \, bang;
#X obj 106 585 *~;
#X obj 268 591 *~;
#X obj 107 24 r \$2-voices-play;
#X obj 107 49 route \$1, f 26;
#X obj 107 74 list split 1;
#X obj 243 175 line~;
#X obj 243 200 *~;
#X msg 243 146 1 10;
#X obj 204 174 bng 20 250 50 0 empty empty empty 0 -10 0 12 #fcfcfc #000000 #000000;
#X obj 107 208 pack f \$2;
#X obj 106 612 throw~ \$2-out;
#X obj 268 620 throw~ \$2-out2;
#X listbox 261 21 65 0 0 0 - - - 0;
#X msg 291 165 0 100;
#X obj 107 304 *~ 1;
#X obj 662 452 list append \$2-out \$2-out2;
#X obj 662 512 unpack s s;
#X msg 662 537 set \$1;
#X msg 729 537 set \$1;
#X obj 662 393 tgl 20 0 empty empty empty 0 -10 0 12 #fcfcfc #000000 #000000 0 1;
#X obj 662 426 sel 0 1;
#X obj 685 476 list append \$2-out2 \$2-out;
#X obj 427 79 list split 7;
#X obj 427 104 unpack f f f f f f f;
#X obj 106 361 delwrite~ \$0-delL 100;
#X obj 105 413 delread~ \$0-delL 100;
#X obj 300 309 *~ 1;
#X obj 299 366 delwrite~ \$0-delR 100;
#X obj 298 418 delread~ \$0-delR 100;
#X text 444 57 ampL ampR hipL hipR delL delR swapout;
#X obj 106 336 hip~ 0;
#X obj 299 341 hip~ 0;
#X obj 291 90 r \$2-voices-stop;
#X obj 291 138 sel \$1;
#X obj 199 497 *~;
#X obj 199 472 vline~;
#X msg 223 441 1 100 \, 0 800 200;
#X obj 148 520 *~;
#X obj 260 518 *~;
#X obj 148 546 throw~ \$2-revL;
#X obj 260 545 throw~ \$2-revR;
#X obj 69 164 bng 20 250 50 0 empty empty empty 0 -10 0 12 #fcfcfc #000000 #000000;
#X obj 291 114 t f b, f 8;
#X msg 348 164 0 50;
#X msg 48 445 1 100 \, 0 4000 500;
#X obj 514 368 unpack s s;
#X msg 514 393 set \$1;
#X msg 581 393 set \$1;
#X obj 514 249 tgl 20 0 empty empty empty 0 -10 0 12 #fcfcfc #000000 #000000 0 1;
#X obj 514 282 sel 0 1;
#X obj 514 308 list append \$2-revL \$2-revR;
#X obj 537 332 list append \$2-revR \$2-revL;
#X connect 0 0 30 0;
#X connect 1 0 18 0;
#X connect 2 0 1 0;
#X connect 3 0 0 0;
#X connect 4 0 14 0;
#X connect 5 0 15 0;
#X connect 6 0 7 0;
#X connect 6 0 16 0;
#X connect 7 0 8 0;
#X connect 8 0 11 0;
#X connect 8 0 13 0;
#X connect 8 0 48 0;
#X connect 8 1 26 0;
#X connect 9 0 10 0;
#X connect 9 0 10 1;
#X connect 10 0 4 1;
#X connect 10 0 5 1;
#X connect 11 0 9 0;
#X connect 11 0 12 0;
#X connect 13 0 2 0;
#X connect 13 0 3 0;
#X connect 17 0 9 0;
#X connect 18 0 34 0;
#X connect 19 0 20 0;
#X connect 20 0 21 0;
#X connect 20 1 22 0;
#X connect 21 0 14 0;
#X connect 22 0 15 0;
#X connect 23 0 24 0;
#X connect 24 0 19 0;
#X connect 24 1 25 0;
#X connect 25 0 20 0;
#X connect 26 0 27 0;
#X connect 27 0 18 1;
#X connect 27 1 30 1;
#X connect 27 2 34 1;
#X connect 27 3 35 1;
#X connect 27 4 29 0;
#X connect 27 5 32 0;
#X connect 27 6 23 0;
#X connect 27 6 52 0;
#X connect 29 0 4 0;
#X connect 29 0 41 0;
#X connect 30 0 35 0;
#X connect 32 0 5 0;
#X connect 32 0 42 0;
#X connect 34 0 28 0;
#X connect 35 0 31 0;
#X connect 36 0 46 0;
#X connect 37 0 17 0;
#X connect 37 0 40 0;
#X connect 37 1 47 0;
#X connect 38 0 42 1;
#X connect 38 0 41 1;
#X connect 39 0 38 0;
#X connect 39 0 38 1;
#X connect 40 0 39 0;
#X connect 41 0 43 0;
#X connect 42 0 44 0;
#X connect 45 0 13 0;
#X connect 46 0 37 0;
#X connect 47 0 39 0;
#X connect 48 0 39 0;
#X connect 49 0 50 0;
#X connect 49 1 51 0;
#X connect 50 0 43 0;
#X connect 51 0 44 0;
#X connect 52 0 53 0;
#X connect 53 0 54 0;
#X connect 53 1 55 0;
#X connect 54 0 49 0;
#X connect 55 0 49 0;
