#N canvas 343 71 517 375 10;
#N canvas 869 302 445 286 master 1;
#X obj 43 38 catch~ \$0-out;
#X obj 44 176 *~;
#X obj 74 96 pow 2;
#X obj 74 74 r \$0-vol-snd;
#X obj 74 117 * 1;
#X obj 161 38 catch~ \$0-out2;
#X obj 162 174 *~;
#X obj 277 34 catch~ \$0-revL;
#X obj 299 88 catch~ \$0-revR;
#X obj 279 232 throw~ \$0-out;
#X obj 314 203 throw~ \$0-out2;
#X obj 278 191 *~ 1;
#X obj 314 177 *~ 1;
#X obj 299 117 lop~ 2000;
#X obj 277 60 lop~ 2000;
#X obj 278 150 rev3~ 95 92 3000 70;
#X floatatom 120 125 5 0 0 0 - - - 0;
#X obj 45 205 stereoOut 7 8, f 20;
#X connect 0 0 1 0;
#X connect 1 0 17 0;
#X connect 2 0 4 0;
#X connect 3 0 2 0;
#X connect 3 0 16 0;
#X connect 4 0 1 1;
#X connect 4 0 6 1;
#X connect 5 0 6 0;
#X connect 6 0 17 1;
#X connect 7 0 14 0;
#X connect 8 0 13 0;
#X connect 11 0 9 0;
#X connect 12 0 10 0;
#X connect 13 0 15 1;
#X connect 14 0 15 0;
#X connect 15 0 11 0;
#X connect 15 1 12 0;
#X restore 11 50 pd master;
#X obj 12 80 tgl 15 0 \$0-getkeyb \$0-getkeyb-rcv keyboard 0 -6 1 8 #e8e828 #000000 #000000 0 1;
#X obj 258 163 s \$0-keys;
#X obj 258 141 spigot;
#X obj 291 120 r \$0-onoff;
#X obj 383 27 r ClochesMode;
#X msg 383 90 1;
#X msg 412 90 0;
#X obj 383 113 tgl 15 0 empty empty empty 17 7 0 10 #fcfcfc #000000 #000000 0 1;
#X obj 383 132 s \$0-onoff;
#X obj 47 120 tgl 20 0 \$0-onoff \$0-onoff onoff 0 -6 0 12 #fc2828 #000000 #000000 0 1;
#X obj 47 147 r \$0-onoff;
#X obj 47 170 switch~;
#X obj 383 69 route Amour;
#X listbox 130 61 20 0 0 0 - - - 0;
#X obj 384 234 s \$0-loadtables;
#N canvas 89 67 754 522 loadtables 0;
#X obj 29 24 clone wavtable 50 \$0;
#X obj 29 75 r \$0-loadtables;
#X obj 108 129 r ClochesWavPath;
#X obj 75 177 symbol;
#X obj 75 228 file glob;
#X msg 75 200 symbol \$1/*.wav;
#X obj 225 78 s \$0-loadtables;
#X obj 219 47 bng 18 250 50 0 empty empty empty 0 -9 0 10 #fcfcfc #000000 #000000;
#X obj 75 277 t b s, f 11;
#X obj 75 253 list split 1;
#X obj 75 300 i;
#X obj 105 301 + 1;
#X msg 154 277 0;
#X obj 75 393 soundfiler;
#X obj 75 335 pack f s \$0, f 21;
#X obj 29 98 t b b b, f 16;
#X obj 29 336 i;
#X obj 29 426 s \$0-nbtables;
#X obj 217 422 r \$0-nbtables;
#X floatatom 217 445 5 0 0 0 - - - 0;
#X obj 426 154 r \$0-nbtables;
#X obj 405 180 f 45;
#X obj 405 118 bng 18 250 50 0 empty empty empty 0 -9 0 10 #fcfcfc #000000 #000000;
#X obj 405 203 t f b, f 8;
#X obj 405 226 until;
#X obj 405 249 i;
#X obj 447 249 + 1;
#X msg 450 225 0;
#X obj 432 295 pack f \$0;
#X obj 432 365 array size;
#X obj 432 341 t b s, f 10;
#X obj 405 446 print;
#X msg 154 62 vis 39 1;
#X msg 75 367 read -resize \$2 \$3-wavtableL-\$1 \$3-wavtableR-\$1;
#X msg 432 318 symbol \$2-wavtableL-\$1;
#X obj 582 293 pack f \$0;
#X obj 582 363 array size;
#X obj 582 339 t b s, f 10;
#X msg 582 316 symbol \$2-wavtableR-\$1;
#X obj 405 272 t f f f, f 9;
#X obj 405 400 pack f f f;
#X msg 405 423 sample \$1 size \$2-\$3;
#X msg 108 152 symbol \$1/Amour/animaux;
#X connect 1 0 15 0;
#X connect 2 0 42 0;
#X connect 3 0 5 0;
#X connect 4 0 9 0;
#X connect 5 0 4 0;
#X connect 7 0 6 0;
#X connect 8 0 10 0;
#X connect 8 1 14 1;
#X connect 9 0 8 0;
#X connect 10 0 11 0;
#X connect 10 0 14 0;
#X connect 11 0 10 1;
#X connect 11 0 16 1;
#X connect 12 0 10 1;
#X connect 14 0 33 0;
#X connect 15 0 16 0;
#X connect 15 1 3 0;
#X connect 15 2 12 0;
#X connect 16 0 17 0;
#X connect 18 0 19 0;
#X connect 20 0 21 1;
#X connect 21 0 23 0;
#X connect 22 0 21 0;
#X connect 23 0 24 0;
#X connect 23 1 27 0;
#X connect 24 0 25 0;
#X connect 25 0 26 0;
#X connect 25 0 39 0;
#X connect 26 0 25 1;
#X connect 27 0 25 1;
#X connect 28 0 34 0;
#X connect 29 0 40 1;
#X connect 30 0 29 0;
#X connect 30 1 29 1;
#X connect 32 0 0 0;
#X connect 33 0 13 0;
#X connect 34 0 30 0;
#X connect 35 0 38 0;
#X connect 36 0 40 2;
#X connect 37 0 36 0;
#X connect 37 1 36 1;
#X connect 38 0 37 0;
#X connect 39 0 40 0;
#X connect 39 1 28 0;
#X connect 39 2 35 0;
#X connect 40 0 41 0;
#X connect 41 0 31 0;
#X connect 42 0 3 1;
#X restore 384 267 pd loadtables;
#X obj 384 191 sel 1 0;
#X obj 403 213 s \$0-freetables;
#X obj 384 168 r \$0-onoff;
#X obj 19 225 table \$0-case-table;
#N canvas 793 418 419 510 change_case 0;
#N canvas 0 0 480 539 chose_new_table 0;
#X obj 35 193 random 45;
#X obj 86 100 r \$0-nbtables;
#X obj 35 139 f 45;
#X obj 35 164 until;
#X obj 58 275 list split 1;
#X obj 98 300 t a;
#X msg 58 325 1;
#X msg 126 326 0;
#X obj 35 357 f, f 4;
#X obj 35 223 t b b f b, f 12;
#X obj 35 382 sel 0 1;
#X obj 35 407 t b b, f 12;
#X obj 35 432 f;
#X obj 58 300 sel 0;
#X obj 35 66 t b f, f 34;
#X floatatom 100 133 5 0 0 0 - - - 0;
#X obj 62 479 array set \$0-case-table, f 60;
#X obj 35 26 inlet case;
#X obj 35 506 outlet;
#X obj 35 455 t f f;
#X obj 58 250 array get \$0-case-table 0 4;
#X connect 0 0 9 0;
#X connect 1 0 2 1;
#X connect 1 0 0 1;
#X connect 1 0 15 0;
#X connect 2 0 3 0;
#X connect 3 0 0 0;
#X connect 4 0 13 0;
#X connect 4 1 5 0;
#X connect 5 0 4 0;
#X connect 6 0 8 1;
#X connect 7 0 8 1;
#X connect 8 0 10 0;
#X connect 9 0 8 0;
#X connect 9 1 20 0;
#X connect 9 2 12 1;
#X connect 9 2 13 1;
#X connect 9 3 7 0;
#X connect 10 0 11 0;
#X connect 11 0 12 0;
#X connect 11 1 3 1;
#X connect 12 0 19 0;
#X connect 13 0 6 0;
#X connect 14 0 2 0;
#X connect 14 1 16 1;
#X connect 17 0 14 0;
#X connect 19 0 18 0;
#X connect 19 1 16 0;
#X connect 20 0 4 0;
#X restore 90 310 pd chose_new_table;
#X obj 63 258 i;
#X obj 93 259 + 1;
#X floatatom 90 333 5 0 0 0 - - - 0;
#X listbox 36 435 28 0 0 0 - - - 0;
#X obj 51 383 bng 18 250 50 0 empty empty empty 0 -9 0 10 #fcfcfc #000000 #000000;
#X obj 36 231 t b b;
#X floatatom 15 286 5 0 0 0 - - - 0;
#X obj 36 179 bng 18 250 50 0 empty empty empty 0 -9 0 10 #fcfcfc #000000 #000000;
#X msg 95 163 9;
#X obj 95 186 until;
#X obj 95 91 r \$0-nbtables;
#X obj 95 114 b;
#X obj 95 137 del 10;
#X obj 36 20 loadbang;
#X obj 36 43 tgl 18 0 empty empty empty 0 -9 0 10 #fcfcfc #000000 #000000 0 1;
#X obj 63 284 t f f;
#X obj 63 355 s \$0-case-change-fx;
#X obj 36 65 metro 15000;
#X obj 122 259 mod 4;
#X obj 36 412 array get \$0-case-table 0 4;
#X connect 0 0 3 0;
#X connect 1 0 2 0;
#X connect 1 0 7 0;
#X connect 1 0 16 0;
#X connect 2 0 19 0;
#X connect 5 0 20 0;
#X connect 6 0 20 0;
#X connect 6 1 1 0;
#X connect 8 0 6 0;
#X connect 9 0 10 0;
#X connect 10 0 6 0;
#X connect 11 0 12 0;
#X connect 12 0 13 0;
#X connect 13 0 9 0;
#X connect 14 0 15 0;
#X connect 15 0 18 0;
#X connect 16 0 17 0;
#X connect 16 1 0 0;
#X connect 18 0 8 0;
#X connect 19 0 1 1;
#X connect 20 0 4 0;
#X restore 18 316 pd change_case;
#N canvas 293 253 450 300 play_voice 0;
#X obj 145 54 r \$0-play_voice;
#X obj 145 77 t b a, f 12;
#X obj 145 100 i;
#X obj 172 101 + 1;
#X obj 145 181 list append, f 12;
#X obj 145 204 s \$0-voices-play;
#X obj 145 154 t f f, f 22;
#X obj 274 226 s \$0-voices-stop;
#X obj 274 200 mod 6;
#X obj 172 124 mod 6;
#X obj 274 177 + 1;
#X connect 0 0 1 0;
#X connect 1 0 2 0;
#X connect 1 1 4 1;
#X connect 2 0 3 0;
#X connect 2 0 6 0;
#X connect 3 0 9 0;
#X connect 4 0 5 0;
#X connect 6 0 4 0;
#X connect 6 1 10 0;
#X connect 8 0 7 0;
#X connect 9 0 2 1;
#X connect 10 0 8 0;
#X restore 18 342 pd play_voice;
#X obj 363 209 bng 18 250 50 0 empty empty empty 0 -9 0 10 #fcfcfc #000000 #000000;
#X obj 383 48 route Repie;
#N canvas 139 569 148 84 Interface 0;
#X obj 10 8 tgl 30 0 \$0-rep1-snd \$0-rep1-rcv 1 13 15 1 10 #fcfcfc #000000 #000000 0 1;
#X obj 42 8 tgl 30 0 \$0-rep2-snd \$0-rep2-rcv 2 13 15 1 10 #fcfcfc #000000 #000000 0 1;
#X obj 10 40 tgl 30 0 \$0-rep3-snd \$0-rep3-rcv 3 13 15 1 10 #fcfcfc #000000 #000000 0 1;
#X obj 42 40 tgl 30 0 \$0-rep4-snd \$0-rep4-rcv 4 13 15 1 10 #fcfcfc #000000 #000000 0 1;
#X text 4 67 keys w x c v;
#X obj 76 188 bng 30 250 50 0 \$0-b1-snd \$0-b1-rcv 1 13 15 1 8 #fcfcfc #000000 #000000;
#X obj 77 154 bng 30 250 50 0 \$0-b2-snd \$0-b2-rcv 2 13 15 1 8 #fcfcfc #000000 #000000;
#X obj 111 154 bng 30 250 50 0 \$0-b3-snd \$0-b3-rcv 3 13 15 1 8 #fcfcfc #000000 #000000;
#X obj 111 187 bng 30 250 50 0 \$0-b4-snd \$0-b4-rcv 4 13 15 1 8 #fcfcfc #000000 #000000;
#X restore 11 10 pd Interface;
#N canvas 401 185 322 414 interfguts 0;
#X obj 14 31 keyname;
#X obj 14 56 pack f s;
#X obj 14 77 spigot;
#X obj 64 81 tgl 15 0 empty empty keyboard 0 -6 1 8 #e8e828 #000000 #000000 0 1;
#X obj 89 83 r \$0-getkeyb;
#X obj 14 136 route w x c v;
#X obj 148 299 s \$0-antirebond;
#X obj 107 328 s \$0-deb1time;
#X msg 70 275 40;
#X obj 85 361 s \$0-deb0time;
#X obj 72 255 loadbang;
#X msg 110 306 10;
#X msg 14 168 1 \$1;
#X msg 64 168 2 \$1;
#X msg 113 168 3 \$1;
#X msg 163 168 4 \$1;
#X msg 13 99 \$2 \$1;
#X obj 64 198 s \$0-rep-rcv;
#X obj 12 11 dispatch \$0-rep 1 4;
#X obj 180 50 r \$1-rep-snd;
#X obj 187 77 s \$0-rep-rcv;
#X connect 0 0 1 0;
#X connect 0 1 1 1;
#X connect 1 0 2 0;
#X connect 2 0 16 0;
#X connect 3 0 2 1;
#X connect 4 0 3 0;
#X connect 5 0 12 0;
#X connect 5 1 13 0;
#X connect 5 2 14 0;
#X connect 5 3 15 0;
#X connect 8 0 6 0;
#X connect 8 0 9 0;
#X connect 10 0 8 0;
#X connect 10 0 11 0;
#X connect 11 0 7 0;
#X connect 12 0 17 0;
#X connect 13 0 17 0;
#X connect 14 0 17 0;
#X connect 15 0 17 0;
#X connect 16 0 5 0;
#X connect 19 0 20 0;
#X restore 11 30 pd interfguts;
#X obj 258 26 r \$0-rep-snd;
#X obj 258 49 unpack f f;
#X obj 258 72 - 1;
#X obj 258 95 pack f f, f 10;
#X obj 20 256 clone case 4 \$0;
#X obj 167 274 clone voice 6 \$0;
#X obj 12 116 mknob 25 100 0 1 0 1 \$0-vol-snd \$0-vol-rcv vol -2 -6 1 10 #fc2828 #000000 #000000 6600 1;
#X connect 3 0 2 0;
#X connect 4 0 3 1;
#X connect 5 0 24 0;
#X connect 6 0 8 0;
#X connect 7 0 8 0;
#X connect 8 0 9 0;
#X connect 11 0 12 0;
#X connect 13 0 6 0;
#X connect 13 1 7 0;
#X connect 17 0 15 0;
#X connect 17 1 18 0;
#X connect 19 0 17 0;
#X connect 23 0 15 0;
#X connect 24 0 13 0;
#X connect 27 0 28 0;
#X connect 28 0 29 0;
#X connect 28 1 30 1;
#X connect 29 0 30 0;
#X connect 30 0 3 0;
#X connect 30 0 14 0;
