#N canvas 328 433 499 534 10;
#X obj 12 205 tgl 20 0 \$0-onoff \$0-onoff onoff 0 -6 0 12 #fc2828 #000000 #000000 0 1;
#X obj 12 232 r \$0-onoff;
#X obj 12 116 mknob 25 100 0 1 0 1 \$0-vol-snd \$0-vol-rcv vol -2 -6 1 10 #fc2828 #000000 #000000 6739 1;
#X obj 12 255 switch~;
#N canvas 866 106 298 213 master 0;
#X obj 182 34 catch~ \$0-out;
#X obj 140 111 *~;
#X obj 14 22 catch~ \$0-parole_out;
#X obj 24 43 catch~ \$0-parole_out2;
#X obj 175 91 pow 2;
#X obj 175 112 * 4;
#X obj 175 69 r \$0-vol-snd;
#X floatatom 212 121 5 0 0 0 - - - 0;
#X msg 80 69 200;
#X obj 14 66 hip~ 200;
#X obj 142 146 busrme 1;
#X connect 0 0 9 0;
#X connect 1 0 10 0;
#X connect 2 0 9 0;
#X connect 3 0 9 0;
#X connect 4 0 5 0;
#X connect 5 0 1 1;
#X connect 6 0 4 0;
#X connect 7 0 10 1;
#X connect 8 0 9 1;
#X connect 9 0 1 0;
#X restore 11 50 pd master;
#N canvas 198 452 177 224 Interface 0;
#X obj 4 3 cnv 15 170 180 empty empty Rotobservatoire 20 12 2 14 #d8fcd8 #404040 0;
#X obj 69 28 tgl 30 0 \$0-rotob1-snd \$0-rotob1-rcv 1:E 7 15 1 10 #fcfcc8 #000000 #000000 0 1;
#X obj 112 45 tgl 30 0 \$0-rotob2-snd \$0-rotob2-rcv 2:SE 2 15 1 10 #fcfcc8 #000000 #000000 0 1;
#X obj 134 87 tgl 30 0 \$0-rotob3-snd \$0-rotob3-rcv 3:S 7 15 1 10 #fcfcc8 #000000 #000000 0 1;
#X obj 115 129 tgl 30 0 \$0-rotob4-snd \$0-rotob4-rcv 4:SO 2 15 1 10 #fcfcc8 #000000 #000000 0 1;
#X obj 71 148 tgl 30 0 \$0-rotob5-snd \$0-rotob5-rcv 5:O 7 15 1 10 #fcfcc8 #000000 #000000 0 1;
#X obj 26 44 tgl 30 0 \$0-rotob8-snd \$0-rotob8-rcv 8:NE 2 15 1 10 #fcfcc8 #000000 #000000 0 1;
#X obj 11 87 tgl 30 0 \$0-rotob7-snd \$0-rotob7-rcv 7:N 7 15 1 10 #fcfcc8 #000000 #000000 0 1;
#X obj 29 130 tgl 30 0 \$0-rotob6-snd \$0-rotob6-rcv 6:NO 2 15 1 10 #fcfcc8 #000000 #000000 0 1;
#X obj 69 87 tgl 30 0 \$0-rotob0-snd \$0-rotob0-rcv C 10 15 1 10 #d8fcfc #000000 #000000 0 1;
#X text 35 186 keyboard:;
#X text 9 202 c d f g h j k l m;
#X restore 11 12 pd Interface;
#N canvas 506 343 367 405 interfguts 0;
#X obj 59 42 keyname;
#X obj 59 67 pack f s;
#X msg 59 118 \$2 \$1;
#X obj 59 88 spigot;
#X obj 109 92 tgl 15 0 empty empty keyboard 0 -6 1 8 #e8e828 #000000 #000000 0 1;
#X obj 134 94 r \$0-getkeyb;
#X msg 10 176 1 \$1;
#X msg 43 176 2 \$1;
#X msg 79 176 3 \$1;
#X msg 115 176 4 \$1;
#X obj 224 36 r \$1-rotob-snd;
#X obj 224 56 s \$0-rotob-rcv;
#X obj 59 139 route d f g h j k l m c;
#X msg 150 176 5 \$1;
#X msg 186 176 6 \$1;
#X msg 222 176 7 \$1;
#X msg 258 176 8 \$1;
#X msg 294 176 0 \$1;
#X obj 124 219 s \$0-rotob-rcv;
#X obj 57 14 dispatch \$0-rotob 0 8;
#X obj 590 -17 loadbang;
#X obj 139 332 s \$0-deb1time;
#X obj 48 332 s \$0-deb0time;
#X obj 98 277 bng 15 250 50 0 empty empty empty 17 7 0 10 #fcfcfc #000000 #000000;
#X obj 102 298 init 50;
#X connect 0 0 1 0;
#X connect 0 1 1 1;
#X connect 1 0 3 0;
#X connect 2 0 12 0;
#X connect 3 0 2 0;
#X connect 4 0 3 1;
#X connect 5 0 4 0;
#X connect 6 0 18 0;
#X connect 7 0 18 0;
#X connect 8 0 18 0;
#X connect 9 0 18 0;
#X connect 10 0 11 0;
#X connect 12 0 6 0;
#X connect 12 1 7 0;
#X connect 12 2 8 0;
#X connect 12 3 9 0;
#X connect 12 4 13 0;
#X connect 12 5 14 0;
#X connect 12 6 15 0;
#X connect 12 7 16 0;
#X connect 12 8 17 0;
#X connect 13 0 18 0;
#X connect 14 0 18 0;
#X connect 15 0 18 0;
#X connect 16 0 18 0;
#X connect 17 0 18 0;
#X connect 23 0 24 0;
#X connect 24 0 22 0;
#X connect 24 0 21 0;
#X restore 11 31 pd interfguts;
#N canvas 502 355 567 287 protect 0;
#X obj 260 26 table \$0-modeprotect-tab 10;
#X obj 56 30 r \$0-modeprotect-rcv;
#X obj 55 166 r \$0-reglageprotect-rcv;
#X msg 56 95 write modeprotect-tab.txt;
#X msg 111 73 read modeprotect-tab.txt;
#X obj 56 72 t b a;
#X obj 111 54 loadbang;
#X obj 55 206 t b a;
#X msg 55 228 write reglageprotect-tab.txt;
#X msg 131 207 read reglageprotect-tab.txt;
#X obj 131 187 loadbang;
#X msg 306 117 14 1;
#X obj 56 119 s \$0-modeprotect-tab;
#X obj 55 254 s \$0-reglageprotect-tab;
#X obj 245 167 table \$0-reglageprotect-tab 16;
#X msg 22 8 1 1 1 1 1 1;
#X msg 109 9 0 0 0 0 0 0;
#X connect 1 0 5 0;
#X connect 2 0 7 0;
#X connect 3 0 12 0;
#X connect 4 0 12 0;
#X connect 5 0 3 0;
#X connect 5 1 12 0;
#X connect 6 0 4 0;
#X connect 7 0 8 0;
#X connect 7 1 13 0;
#X connect 8 0 13 0;
#X connect 9 0 13 0;
#X connect 10 0 9 0;
#X connect 11 0 7 0;
#X connect 15 0 5 0;
#X connect 16 0 5 0;
#X restore 134 11 pd protect;
#X obj 12 80 tgl 15 0 \$0-getkeyb \$0-getkeyb-rcv keyboard 0 -6 1 8 #e8e828 #000000 #000000 0 1;
#X obj 131 168 s \$0-latency;
#X obj 131 149 init 20;
#X obj 113 81 bng 15 250 50 0 empty empty empty 0 -6 0 8 #fcfcfc #000000 #000000;
#X obj 131 127 s \$0-nbmodes;
#N canvas 1001 133 264 214 input 0;
#X obj 66 145 s~ \$0-in;
#X obj 65 60 r~ inl;
#X connect 1 0 0 0;
#X restore 11 155 pd input;
#X obj 131 108 init 1;
#N canvas 62 345 483 552 Decoupeur 0;
#X obj 36 391 fragvox \$0;
#X obj 269 8 catch~ \$0-out1;
#X obj 278 41 catch~ \$0-out2;
#X obj 274 79 throw~ \$0-out;
#X obj 37 43 r \$0-rotob-snd;
#X obj 36 209 route 0 1 2 3 4 5 6 7 8;
#X obj 267 317 table \$0-samplelen 10;
#X msg 36 187 \$1 \$1 \$2;
#N canvas 72 177 604 439 saveloadsamples 0;
#X obj 22 150 for++ 0 8;
#X obj 19 86 bng 15 250 50 0 empty empty empty 17 7 0 10 #fcfcfc #000000 #000000;
#X obj 22 61 t b f;
#X obj 331 99 bng 15 250 50 0 empty empty empty 17 7 0 10 #fcfcfc #000000 #000000;
#X obj 331 279 soundfiler;
#X obj 359 169 tabread \$0-samplelen;
#X obj 332 65 t b f;
#X obj 331 148 t f f;
#X msg 417 74 1;
#X obj 331 123 for++ 0 8 50;
#X obj 22 246 soundfiler;
#X obj 20 173 t f f;
#X obj 24 276 tabwrite \$0-samplelen;
#X msg 113 28 1;
#X msg 450 71 2;
#X msg 138 49 2;
#X obj 114 87 == 0;
#X obj 113 112 s \$0-recenable;
#X obj 186 61 sel 0;
#X obj 183 89 s \$0-reset_rec_count;
#X obj 20 24 r \$0-loadbank;
#X obj 332 33 r \$0-savebank;
#X obj 19 108 del 500;
#X msg 456 106 0;
#X msg 156 21 0;
#X obj 114 141 r ClochesWavPath;
#X msg 114 164 symbol \$1/Rotosampleur/;
#X obj 22 198 pack f f \$0 s;
#X obj 331 215 pack f f f \$0 s;
#X msg 22 220 read \$4/bank\$2/s\$1.wav \$3-sample\$1;
#X msg 331 245 write -wave -nframes \$2 \$4/bank\$3/s\$1.wav \$4-sample\$1;
#X connect 0 0 11 0;
#X connect 1 0 22 0;
#X connect 2 0 1 0;
#X connect 2 1 16 0;
#X connect 2 1 18 0;
#X connect 2 1 27 1;
#X connect 3 0 9 0;
#X connect 5 0 28 1;
#X connect 6 0 3 0;
#X connect 6 1 28 2;
#X connect 7 0 28 0;
#X connect 7 1 5 0;
#X connect 8 0 6 0;
#X connect 9 0 7 0;
#X connect 10 0 12 0;
#X connect 11 0 27 0;
#X connect 11 1 12 1;
#X connect 13 0 2 0;
#X connect 14 0 6 0;
#X connect 15 0 2 0;
#X connect 16 0 17 0;
#X connect 20 0 2 0;
#X connect 21 0 6 0;
#X connect 22 0 0 0;
#X connect 23 0 6 0;
#X connect 24 0 2 0;
#X connect 25 0 26 0;
#X connect 26 0 27 3;
#X connect 26 0 28 4;
#X connect 27 0 29 0;
#X connect 28 0 30 0;
#X connect 29 0 10 0;
#X connect 30 0 4 0;
#X restore 141 14 pd saveloadsamples;
#N canvas 616 117 518 651 record_samples 0;
#X obj 130 2 r~ \$0-in;
#X obj 128 42 env~;
#X obj 161 87 t f f f;
#X obj 194 118 -;
#X obj 128 120 tgl 15 0 empty empty empty 17 7 0 10 #fcfcfc #000000 #000000 0 1;
#X obj 128 65 t f f;
#X msg 212 188 0;
#X msg 242 188 1;
#X obj 217 248 bng 15 250 50 0 empty empty empty 17 7 0 10 #fcfcfc #000000 #000000;
#X obj 166 192 m;
#X obj 167 214 change;
#X obj 137 416 tgl 15 0 empty empty empty 17 7 0 10 #fcfcfc #000000 #000000 0 1;
#X obj 218 213 f;
#X obj 128 170 sel 0;
#X obj 128 144 t f f;
#X msg 126 193 0;
#X obj 167 244 sel 1;
#X msg 167 270 1;
#X obj 126 293 change;
#X obj 126 314 sel 0 1;
#X msg 169 346 stop;
#X msg 129 345 stop;
#X msg 112 393 0;
#X msg 158 390 1;
#X obj 137 455 sel 0 1;
#X obj 156 478 t b b;
#X obj 183 498 i;
#X obj 216 499 + 1;
#X obj 246 500 mod 9;
#X floatatom 183 523 5 0 0 0 - - - 0;
#X obj 183 543 makesymbol \$0-sample%s;
#X msg 183 566 set \$1;
#X obj 156 612 tabwrite~ \$0-sample1;
#X obj 208 35 delwrite~ \$0-recdel 100;
#X msg 113 540 stop;
#X obj 75 536 timer;
#X obj 85 481 t b b;
#X floatatom 21 625 8 0 0 0 - - - 0;
#X obj 137 434 change;
#X obj 81 614 pack f f;
#X obj 81 636 tabwrite \$0-samplelen;
#X obj 75 581 * 44.1;
#X obj 345 559 s \$0-currentsample;
#X obj 47 108 hip~ 8000;
#X floatatom 181 68 5 0 0 0 - - - 0;
#X obj 345 534 spigot;
#X obj 378 510 tgl 15 0 empty empty empty 17 7 0 10 #fcfcfc #000000 #000000 0 1;
#X msg 412 518 0;
#X obj 109 369 del 60;
#X obj 128 90 > 70;
#X obj 158 367 del 60;
#X obj 162 410 spigot 1;
#X obj 205 390 r \$0-recenable;
#X obj 199 440 r \$0-reset_rec_count;
#X msg 198 471 0;
#X floatatom 250 90 5 0 0 0 - - - 0;
#X msg 244 120 15;
#X floatatom 306 186 5 0 0 0 - - - 0;
#X msg 281 120 4;
#X obj 49 136 *~ 15;
#X obj 190 588 delread~ \$0-recdel 90;
#X floatatom 76 313 5 0 0 0 - - - 0;
#X obj 252 237 tgl 15 0 empty empty empty 17 7 0 10 #fcfcfc #000000 #000000 0 1;
#X msg 332 120 2;
#X obj 195 138 mavg 6;
#X obj 210 163 moses 4;
#X obj 273 471 r \$0-nbcases;
#X connect 0 0 1 0;
#X connect 0 0 33 0;
#X connect 0 0 43 0;
#X connect 1 0 5 0;
#X connect 2 1 3 1;
#X connect 2 2 3 0;
#X connect 3 0 64 0;
#X connect 4 0 14 0;
#X connect 5 0 49 0;
#X connect 5 1 2 0;
#X connect 6 0 12 0;
#X connect 7 0 12 0;
#X connect 9 0 10 0;
#X connect 10 0 16 0;
#X connect 11 0 38 0;
#X connect 12 0 9 1;
#X connect 12 0 62 0;
#X connect 13 0 15 0;
#X connect 14 0 13 0;
#X connect 14 1 9 0;
#X connect 15 0 18 0;
#X connect 16 0 17 0;
#X connect 16 0 8 0;
#X connect 17 0 18 0;
#X connect 18 0 19 0;
#X connect 18 0 61 0;
#X connect 19 0 20 0;
#X connect 19 0 48 0;
#X connect 19 1 21 0;
#X connect 19 1 50 0;
#X connect 20 0 50 0;
#X connect 21 0 48 0;
#X connect 22 0 11 0;
#X connect 23 0 51 0;
#X connect 24 0 36 0;
#X connect 24 1 25 0;
#X connect 25 0 32 0;
#X connect 25 0 35 0;
#X connect 25 1 26 0;
#X connect 26 0 27 0;
#X connect 26 0 29 0;
#X connect 26 0 39 1;
#X connect 26 0 45 0;
#X connect 27 0 28 0;
#X connect 28 0 26 1;
#X connect 29 0 30 0;
#X connect 30 0 31 0;
#X connect 31 0 32 0;
#X connect 34 0 32 0;
#X connect 35 0 41 0;
#X connect 36 0 35 1;
#X connect 36 1 34 0;
#X connect 38 0 24 0;
#X connect 39 0 40 0;
#X connect 41 0 39 0;
#X connect 43 0 59 0;
#X connect 45 0 42 0;
#X connect 46 0 45 1;
#X connect 47 0 42 0;
#X connect 48 0 22 0;
#X connect 49 0 4 0;
#X connect 50 0 23 0;
#X connect 51 0 11 0;
#X connect 52 0 51 1;
#X connect 53 0 54 0;
#X connect 54 0 26 1;
#X connect 56 0 65 1;
#X connect 58 0 65 1;
#X connect 59 0 1 0;
#X connect 60 0 32 0;
#X connect 63 0 65 1;
#X connect 64 0 65 0;
#X connect 65 0 6 0;
#X connect 65 1 7 0;
#X connect 66 0 28 1;
#X restore 28 15 pd record_samples;
#X obj 51 371 fragvox \$0;
#X obj 66 350 fragvox \$0;
#X obj 81 330 fragvox \$0;
#X obj 141 249 fragvox \$0;
#X obj 96 309 fragvox \$0;
#X obj 111 288 fragvox \$0;
#X obj 126 268 fragvox \$0;
#X obj 156 229 fragvox \$0;
#X obj 37 72 unpack f f;
#X obj 36 133 pack f f;
#X obj 36 92 - 1;
#X obj 36 112 mod 9;
#N canvas 634 111 569 438 randombruits 0;
#X obj 127 20 inlet;
#X msg 127 41 \$2 \$1;
#X obj 199 135 random 15;
#X obj 200 155 == 1;
#X obj 127 64 route 0 1;
#X obj 130 273 outlet;
#X msg 127 212 \$1 0;
#X msg 173 213 \$1 1;
#X obj 173 114 t f b;
#X obj 280 371 throw~ \$0-out;
#X obj 271 203 swav;
#X obj 295 106 bng 15 250 50 0 empty empty empty 17 7 0 10 #fcfcfc #000000 #000000;
#X obj 223 200 bng 15 250 50 0 empty empty empty 17 7 0 10 #fcfcfc #000000 #000000;
#X obj 271 145 random 46;
#X floatatom 348 167 5 0 0 0 - - - 0;
#X msg 273 173 nb \$1;
#X obj 361 259 lop~ 2000;
#X obj 379 297 subrev;
#X obj 173 181 demux;
#X connect 0 0 1 0;
#X connect 1 0 4 0;
#X connect 2 0 3 0;
#X connect 4 0 6 0;
#X connect 4 1 8 0;
#X connect 6 0 5 0;
#X connect 7 0 5 0;
#X connect 8 0 18 0;
#X connect 8 1 2 0;
#X connect 10 0 9 0;
#X connect 10 0 16 0;
#X connect 10 1 9 0;
#X connect 11 0 13 0;
#X connect 12 0 13 0;
#X connect 13 0 15 0;
#X connect 13 0 14 0;
#X connect 15 0 10 0;
#X connect 16 0 17 0;
#X connect 17 0 9 0;
#X connect 18 0 7 0;
#X connect 18 1 6 0;
#X connect 18 1 12 0;
#X restore 37 159 pd randombruits;
#X obj 122 72 r \$0-nbcases;
#X obj 238 372 r \$0-tables-alloc;
#X obj 238 426 t b f;
#X msg 238 449 0 \, 1 \, 2 \, 3 \, 4 \, 5 \, 6 \, 7 \, 8;
#X obj 238 472 pack f f \$0;
#X obj 238 399 * 500000;
#X text 297 400 11.6s @ 44.1k;
#X obj 263 138 table \$0-sample0 1;
#X obj 263 155 table \$0-sample1 1;
#X obj 263 173 table \$0-sample2 1;
#X obj 263 192 table \$0-sample3 1;
#X obj 263 210 table \$0-sample4 1;
#X obj 263 228 table \$0-sample5 1;
#X obj 263 246 table \$0-sample6 1;
#X obj 263 265 table \$0-sample7 1;
#X obj 263 283 table \$0-sample8 1;
#X msg 238 495 \; \$3-sample\$1 resize \$2;
#X connect 1 0 3 0;
#X connect 2 0 3 0;
#X connect 4 0 18 0;
#X connect 5 0 0 0;
#X connect 5 1 10 0;
#X connect 5 2 11 0;
#X connect 5 3 12 0;
#X connect 5 4 14 0;
#X connect 5 5 15 0;
#X connect 5 6 16 0;
#X connect 5 7 13 0;
#X connect 5 8 17 0;
#X connect 7 0 5 0;
#X connect 18 0 20 0;
#X connect 18 1 19 1;
#X connect 19 0 22 0;
#X connect 20 0 21 0;
#X connect 21 0 19 0;
#X connect 22 0 7 0;
#X connect 23 0 21 1;
#X connect 24 0 28 0;
#X connect 25 0 26 0;
#X connect 25 1 27 1;
#X connect 26 0 27 0;
#X connect 27 0 39 0;
#X connect 28 0 25 0;
#X restore 217 89 pd Decoupeur;
#X obj 224 169 s \$0-smooth;
#X obj 228 126 bng 15 250 50 0 empty empty empty 17 7 0 10 #fcfcfc #000000 #000000;
#X obj 225 150 init 1;
#X obj 101 332 hradio 20 1 0 6 \$0-loadbank \$0-loadbank-rcv loadbank 0 -8 0 10 #fcfcfc #000000 #000000 0;
#X obj 370 253 bng 20 250 50 0 \$0-reset_rec_count empty reset_rec_count -30 -7 0 10 #fcfcfc #000000 #000000;
#X obj 92 214 r Teleco;
#X obj 101 243 route cp;
#X obj 101 264 == 2;
#X obj 101 287 change;
#X obj 358 328 == 0;
#X obj 358 286 r Teleco;
#X obj 358 307 route mute;
#X obj 358 350 s \$0-onoff;
#X obj 92 414 init 6;
#X obj 39 461 s \$0-nbcases;
#X obj 91 395 bng 15 250 50 0 empty empty empty 17 7 0 10 #fcfcfc #000000 #000000;
#X obj 13 352 r \$1-myo-to-roto;
#X obj 19 406 sel 0 1;
#X msg 18 430 9;
#X obj 15 381 tgl 15 0 empty empty empty 17 7 0 10 #fcfcfc #000000 #000000 0 1;
#X msg 49 429 6;
#X obj 133 194 l ../Parole \$0 \$1 rotobservatoire;
#X obj 165 219 r \$0-onoff;
#X obj 165 263 sel 1;
#X msg 165 288 2;
#X obj 333 12 r ClochesMode;
#X msg 333 75 1;
#X msg 362 75 0;
#X obj 333 98 tgl 15 0 empty empty empty 17 7 0 10 #fcfcfc #000000 #000000 0 1;
#X obj 333 117 s \$0-onoff;
#X obj 333 33 route Roto;
#X obj 333 54 route Sampleur;
#X obj 165 241 t f f, f 7;
#X obj 204 271 s \$0-tables-alloc;
#X connect 1 0 3 0;
#X connect 10 0 9 0;
#X connect 11 0 10 0;
#X connect 11 0 14 0;
#X connect 14 0 12 0;
#X connect 17 0 18 0;
#X connect 18 0 16 0;
#X connect 21 0 22 0;
#X connect 22 0 23 0;
#X connect 23 0 24 0;
#X connect 24 0 19 0;
#X connect 25 0 28 0;
#X connect 26 0 27 0;
#X connect 27 0 25 0;
#X connect 29 0 30 0;
#X connect 31 0 29 0;
#X connect 32 0 35 0;
#X connect 33 0 34 0;
#X connect 33 1 36 0;
#X connect 34 0 30 0;
#X connect 35 0 33 0;
#X connect 36 0 30 0;
#X connect 38 0 48 0;
#X connect 39 0 40 0;
#X connect 40 0 19 0;
#X connect 41 0 46 0;
#X connect 42 0 44 0;
#X connect 43 0 44 0;
#X connect 44 0 45 0;
#X connect 46 0 47 0;
#X connect 47 0 42 0;
#X connect 47 1 43 0;
#X connect 48 0 39 0;
#X connect 48 1 49 0;
