#N canvas 420 276 450 332 10;
#X obj 154 38 inlet;
#X obj 88 177 spigot;
#X msg 154 154 1;
#X msg 125 153 0;
#X obj 88 262 outlet;
#X obj 88 111 sel 0;
#X obj 88 91 r \$1-disant;
#X obj 258 155 s \$1-dire;
#X obj 125 133 r \$1-dire;
#X obj 199 249 subbang;
#X msg 177 214 color white;
#X msg 176 194 color yellow;
#X obj 351 36 inlet;
#X msg 48 178 stop;
#X obj 88 204 del \$5;
#X obj 258 132 pack s \$3 \$4;
#X obj 308 36 inlet;
#X obj 262 36 inlet;
#X text 267 18 num;
#X text 309 19 mode;
#X text 356 20 wait;
#X obj 218 36 inlet;
#X text 213 20 parole;
#X text 156 20 bang;
#X obj 258 110 symbol \$2;
#X obj 88 235 t b b;
#X obj 284 277 s \$1-step;
#X obj 284 256 \$0;
#X obj 85 37 r \$0-rcv;
#X obj 163 273 bng 15 250 50 0 empty empty empty 0 -6 0 8 -262144 -1
-1;
#X obj 154 61 t b b b;
#X connect 0 0 30 0;
#X connect 1 0 14 0;
#X connect 2 0 1 1;
#X connect 2 0 11 0;
#X connect 3 0 1 1;
#X connect 3 0 10 0;
#X connect 3 0 13 0;
#X connect 5 0 1 0;
#X connect 6 0 5 0;
#X connect 8 0 3 0;
#X connect 9 0 24 0;
#X connect 9 1 30 0;
#X connect 10 0 9 0;
#X connect 11 0 9 0;
#X connect 12 0 14 1;
#X connect 13 0 14 0;
#X connect 14 0 25 0;
#X connect 15 0 7 0;
#X connect 16 0 15 2;
#X connect 17 0 15 1;
#X connect 21 0 24 1;
#X connect 24 0 15 0;
#X connect 25 0 4 0;
#X connect 25 1 3 0;
#X connect 27 0 26 0;
#X connect 28 0 30 0;
#X connect 30 0 27 0;
#X connect 30 0 2 0;
#X connect 30 1 24 0;
