#N canvas 103 379 327 453 10;
#N canvas 604 113 600 445 vox1 0;
#X floatatom 120 20 5 0 12 0 - - -;
#X obj 167 160 / 44.1;
#X obj 120 44 t f f;
#X obj 88 292 line~;
#X obj 374 352 line~;
#X obj 88 381 *~;
#X floatatom 397 178 5 0 0 0 - - -;
#X msg 374 330 \$1 \$2;
#X msg 380 282 0;
#X obj 378 256 delay;
#X obj 273 251 1;
#X obj 273 229 t b;
#X obj 298 228 r \$0-voxvol;
#X obj 397 154 r \$1-smooth;
#X obj 88 404 outlet~;
#X obj 286 44 r \$0-pitch;
#X obj 267 25 r \$1-pitch;
#X obj 267 69 m 1;
#X obj 167 191 / 1;
#X floatatom 51 177 5 0 0 0 - - -;
#X obj 95 17 bng 15 250 50 0 empty empty empty 17 7 0 10 -262144 -1
-1;
#X obj 117 69 tabread \$1-samplelen;
#X obj 122 132 t f f;
#X obj 122 213 pack f f;
#X msg 88 267 0 \, \$1 \$2;
#X obj 87 335 tabread4~ \$1-sample0;
#X msg 166 308 set \$1;
#X obj 166 283 makesymbol \$1-sample%s;
#X obj 380 4 inlet stop;
#X obj 120 -3 inlet playsampplenum;
#X obj 118 103 - 64;
#X obj 371 230 - 1;
#X obj 373 308 pack f 1;
#X connect 0 0 2 0;
#X connect 1 0 18 0;
#X connect 1 0 31 0;
#X connect 2 0 21 0;
#X connect 2 1 27 0;
#X connect 3 0 25 0;
#X connect 4 0 5 1;
#X connect 5 0 14 0;
#X connect 6 0 31 1;
#X connect 6 0 32 1;
#X connect 7 0 4 0;
#X connect 8 0 32 0;
#X connect 9 0 8 0;
#X connect 10 0 32 0;
#X connect 11 0 10 0;
#X connect 12 0 10 1;
#X connect 13 0 6 0;
#X connect 15 0 17 1;
#X connect 16 0 17 0;
#X connect 17 0 18 1;
#X connect 18 0 23 1;
#X connect 20 0 0 0;
#X connect 21 0 30 0;
#X connect 22 0 23 0;
#X connect 22 1 1 0;
#X connect 23 0 24 0;
#X connect 23 0 11 0;
#X connect 24 0 3 0;
#X connect 25 0 5 0;
#X connect 26 0 25 0;
#X connect 27 0 26 0;
#X connect 28 0 8 0;
#X connect 29 0 0 0;
#X connect 30 0 22 0;
#X connect 31 0 9 0;
#X connect 32 0 7 0;
#X restore 42 373 pd vox1;
#X obj 124 296 i;
#X obj 154 297 != 1;
#X obj 94 327 demux;
#X obj 95 274 t f b;
#X obj 41 9 inlet;
#N canvas 423 24 600 445 vox1 0;
#X floatatom 117 4 5 0 12 0 - - -;
#X obj 144 137 / 44.1;
#X obj 117 28 t f f;
#X obj 85 276 line~;
#X obj 371 336 line~;
#X obj 85 365 *~;
#X floatatom 399 145 5 0 0 0 - - -;
#X msg 371 314 \$1 \$2;
#X msg 380 249 0;
#X obj 373 225 delay;
#X obj 275 218 1;
#X obj 275 196 t b;
#X obj 300 195 r \$0-voxvol;
#X obj 399 121 r \$1-smooth;
#X obj 85 388 outlet~;
#X obj 283 28 r \$0-pitch;
#X obj 264 9 r \$1-pitch;
#X obj 264 53 m 1;
#X obj 162 164 / 1;
#X obj 92 1 bng 15 250 50 0 empty empty empty 17 7 0 10 -262144 -1
-1;
#X obj 117 53 tabread \$1-samplelen;
#X obj 117 112 t f f;
#X obj 117 186 pack f f;
#X msg 85 251 0 \, \$1 \$2;
#X obj 84 319 tabread4~ \$1-sample0;
#X msg 163 292 set \$1;
#X obj 163 267 makesymbol \$1-sample%s;
#X obj 377 -12 inlet stop;
#X obj 117 -19 inlet playsampplenum;
#X obj 117 80 - 64;
#X obj 373 197 - 1;
#X obj 370 292 pack f 1;
#X floatatom 35 99 0 0 0 0 - - -;
#X obj 450 349 print;
#X floatatom 284 315 5 0 0 0 - - -;
#X connect 0 0 2 0;
#X connect 1 0 18 0;
#X connect 1 0 30 0;
#X connect 2 0 20 0;
#X connect 2 1 26 0;
#X connect 3 0 24 0;
#X connect 4 0 5 1;
#X connect 5 0 14 0;
#X connect 6 0 30 1;
#X connect 6 0 31 1;
#X connect 7 0 4 0;
#X connect 8 0 31 0;
#X connect 9 0 8 0;
#X connect 10 0 31 0;
#X connect 11 0 10 0;
#X connect 12 0 10 1;
#X connect 13 0 6 0;
#X connect 15 0 17 1;
#X connect 16 0 17 0;
#X connect 17 0 18 1;
#X connect 18 0 22 1;
#X connect 19 0 0 0;
#X connect 20 0 29 0;
#X connect 21 0 22 0;
#X connect 21 1 1 0;
#X connect 22 0 23 0;
#X connect 22 0 11 0;
#X connect 23 0 3 0;
#X connect 24 0 5 0;
#X connect 25 0 24 0;
#X connect 26 0 25 0;
#X connect 27 0 8 0;
#X connect 28 0 0 0;
#X connect 29 0 21 0;
#X connect 30 0 9 0;
#X connect 31 0 7 0;
#X restore 142 368 pd vox1;
#X obj 42 406 throw~ \$1-out1;
#X obj 142 402 throw~ \$1-out2;
#X obj 149 265 b;
#X msg 41 30 \$2 \$1;
#X obj 216 90 +;
#X obj 244 67 r \$1-currentsample;
#X floatatom 264 22 5 0 0 0 - - -;
#X obj 214 46 * -1;
#X obj 215 111 mod 4;
#X obj 95 88 r \$1-clock;
#X obj 97 220 sel 0;
#X obj 96 197 spigot;
#X obj 41 51 unpack f f;
#X obj 95 250 f;
#X obj 95 114 ndmetro \$2 \$3;
#X obj 95 140 + \$4;
#X obj 95 172 mod \$2;
#X obj 129 244 sel 1;
#X obj 212 194 bng 15 250 50 0 empty empty empty 17 7 0 10 -262144
-1 -1;
#X obj 213 171 t a;
#X obj 124 38 route 1;
#X obj 59 201 bng 15 250 50 0 empty empty empty 17 7 0 10 -262144 -1
-1;
#X connect 0 0 7 0;
#X connect 1 0 2 0;
#X connect 1 0 3 1;
#X connect 2 0 1 1;
#X connect 3 0 0 0;
#X connect 3 0 6 1;
#X connect 3 1 0 1;
#X connect 3 1 6 0;
#X connect 4 0 3 0;
#X connect 4 1 1 0;
#X connect 5 0 10 0;
#X connect 6 0 8 0;
#X connect 9 0 0 1;
#X connect 9 0 6 1;
#X connect 10 0 19 0;
#X connect 10 0 27 0;
#X connect 11 0 15 0;
#X connect 12 0 11 1;
#X connect 14 0 11 0;
#X connect 15 0 13 0;
#X connect 16 0 21 0;
#X connect 17 0 20 0;
#X connect 18 0 17 0;
#X connect 19 0 18 1;
#X connect 19 1 20 1;
#X connect 20 0 4 0;
#X connect 21 0 22 0;
#X connect 22 0 23 0;
#X connect 23 0 18 0;
#X connect 24 0 9 0;
#X connect 25 0 20 0;
#X connect 26 0 25 0;
#X connect 27 0 25 0;
#X connect 28 0 20 0;
