#N canvas 212 146 442 580 10;
#X obj 28 16 r fromTeleco;
#X obj 28 65 unpack s f;
#X obj 28 88 f;
#X obj 28 111 pack f f, f 10;
#X obj 27 430 t a a, f 8;
#X obj 27 540 s toTeleco;
#X obj 28 134 t a a, f 11;
#X obj 28 162 spigot;
#X obj 90 156 unpack f f;
#X obj 90 202 !=, f 10;
#X obj 27 488 list prepend \$2;
#X msg 27 517 \$1/\$2 \$3;
#X obj 196 81 table \$0-vals;
#X obj 72 452 s \$0-vals;
#X obj 90 179 tabread \$0-vals;
#X obj 28 274 s \$1-\$3-rcv;
#X obj 27 323 r \$1-\$3-snd;
#X obj 28 39 route \$2;
#X obj 28 227 t a a, f 8;
#X obj 73 249 s \$0-vals;
#X obj 27 356 t a a, f 11;
#X obj 27 384 spigot;
#X obj 89 378 unpack f f;
#X obj 89 424 !=, f 10;
#X obj 89 401 tabread \$0-vals;
#X obj 264 298 s toTeleco;
#X obj 264 187 route present;
#X msg 264 273 led_\$1 \$2;
#X obj 264 164 fruit/receive \$2;
#X obj 264 243 list prepend \$2;
#X obj 230 138 r OSCRefresh;
#X obj 264 215 f;
#X connect 0 0 17 0;
#X connect 1 0 2 0;
#X connect 1 1 3 1;
#X connect 2 0 3 0;
#X connect 3 0 6 0;
#X connect 4 0 10 0;
#X connect 4 1 13 0;
#X connect 6 0 7 0;
#X connect 6 1 8 0;
#X connect 7 0 18 0;
#X connect 8 0 14 0;
#X connect 8 1 9 1;
#X connect 9 0 7 1;
#X connect 10 0 11 0;
#X connect 11 0 5 0;
#X connect 14 0 9 0;
#X connect 16 0 20 0;
#X connect 17 0 1 0;
#X connect 18 0 15 0;
#X connect 18 1 19 0;
#X connect 20 0 21 0;
#X connect 20 1 22 0;
#X connect 21 0 4 0;
#X connect 22 0 24 0;
#X connect 22 1 23 1;
#X connect 23 0 21 1;
#X connect 24 0 23 0;
#X connect 26 0 31 0;
#X connect 27 0 25 0;
#X connect 28 0 26 0;
#X connect 29 0 27 0;
#X connect 30 0 31 0;
#X connect 31 0 29 0;
