#N canvas 412 102 873 576 10;
#X declare -path Fraise;
#X obj 33 30 netreceive -u -b 18080;
#X obj 33 50 oscparse;
#X obj 32 277 netsend -u -b;
#X obj 67 220 loadbang;
#X msg 67 241 connect localhost 8080;
#X obj 32 305 tgl 15 0 empty empty empty 17 7 0 10 -262144 -1 -1 1
1;
#X obj 32 179 list prepend send;
#X obj 32 200 list trim;
#X obj 32 158 oscformat SET;
#X obj 32 136 list;
#X obj 33 70 list trim;
#X obj 33 91 s fromTeleco;
#X obj 32 114 r toTeleco;
#X obj 122 155 r toTelecoDirect;
#N canvas 1 82 1186 646 old_cigale 0;
#X obj 421 10 r cigaleBatt;
#X obj 421 31 unpack f f, f 12;
#X obj 421 115 pack f f, f 12;
#X obj 490 52 i;
#X obj 445 68 / 100;
#X obj 216 275 s toTeleco;
#X obj 421 162 s toTeleco;
#X obj 532 249 r fromTeleco;
#X obj 532 299 bng 15 250 50 0 empty empty empty 17 7 0 10 -262144
-1 -1;
#X obj 639 307 bng 15 250 50 0 empty empty empty 17 7 0 10 -262144
-1 -1;
#X obj 216 254 list trim;
#X obj 216 233 list prepend SceneTitle;
#X obj 668 306 bng 15 250 50 0 empty empty empty 17 7 0 10 -262144
-1 -1;
#X obj 622 176 s toTeleco;
#X obj 625 23 hsl 128 15 10 13.6 0 0 empty empty empty -2 -8 0 10 -262144
-1 -1 0 1;
#X obj 622 66 * 10;
#X obj 622 87 i;
#X obj 622 108 / 10;
#X obj 216 122 r SceneTitle;
#X msg 242 206 "Introduction Avant";
#X obj 47 254 oscformat nexttitle;
#X msg 76 227 Essaim Solo Un;
#X obj 47 228 l2s;
#X obj 216 209 l2s;
#X obj 47 124 r GotoTitle;
#X obj 556 302 s zAngle;
#X obj 642 364 s TelecoCommand;
#X msg 642 335 Prev;
#X msg 684 334 Next;
#X msg 729 336 Confirm;
#X obj -225 367 r conduite-step-init;
#X obj 29 16 Control fader1;
#X obj -225 433 s 2TelecoControls;
#X obj 29 34 Control fader2;
#X obj 29 51 Control fader3;
#X obj 119 17 Control radio1;
#N canvas 121 521 796 480 test_param_radio 0;
#X obj 25 194 l2s;
#X obj 25 245 s toTelecoDirect;
#X obj 254 246 hradio 15 1 0 8 empty empty empty 0 -8 0 10 -262144
-1 -1 3;
#X obj 382 243 hradio 15 1 0 8 empty empty empty 0 -8 0 10 -262144
-1 -1 3;
#X msg 252 267 param_radio/val \$1;
#X msg 382 290 param_radio/n \$1;
#X msg 279 213 param_radio_b_1/text Hello;
#X msg 27 168 Hey;
#X msg 58 168 Hello;
#X obj 304 329 s toTeleco;
#X obj 139 114 oscformat param_radio/vis;
#X obj 141 88 tgl 15 0 empty empty empty 17 7 0 10 -262144 -1 -1 0
1;
#X obj 382 266 + 1;
#X obj 24 220 oscformat param_radio_b5/text;
#X obj 45 362 l2s;
#X obj 45 413 s toTelecoDirect;
#X msg 47 336 Hey;
#X msg 78 336 Hello;
#X obj 248 353 hradio 15 1 0 8 empty empty empty 0 -8 0 10 -262144
-1 -1 7;
#X obj 251 421 s toTeleco;
#X msg 245 398 radio1/n \$1;
#X obj 246 375 + 1;
#X obj 44 388 oscformat radio1_b0/text;
#X obj 396 350 hradio 15 1 0 8 empty empty empty 0 -8 0 10 -262144
-1 -1 3;
#X obj 394 372 + 1;
#X msg 393 395 radio2/n \$1;
#X obj 416 102 tgl 15 0 empty empty empty 17 7 0 10 -262144 -1 -1 0
1;
#X obj 314 129 oscformat radio1/vis;
#X obj 551 101 tgl 15 0 empty empty empty 17 7 0 10 -262144 -1 -1 0
1;
#X obj 449 128 oscformat radio2/vis;
#X floatatom 572 346 5 0 0 0 - - -;
#X obj 572 284 r fromTeleco;
#X obj 572 306 route param_radio;
#X obj 525 310 print;
#X obj 572 326 route t;
#X floatatom 697 298 5 0 0 0 - - -;
#X obj 639 334 makefilename %d;
#X connect 0 0 13 0;
#X connect 2 0 4 0;
#X connect 3 0 12 0;
#X connect 4 0 9 0;
#X connect 5 0 9 0;
#X connect 7 0 0 0;
#X connect 8 0 0 0;
#X connect 10 0 1 0;
#X connect 11 0 10 0;
#X connect 12 0 5 0;
#X connect 13 0 1 0;
#X connect 14 0 22 0;
#X connect 16 0 14 0;
#X connect 17 0 14 0;
#X connect 18 0 21 0;
#X connect 20 0 19 0;
#X connect 21 0 20 0;
#X connect 22 0 15 0;
#X connect 23 0 24 0;
#X connect 24 0 25 0;
#X connect 25 0 19 0;
#X connect 26 0 27 0;
#X connect 27 0 1 0;
#X connect 28 0 29 0;
#X connect 29 0 1 0;
#X connect 31 0 32 0;
#X connect 32 0 34 0;
#X connect 34 0 30 0;
#X connect 35 0 36 0;
#X connect 36 0 34 1;
#X restore 793 64 pd test_param_radio;
#X obj 121 35 Control radio2;
#X msg -222 521 radio\$1 vis 1;
#X msg -221 493 fader\$1 vis 1 \, radio\$1 vis 1;
#X msg -225 412 fader\$1 vis 0 \, radio\$1 vis 0;
#X obj -41 431 s SceneText;
#X msg -41 410 list;
#X obj 29 69 Control fader4;
#X msg -225 391 1 \, 2 \, 3 \, 4;
#X obj 421 223 hsl 128 15 0 1 0 0 empty empty empty -2 -8 0 10 -262144
-1 -1 0 1;
#X msg 418 250 fader_master \$1;
#N canvas 1 82 941 436 test_faders 0;
#X obj 95 233 s toTeleco;
#X obj 95 188 list prepend SceneText;
#X obj 95 209 list trim;
#X msg 140 96 Bon;
#X obj 95 99 l2s;
#X obj 95 39 r SceneText;
#X obj 95 119 list fromsymbol;
#X obj 95 167 list tosymbol;
#X msg 225 38 97 10 99;
#X msg 135 64 Alors\\\, c'est un texte assez longue pour voir comment
l'objet texte de O-S-C se comporte dans ce cas.;
#X msg 174 39 a#b;
#N canvas 1 81 450 300 replace#bynewline 0;
#X obj 75 18 inlet;
#X obj 75 226 outlet;
#X obj 94 115 sel 35;
#X msg 94 136 10;
#X obj 94 66 list split 1;
#X obj 128 85 t a;
#X obj 75 42 t b a b;
#X obj 94 178 t a;
#X msg 149 135 list;
#X obj 75 203 list;
#X obj 94 157 list append;
#X connect 0 0 6 0;
#X connect 2 0 3 0;
#X connect 2 1 10 0;
#X connect 3 0 10 0;
#X connect 4 0 2 0;
#X connect 4 1 5 0;
#X connect 5 0 4 0;
#X connect 6 0 9 0;
#X connect 6 1 4 0;
#X connect 6 2 8 0;
#X connect 7 0 9 1;
#X connect 7 0 10 1;
#X connect 8 0 7 0;
#X connect 9 0 1 0;
#X connect 10 0 7 0;
#X restore 95 141 pd replace#bynewline;
#X obj 501 218 hsl 128 15 0 1 0 0 empty empty empty -2 -8 0 10 -262144
-1 -1 0 1;
#X obj 578 242 hsl 128 15 0 1 0 0 empty empty empty -2 -8 0 10 -262144
-1 -1 0 1;
#X msg 575 268 fader_1/meter \$1;
#X obj 740 310 tgl 15 0 empty empty empty 17 7 0 10 -262144 -1 -1 0
1;
#X obj 599 317 s toTeleco;
#X obj 436 146 oscformat fader_1/text;
#X obj 204 322 s 2TelecoControls;
#X obj 740 352 s toTelecoDirect;
#X msg 498 244 fader1 \$1;
#X obj 740 331 oscformat fader1/vis;
#X obj 334 219 hsl 128 15 0 1 0 0 empty empty empty -2 -8 0 10 -262144
-1 -1 0 1;
#X msg 331 246 fader_master \$1;
#X connect 1 0 2 0;
#X connect 2 0 0 0;
#X connect 3 0 4 0;
#X connect 4 0 6 0;
#X connect 5 0 4 0;
#X connect 6 0 11 0;
#X connect 7 0 1 0;
#X connect 8 0 7 0;
#X connect 9 0 4 0;
#X connect 10 0 4 0;
#X connect 11 0 7 0;
#X connect 12 0 20 0;
#X connect 13 0 14 0;
#X connect 14 0 16 0;
#X connect 15 0 21 0;
#X connect 20 0 16 0;
#X connect 21 0 19 0;
#X connect 22 0 23 0;
#X connect 23 0 16 0;
#X restore 794 39 pd test_faders;
#N canvas 1 82 569 342 tests-batts 0;
#X floatatom 91 27 5 0 0 0 - - -;
#X obj 91 68 i;
#X msg 91 136 symbol \$1V;
#X obj 91 91 change;
#X msg 371 126 symbol coucou;
#X msg 365 164 matrix_1/1/text_2 \$1;
#X obj 225 135 hsl 128 15 0 1 0 0 empty empty empty -2 -8 0 10 -262144
-1 -1 0 1;
#X msg 243 109 1;
#X obj 58 31 bng 15 250 50 0 empty empty empty 17 7 0 10 -262144 -1
-1;
#X msg 222 158 battsvar_3 \$1;
#X obj 91 47 * 100;
#X obj 91 115 / 100;
#X msg 91 159 batt_matrix/2 \$1;
#X obj 130 243 s toTeleco;
#X connect 0 0 10 0;
#X connect 1 0 3 0;
#X connect 2 0 12 0;
#X connect 3 0 11 0;
#X connect 4 0 5 0;
#X connect 5 0 13 0;
#X connect 6 0 9 0;
#X connect 7 0 6 0;
#X connect 8 0 11 0;
#X connect 9 0 13 0;
#X connect 10 0 1 0;
#X connect 11 0 2 0;
#X connect 12 0 13 0;
#X restore 793 14 pd tests-batts;
#X obj 532 270 route Zero fader_1 Prev Next Confirm fader_master;
#X floatatom 790 315 5 0 0 0 - - -;
#X obj 418 199 r setCigalesMasterPressure;
#X obj 783 339 s CigalesMasterPressure;
#X obj 418 273 s toTeleco;
#X obj 47 275 s toTelecoDirect;
#X obj 53 513 s toTeleco;
#X obj 53 468 list prepend SceneText;
#X obj 53 489 list trim;
#X msg 98 376 Bon;
#X obj 53 379 l2s;
#X obj 53 319 r SceneText;
#X obj 53 399 list fromsymbol;
#X obj 53 447 list tosymbol;
#X msg 67 343 Alors\\\, c'est un texte assez longue pour voir comment
l'objet texte de O-S-C se comporte dans ce cas.;
#N canvas 1 81 450 300 replace#bynewline 0;
#X obj 75 18 inlet;
#X obj 75 226 outlet;
#X obj 94 115 sel 35;
#X msg 94 136 10;
#X obj 94 66 list split 1;
#X obj 128 85 t a;
#X obj 75 42 t b a b;
#X obj 94 178 t a;
#X msg 149 135 list;
#X obj 75 203 list;
#X obj 94 157 list append;
#X connect 0 0 6 0;
#X connect 2 0 3 0;
#X connect 2 1 10 0;
#X connect 3 0 10 0;
#X connect 4 0 2 0;
#X connect 4 1 5 0;
#X connect 5 0 4 0;
#X connect 6 0 9 0;
#X connect 6 1 4 0;
#X connect 6 2 8 0;
#X connect 7 0 9 1;
#X connect 7 0 10 1;
#X connect 8 0 7 0;
#X connect 9 0 1 0;
#X connect 10 0 7 0;
#X restore 53 421 pd replace#bynewline;
#X msg -220 472 1 \, 2 \, 3 \, 4;
#X obj 69 153 r currentGotoSceneNum;
#X obj 47 196 list prepend 0;
#X msg 69 174 symbol \$1:;
#X obj 216 187 list prepend 0;
#X msg 252 166 symbol \$1:;
#X obj 252 145 r currentSceneNum;
#X obj 236 398 r fromTeleco;
#X floatatom 197 488 5 0 0 0 - - -;
#X obj 236 440 * 15;
#X obj 236 485 change;
#X msg 236 585 0 prop lampNoteAmp \$1;
#X obj 236 606 s toOutChan;
#X obj 236 462 i;
#X obj 314 440 * 15;
#X obj 314 485 change;
#X obj 314 462 i;
#X obj 393 439 * 15;
#X obj 393 484 change;
#X obj 393 461 i;
#X obj 471 443 * 15;
#X obj 471 488 change;
#X obj 471 465 i;
#X msg 304 564 0 prop lampConstAmp \$1;
#X msg 393 544 0 prop lampRndAmp \$1;
#X msg 471 517 0 prop lampRndSpeed \$1;
#X obj 536 473 s SHUTDOWN_CIGALES;
#X obj 544 451 bng 15 250 50 0 empty empty empty 17 7 0 10 -262144
-1 -1;
#N canvas 1 82 1167 578 EditCigale 0;
#X obj 49 20 r fromTeleco;
#X msg 49 143 EditCigaleDialog 1;
#X msg 172 143 editCigaleTitle Cigale:\$1;
#X obj 49 180 s toTeleco;
#X obj 176 118 s editCigale-num;
#X obj 509 155 r editCigale-num;
#X obj 509 176 t b f;
#X obj 476 220 spigot;
#X msg 509 198 1;
#X obj 476 197 b;
#X obj 476 241 t b b;
#X msg 517 241 0;
#X obj 476 262 f;
#X msg 476 283 1 1 1 1 1 1 1 1 1 1 1 1 1 1 1 1 1 1 1 1 1 1 1 1 1 1
1 1 1 1 1 1 1 1 1 \, from \$1 2;
#X obj 476 316 s toCigalesChannels;
#X msg 375 286 2 prop open \$1;
#X obj 375 307 s toOutChan;
#X obj 375 261 t f b;
#X obj 375 198 * 255;
#X obj 375 219 i;
#X obj 375 240 change;
#X obj 218 246 pack f f;
#X obj 277 246 t b f;
#X obj 218 201 i;
#X obj 218 222 change;
#X obj 277 182 * 255;
#X obj 277 203 i;
#X obj 277 224 change;
#X obj 218 267 t a b, f 16;
#X obj 218 317 s toOutChan;
#X msg 218 296 2 note \$1 \$2;
#X obj 218 180 * 150;
#X obj 728 27 declare -path Fraise;
#X obj 680 247 fruit/send2 CigaleMaster;
#X obj 680 205 f;
#X msg 680 226 c 66 c 255 c 100 c \$1 c 255 c 255;
#X obj 675 171 b;
#X obj 452 75 bng 15 250 50 0 empty empty empty 17 7 0 10 -262144 -1
-1;
#X msg 106 257 editCigale 1;
#X obj 34 389 r cigaleOffset1;
#X obj 976 98 r cigaleOffset2;
#X obj 88 409 r editCigale-num;
#X obj 34 410 route 0;
#X obj 34 527 s toTeleco;
#X msg 34 505 cigaleOffsetPressure \$1;
#X obj 198 393 r fromTeleco;
#X obj 198 438 spigot;
#X obj 34 435 t f b;
#X msg 88 438 0;
#X obj 61 458 del 500;
#X msg 61 479 1;
#X obj 87 479 f;
#X obj 642 355 route cigaleOffsetPressure cigaleOffsetOpen editCigaleSave
, f 59;
#X obj 198 417 route cigaleOffsetPressure;
#X obj 454 412 r editCigale-num;
#X obj 400 413 route 0;
#X obj 400 530 s toTeleco;
#X obj 564 396 r fromTeleco;
#X obj 564 441 spigot;
#X obj 400 438 t f b;
#X msg 454 441 0;
#X obj 427 461 del 500;
#X msg 427 482 1;
#X obj 453 482 f;
#X msg 400 508 cigaleOffsetOpen \$1;
#X obj 400 392 r cigaleOffset2;
#X obj 198 501 s toCigaleOffset1;
#X obj 564 497 s toCigaleOffset2;
#X obj 291 466 r editCigale-num;
#X obj 198 465 list prepend 0;
#X obj 657 470 r editCigale-num;
#X obj 564 469 list prepend 0;
#X text 1035 493 save EEPROM;
#X obj 787 471 f;
#X msg 787 492 c 66 c 255 c 99 c \$1 c 83 c 65 c 86 c 69;
#X obj 814 470 r editCigale-num;
#X obj 564 420 route cigaleOffsetOpen editCigaleSave;
#X obj 787 513 fruit/send2 CigaleMaster;
#X obj 787 452 b;
#X obj 49 43 route editCigale cigaleNote cigalePressure cigaleOpen
editCigaleShutdownConfirm EditCigaleDialog, f 102;
#X obj 556 71 sel 0;
#X msg 556 96 editCigale none;
#X obj 49 68 route none;
#X connect 0 0 79 0;
#X connect 1 0 3 0;
#X connect 2 0 3 0;
#X connect 5 0 6 0;
#X connect 5 0 34 1;
#X connect 6 0 8 0;
#X connect 6 1 12 1;
#X connect 7 0 10 0;
#X connect 8 0 7 1;
#X connect 9 0 7 0;
#X connect 10 0 12 0;
#X connect 10 1 11 0;
#X connect 11 0 7 1;
#X connect 12 0 13 0;
#X connect 13 0 14 0;
#X connect 15 0 16 0;
#X connect 17 0 15 0;
#X connect 17 1 9 0;
#X connect 18 0 19 0;
#X connect 19 0 20 0;
#X connect 20 0 17 0;
#X connect 21 0 28 0;
#X connect 22 0 21 0;
#X connect 22 1 21 1;
#X connect 23 0 24 0;
#X connect 24 0 21 0;
#X connect 25 0 26 0;
#X connect 26 0 27 0;
#X connect 27 0 22 0;
#X connect 28 0 30 0;
#X connect 28 1 9 0;
#X connect 30 0 29 0;
#X connect 31 0 23 0;
#X connect 34 0 35 0;
#X connect 35 0 33 0;
#X connect 37 0 34 0;
#X connect 38 0 3 0;
#X connect 39 0 42 0;
#X connect 41 0 42 1;
#X connect 41 0 48 0;
#X connect 42 0 47 0;
#X connect 44 0 43 0;
#X connect 45 0 53 0;
#X connect 46 0 69 0;
#X connect 47 0 44 0;
#X connect 47 1 48 0;
#X connect 47 1 49 0;
#X connect 48 0 51 0;
#X connect 49 0 50 0;
#X connect 50 0 51 0;
#X connect 51 0 46 1;
#X connect 53 0 46 0;
#X connect 54 0 55 1;
#X connect 54 0 60 0;
#X connect 55 0 59 0;
#X connect 57 0 76 0;
#X connect 58 0 71 0;
#X connect 59 0 64 0;
#X connect 59 1 60 0;
#X connect 59 1 61 0;
#X connect 60 0 63 0;
#X connect 61 0 62 0;
#X connect 62 0 63 0;
#X connect 63 0 58 1;
#X connect 64 0 56 0;
#X connect 65 0 55 0;
#X connect 68 0 69 1;
#X connect 69 0 66 0;
#X connect 70 0 71 1;
#X connect 71 0 67 0;
#X connect 73 0 74 0;
#X connect 74 0 77 0;
#X connect 75 0 73 1;
#X connect 76 0 58 0;
#X connect 76 1 78 0;
#X connect 78 0 73 0;
#X connect 79 0 82 0;
#X connect 79 1 31 0;
#X connect 79 2 25 0;
#X connect 79 3 18 0;
#X connect 79 4 37 0;
#X connect 79 5 80 0;
#X connect 80 0 81 0;
#X connect 81 0 3 0;
#X connect 82 1 1 0;
#X connect 82 1 2 0;
#X connect 82 1 4 0;
#X restore 728 477 pd EditCigale;
#X obj 236 419 route lamp_play lamp_const lamp_rnd lamp_speed shutdown_confirm
opening, f 71;
#X obj 661 522 change;
#X obj 661 499 i;
#X obj 661 477 * 255;
#X msg 661 543 0 prop open \$1;
#N canvas 1227 180 515 300 toPercent 0;
#X obj 79 46 table VoltToPercent;
#X obj 80 117 s VoltToPercent;
#X obj 80 72 loadbang;
#X msg 80 93 read volt_310to410_to_percent.txt;
#X obj 322 100 - 310;
#X obj 322 121 tabread VoltToPercent;
#X obj 322 189 outlet percent;
#X obj 342 78 * 100;
#X obj 322 165 i;
#X obj 322 53 inlet V*100;
#X floatatom 362 155 5 0 0 0 - - -;
#X obj 322 143 + 0.7;
#X connect 2 0 3 0;
#X connect 3 0 1 0;
#X connect 4 0 5 0;
#X connect 5 0 11 0;
#X connect 8 0 6 0;
#X connect 9 0 4 0;
#X connect 11 0 8 0;
#X restore 490 74 pd toPercent;
#X msg 492 161 batt_matrix/\$1 \$2V;
#X msg 265 71 1 \$1;
#X obj 268 9 hsl 128 15 3.1 4.1 0 0 empty empty empty -2 -8 0 10 -262144
-1 -1 0 1;
#X floatatom 265 29 5 0 0 0 - - -;
#X msg 421 140 batt_matrix/\$1 \$2%;
#X obj 265 50 * 100;
#X obj 622 -2 r RPI_BATT;
#X obj 679 66 clip 11 12.9;
#X obj 622 43 t f f, f 10;
#X obj 679 87 maxlib/scale 11 12.9 0 100;
#X obj 622 129 pack f f, f 10;
#X obj 679 108 i;
#X msg 622 154 RpiBatt \$1V\\\ (\$2%);
#N canvas 350 152 576 433 IP_address 0;
#X obj 90 34 loadbang;
#X obj 90 55 metro 5000;
#X msg 90 76 dir;
#X obj 90 97 pdcontrol;
#X obj 90 251 ggee/shell;
#X msg 90 206 nohup \$1/getip.sh 63333 eth0;
#X obj 235 293 netreceive 63333;
#X msg 271 205 nohup \$1/getip.sh 63333 enp1s6;
#X obj 90 122 list prepend 0;
#X obj 90 151 route 0 1, f 61;
#X obj 174 97 tgl 15 0 empty empty empty 17 7 0 10 -262144 -1 -1 0
1;
#X obj 271 178 symbol;
#X obj 90 178 symbol;
#X obj 71 36 bng 15 250 50 0 empty empty empty 17 7 0 10 -262144 -1
-1;
#X obj 235 314 symbol;
#X msg 235 335 IPeth0 \$1;
#X obj 235 356 s toTeleco;
#X connect 0 0 1 0;
#X connect 1 0 2 0;
#X connect 2 0 3 0;
#X connect 3 0 8 0;
#X connect 5 0 4 0;
#X connect 6 0 14 0;
#X connect 7 0 4 0;
#X connect 8 0 9 0;
#X connect 9 0 12 0;
#X connect 9 1 11 0;
#X connect 10 0 8 1;
#X connect 11 0 7 0;
#X connect 12 0 5 0;
#X connect 13 0 1 0;
#X connect 14 0 15 0;
#X connect 15 0 16 0;
#X restore 29 95 pd IP_address;
#X connect 0 0 1 0;
#X connect 1 0 2 0;
#X connect 1 1 3 0;
#X connect 2 0 104 0;
#X connect 3 0 99 0;
#X connect 4 0 2 1;
#X connect 7 0 49 0;
#X connect 10 0 5 0;
#X connect 11 0 10 0;
#X connect 14 0 108 0;
#X connect 15 0 16 0;
#X connect 16 0 17 0;
#X connect 17 0 110 0;
#X connect 18 0 69 0;
#X connect 19 0 23 0;
#X connect 20 0 54 0;
#X connect 21 0 22 0;
#X connect 22 0 20 0;
#X connect 23 0 11 0;
#X connect 24 0 67 0;
#X connect 27 0 26 0;
#X connect 28 0 26 0;
#X connect 29 0 26 0;
#X connect 30 0 44 0;
#X connect 30 0 42 0;
#X connect 39 0 32 0;
#X connect 40 0 32 0;
#X connect 42 0 41 0;
#X connect 44 0 40 0;
#X connect 45 0 46 0;
#X connect 46 0 53 0;
#X connect 49 0 8 0;
#X connect 49 0 25 0;
#X connect 49 2 9 0;
#X connect 49 2 27 0;
#X connect 49 3 12 0;
#X connect 49 3 28 0;
#X connect 49 4 29 0;
#X connect 49 5 50 0;
#X connect 49 5 52 0;
#X connect 51 0 45 0;
#X connect 56 0 57 0;
#X connect 57 0 55 0;
#X connect 58 0 59 0;
#X connect 59 0 61 0;
#X connect 60 0 59 0;
#X connect 61 0 64 0;
#X connect 62 0 56 0;
#X connect 63 0 59 0;
#X connect 64 0 62 0;
#X connect 65 0 39 0;
#X connect 66 0 68 0;
#X connect 67 0 22 0;
#X connect 68 0 67 1;
#X connect 69 0 23 0;
#X connect 70 0 69 1;
#X connect 71 0 70 0;
#X connect 72 0 94 0;
#X connect 74 0 78 0;
#X connect 75 0 76 0;
#X connect 76 0 77 0;
#X connect 78 0 75 0;
#X connect 79 0 81 0;
#X connect 80 0 88 0;
#X connect 81 0 80 0;
#X connect 82 0 84 0;
#X connect 83 0 89 0;
#X connect 84 0 83 0;
#X connect 85 0 87 0;
#X connect 86 0 90 0;
#X connect 87 0 86 0;
#X connect 88 0 77 0;
#X connect 89 0 77 0;
#X connect 90 0 77 0;
#X connect 94 0 74 0;
#X connect 94 1 79 0;
#X connect 94 2 82 0;
#X connect 94 3 85 0;
#X connect 94 4 92 0;
#X connect 94 4 91 0;
#X connect 94 5 97 0;
#X connect 95 0 98 0;
#X connect 96 0 95 0;
#X connect 97 0 96 0;
#X connect 98 0 77 0;
#X connect 99 0 2 1;
#X connect 101 0 1 0;
#X connect 102 0 103 0;
#X connect 103 0 105 0;
#X connect 104 0 6 0;
#X connect 105 0 101 0;
#X connect 106 0 14 0;
#X connect 107 0 109 0;
#X connect 108 0 15 0;
#X connect 108 1 107 0;
#X connect 109 0 111 0;
#X connect 110 0 112 0;
#X connect 111 0 110 1;
#X connect 112 0 13 0;
#X restore 23 345 pd old_cigale;
#X obj 262 35 syncCloche \$1 Repie rep;
#X obj 262 56 syncCloche \$1 Sylla s;
#X obj 263 98 syncCloche \$1 Myo myoso-l;
#N canvas 454 386 450 300 myoso-l 0;
#X obj 89 46 route 0 1 2 3 4 5, f 30;
#X obj 89 23 r \$1-myoso-l-rcv;
#X obj 89 107 s \$1-myoso-rcv;
#X msg 89 72 2 \$1;
#X msg 125 72 3 \$1;
#X msg 161 72 4 \$1;
#X msg 197 72 1 \$1;
#X msg 234 72 0 \$1;
#X msg 270 72 5 \$1;
#X obj 88 159 route 0 1 2 3 4 5, f 30;
#X msg 124 185 3 \$1;
#X msg 196 185 1 \$1;
#X msg 269 185 5 \$1;
#X obj 88 136 r \$1-myoso-snd;
#X msg 88 185 4 \$1;
#X msg 160 185 0 \$1;
#X msg 233 185 2 \$1;
#X obj 88 220 s \$1-myoso-l-snd;
#X connect 0 0 3 0;
#X connect 0 1 4 0;
#X connect 0 2 5 0;
#X connect 0 3 6 0;
#X connect 0 4 7 0;
#X connect 0 5 8 0;
#X connect 1 0 0 0;
#X connect 3 0 2 0;
#X connect 4 0 2 0;
#X connect 5 0 2 0;
#X connect 6 0 2 0;
#X connect 7 0 2 0;
#X connect 8 0 2 0;
#X connect 9 0 14 0;
#X connect 9 1 10 0;
#X connect 9 2 15 0;
#X connect 9 3 11 0;
#X connect 9 4 16 0;
#X connect 9 5 12 0;
#X connect 10 0 17 0;
#X connect 11 0 17 0;
#X connect 12 0 17 0;
#X connect 13 0 9 0;
#X connect 14 0 17 0;
#X connect 15 0 17 0;
#X connect 16 0 17 0;
#X restore 443 100 pd myoso-l;
#X obj 262 76 syncCloche \$1 Roto rotob-l;
#N canvas 752 387 450 300 rotob-l 0;
#X msg 88 185 4 \$1;
#X obj 89 23 r \$1-rotob-l-rcv;
#X obj 89 107 s \$1-rotob-rcv;
#X obj 88 136 r \$1-rotob-snd;
#X obj 88 220 s \$1-rotob-l-snd;
#X obj 89 46 route 0 1 2 3 4 5 6 7 8, f 55;
#X obj 88 159 route 0 1 2 3 4 5 6 7 8, f 55;
#X msg 234 72 0 \$1;
#X msg 89 72 1 \$1;
#X msg 124 72 2 \$1;
#X msg 160 72 3 \$1;
#X msg 124 185 0 \$1;
#X msg 160 185 1 \$1;
#X msg 196 185 2 \$1;
#X msg 270 72 4 \$1;
#X msg 233 185 5 \$1;
#X msg 381 71 5 \$1;
#X msg 269 185 8 \$1;
#X msg 345 71 6 \$1;
#X msg 306 183 7 \$1;
#X msg 308 71 7 \$1;
#X msg 343 183 6 \$1;
#X msg 197 72 8 \$1;
#X msg 379 183 3 \$1;
#X obj 246 139 print;
#X connect 0 0 4 0;
#X connect 1 0 5 0;
#X connect 3 0 6 0;
#X connect 5 0 8 0;
#X connect 5 1 9 0;
#X connect 5 2 10 0;
#X connect 5 3 22 0;
#X connect 5 4 7 0;
#X connect 5 5 14 0;
#X connect 5 6 20 0;
#X connect 5 7 18 0;
#X connect 5 8 16 0;
#X connect 6 0 0 0;
#X connect 6 1 11 0;
#X connect 6 2 12 0;
#X connect 6 3 13 0;
#X connect 6 4 15 0;
#X connect 6 5 17 0;
#X connect 6 6 19 0;
#X connect 6 7 21 0;
#X connect 6 8 23 0;
#X connect 7 0 2 0;
#X connect 8 0 2 0;
#X connect 9 0 2 0;
#X connect 10 0 2 0;
#X connect 11 0 4 0;
#X connect 12 0 4 0;
#X connect 13 0 4 0;
#X connect 14 0 2 0;
#X connect 15 0 4 0;
#X connect 16 0 2 0;
#X connect 17 0 4 0;
#X connect 18 0 2 0;
#X connect 19 0 4 0;
#X connect 20 0 2 0;
#X connect 21 0 4 0;
#X connect 22 0 2 0;
#X connect 23 0 4 0;
#X restore 437 76 pd rotob-l;
#X obj 262 142 r fromTeleco;
#X msg 262 247 Syllabo \$1;
#X obj 262 273 s ClochesMode;
#X obj 262 218 sel t;
#X obj 262 312 r ClochesMode;
#X obj 262 335 route Syllabo;
#X obj 262 381 t s s;
#X obj 262 358 symbol;
#X msg 262 404 switch_sylla \$1;
#X obj 262 427 s toTeleco;
#X obj 262 191 symbol;
#X obj 363 274 s ClochesMode;
#X obj 363 219 sel t;
#X obj 363 313 r ClochesMode;
#X obj 363 382 t s s;
#X obj 363 359 symbol;
#X obj 363 428 s toTeleco;
#X obj 363 192 symbol;
#X msg 363 405 switch_repie \$1;
#X msg 363 249 Repie \$1;
#X obj 363 336 route Repie;
#X obj 707 58 r fromTeleco;
#X obj 707 81 route MyoToRoto;
#X obj 688 134 tgl 15 0 empty empty empty 17 7 0 10 -262144 -1 -1 0
1;
#X obj 705 157 r fromTeleco;
#X obj 705 204 s INPUT_SET_CHAN;
#X obj 708 345 r INPUT_VU;
#X msg 708 369 inputVu \$1;
#X obj 708 392 s toTeleco;
#X obj 705 180 route inputChannel;
#X obj 707 132 s \$1-myo-to-roto;
#X obj 262 166 route switch_sylla switch_repie switch_myo;
#X obj 471 306 r ClochesMode;
#X obj 471 375 t s s;
#X obj 471 352 symbol;
#X obj 471 421 s toTeleco;
#X obj 471 329 route Myo;
#X msg 471 398 switch_myo \$1;
#X obj 471 275 s ClochesMode;
#X obj 471 220 sel t;
#X obj 471 193 symbol;
#X msg 471 250 Myo \$1;
#X obj 574 136 r fromTeleco;
#X obj 555 187 tgl 15 0 empty empty empty 17 7 0 10 -262144 -1 -1 1
1;
#X obj 574 159 route AutoGamme;
#X obj 574 205 s AutoGamme;
#X obj 707 421 r fromTeleco;
#X obj 707 444 route Refresh;
#X obj 707 489 s OSCRefresh;
#X obj 707 466 b;
#X obj 190 298 r OSCRefresh;
#X obj 707 106 f;
#X obj 672 31 r OSCRefresh;
#X obj 187 346 bng 15 250 50 0 empty empty empty 17 7 0 10 -262144
-1 -1;
#X obj 705 254 f 1;
#X obj 705 231 r INPUT_SET_CHAN;
#X msg 705 296 inputChannel \$1;
#X obj 705 318 s toTeleco;
#X obj 705 275 change;
#X obj 574 182 change -1;
#X obj 575 238 r AutoGamme;
#X obj 575 261 f 1;
#X msg 575 284 AutoGamme \$1;
#X obj 575 307 s toTeleco;
#X connect 0 0 1 0;
#X connect 1 0 10 0;
#X connect 2 0 5 0;
#X connect 3 0 4 0;
#X connect 4 0 2 0;
#X connect 6 0 7 0;
#X connect 7 0 2 0;
#X connect 8 0 6 0;
#X connect 9 0 8 0;
#X connect 10 0 11 0;
#X connect 12 0 9 0;
#X connect 13 0 6 0;
#X connect 21 0 52 0;
#X connect 22 0 23 0;
#X connect 24 1 22 0;
#X connect 25 0 26 0;
#X connect 26 0 28 0;
#X connect 27 0 29 0;
#X connect 27 1 24 1;
#X connect 28 0 27 0;
#X connect 29 0 30 0;
#X connect 31 0 24 0;
#X connect 33 1 40 0;
#X connect 34 0 41 0;
#X connect 35 0 39 0;
#X connect 35 1 33 1;
#X connect 36 0 35 0;
#X connect 38 0 33 0;
#X connect 39 0 37 0;
#X connect 40 0 32 0;
#X connect 41 0 36 0;
#X connect 42 0 43 0;
#X connect 43 0 44 0;
#X connect 43 0 72 0;
#X connect 45 0 50 0;
#X connect 47 0 48 0;
#X connect 48 0 49 0;
#X connect 50 0 46 0;
#X connect 52 0 31 0;
#X connect 52 1 38 0;
#X connect 52 2 61 0;
#X connect 53 0 57 0;
#X connect 54 0 58 0;
#X connect 54 1 60 1;
#X connect 55 0 54 0;
#X connect 57 0 55 0;
#X connect 58 0 56 0;
#X connect 60 1 62 0;
#X connect 61 0 60 0;
#X connect 62 0 59 0;
#X connect 63 0 65 0;
#X connect 65 0 64 0;
#X connect 65 0 80 0;
#X connect 67 0 68 0;
#X connect 68 0 70 0;
#X connect 70 0 69 0;
#X connect 71 0 28 0;
#X connect 71 0 36 0;
#X connect 71 0 55 0;
#X connect 71 0 74 0;
#X connect 72 0 51 0;
#X connect 73 0 72 0;
#X connect 73 0 75 0;
#X connect 73 0 82 0;
#X connect 75 0 79 0;
#X connect 76 0 75 0;
#X connect 77 0 78 0;
#X connect 79 0 77 0;
#X connect 80 0 66 0;
#X connect 81 0 82 0;
#X connect 82 0 83 0;
#X connect 83 0 84 0;
