#N canvas 412 102 1150 576 10;
#X obj 33 30 netreceive -u -b 18080;
#X obj 33 50 oscparse;
#X obj 32 277 netsend -u -b;
#X obj 67 220 loadbang;
#X msg 67 241 connect localhost 8080;
#X obj 32 305 tgl 15 0 empty empty empty 17 7 0 10 #fcfcfc #000000 #000000 0 1;
#X obj 32 179 list prepend send;
#X obj 32 200 list trim;
#X obj 32 158 oscformat SET;
#X obj 32 136 list;
#X obj 33 70 list trim;
#X obj 33 91 s fromTeleco;
#X obj 32 114 r toTeleco;
#X obj 122 155 r toTelecoDirect;
#X obj 263 98 syncCloche \$1 Myo myoso-l;
#N canvas 106 424 450 300 myoso-l 0;
#X obj 89 46 route 0 1 2 3 4 5, f 30;
#X obj 89 23 r \$1-myoso-l-rcv;
#X obj 89 107 s \$1-myoso-rcv;
#X msg 89 72 2 \$1;
#X msg 125 72 3 \$1;
#X msg 161 72 4 \$1;
#X msg 197 72 1 \$1;
#X msg 234 72 0 \$1;
#X msg 270 72 5 \$1;
#X obj 88 159 route 0 1 2 3 4 5, f 30;
#X msg 124 185 3 \$1;
#X msg 196 185 1 \$1;
#X msg 269 185 5 \$1;
#X obj 88 136 r \$1-myoso-snd;
#X msg 88 185 4 \$1;
#X msg 160 185 0 \$1;
#X msg 233 185 2 \$1;
#X obj 88 220 s \$1-myoso-l-snd;
#X connect 0 0 3 0;
#X connect 0 1 4 0;
#X connect 0 2 5 0;
#X connect 0 3 6 0;
#X connect 0 4 7 0;
#X connect 0 5 8 0;
#X connect 1 0 0 0;
#X connect 3 0 2 0;
#X connect 4 0 2 0;
#X connect 5 0 2 0;
#X connect 6 0 2 0;
#X connect 7 0 2 0;
#X connect 8 0 2 0;
#X connect 9 0 14 0;
#X connect 9 1 10 0;
#X connect 9 2 15 0;
#X connect 9 3 11 0;
#X connect 9 4 16 0;
#X connect 9 5 12 0;
#X connect 10 0 17 0;
#X connect 11 0 17 0;
#X connect 12 0 17 0;
#X connect 13 0 9 0;
#X connect 14 0 17 0;
#X connect 15 0 17 0;
#X connect 16 0 17 0;
#X restore 443 100 pd myoso-l;
#X obj 262 76 syncCloche \$1 Roto rotob-l;
#N canvas 752 387 450 300 rotob-l 0;
#X msg 88 185 4 \$1;
#X obj 89 23 r \$1-rotob-l-rcv;
#X obj 89 107 s \$1-rotob-rcv;
#X obj 88 136 r \$1-rotob-snd;
#X obj 88 220 s \$1-rotob-l-snd;
#X obj 89 46 route 0 1 2 3 4 5 6 7 8, f 55;
#X obj 88 159 route 0 1 2 3 4 5 6 7 8, f 55;
#X msg 234 72 0 \$1;
#X msg 89 72 1 \$1;
#X msg 124 72 2 \$1;
#X msg 160 72 3 \$1;
#X msg 124 185 0 \$1;
#X msg 160 185 1 \$1;
#X msg 196 185 2 \$1;
#X msg 270 72 4 \$1;
#X msg 233 185 5 \$1;
#X msg 381 71 5 \$1;
#X msg 269 185 8 \$1;
#X msg 345 71 6 \$1;
#X msg 306 183 7 \$1;
#X msg 308 71 7 \$1;
#X msg 343 183 6 \$1;
#X msg 197 72 8 \$1;
#X msg 379 183 3 \$1;
#X obj 246 139 print;
#X connect 0 0 4 0;
#X connect 1 0 5 0;
#X connect 3 0 6 0;
#X connect 5 0 8 0;
#X connect 5 1 9 0;
#X connect 5 2 10 0;
#X connect 5 3 22 0;
#X connect 5 4 7 0;
#X connect 5 5 14 0;
#X connect 5 6 20 0;
#X connect 5 7 18 0;
#X connect 5 8 16 0;
#X connect 6 0 0 0;
#X connect 6 1 11 0;
#X connect 6 2 12 0;
#X connect 6 3 13 0;
#X connect 6 4 15 0;
#X connect 6 5 17 0;
#X connect 6 6 19 0;
#X connect 6 7 21 0;
#X connect 6 8 23 0;
#X connect 7 0 2 0;
#X connect 8 0 2 0;
#X connect 9 0 2 0;
#X connect 10 0 2 0;
#X connect 11 0 4 0;
#X connect 12 0 4 0;
#X connect 13 0 4 0;
#X connect 14 0 2 0;
#X connect 15 0 4 0;
#X connect 16 0 2 0;
#X connect 17 0 4 0;
#X connect 18 0 2 0;
#X connect 19 0 4 0;
#X connect 20 0 2 0;
#X connect 21 0 4 0;
#X connect 22 0 2 0;
#X connect 23 0 4 0;
#X restore 437 76 pd rotob-l;
#X obj 262 142 r fromTeleco;
#X msg 262 247 Syllabo \$1;
#X obj 262 273 s ClochesMode;
#X obj 262 218 sel t;
#X obj 262 312 r ClochesMode;
#X obj 262 335 route Syllabo;
#X obj 262 381 t s s;
#X obj 262 358 symbol;
#X msg 262 404 switch_sylla \$1;
#X obj 262 427 s toTeleco;
#X obj 262 191 symbol;
#X obj 363 274 s ClochesMode;
#X obj 363 219 sel t;
#X obj 363 313 r ClochesMode;
#X obj 363 382 t s s;
#X obj 363 359 symbol;
#X obj 363 428 s toTeleco;
#X obj 363 192 symbol;
#X msg 363 405 switch_repie \$1;
#X msg 363 249 Repie \$1;
#X obj 363 336 route Repie;
#X obj 841 65 r fromTeleco;
#X obj 841 88 route MyoToRoto;
#X obj 822 141 tgl 15 0 empty empty empty 17 7 0 10 #fcfcfc #000000 #000000 0 1;
#X obj 839 164 r fromTeleco;
#X obj 839 211 s INPUT_SET_CHAN;
#X obj 842 352 r INPUT_VU;
#X msg 842 376 inputVu \$1;
#X obj 842 399 s toTeleco;
#X obj 839 187 route inputChannel;
#X obj 841 139 s \$1-myo-to-roto;
#X obj 471 306 r ClochesMode;
#X obj 471 375 t s s;
#X obj 471 352 symbol;
#X obj 471 421 s toTeleco;
#X obj 471 329 route Myo;
#X msg 471 398 switch_myo \$1;
#X obj 471 275 s ClochesMode;
#X obj 471 220 sel t;
#X obj 471 193 symbol;
#X msg 471 250 Myo \$1;
#X obj 708 143 r fromTeleco;
#X obj 689 194 tgl 15 0 empty empty empty 17 7 0 10 #fcfcfc #000000 #000000 0 1;
#X obj 708 166 route AutoGamme;
#X obj 708 212 s AutoGamme;
#X obj 841 428 r fromTeleco;
#X obj 841 451 route Refresh;
#X obj 841 496 s OSCRefresh;
#X obj 841 473 b;
#X obj 190 298 r OSCRefresh;
#X obj 841 113 f;
#X obj 806 38 r OSCRefresh;
#X obj 187 346 bng 15 250 50 0 empty empty empty 17 7 0 10 #fcfcfc #000000 #000000;
#X obj 839 261 f 1;
#X obj 839 238 r INPUT_SET_CHAN;
#X msg 839 303 inputChannel \$1;
#X obj 839 325 s toTeleco;
#X obj 839 282 change;
#X obj 708 189 change -1;
#X obj 709 245 r AutoGamme;
#X obj 709 268 f 1;
#X msg 709 291 AutoGamme \$1;
#X obj 709 314 s toTeleco;
#X obj 262 166 route switch_sylla switch_repie switch_myo switch_roto;
#X obj 567 308 r ClochesMode;
#X obj 567 377 t s s;
#X obj 567 354 symbol;
#X obj 567 423 s toTeleco;
#X obj 567 277 s ClochesMode;
#X obj 567 222 sel t;
#X obj 567 195 symbol;
#X msg 567 252 Roto \$1;
#X obj 567 331 route Roto;
#X msg 567 400 switch_roto \$1;
#X listbox 602 451 20 0 0 0 - - - 0;
#N canvas 106 424 450 300 sylla-l 0;
#X obj 88 136 r \$1-s-snd;
#X obj 91 12 r \$1-sylla-l-rcv;
#X obj 91 107 s \$1-s-rcv;
#X obj 88 231 s \$1-sylla-l-snd;
#X obj 91 35 unpack f f;
#X obj 91 58 + 1;
#X obj 91 81 pack f f, f 10;
#X obj 88 159 unpack f f;
#X obj 88 205 pack f f, f 10;
#X obj 88 182 - 1;
#X connect 0 0 7 0;
#X connect 1 0 4 0;
#X connect 4 0 5 0;
#X connect 4 1 6 1;
#X connect 5 0 6 0;
#X connect 6 0 2 0;
#X connect 7 0 9 0;
#X connect 7 1 8 1;
#X connect 8 0 3 0;
#X connect 9 0 8 0;
#X restore 444 53 pd sylla-l;
#X obj 262 35 syncCloche \$1 Repie rep-l;
#N canvas 181 119 450 300 rep-l 0;
#X obj 88 138 r \$1-rep-snd;
#X obj 88 238 s \$1-rep-l-snd;
#X obj 91 11 r \$1-rep-l-rcv;
#X obj 91 107 s \$1-rep-rcv;
#X obj 91 35 unpack f f;
#X obj 91 58 + 1;
#X obj 91 81 pack f f, f 10;
#X obj 88 167 unpack f f;
#X obj 88 213 pack f f, f 10;
#X obj 88 190 - 1;
#X connect 0 0 7 0;
#X connect 2 0 4 0;
#X connect 4 0 5 0;
#X connect 4 1 6 1;
#X connect 5 0 6 0;
#X connect 6 0 3 0;
#X connect 7 0 9 0;
#X connect 7 1 8 1;
#X connect 8 0 1 0;
#X connect 9 0 8 0;
#X restore 438 29 pd rep-l;
#X obj 262 56 syncCloche \$1 Sylla sylla-l;
#X obj 1000 150 r fromTeleco;
#X obj 981 201 tgl 15 0 empty empty empty 17 7 0 10 #fcfcfc #000000 #000000 0 1;
#X obj 1000 196 change -1;
#X obj 1001 275 f 1;
#X obj 1001 321 s toTeleco;
#X obj 1000 173 route Monitor12;
#X obj 1000 219 s Monitor12;
#X obj 1001 252 r Monitor12;
#X msg 1001 298 Monitor12 \$1;
#X connect 0 0 1 0;
#X connect 1 0 10 0;
#X connect 2 0 5 0;
#X connect 3 0 4 0;
#X connect 4 0 2 0;
#X connect 6 0 7 0;
#X connect 7 0 2 0;
#X connect 8 0 6 0;
#X connect 9 0 8 0;
#X connect 10 0 11 0;
#X connect 12 0 9 0;
#X connect 13 0 6 0;
#X connect 18 0 81 0;
#X connect 19 0 20 0;
#X connect 21 1 19 0;
#X connect 22 0 23 0;
#X connect 23 0 25 0;
#X connect 24 0 26 0;
#X connect 24 1 21 1;
#X connect 25 0 24 0;
#X connect 26 0 27 0;
#X connect 28 0 21 0;
#X connect 30 1 37 0;
#X connect 31 0 38 0;
#X connect 32 0 36 0;
#X connect 32 1 30 1;
#X connect 33 0 32 0;
#X connect 35 0 30 0;
#X connect 36 0 34 0;
#X connect 37 0 29 0;
#X connect 38 0 33 0;
#X connect 39 0 40 0;
#X connect 40 0 41 0;
#X connect 40 0 68 0;
#X connect 42 0 47 0;
#X connect 44 0 45 0;
#X connect 45 0 46 0;
#X connect 47 0 43 0;
#X connect 49 0 53 0;
#X connect 50 0 54 0;
#X connect 50 1 56 1;
#X connect 51 0 50 0;
#X connect 53 0 51 0;
#X connect 54 0 52 0;
#X connect 56 1 58 0;
#X connect 57 0 56 0;
#X connect 58 0 55 0;
#X connect 59 0 61 0;
#X connect 61 0 60 0;
#X connect 61 0 76 0;
#X connect 63 0 64 0;
#X connect 64 0 66 0;
#X connect 66 0 65 0;
#X connect 67 0 25 0;
#X connect 67 0 33 0;
#X connect 67 0 51 0;
#X connect 67 0 70 0;
#X connect 67 0 84 0;
#X connect 68 0 48 0;
#X connect 69 0 68 0;
#X connect 69 0 71 0;
#X connect 69 0 78 0;
#X connect 69 0 100 0;
#X connect 71 0 75 0;
#X connect 72 0 71 0;
#X connect 73 0 74 0;
#X connect 75 0 73 0;
#X connect 76 0 62 0;
#X connect 77 0 78 0;
#X connect 78 0 79 0;
#X connect 79 0 80 0;
#X connect 81 0 28 0;
#X connect 81 1 35 0;
#X connect 81 2 57 0;
#X connect 82 0 90 0;
#X connect 83 0 91 0;
#X connect 83 1 87 1;
#X connect 83 1 92 0;
#X connect 84 0 83 0;
#X connect 87 1 89 0;
#X connect 88 0 87 0;
#X connect 89 0 86 0;
#X connect 90 0 84 0;
#X connect 91 0 85 0;
#X connect 97 0 102 0;
#X connect 99 0 103 0;
#X connect 100 0 105 0;
#X connect 102 0 98 0;
#X connect 102 0 99 0;
#X connect 104 0 100 0;
#X connect 105 0 101 0;
