#N canvas 1992 575 793 643 12;
#X obj 31 74 route \$1;
#X obj 31 99 tgl 15 0 empty empty empty 17 7 0 10 -262144 -1 -1 0 1
;
#X obj 31 49 r \$2-keys;
#X obj 31 119 t f f;
#X obj 63 143 sel 1;
#X obj 63 193 +;
#X obj 157 118 loadbang;
#X obj 157 143 f \$1;
#X obj 63 243 gammabs/gammeRound /GAMME 200;
#X obj 32 390 *~;
#X obj 32 514 outlet~;
#X obj 32 8 inlet;
#X obj 313 159 osc~ 0.2;
#X obj 313 184 *~ 2;
#X obj 313 209 +~ 5;
#X obj 313 234 osc~;
#X obj 313 284 +~ 1;
#X obj 368 258 line~;
#X obj 313 259 *~;
#X obj 313 82 random 1000;
#X obj 313 107 / 1000;
#X obj 313 132 * 0.2;
#X obj 409 25 b;
#X obj 431 83 random 1000;
#X obj 431 108 / 1000;
#X obj 528 82 random 1000;
#X obj 528 107 / 1000;
#X obj 431 133 * 1;
#X obj 528 157 + 2;
#X obj 528 132 * 2;
#X msg 368 233 0 \, 0.003 2000;
#X obj 63 168 random 15;
#X obj 63 329 ssaw~;
#X obj 33 478 moog~;
#X obj 78 478 sig~ 3;
#X obj 213 468 mtof~;
#X obj 448 344 noise~;
#X obj 448 419 *~ 5000;
#X obj 448 369 lop~ 0.05;
#X obj 447 394 lop~ 0.4;
#X obj 213 439 +~;
#X obj 213 386 *~ 55;
#X obj 630 158 noise~;
#X obj 630 183 lop~ 0.05;
#X obj 629 208 lop~ 0.4;
#X obj 703 157 noise~;
#X obj 703 182 lop~ 0.05;
#X obj 702 207 lop~ 0.4;
#X obj 213 410 +~ 62;
#X obj 631 282 osc~;
#X obj 631 307 *~;
#X obj 614 333 *~;
#X obj 63 306 mtof~;
#X obj 63 274 +~;
#X obj 631 257 +~ 6;
#X obj 630 233 *~ 500;
#X obj 703 232 *~ 100;
#X obj 31 365 eadsr~ 50 300 0.8 2000;
#X obj 213 360 eadsr~ 7000 6000 0.2 5000;
#X obj 522 293 ear~ 8000 2000;
#X obj 63 218 + 40.01;
#X obj 157 168 * 12;
#X connect 0 0 1 0;
#X connect 1 0 3 0;
#X connect 2 0 0 0;
#X connect 3 0 57 0;
#X connect 3 0 58 0;
#X connect 3 0 59 0;
#X connect 3 1 4 0;
#X connect 4 0 22 0;
#X connect 4 0 31 0;
#X connect 5 0 60 0;
#X connect 6 0 7 0;
#X connect 7 0 61 0;
#X connect 8 0 53 0;
#X connect 9 0 33 0;
#X connect 12 0 13 0;
#X connect 13 0 14 0;
#X connect 14 0 15 0;
#X connect 15 0 18 0;
#X connect 17 0 18 1;
#X connect 18 0 16 0;
#X connect 19 0 20 0;
#X connect 20 0 21 0;
#X connect 21 0 12 0;
#X connect 22 0 19 0;
#X connect 22 0 30 0;
#X connect 22 0 23 0;
#X connect 22 0 25 0;
#X connect 23 0 24 0;
#X connect 24 0 27 0;
#X connect 25 0 26 0;
#X connect 26 0 29 0;
#X connect 27 0 13 1;
#X connect 28 0 14 1;
#X connect 29 0 28 0;
#X connect 30 0 17 0;
#X connect 31 0 5 0;
#X connect 32 0 9 1;
#X connect 33 0 10 0;
#X connect 34 0 33 2;
#X connect 35 0 33 1;
#X connect 36 0 38 0;
#X connect 37 0 40 1;
#X connect 38 0 39 0;
#X connect 39 0 37 0;
#X connect 40 0 35 0;
#X connect 41 0 48 0;
#X connect 42 0 43 0;
#X connect 43 0 44 0;
#X connect 44 0 55 0;
#X connect 45 0 46 0;
#X connect 46 0 47 0;
#X connect 47 0 56 0;
#X connect 48 0 40 0;
#X connect 49 0 50 0;
#X connect 50 0 51 1;
#X connect 51 0 53 1;
#X connect 52 0 32 0;
#X connect 53 0 52 0;
#X connect 54 0 49 0;
#X connect 55 0 54 0;
#X connect 56 0 50 1;
#X connect 57 0 9 0;
#X connect 58 0 41 0;
#X connect 59 0 51 0;
#X connect 60 0 8 0;
#X connect 61 0 5 1;
