#N canvas 448 194 764 651 12;
#X obj 27 104 array get \$2-case-table \$1 1;
#X obj 118 25 bng 20 250 50 0 empty empty empty 0 -10 0 12 #fcfcfc #000000 #000000;
#X obj 27 24 r \$2-keys;
#X obj 27 49 route \$1;
#X obj 27 74 sel 1;
#X floatatom 53 134 5 0 0 0 - - - 0;
#X obj 27 615 s \$2-play_voice;
#X obj 262 24 r \$2-case-change-fx;
#X obj 262 49 sel \$1;
#X obj 27 362 list append 1 1;
#X text 72 342 amp LR;
#X obj 262 74 s \$0-change-fx;
#X obj 154 136 r \$0-change-fx;
#X obj 27 415 list append 1 1, f 52;
#X text 68 393 hip LR;
#X obj 27 490 list append 1 1, f 75;
#X text 68 468 del LR;
#X obj 27 583 list append 0;
#X obj 115 559 random 2;
#X obj 115 534 r \$0-change-fx;
#X text 56 562 swapout;
#X obj 388 287 r \$0-change-fx;
#X obj 388 312 t b b, f 12;
#X obj 388 362 mtof;
#X obj 388 387 pack f f, f 12;
#X obj 469 362 mtof;
#X obj 553 245 r \$0-change-fx;
#X obj 553 270 t b b, f 14;
#X obj 553 395 pack f f, f 14;
#X obj 553 295 random 10000;
#X obj 553 320 / 10000;
#X obj 553 345 pow 2;
#X obj 648 296 random 10000;
#X obj 648 321 / 10000;
#X obj 648 346 pow 2;
#X listbox 553 420 20 0 0 0 - - - 0;
#X obj 317 47 bng 20 250 50 0 empty empty empty 0 -10 0 12 #fcfcfc #000000 #000000;
#X obj 388 337 random 80;
#X obj 469 337 random 80;
#X obj 154 192 random 10000;
#X obj 154 217 / 10000;
#X obj 154 242 t f f, f 12;
#X obj 235 265 * -1;
#X obj 235 290 + 1;
#X obj 235 315 sqrt;
#X obj 154 267 sqrt;
#X obj 154 364 pack f f, f 12;
#X obj 448 90 bng 20 250 50 0 empty empty empty 0 -10 0 12 #fcfcfc #000000 #000000;
#X obj 107 62 t b b;
#X obj 305 187 random 5;
#X obj 305 212 sel 0 1, f 13;
#X msg 305 237 1 -1;
#X msg 349 237 -1 1;
#X msg 393 236 1 1;
#X obj 154 162 t b b, f 22;
#X obj 235 340 *;
#X obj 154 316 *;
#X obj 305 262 unpack f f;
#X listbox 154 389 20 0 0 0 - - - 0;
#X obj 553 370 * 80;
#X obj 648 371 * 80;
#X connect 0 0 5 0;
#X connect 0 0 9 0;
#X connect 1 0 48 0;
#X connect 2 0 3 0;
#X connect 3 0 4 0;
#X connect 4 0 0 0;
#X connect 7 0 8 0;
#X connect 8 0 11 0;
#X connect 9 0 13 0;
#X connect 12 0 54 0;
#X connect 13 0 15 0;
#X connect 15 0 17 0;
#X connect 17 0 6 0;
#X connect 18 0 17 1;
#X connect 19 0 18 0;
#X connect 21 0 22 0;
#X connect 22 0 37 0;
#X connect 22 1 38 0;
#X connect 23 0 24 0;
#X connect 24 0 13 1;
#X connect 25 0 24 1;
#X connect 26 0 27 0;
#X connect 27 0 29 0;
#X connect 27 1 32 0;
#X connect 28 0 15 1;
#X connect 28 0 35 0;
#X connect 29 0 30 0;
#X connect 30 0 31 0;
#X connect 31 0 59 0;
#X connect 32 0 33 0;
#X connect 33 0 34 0;
#X connect 34 0 60 0;
#X connect 36 0 11 0;
#X connect 37 0 23 0;
#X connect 38 0 25 0;
#X connect 39 0 40 0;
#X connect 40 0 41 0;
#X connect 41 0 45 0;
#X connect 41 1 42 0;
#X connect 42 0 43 0;
#X connect 43 0 44 0;
#X connect 44 0 55 0;
#X connect 45 0 56 0;
#X connect 46 0 9 1;
#X connect 46 0 58 0;
#X connect 47 0 36 0;
#X connect 48 0 0 0;
#X connect 48 1 47 0;
#X connect 49 0 50 0;
#X connect 50 0 51 0;
#X connect 50 1 52 0;
#X connect 50 2 53 0;
#X connect 51 0 57 0;
#X connect 52 0 57 0;
#X connect 53 0 57 0;
#X connect 54 0 39 0;
#X connect 54 1 49 0;
#X connect 55 0 46 1;
#X connect 56 0 46 0;
#X connect 57 0 56 1;
#X connect 57 1 55 1;
#X connect 59 0 28 0;
#X connect 60 0 28 1;
